<?xml version="1.0" encoding="UTF-8" standalone="no"?>
<!-- Created with Inkscape (http://www.inkscape.org/) -->

<svg
   xmlns:svg="http://www.w3.org/2000/svg"
   xmlns="http://www.w3.org/2000/svg"
   version="1.1"
   width="425"
   height="93.75"
   id="svg2"
   xml:space="preserve"><defs
     id="defs6"><clipPath
       id="clipPath20"><path
         d="M 0,0 340,0 340,75 0,75 0,0 z"
         id="path22" /></clipPath><clipPath
       id="clipPath30"><path
         d="m 0,75 340,0 0,-75.000001106673 -340,0 L 0,75 z"
         id="path32" /></clipPath><clipPath
       id="clipPath36"><path
         d="M 0,0 340,0 340,75 0,75 0,0 z"
         id="path38" /></clipPath></defs><g
     transform="matrix(1.25,0,0,-1.25,0,93.75)"
     id="g12"><g
       id="g14" /><g
       id="g16"><g
         clip-path="url(#clipPath20)"
         id="g18"><path
           d="M 0,75 340,75 340,0 0,0 0,75 z"
           id="path24"
           style="fill:#ffffff;fill-opacity:0;fill-rule:evenodd;stroke:none" /></g></g><g
       id="g26"><g
         clip-path="url(#clipPath30)"
         id="g28"><g
           clip-path="url(#clipPath36)"
           id="g34"><g
             transform="matrix(1,0,0,-1,0,75)"
             id="g40"><text
               transform="translate(2,10)"
               id="text42"><tspan
                 x="0 6.0009999 12.002 18.003 24.004 30.004999 36.006001 42.007 48.007999 54.008999 60.009998 66.011002 72.012001 78.013 84.014 90.014999 96.015999 102.017 108.018 114.019 120.02"
                 y="0"
                 id="tspan44"
                 style="font-size:10px;font-variant:normal;font-weight:normal;writing-mode:lr-tb;fill:#000000;fill-opacity:1;fill-rule:nonzero;stroke:none;font-family:Courier New;-inkscape-font-specification:Courier">has_wife:-man,married</tspan></text>
</g><g
             transform="matrix(1,0,0,-1,0,75)"
             id="g46"><text
               transform="translate(174,10)"
               id="text48"><tspan
                 x="0 6.0009999 12.002 18.003 24.004 30.004999 36.006001 42.007 48.007999 54.008999 60.009998 66.011002 72.012001 78.013 84.014 90.014999 96.015999 102.017 108.018 114.019 120.02 126.021 132.022 138.02299 144.024 150.02499 156.026"
                 y="0"
                 id="tspan50"
                 style="font-size:10px;font-variant:normal;font-weight:normal;writing-mode:lr-tb;fill:#000000;fill-opacity:1;fill-rule:nonzero;stroke:none;font-family:Courier New;-inkscape-font-specification:Courier">married;bachelor:-man,adult</tspan></text>
</g><g
             transform="matrix(1,0,0,-1,0,75)"
             id="g52"><text
               transform="translate(83,71)"
               id="text54"><tspan
                 x="0 6.0009999 12.002 18.003 24.004 30.004999 36.006001 42.007 48.007999 54.008999 60.009998 66.011002 72.012001 78.013 84.014 90.014999 96.015999 102.017 108.018 114.019 120.02 126.021 132.022 138.02299 144.024 150.02499 156.026 162.02699"
                 y="0"
                 id="tspan56"
                 style="font-size:10px;font-variant:normal;font-weight:normal;writing-mode:lr-tb;fill:#000000;fill-opacity:1;fill-rule:nonzero;stroke:none;font-family:Courier New;-inkscape-font-specification:Courier">has_wife;bachelor:-man,adult</tspan></text>
</g><g
             transform="matrix(1,0,0,-1,0,75)"
             id="g58"><path
               d="m 86,14.5 43,0"
               id="path60"
               style="fill:none;stroke:#000000;stroke-width:1;stroke-linecap:butt;stroke-linejoin:miter;stroke-miterlimit:10;stroke-opacity:1;stroke-dasharray:none" /></g><g
             transform="matrix(1,0,0,-1,0,75)"
             id="g62"><path
               d="m 174,14.5 44,0"
               id="path64"
               style="fill:none;stroke:#000000;stroke-width:1;stroke-linecap:butt;stroke-linejoin:miter;stroke-miterlimit:10;stroke-opacity:1;stroke-dasharray:none" /></g><path
             d="m 103,15 -9.92546,1.21869 c 0.34539,2.81296 1.86815,5.34727 4.1897,6.97283"
             id="path66"
             style="fill:#000000;fill-opacity:1;fill-rule:evenodd;stroke:none" /><path
             d="m 28,60 0.25,0 71,-43 0,-0.25 -0.25,0 -71,43"
             id="path68"
             style="fill:#000000;fill-opacity:1;fill-rule:nonzero;stroke:none" /><path
             d="m 201,16 -9.9619,-0.87156 c -0.2471,2.82331 0.7155,5.61882 2.6484,7.69154"
             id="path70"
             style="fill:#000000;fill-opacity:1;fill-rule:evenodd;stroke:none" /><path
             d="m 72,61 0.25,0 125,-44 0,-0.25 -0.25,0 -125,44"
             id="path72"
             style="fill:#000000;fill-opacity:1;fill-rule:nonzero;stroke:none" /><path
             d="m 152,15 6.4279,7.66045 c 2.171,-1.82172 3.4671,-4.4791 3.566,-7.31145"
             id="path74"
             style="fill:#000000;fill-opacity:1;fill-rule:evenodd;stroke:none" /><path
             d="m 244,61 0.25,0 0,-0.25 -88,-44 -0.25,0 0,0.25"
             id="path76"
             style="fill:#000000;fill-opacity:1;fill-rule:nonzero;stroke:none" /><path
             d="m 209,15 6.0181,7.98635 c 2.2634,-1.70559 3.6968,-4.29149 3.9438,-7.11479"
             id="path78"
             style="fill:#000000;fill-opacity:1;fill-rule:evenodd;stroke:none" /><path
             d="m 292,61 0.25,0 0,-0.25 -79,-44 -0.25,0 0,0.25"
             id="path80"
             style="fill:#000000;fill-opacity:1;fill-rule:nonzero;stroke:none" /><path
             d="m 237,15 6.0181,7.98635 c 2.2634,-1.70559 3.6968,-4.29149 3.9438,-7.11479"
             id="path82"
             style="fill:#000000;fill-opacity:1;fill-rule:evenodd;stroke:none" /><path
             d="m 320,61 0.25,0 0,-0.25 -79,-44 -0.25,0 0,0.25"
             id="path84"
             style="fill:#000000;fill-opacity:1;fill-rule:nonzero;stroke:none" /></g></g></g></g></svg>