<?xml version="1.0" encoding="UTF-8" standalone="no"?>
<!-- Created with Inkscape (http://www.inkscape.org/) -->

<svg
   xmlns:svg="http://www.w3.org/2000/svg"
   xmlns="http://www.w3.org/2000/svg"
   version="1.1"
   width="213.75"
   height="222.5"
   id="svg2"
   xml:space="preserve"><defs
     id="defs6"><clipPath
       id="clipPath20"><path
         d="M 0,0 171,0 171,178 0,178 0,0 z"
         id="path22" /></clipPath><clipPath
       id="clipPath30"><path
         d="m 0,178 171,0 0,-178.000002626504 -171,0 L 0,178 z"
         id="path32" /></clipPath><clipPath
       id="clipPath36"><path
         d="M 0,0 171,0 171,178 0,178 0,0 z"
         id="path38" /></clipPath></defs><g
     transform="matrix(1.25,0,0,-1.25,0,222.5)"
     id="g12"><g
       id="g14" /><g
       id="g16"><g
         clip-path="url(#clipPath20)"
         id="g18"><path
           d="M 0,178 171,178 171,0 0,0 0,178 z"
           id="path24"
           style="fill:#ffffff;fill-opacity:0;fill-rule:evenodd;stroke:none" /></g></g><g
       id="g26"><g
         clip-path="url(#clipPath30)"
         id="g28"><g
           clip-path="url(#clipPath36)"
           id="g34"><g
             transform="matrix(1,0,0,-1,0,178)"
             id="g40"><text
               transform="translate(45,150)"
               id="text42"><tspan
                 x="0"
                 y="0"
                 id="tspan44"
                 style="font-size:10px;font-variant:normal;font-weight:normal;writing-mode:lr-tb;fill:#000000;fill-opacity:1;fill-rule:nonzero;stroke:none;font-family:Courier New;-inkscape-font-specification:Courier">•</tspan></text>
</g><g
             transform="matrix(1,0,0,-1,0,178)"
             id="g46"><text
               transform="translate(45,162)"
               id="text48"><tspan
                 x="0"
                 y="0"
                 id="tspan50"
                 style="font-size:10px;font-variant:normal;font-weight:normal;writing-mode:lr-tb;fill:#000000;fill-opacity:1;fill-rule:nonzero;stroke:none;font-family:Courier New;-inkscape-font-specification:Courier">•</tspan></text>
</g><g
             transform="matrix(1,0,0,-1,0,178)"
             id="g52"><text
               transform="translate(45,174)"
               id="text54"><tspan
                 x="0"
                 y="0"
                 id="tspan56"
                 style="font-size:10px;font-variant:normal;font-weight:normal;writing-mode:lr-tb;fill:#000000;fill-opacity:1;fill-rule:nonzero;stroke:none;font-family:Courier New;-inkscape-font-specification:Courier">•</tspan></text>
</g><g
             transform="matrix(1,0,0,-1,0,178)"
             id="g58"><text
               transform="translate(105,151)"
               id="text60"><tspan
                 x="-2"
                 y="0"
                 id="tspan62"
                 style="font-size:20px;font-variant:normal;font-weight:normal;writing-mode:lr-tb;fill:#000000;fill-opacity:1;fill-rule:nonzero;stroke:none;font-family:Geneva;-inkscape-font-specification:Geneva">&#x25A1;</tspan></text>
</g><g
             transform="matrix(1,0,0,-1,0,178)"
             id="g64"><text
               transform="translate(14,80)"
               id="text66"><tspan
                 x="0 6.0009999 12.002 18.003 24.004 30.004999 36.006001 42.007 48.007999 54.008999 60.009998 66.011002 72.012001 78.013 84.014 90.014999 96.015999 102.017 108.018 114.019 120.02"
                 y="0"
                 id="tspan68"
                 style="font-size:10px;font-variant:normal;font-weight:normal;writing-mode:lr-tb;fill:#000000;fill-opacity:1;fill-rule:nonzero;stroke:none;font-family:Courier New;-inkscape-font-specification:Courier">:-brother_of(peter,B)</tspan></text>
</g><g
             transform="matrix(1,0,0,-1,0,178)"
             id="g70"><path
               d="m 68.125,84 0,19.25"
               id="path72"
               style="fill:none;stroke:#000000;stroke-width:0.25;stroke-linecap:butt;stroke-linejoin:miter;stroke-miterlimit:10;stroke-opacity:1;stroke-dasharray:none" /></g><path
             d="m 65,63 0.25,0 0,-0.25 -26,-25 -0.25,0 0,0.25"
             id="path74"
             style="fill:#000000;fill-opacity:1;fill-rule:nonzero;stroke:none" /><g
             transform="matrix(1,0,0,-1,0,178)"
             id="g76"><text
               transform="translate(15,112)"
               id="text78"><tspan
                 x="0 6.0009999 12.002 18.003 24.004 30.004999 36.006001 42.007 48.007999 54.008999 60.009998 66.011002 72.012001 78.013 84.014 90.014999 96.015999 102.017 108.018 114.019 120.02"
                 y="0"
                 id="tspan80"
                 style="font-size:10px;font-variant:normal;font-weight:normal;writing-mode:lr-tb;fill:#000000;fill-opacity:1;fill-rule:nonzero;stroke:none;font-family:Courier New;-inkscape-font-specification:Courier">:-brother_of(B,peter)</tspan></text>
</g><path
             d="m 74,63 0.25,0 25,-25 0,-0.25 -0.25,0 -25,25"
             id="path82"
             style="fill:#000000;fill-opacity:1;fill-rule:nonzero;stroke:none" /><g
             transform="matrix(1,0,0,-1,0,178)"
             id="g84"><text
               transform="translate(150,82)"
               id="text86"><tspan
                 x="-2"
                 y="0"
                 id="tspan88"
                 style="font-size:20px;font-variant:normal;font-weight:normal;writing-mode:lr-tb;fill:#000000;fill-opacity:1;fill-rule:nonzero;stroke:none;font-family:Geneva;-inkscape-font-specification:Geneva">&#x25A1;</tspan></text>
</g><g
             transform="matrix(1,0,0,-1,0,178)"
             id="g90"><text
               transform="translate(44,12)"
               id="text92"><tspan
                 x="0 6.0009999 12.002 18.003 24.004 30.004999 36.006001 42.007 48.007999 54.008999 60.009998 66.011002 72.012001 78.013 84.014 90.014999 96.015999 102.017 108.018 114.019 120.02"
                 y="0"
                 id="tspan94"
                 style="font-size:10px;font-variant:normal;font-weight:normal;writing-mode:lr-tb;fill:#000000;fill-opacity:1;fill-rule:nonzero;stroke:none;font-family:Courier New;-inkscape-font-specification:Courier">?-brother_of(peter,B)</tspan></text>
</g><g
             transform="matrix(1,0,0,-1,0,178)"
             id="g96"><path
               d="m 97.12501,16 0,19.25"
               id="path98"
               style="fill:none;stroke:#000000;stroke-width:0.25;stroke-linecap:butt;stroke-linejoin:miter;stroke-miterlimit:10;stroke-opacity:1;stroke-dasharray:none" /></g><path
             d="m 94,132 0.25,0 0,-0.25 -26,-26 -0.25,0 0,0.25"
             id="path100"
             style="fill:#000000;fill-opacity:1;fill-rule:nonzero;stroke:none" /><g
             transform="matrix(1,0,0,-1,0,178)"
             id="g102"><text
               transform="translate(43,43)"
               id="text104"><tspan
                 x="0 6.0009999 12.002 18.003 24.004 30.004999 36.006001 42.007 48.007999 54.008999 60.009998 66.011002 72.012001 78.013 84.014 90.014999 96.015999 102.017 108.018 114.019 120.02"
                 y="0"
                 id="tspan106"
                 style="font-size:10px;font-variant:normal;font-weight:normal;writing-mode:lr-tb;fill:#000000;fill-opacity:1;fill-rule:nonzero;stroke:none;font-family:Courier New;-inkscape-font-specification:Courier">:-brother_of(B,peter)</tspan></text>
</g><path
             d="m 117,132 0.25,0 26,-26 0,-0.25 -0.25,0 -26,26"
             id="path108"
             style="fill:#000000;fill-opacity:1;fill-rule:nonzero;stroke:none" /></g></g></g></g></svg>
