<?xml version="1.0" encoding="UTF-8" standalone="no"?>
<!-- Created with Inkscape (http://www.inkscape.org/) -->

<svg
   xmlns:svg="http://www.w3.org/2000/svg"
   xmlns="http://www.w3.org/2000/svg"
   version="1.1"
   width="548.75"
   height="213.75"
   id="svg2"
   xml:space="preserve"><defs
     id="defs6"><clipPath
       id="clipPath20"><path
         d="M 0,0 439,0 439,171 0,171 0,0 z"
         id="path22" /></clipPath><clipPath
       id="clipPath30"><path
         d="m 0,171 439,0 0,-171.000002523215 -439,0 L 0,171 z"
         id="path32" /></clipPath><clipPath
       id="clipPath36"><path
         d="M 0,0 439,0 439,171 0,171 0,0 z"
         id="path38" /></clipPath></defs><g
     transform="matrix(1.25,0,0,-1.25,0,213.75)"
     id="g12"><g
       id="g14" /><g
       id="g16"><g
         clip-path="url(#clipPath20)"
         id="g18"><path
           d="M 0,171 439,171 439,0 0,0 0,171 z"
           id="path24"
           style="fill:#ffffff;fill-opacity:0;fill-rule:evenodd;stroke:none" /></g></g><g
       id="g26"><g
         clip-path="url(#clipPath30)"
         id="g28"><g
           clip-path="url(#clipPath36)"
           id="g34"><g
             transform="matrix(1,0,0,-1,0,171)"
             id="g40"><text
               transform="translate(350,167)"
               id="text42"><tspan
                 x="-2"
                 y="0"
                 id="tspan44"
                 style="font-size:20px;font-variant:normal;font-weight:normal;writing-mode:lr-tb;fill:#000000;fill-opacity:1;fill-rule:nonzero;stroke:none;font-family:Geneva;-inkscape-font-specification:Geneva">&#x25A1;</tspan></text>
</g><g
             transform="matrix(1,0,0,-1,0,171)"
             id="g46"><text
               transform="translate(134,62)"
               id="text48"><tspan
                 x="0 6.0009999 12.002 18.003 24.004 30.004999 36.006001 42.007 48.007999 54.008999 60.009998 66.011002 72.012001 78.013 84.014 90.014999 96.015999 102.017 108.018 114.019 120.02 126.021 132.022 138.02299 144.024 150.02499 156.026 162.02699 168.028 174.02901 180.03"
                 y="0"
                 id="tspan50"
                 style="font-size:10px;font-variant:normal;font-weight:normal;writing-mode:lr-tb;fill:#000000;fill-opacity:1;fill-rule:nonzero;stroke:none;font-family:Courier New;-inkscape-font-specification:Courier">:-follows(S,C),teaches(peter,C)</tspan></text>
</g><g
             transform="matrix(1,0,0,-1,0,171)"
             id="g52"><text
               transform="translate(137,138)"
               id="text54"><tspan
                 x="0 6.0009999 12.002 18.003 24.004 30.004999 36.006001 42.007 48.007999 54.008999 60.009998 66.011002 72.012001 78.013 84.014 90.014999 96.015999 102.017 108.018 114.019 120.02 126.021 132.022 138.02299 144.024 150.02499 156.026 162.02699 168.028 174.02901 180.03"
                 y="0"
                 id="tspan56"
                 style="font-size:10px;font-variant:normal;font-weight:normal;writing-mode:lr-tb;fill:#000000;fill-opacity:1;fill-rule:nonzero;stroke:none;font-family:Courier New;-inkscape-font-specification:Courier">:-teaches(peter,expert_systems)</tspan></text>
</g><g
             transform="matrix(1,0,0,-1,0,171)"
             id="g58"><text
               transform="translate(161,10)"
               id="text60"><tspan
                 x="0 6.0009999 12.002 18.003 24.004 30.004999 36.006001 42.007 48.007999 54.008999 60.009998 66.011002 72.012001 78.013 84.014 90.014999 96.015999 102.017 108.018 114.019 120.02"
                 y="0"
                 id="tspan62"
                 style="font-size:10px;font-variant:normal;font-weight:normal;writing-mode:lr-tb;fill:#000000;fill-opacity:1;fill-rule:nonzero;stroke:none;font-family:Courier New;-inkscape-font-specification:Courier">?-student_of(S,peter)</tspan></text>
</g><g
             transform="matrix(1,0,0,-1,0,171)"
             id="g64"><text
               transform="translate(3,107)"
               id="text66"><tspan
                 x="0 6.0009999 12.002 18.003 24.004 30.004999 36.006001 42.007 48.007999 54.008999 60.009998 66.011002 72.012001 78.013 84.014 90.014999 96.015999 102.017 108.018 114.019 120.02 126.021 132.022 138.02299 144.024 150.02499 156.026 162.02699 168.028 174.02901 180.03 186.03101 192.032"
                 y="0"
                 id="tspan68"
                 style="font-size:10px;font-variant:normal;font-weight:normal;writing-mode:lr-tb;fill:#000000;fill-opacity:1;fill-rule:nonzero;stroke:none;font-family:Courier New;-inkscape-font-specification:Courier">:-teaches(peter,computer_science)</tspan></text>
</g><g
             transform="matrix(1,0,0,-1,0,171)"
             id="g70"><text
               transform="translate(255,106)"
               id="text72"><tspan
                 x="0 6.0009999 12.002 18.003 24.004 30.004999 36.006001 42.007 48.007999 54.008999 60.009998 66.011002 72.012001 78.013 84.014 90.014999 96.015999 102.017 108.018 114.019 120.02 126.021 132.022 138.02299 144.024 150.02499 156.026 162.02699 168.028 174.02901"
                 y="0"
                 id="tspan74"
                 style="font-size:10px;font-variant:normal;font-weight:normal;writing-mode:lr-tb;fill:#000000;fill-opacity:1;fill-rule:nonzero;stroke:none;font-family:Courier New;-inkscape-font-specification:Courier">:-teaches(peter,ai_techniques)</tspan></text>
</g><g
             transform="matrix(1,0,0,-1,0,171)"
             id="g76"><path
               d="m 217.125,15 0,34.25"
               id="path78"
               style="fill:none;stroke:#000000;stroke-width:0.25;stroke-linecap:butt;stroke-linejoin:miter;stroke-miterlimit:10;stroke-opacity:1;stroke-dasharray:none" /></g><g
             transform="matrix(1,0,0,-1,0,171)"
             id="g80"><path
               d="m 217.125,69 0,58.25"
               id="path82"
               style="fill:none;stroke:#000000;stroke-width:0.25;stroke-linecap:butt;stroke-linejoin:miter;stroke-miterlimit:10;stroke-opacity:1;stroke-dasharray:none" /></g><g
             transform="matrix(1,0,0,-1,0,171)"
             id="g84"><path
               d="m 94.12501,112 0,40.25"
               id="path86"
               style="fill:none;stroke:#000000;stroke-width:0.25;stroke-linecap:butt;stroke-linejoin:miter;stroke-miterlimit:10;stroke-opacity:1;stroke-dasharray:none" /></g><g
             transform="matrix(1,0,0,-1,0,171)"
             id="g88"><path
               d="m 353.125,112 0,40.25"
               id="path90"
               style="fill:none;stroke:#000000;stroke-width:0.25;stroke-linecap:butt;stroke-linejoin:miter;stroke-miterlimit:10;stroke-opacity:1;stroke-dasharray:none" /></g><g
             transform="matrix(1,0,0,-1,0,171)"
             id="g92"><text
               transform="translate(91,167)"
               id="text94"><tspan
                 x="-2"
                 y="0"
                 id="tspan96"
                 style="font-size:20px;font-variant:normal;font-weight:normal;writing-mode:lr-tb;fill:#000000;fill-opacity:1;fill-rule:nonzero;stroke:none;font-family:Geneva;-inkscape-font-specification:Geneva">&#x25A1;</tspan></text>
</g><g
             transform="matrix(1,0,0,-1,0,171)"
             id="g98"><path
               d="m 160,142 125,0"
               id="path100"
               style="fill:none;stroke:#000000;stroke-width:2;stroke-linecap:butt;stroke-linejoin:miter;stroke-miterlimit:10;stroke-opacity:1;stroke-dasharray:none" /></g><path
             d="m 156,105 0.25,0 0,-0.25 -61,-30 -0.25,0 0,0.25"
             id="path102"
             style="fill:#000000;fill-opacity:1;fill-rule:nonzero;stroke:none" /><path
             d="m 287,106 0.25,0 61,-30 0,-0.25 -0.25,0 -61,30"
             id="path104"
             style="fill:#000000;fill-opacity:1;fill-rule:nonzero;stroke:none" /></g></g></g></g></svg>
