<?xml version="1.0" encoding="UTF-8" standalone="no"?>
<!-- Created with Inkscape (http://www.inkscape.org/) -->

<svg
   xmlns:svg="http://www.w3.org/2000/svg"
   xmlns="http://www.w3.org/2000/svg"
   version="1.1"
   width="130"
   height="127.5"
   id="svg2"
   xml:space="preserve"><defs
     id="defs6"><clipPath
       id="clipPath20"><path
         d="M 0,0 104,0 104,102 0,102 0,0 z"
         id="path22" /></clipPath><clipPath
       id="clipPath30"><path
         d="m 0,102 104,0 0,-102.000001505075 -104,0 L 0,102 z"
         id="path32" /></clipPath><clipPath
       id="clipPath36"><path
         d="M 0,0 104,0 104,102 0,102 0,0 z"
         id="path38" /></clipPath></defs><g
     transform="matrix(1.25,0,0,-1.25,0,127.5)"
     id="g12"><g
       id="g14" /><g
       id="g16"><g
         clip-path="url(#clipPath20)"
         id="g18"><path
           d="M 0,102 104,102 104,0 0,0 0,102 z"
           id="path24"
           style="fill:#ffffff;fill-opacity:0;fill-rule:evenodd;stroke:none" /></g></g><g
       id="g26"><g
         clip-path="url(#clipPath30)"
         id="g28"><g
           clip-path="url(#clipPath36)"
           id="g34"><g
             transform="matrix(1,0,0,-1,0,102)"
             id="g40"><text
               transform="translate(51,10)"
               id="text42"><tspan
                 x="0 6.0009999 12.002"
                 y="0"
                 id="tspan44"
                 style="font-size:10px;font-variant:normal;font-weight:normal;writing-mode:lr-tb;fill:#000000;fill-opacity:1;fill-rule:nonzero;stroke:none;font-family:Courier New;-inkscape-font-specification:Courier">?-p</tspan></text>
</g><path
             d="m 47,89 0.25,0 0,-0.25 -20,-22 -0.25,0 0,0.25"
             id="path46"
             style="fill:#000000;fill-opacity:1;fill-rule:nonzero;stroke:none" /><path
             d="m 67,89 0.25,0 20,-22 0,-0.25 -0.25,0 -20,22"
             id="path48"
             style="fill:#000000;fill-opacity:1;fill-rule:nonzero;stroke:none" /><g
             transform="matrix(1,0,0,-1,0,102)"
             id="g50"><text
               transform="translate(1,48)"
               id="text52"><tspan
                 x="0 6.0009999 12.002 18.003 24.004 30.004999 36.006001"
                 y="0"
                 id="tspan54"
                 style="font-size:10px;font-variant:normal;font-weight:normal;writing-mode:lr-tb;fill:#000000;fill-opacity:1;fill-rule:nonzero;stroke:none;font-family:Courier New;-inkscape-font-specification:Courier">:-q,!,r</tspan></text>
</g><g
             transform="matrix(1,0,0,-1,0,102)"
             id="g56"><path
               d="m 9,52.5 29,0"
               id="path58"
               style="fill:none;stroke:#000000;stroke-width:1;stroke-linecap:butt;stroke-linejoin:miter;stroke-miterlimit:10;stroke-opacity:1;stroke-dasharray:none" /></g><g
             transform="matrix(1,0,0,-1,0,102)"
             id="g60"><text
               transform="translate(85,98)"
               id="text62"><tspan
                 x="-2.5"
                 y="0.75"
                 id="tspan64"
                 style="font-size:20px;font-variant:normal;font-weight:normal;writing-mode:lr-tb;fill:#000000;fill-opacity:1;fill-rule:nonzero;stroke:none;font-family:Geneva;-inkscape-font-specification:Geneva">&#x25A1;</tspan></text>
</g><g
             transform="matrix(1,0,0,-1,0,102)"
             id="g66"><text
               transform="translate(79,50)"
               id="text68"><tspan
                 x="0 6.0009999 12.002"
                 y="0"
                 id="tspan70"
                 style="font-size:10px;font-variant:normal;font-weight:normal;writing-mode:lr-tb;fill:#000000;fill-opacity:1;fill-rule:nonzero;stroke:none;font-family:Courier New;-inkscape-font-specification:Courier">:-s</tspan></text>
</g><g
             transform="matrix(1,0,0,-1,0,102)"
             id="g72"><path
               d="m 88.12501,57 0,29.25"
               id="path74"
               style="fill:none;stroke:#000000;stroke-width:0.25;stroke-linecap:butt;stroke-linejoin:miter;stroke-miterlimit:10;stroke-opacity:1;stroke-dasharray:none" /></g></g></g></g></g></svg>
