<?xml version="1.0" encoding="UTF-8" standalone="no"?>
<!-- Created with Inkscape (http://www.inkscape.org/) -->

<svg
   xmlns:svg="http://www.w3.org/2000/svg"
   xmlns="http://www.w3.org/2000/svg"
   version="1.1"
   width="563.75"
   height="556.25"
   id="svg2"
   xml:space="preserve"><defs
     id="defs6"><clipPath
       id="clipPath20"><path
         d="M 0,0 451,0 451,445 0,445 0,0 z"
         id="path22" /></clipPath><clipPath
       id="clipPath30"><path
         d="m 0,445 451,0 0,-445.000006566261 -451,0 L 0,445 z"
         id="path32" /></clipPath><clipPath
       id="clipPath36"><path
         d="M 0,0 451,0 451,445 0,445 0,0 z"
         id="path38" /></clipPath></defs><g
     transform="matrix(1.25,0,0,-1.25,0,556.25)"
     id="g12"><g
       id="g14" /><g
       id="g16"><g
         clip-path="url(#clipPath20)"
         id="g18"><path
           d="M 0,445 451,445 451,0 0,0 0,445 z"
           id="path24"
           style="fill:#ffffff;fill-opacity:0;fill-rule:evenodd;stroke:none" /></g></g><g
       id="g26"><g
         clip-path="url(#clipPath30)"
         id="g28"><g
           clip-path="url(#clipPath36)"
           id="g34"><g
             transform="matrix(1,0,0,-1,0,445)"
             id="g40"><text
               transform="translate(2,10)"
               id="text42"><tspan
                 x="0 6.0009999 12.002 18.003 24.004 30.004999 36.006001 42.007 48.007999 54.008999 60.009998 66.011002 72.012001 78.013 84.014 90.014999 96.015999 102.017 108.018 114.019 120.02 126.021 132.022"
                 y="0"
                 id="tspan44"
                 style="font-size:10px;font-variant:normal;font-weight:normal;writing-mode:lr-tb;fill:#000000;fill-opacity:1;fill-rule:nonzero;stroke:none;font-family:Courier New;-inkscape-font-specification:Courier">?-length_acc([a,b,c],N)</tspan></text>
</g><g
             transform="matrix(1,0,0,-1,0,445)"
             id="g46"><path
               d="m 57.125,16 0,36.25"
               id="path48"
               style="fill:none;stroke:#000000;stroke-width:0.25;stroke-linecap:butt;stroke-linejoin:miter;stroke-miterlimit:10;stroke-opacity:1;stroke-dasharray:none" /></g><path
             d="m 252,429 0.25,0 0,-0.25 -171,-36 -0.25,0 0,0.25"
             id="path50"
             style="fill:#000000;fill-opacity:1;fill-rule:nonzero;stroke:none" /><g
             transform="matrix(1,0,0,-1,0,445)"
             id="g52"><text
               transform="translate(65,441)"
               id="text54"><tspan
                 x="-1.5"
                 y="0"
                 id="tspan56"
                 style="font-size:20px;font-variant:normal;font-weight:normal;writing-mode:lr-tb;fill:#000000;fill-opacity:1;fill-rule:nonzero;stroke:none;font-family:Geneva;-inkscape-font-specification:Geneva">&#x25A1;</tspan></text>
</g><g
             transform="matrix(1,0,0,-1,0,445)"
             id="g58"><text
               transform="translate(169,10)"
               id="text60"><tspan
                 x="0 6.0009999 12.002 18.003 24.004 30.004999 36.006001 42.007 48.007999 54.008999 60.009998 66.011002 72.012001 78.013 84.014 90.014999 96.015999 102.017 108.018 114.019 120.02 126.021 132.022 138.02299 144.024 150.02499 156.026 162.02699 168.028 174.02901 180.03 186.03101 192.032 198.033"
                 y="0"
                 id="tspan62"
                 style="font-size:10px;font-variant:normal;font-weight:normal;writing-mode:lr-tb;fill:#000000;fill-opacity:1;fill-rule:nonzero;stroke:none;font-family:Courier New;-inkscape-font-specification:Courier">length_acc(L,N):-length_acc(L,0,N)</tspan></text>
</g><g
             transform="matrix(1,0,0,-1,0,445)"
             id="g64" /><g
             transform="matrix(1,0,0,-1,0,445)"
             id="g66"><text
               transform="translate(2,63)"
               id="text68"><tspan
                 x="0 6.0009999 12.002 18.003 24.004 30.004999 36.006001 42.007 48.007999 54.008999 60.009998 66.011002 72.012001 78.013 84.014 90.014999 96.015999 102.017 108.018 114.019 120.02 126.021 132.022 138.02299 144.024"
                 y="0"
                 id="tspan70"
                 style="font-size:10px;font-variant:normal;font-weight:normal;writing-mode:lr-tb;fill:#000000;fill-opacity:1;fill-rule:nonzero;stroke:none;font-family:Courier New;-inkscape-font-specification:Courier">:-length_acc([a,b,c],0,N)</tspan></text>
</g><g
             transform="matrix(1,0,0,-1,0,445)"
             id="g72"><path
               d="m 57.125,69 0,36.25"
               id="path74"
               style="fill:none;stroke:#000000;stroke-width:0.25;stroke-linecap:butt;stroke-linejoin:miter;stroke-miterlimit:10;stroke-opacity:1;stroke-dasharray:none" /></g><path
             d="m 253,377 0.25,0 0,-0.25 -171,-36 -0.25,0 0,0.25"
             id="path76"
             style="fill:#000000;fill-opacity:1;fill-rule:nonzero;stroke:none" /><g
             transform="matrix(1,0,0,-1,0,445)"
             id="g78"><text
               transform="translate(170,62)"
               id="text80"><tspan
                 x="0 6.0009999 12.002 18.003 24.004 30.004999 36.006001 42.007 48.007999 54.008999 60.009998 66.011002 72.012001 78.013 84.014 90.014999 96.015999 102.017 108.018 114.019 120.02 126.021 132.022 138.02299 144.024 150.02499 156.026 162.02699 168.028 174.02901 180.03 186.03101 192.032 198.033 204.034 210.035 216.036 222.037 228.03799"
                 y="0"
                 id="tspan82"
                 style="font-size:10px;font-variant:normal;font-weight:normal;writing-mode:lr-tb;fill:#000000;fill-opacity:1;fill-rule:nonzero;stroke:none;font-family:Courier New;-inkscape-font-specification:Courier">length_acc([H|T],N10,N1):-N11 is N10+1,</tspan></text>
</g><g
             transform="matrix(1,0,0,-1,0,445)"
             id="g84"><text
               transform="translate(326.026,74)"
               id="text86"><tspan
                 x="0 6.0009999 12.002 18.003 24.004 30.004999 36.006001 42.007 48.007999 54.008999 60.009998 66.011002 72.012001 78.013 84.014 90.014999 96.015999 102.017 108.018 114.019"
                 y="0"
                 id="tspan88"
                 style="font-size:10px;font-variant:normal;font-weight:normal;writing-mode:lr-tb;fill:#000000;fill-opacity:1;fill-rule:nonzero;stroke:none;font-family:Courier New;-inkscape-font-specification:Courier">length_acc(T,N11,N1)</tspan></text>
</g><g
             transform="matrix(1,0,0,-1,0,445)"
             id="g90" /><g
             transform="matrix(1,0,0,-1,0,445)"
             id="g92"><text
               transform="translate(177,94)"
               id="text94"><tspan
                 x="0 6.0009999 12.002 18.003 24.004 30.004999 36.006001 42.007 48.007999 54.008999 60.009998 66.011002 72.012001 78.013 84.014 90.014999 96.015999 102.017 108.018 114.019 120.02 126.021 132.022 138.02299 144.024 150.02499 156.026 162.02699 168.028 174.02901 180.03"
                 y="0"
                 id="tspan96"
                 style="font-size:10px;font-variant:normal;font-weight:normal;writing-mode:lr-tb;fill:#000000;fill-opacity:1;fill-rule:nonzero;stroke:none;font-family:Courier New;-inkscape-font-specification:Courier">{H-&gt;a, T-&gt;[b,c], N10-&gt;0, N1-&gt;N}</tspan></text>
</g><g
             transform="matrix(1,0,0,-1,0,445)"
             id="g98"><text
               transform="translate(3,117)"
               id="text100"><tspan
                 x="0 6.0009999 12.002 18.003 24.004 30.004999 36.006001 42.007 48.007999 54.008999 60.009998 66.011002 72.012001"
                 y="0"
                 id="tspan102"
                 style="font-size:10px;font-variant:normal;font-weight:normal;writing-mode:lr-tb;fill:#000000;fill-opacity:1;fill-rule:nonzero;stroke:none;font-family:Courier New;-inkscape-font-specification:Courier">:-N11 is 0+1,</tspan></text>
</g><g
             transform="matrix(1,0,0,-1,0,445)"
             id="g104"><text
               transform="translate(15.002,129)"
               id="text106"><tspan
                 x="0 6.0009999 12.002 18.003 24.004 30.004999 36.006001 42.007 48.007999 54.008999 60.009998 66.011002 72.012001 78.013 84.014 90.014999 96.015999 102.017 108.018 114.019 120.02 126.021 132.022"
                 y="0"
                 id="tspan108"
                 style="font-size:10px;font-variant:normal;font-weight:normal;writing-mode:lr-tb;fill:#000000;fill-opacity:1;fill-rule:nonzero;stroke:none;font-family:Courier New;-inkscape-font-specification:Courier">length_acc([b,c],N11,N)</tspan></text>
</g><g
             transform="matrix(1,0,0,-1,0,445)"
             id="g110"><path
               d="m 58.125,135 0,24.25"
               id="path112"
               style="fill:none;stroke:#000000;stroke-width:0.25;stroke-linecap:butt;stroke-linejoin:miter;stroke-miterlimit:10;stroke-opacity:1;stroke-dasharray:none" /></g><g
             transform="matrix(1,0,0,-1,0,445)"
             id="g114"><text
               transform="translate(3,170)"
               id="text116"><tspan
                 x="0 6.0009999 12.002 18.003 24.004 30.004999 36.006001 42.007 48.007999 54.008999 60.009998 66.011002 72.012001 78.013 84.014 90.014999 96.015999 102.017 108.018 114.019 120.02 126.021 132.022"
                 y="0"
                 id="tspan118"
                 style="font-size:10px;font-variant:normal;font-weight:normal;writing-mode:lr-tb;fill:#000000;fill-opacity:1;fill-rule:nonzero;stroke:none;font-family:Courier New;-inkscape-font-specification:Courier">:-length_acc([b,c],1,N)</tspan></text>
</g><g
             transform="matrix(1,0,0,-1,0,445)"
             id="g120"><path
               d="m 58.125,176 0,36.25"
               id="path122"
               style="fill:none;stroke:#000000;stroke-width:0.25;stroke-linecap:butt;stroke-linejoin:miter;stroke-miterlimit:10;stroke-opacity:1;stroke-dasharray:none" /></g><g
             transform="matrix(1,0,0,-1,0,445)"
             id="g124"><text
               transform="translate(4,224)"
               id="text126"><tspan
                 x="0 6.0009999 12.002 18.003 24.004 30.004999 36.006001 42.007 48.007999 54.008999 60.009998 66.011002 72.012001"
                 y="0"
                 id="tspan128"
                 style="font-size:10px;font-variant:normal;font-weight:normal;writing-mode:lr-tb;fill:#000000;fill-opacity:1;fill-rule:nonzero;stroke:none;font-family:Courier New;-inkscape-font-specification:Courier">:-N21 is 1+1,</tspan></text>
</g><g
             transform="matrix(1,0,0,-1,0,445)"
             id="g130"><text
               transform="translate(16.002,236)"
               id="text132"><tspan
                 x="0 6.0009999 12.002 18.003 24.004 30.004999 36.006001 42.007 48.007999 54.008999 60.009998 66.011002 72.012001 78.013 84.014 90.014999 96.015999 102.017 108.018 114.019 120.02"
                 y="0"
                 id="tspan134"
                 style="font-size:10px;font-variant:normal;font-weight:normal;writing-mode:lr-tb;fill:#000000;fill-opacity:1;fill-rule:nonzero;stroke:none;font-family:Courier New;-inkscape-font-specification:Courier">length_acc([c],N21,N)</tspan></text>
</g><g
             transform="matrix(1,0,0,-1,0,445)"
             id="g136"><path
               d="m 59.125,242 0,24.25"
               id="path138"
               style="fill:none;stroke:#000000;stroke-width:0.25;stroke-linecap:butt;stroke-linejoin:miter;stroke-miterlimit:10;stroke-opacity:1;stroke-dasharray:none" /></g><g
             transform="matrix(1,0,0,-1,0,445)"
             id="g140"><text
               transform="translate(5,277)"
               id="text142"><tspan
                 x="0 6.0009999 12.002 18.003 24.004 30.004999 36.006001 42.007 48.007999 54.008999 60.009998 66.011002 72.012001 78.013 84.014 90.014999 96.015999 102.017 108.018 114.019 120.02"
                 y="0"
                 id="tspan144"
                 style="font-size:10px;font-variant:normal;font-weight:normal;writing-mode:lr-tb;fill:#000000;fill-opacity:1;fill-rule:nonzero;stroke:none;font-family:Courier New;-inkscape-font-specification:Courier">:-length_acc([c],2,N)</tspan></text>
</g><g
             transform="matrix(1,0,0,-1,0,445)"
             id="g146"><path
               d="m 60.125,283 0,36.25"
               id="path148"
               style="fill:none;stroke:#000000;stroke-width:0.25;stroke-linecap:butt;stroke-linejoin:miter;stroke-miterlimit:10;stroke-opacity:1;stroke-dasharray:none" /></g><g
             transform="matrix(1,0,0,-1,0,445)"
             id="g150"><text
               transform="translate(6,331)"
               id="text152"><tspan
                 x="0 6.0009999 12.002 18.003 24.004 30.004999 36.006001 42.007 48.007999 54.008999 60.009998 66.011002 72.012001"
                 y="0"
                 id="tspan154"
                 style="font-size:10px;font-variant:normal;font-weight:normal;writing-mode:lr-tb;fill:#000000;fill-opacity:1;fill-rule:nonzero;stroke:none;font-family:Courier New;-inkscape-font-specification:Courier">:-N31 is 2+1,</tspan></text>
</g><g
             transform="matrix(1,0,0,-1,0,445)"
             id="g156"><text
               transform="translate(18.002,343)"
               id="text158"><tspan
                 x="0 6.0009999 12.002 18.003 24.004 30.004999 36.006001 42.007 48.007999 54.008999 60.009998 66.011002 72.012001 78.013 84.014 90.014999 96.015999 102.017 108.018 114.019"
                 y="0"
                 id="tspan160"
                 style="font-size:10px;font-variant:normal;font-weight:normal;writing-mode:lr-tb;fill:#000000;fill-opacity:1;fill-rule:nonzero;stroke:none;font-family:Courier New;-inkscape-font-specification:Courier">length_acc([],N31,N)</tspan></text>
</g><g
             transform="matrix(1,0,0,-1,0,445)"
             id="g162"><path
               d="m 61.125,349 0,24.25"
               id="path164"
               style="fill:none;stroke:#000000;stroke-width:0.25;stroke-linecap:butt;stroke-linejoin:miter;stroke-miterlimit:10;stroke-opacity:1;stroke-dasharray:none" /></g><g
             transform="matrix(1,0,0,-1,0,445)"
             id="g166"><text
               transform="translate(6,385)"
               id="text168"><tspan
                 x="0 6.0009999 12.002 18.003 24.004 30.004999 36.006001 42.007 48.007999 54.008999 60.009998 66.011002 72.012001 78.013 84.014 90.014999 96.015999 102.017 108.018 114.019"
                 y="0"
                 id="tspan170"
                 style="font-size:10px;font-variant:normal;font-weight:normal;writing-mode:lr-tb;fill:#000000;fill-opacity:1;fill-rule:nonzero;stroke:none;font-family:Courier New;-inkscape-font-specification:Courier">:-length_acc([],3,N)</tspan></text>
</g><g
             transform="matrix(1,0,0,-1,0,445)"
             id="g172"><path
               d="m 61.125,391 0,36.25"
               id="path174"
               style="fill:none;stroke:#000000;stroke-width:0.25;stroke-linecap:butt;stroke-linejoin:miter;stroke-miterlimit:10;stroke-opacity:1;stroke-dasharray:none" /></g><path
             d="m 254,270 0.25,0 0,-0.25 -171,-36 -0.25,0 0,0.25"
             id="path176"
             style="fill:#000000;fill-opacity:1;fill-rule:nonzero;stroke:none" /><g
             transform="matrix(1,0,0,-1,0,445)"
             id="g178"><text
               transform="translate(171,169)"
               id="text180"><tspan
                 x="0 6.0009999 12.002 18.003 24.004 30.004999 36.006001 42.007 48.007999 54.008999 60.009998 66.011002 72.012001 78.013 84.014 90.014999 96.015999 102.017 108.018 114.019 120.02 126.021 132.022 138.02299 144.024 150.02499 156.026 162.02699 168.028 174.02901 180.03 186.03101 192.032 198.033 204.034 210.035 216.036 222.037 228.03799"
                 y="0"
                 id="tspan182"
                 style="font-size:10px;font-variant:normal;font-weight:normal;writing-mode:lr-tb;fill:#000000;fill-opacity:1;fill-rule:nonzero;stroke:none;font-family:Courier New;-inkscape-font-specification:Courier">length_acc([H|T],N20,N2):-N21 is N20+1,</tspan></text>
</g><g
             transform="matrix(1,0,0,-1,0,445)"
             id="g184"><text
               transform="translate(327.026,181)"
               id="text186"><tspan
                 x="0 6.0009999 12.002 18.003 24.004 30.004999 36.006001 42.007 48.007999 54.008999 60.009998 66.011002 72.012001 78.013 84.014 90.014999 96.015999 102.017 108.018 114.019"
                 y="0"
                 id="tspan188"
                 style="font-size:10px;font-variant:normal;font-weight:normal;writing-mode:lr-tb;fill:#000000;fill-opacity:1;fill-rule:nonzero;stroke:none;font-family:Courier New;-inkscape-font-specification:Courier">length_acc(T,N21,N2)</tspan></text>
</g><g
             transform="matrix(1,0,0,-1,0,445)"
             id="g190" /><g
             transform="matrix(1,0,0,-1,0,445)"
             id="g192"><text
               transform="translate(179,202)"
               id="text194"><tspan
                 x="0 6.0009999 12.002 18.003 24.004 30.004999 36.006001 42.007 48.007999 54.008999 60.009998 66.011002 72.012001 78.013 84.014 90.014999 96.015999 102.017 108.018 114.019 120.02 126.021 132.022 138.02299 144.024 150.02499 156.026 162.02699 168.028"
                 y="0"
                 id="tspan196"
                 style="font-size:10px;font-variant:normal;font-weight:normal;writing-mode:lr-tb;fill:#000000;fill-opacity:1;fill-rule:nonzero;stroke:none;font-family:Courier New;-inkscape-font-specification:Courier">{H-&gt;b, T-&gt;[c], N20-&gt;1, N2-&gt;N}</tspan></text>
</g><g
             transform="matrix(1,0,0,-1,0,445)"
             id="g198"><text
               transform="translate(77,149)"
               id="text200"><tspan
                 x="0 6.0009999 12.002 18.003 24.004 30.004999 36.006001 42.007"
                 y="0"
                 id="tspan202"
                 style="font-size:10px;font-variant:normal;font-weight:normal;writing-mode:lr-tb;fill:#000000;fill-opacity:1;fill-rule:nonzero;stroke:none;font-family:Courier New;-inkscape-font-specification:Courier">{N11-&gt;1}</tspan></text>
</g><g
             transform="matrix(1,0,0,-1,0,445)"
             id="g204"><text
               transform="translate(79,256)"
               id="text206"><tspan
                 x="0 6.0009999 12.002 18.003 24.004 30.004999 36.006001 42.007"
                 y="0"
                 id="tspan208"
                 style="font-size:10px;font-variant:normal;font-weight:normal;writing-mode:lr-tb;fill:#000000;fill-opacity:1;fill-rule:nonzero;stroke:none;font-family:Courier New;-inkscape-font-specification:Courier">{N21-&gt;2}</tspan></text>
</g><path
             d="m 252,162 0.25,0 0,-0.25 -171,-36 -0.25,0 0,0.25"
             id="path210"
             style="fill:#000000;fill-opacity:1;fill-rule:nonzero;stroke:none" /><g
             transform="matrix(1,0,0,-1,0,445)"
             id="g212"><text
               transform="translate(169,277)"
               id="text214"><tspan
                 x="0 6.0009999 12.002 18.003 24.004 30.004999 36.006001 42.007 48.007999 54.008999 60.009998 66.011002 72.012001 78.013 84.014 90.014999 96.015999 102.017 108.018 114.019 120.02 126.021 132.022 138.02299 144.024 150.02499 156.026 162.02699 168.028 174.02901 180.03 186.03101 192.032 198.033 204.034 210.035 216.036 222.037 228.03799"
                 y="0"
                 id="tspan216"
                 style="font-size:10px;font-variant:normal;font-weight:normal;writing-mode:lr-tb;fill:#000000;fill-opacity:1;fill-rule:nonzero;stroke:none;font-family:Courier New;-inkscape-font-specification:Courier">length_acc([H|T],N30,N3):-N31 is N30+1,</tspan></text>
</g><g
             transform="matrix(1,0,0,-1,0,445)"
             id="g218"><text
               transform="translate(325.026,289)"
               id="text220"><tspan
                 x="0 6.0009999 12.002 18.003 24.004 30.004999 36.006001 42.007 48.007999 54.008999 60.009998 66.011002 72.012001 78.013 84.014 90.014999 96.015999 102.017 108.018 114.019"
                 y="0"
                 id="tspan222"
                 style="font-size:10px;font-variant:normal;font-weight:normal;writing-mode:lr-tb;fill:#000000;fill-opacity:1;fill-rule:nonzero;stroke:none;font-family:Courier New;-inkscape-font-specification:Courier">length_acc(T,N31,N3)</tspan></text>
</g><g
             transform="matrix(1,0,0,-1,0,445)"
             id="g224" /><g
             transform="matrix(1,0,0,-1,0,445)"
             id="g226"><text
               transform="translate(177,310)"
               id="text228"><tspan
                 x="0 6.0009999 12.002 18.003 24.004 30.004999 36.006001 42.007 48.007999 54.008999 60.009998 66.011002 72.012001 78.013 84.014 90.014999 96.015999 102.017 108.018 114.019 120.02 126.021 132.022 138.02299 144.024 150.02499 156.026 162.02699"
                 y="0"
                 id="tspan230"
                 style="font-size:10px;font-variant:normal;font-weight:normal;writing-mode:lr-tb;fill:#000000;fill-opacity:1;fill-rule:nonzero;stroke:none;font-family:Courier New;-inkscape-font-specification:Courier">{H-&gt;c, T-&gt;[], N30-&gt;2, N3-&gt;N}</tspan></text>
</g><g
             transform="matrix(1,0,0,-1,0,445)"
             id="g232"><text
               transform="translate(84,365)"
               id="text234"><tspan
                 x="0 6.0009999 12.002 18.003 24.004 30.004999 36.006001 42.007"
                 y="0"
                 id="tspan236"
                 style="font-size:10px;font-variant:normal;font-weight:normal;writing-mode:lr-tb;fill:#000000;fill-opacity:1;fill-rule:nonzero;stroke:none;font-family:Courier New;-inkscape-font-specification:Courier">{N31-&gt;3}</tspan></text>
</g><path
             d="m 248,53.99999 0.25,0 0,-0.25 -171,-36 -0.25,0 0,0.25"
             id="path238"
             style="fill:#000000;fill-opacity:1;fill-rule:nonzero;stroke:none" /><g
             transform="matrix(1,0,0,-1,0,445)"
             id="g240"><text
               transform="translate(170,385)"
               id="text242"><tspan
                 x="0 6.0009999 12.002 18.003 24.004 30.004999 36.006001 42.007 48.007999 54.008999 60.009998 66.011002 72.012001 78.013 84.014 90.014999 96.015999 102.017"
                 y="0"
                 id="tspan244"
                 style="font-size:10px;font-variant:normal;font-weight:normal;writing-mode:lr-tb;fill:#000000;fill-opacity:1;fill-rule:nonzero;stroke:none;font-family:Courier New;-inkscape-font-specification:Courier">length_acc([],N,N)</tspan></text>
</g><g
             transform="matrix(1,0,0,-1,0,445)"
             id="g246"><text
               transform="translate(85,410)"
               id="text248"><tspan
                 x="0 6.0009999 12.002 18.003 24.004 30.004999"
                 y="0"
                 id="tspan250"
                 style="font-size:10px;font-variant:normal;font-weight:normal;writing-mode:lr-tb;fill:#000000;fill-opacity:1;fill-rule:nonzero;stroke:none;font-family:Courier New;-inkscape-font-specification:Courier">{N-&gt;3}</tspan></text>
</g></g></g></g></g></svg>
