<?xml version="1.0" encoding="UTF-8" standalone="no"?>
<!-- Created with Inkscape (http://www.inkscape.org/) -->

<svg
   xmlns:svg="http://www.w3.org/2000/svg"
   xmlns="http://www.w3.org/2000/svg"
   version="1.1"
   width="435"
   height="453.75"
   id="svg2"
   xml:space="preserve"><defs
     id="defs6"><clipPath
       id="clipPath20"><path
         d="M 0,0 348,0 348,363 0,363 0,0 z"
         id="path22" /></clipPath><clipPath
       id="clipPath30"><path
         d="m 0,363 348,0 0,-363.000005356298 -348,0 L 0,363 z"
         id="path32" /></clipPath><clipPath
       id="clipPath36"><path
         d="M 0,0 348,0 348,363 0,363 0,0 z"
         id="path38" /></clipPath></defs><g
     transform="matrix(1.25,0,0,-1.25,0,453.75)"
     id="g12"><g
       id="g14" /><g
       id="g16"><g
         clip-path="url(#clipPath20)"
         id="g18"><path
           d="M 0,363 348,363 348,0 0,0 0,363 z"
           id="path24"
           style="fill:#ffffff;fill-opacity:0;fill-rule:evenodd;stroke:none" /></g></g><g
       id="g26"><g
         clip-path="url(#clipPath30)"
         id="g28"><g
           clip-path="url(#clipPath36)"
           id="g34"><g
             transform="matrix(1,0,0,-1,0,363)"
             id="g40"><text
               transform="translate(2,10)"
               id="text42"><tspan
                 x="0 6.0009999 12.002 18.003 24.004 30.004999 36.006001 42.007 48.007999 54.008999 60.009998 66.011002 72.012001 78.013 84.014 90.014999 96.015999 102.017 108.018"
                 y="0"
                 id="tspan44"
                 style="font-size:10px;font-variant:normal;font-weight:normal;writing-mode:lr-tb;fill:#000000;fill-opacity:1;fill-rule:nonzero;stroke:none;font-family:Courier New;-inkscape-font-specification:Courier">?-length([a,b,c],N)</tspan></text>
</g><g
             transform="matrix(1,0,0,-1,0,363)"
             id="g46"><text
               transform="translate(188,40)"
               id="text48"><tspan
                 x="0 6.0009999 12.002 18.003 24.004 30.004999 36.006001 42.007 48.007999 54.008999 60.009998 66.011002 72.012001 78.013 84.014 90.014999 96.015999 102.017 108.018 114.019 120.02 126.021 132.022"
                 y="0"
                 id="tspan50"
                 style="font-size:10px;font-variant:normal;font-weight:normal;writing-mode:lr-tb;fill:#000000;fill-opacity:1;fill-rule:nonzero;stroke:none;font-family:Courier New;-inkscape-font-specification:Courier">{H-&gt;a, T-&gt;[b,c], N1-&gt;N}</tspan></text>
</g><g
             transform="matrix(1,0,0,-1,0,363)"
             id="g52"><text
               transform="translate(10,63)"
               id="text54"><tspan
                 x="0 6.0009999 12.002 18.003 24.004 30.004999 36.006001 42.007 48.007999 54.008999 60.009998 66.011002 72.012001 78.013 84.014 90.014999 96.015999 102.017 108.018"
                 y="0"
                 id="tspan56"
                 style="font-size:10px;font-variant:normal;font-weight:normal;writing-mode:lr-tb;fill:#000000;fill-opacity:1;fill-rule:nonzero;stroke:none;font-family:Courier New;-inkscape-font-specification:Courier">:-length([b,c],M1),</tspan></text>
</g><g
             transform="matrix(1,0,0,-1,0,363)"
             id="g58"><text
               transform="translate(22.002,75)"
               id="text60"><tspan
                 x="0 6.0009999 12.002 18.003 24.004 30.004999 36.006001 42.007 48.007999"
                 y="0"
                 id="tspan62"
                 style="font-size:10px;font-variant:normal;font-weight:normal;writing-mode:lr-tb;fill:#000000;fill-opacity:1;fill-rule:nonzero;stroke:none;font-family:Courier New;-inkscape-font-specification:Courier">N is M1+1</tspan></text>
</g><g
             transform="matrix(1,0,0,-1,0,363)"
             id="g64"><path
               d="m 57.125,16 0,36.25"
               id="path66"
               style="fill:none;stroke:#000000;stroke-width:0.25;stroke-linecap:butt;stroke-linejoin:miter;stroke-miterlimit:10;stroke-opacity:1;stroke-dasharray:none" /></g><path
             d="m 252,347 0.25,0 0,-0.25 -171,-36 -0.25,0 0,0.25"
             id="path68"
             style="fill:#000000;fill-opacity:1;fill-rule:nonzero;stroke:none" /><g
             transform="matrix(1,0,0,-1,0,363)"
             id="g70"><text
               transform="translate(18,118)"
               id="text72"><tspan
                 x="0 6.0009999 12.002 18.003 24.004 30.004999 36.006001 42.007 48.007999 54.008999 60.009998 66.011002 72.012001 78.013 84.014 90.014999 96.015999"
                 y="0"
                 id="tspan74"
                 style="font-size:10px;font-variant:normal;font-weight:normal;writing-mode:lr-tb;fill:#000000;fill-opacity:1;fill-rule:nonzero;stroke:none;font-family:Courier New;-inkscape-font-specification:Courier">:-length([c],M2),</tspan></text>
</g><g
             transform="matrix(1,0,0,-1,0,363)"
             id="g76"><text
               transform="translate(30.002,130)"
               id="text78"><tspan
                 x="0 6.0009999 12.002 18.003 24.004 30.004999 36.006001 42.007 48.007999 54.008999 60.009998"
                 y="0"
                 id="tspan80"
                 style="font-size:10px;font-variant:normal;font-weight:normal;writing-mode:lr-tb;fill:#000000;fill-opacity:1;fill-rule:nonzero;stroke:none;font-family:Courier New;-inkscape-font-specification:Courier">M1 is M2+1,</tspan></text>
</g><g
             transform="matrix(1,0,0,-1,0,363)"
             id="g82"><text
               transform="translate(30.002,142)"
               id="text84"><tspan
                 x="0 6.0009999 12.002 18.003 24.004 30.004999 36.006001 42.007 48.007999"
                 y="0"
                 id="tspan86"
                 style="font-size:10px;font-variant:normal;font-weight:normal;writing-mode:lr-tb;fill:#000000;fill-opacity:1;fill-rule:nonzero;stroke:none;font-family:Courier New;-inkscape-font-specification:Courier">N is M1+1</tspan></text>
</g><g
             transform="matrix(1,0,0,-1,0,363)"
             id="g88"><path
               d="m 57.125,79 0,28.25"
               id="path90"
               style="fill:none;stroke:#000000;stroke-width:0.25;stroke-linecap:butt;stroke-linejoin:miter;stroke-miterlimit:10;stroke-opacity:1;stroke-dasharray:none" /></g><g
             transform="matrix(1,0,0,-1,0,363)"
             id="g92"><text
               transform="translate(21,172)"
               id="text94"><tspan
                 x="0 6.0009999 12.002 18.003 24.004 30.004999 36.006001 42.007 48.007999 54.008999 60.009998 66.011002 72.012001 78.013 84.014 90.014999"
                 y="0"
                 id="tspan96"
                 style="font-size:10px;font-variant:normal;font-weight:normal;writing-mode:lr-tb;fill:#000000;fill-opacity:1;fill-rule:nonzero;stroke:none;font-family:Courier New;-inkscape-font-specification:Courier">:-length([],M3),</tspan></text>
</g><g
             transform="matrix(1,0,0,-1,0,363)"
             id="g98"><text
               transform="translate(33.002,184)"
               id="text100"><tspan
                 x="0 6.0009999 12.002 18.003 24.004 30.004999 36.006001 42.007 48.007999 54.008999 60.009998"
                 y="0"
                 id="tspan102"
                 style="font-size:10px;font-variant:normal;font-weight:normal;writing-mode:lr-tb;fill:#000000;fill-opacity:1;fill-rule:nonzero;stroke:none;font-family:Courier New;-inkscape-font-specification:Courier">M2 is M3+1,</tspan></text>
</g><g
             transform="matrix(1,0,0,-1,0,363)"
             id="g104"><text
               transform="translate(33.002,196)"
               id="text106"><tspan
                 x="0 6.0009999 12.002 18.003 24.004 30.004999 36.006001 42.007 48.007999 54.008999 60.009998"
                 y="0"
                 id="tspan108"
                 style="font-size:10px;font-variant:normal;font-weight:normal;writing-mode:lr-tb;fill:#000000;fill-opacity:1;fill-rule:nonzero;stroke:none;font-family:Courier New;-inkscape-font-specification:Courier">M1 is M2+1,</tspan></text>
</g><g
             transform="matrix(1,0,0,-1,0,363)"
             id="g110"><text
               transform="translate(33.002,208)"
               id="text112"><tspan
                 x="0 6.0009999 12.002 18.003 24.004 30.004999 36.006001 42.007 48.007999"
                 y="0"
                 id="tspan114"
                 style="font-size:10px;font-variant:normal;font-weight:normal;writing-mode:lr-tb;fill:#000000;fill-opacity:1;fill-rule:nonzero;stroke:none;font-family:Courier New;-inkscape-font-specification:Courier">N is M1+1</tspan></text>
</g><g
             transform="matrix(1,0,0,-1,0,363)"
             id="g116"><path
               d="m 58.125,146 0,14.25"
               id="path118"
               style="fill:none;stroke:#000000;stroke-width:0.25;stroke-linecap:butt;stroke-linejoin:miter;stroke-miterlimit:10;stroke-opacity:1;stroke-dasharray:none" /></g><g
             transform="matrix(1,0,0,-1,0,363)"
             id="g120"><text
               transform="translate(25,235)"
               id="text122"><tspan
                 x="0 6.0009999 12.002 18.003 24.004 30.004999 36.006001 42.007 48.007999 54.008999 60.009998 66.011002"
                 y="0"
                 id="tspan124"
                 style="font-size:10px;font-variant:normal;font-weight:normal;writing-mode:lr-tb;fill:#000000;fill-opacity:1;fill-rule:nonzero;stroke:none;font-family:Courier New;-inkscape-font-specification:Courier">:-M2 is 0+1,</tspan></text>
</g><g
             transform="matrix(1,0,0,-1,0,363)"
             id="g126"><text
               transform="translate(37.002,247)"
               id="text128"><tspan
                 x="0 6.0009999 12.002 18.003 24.004 30.004999 36.006001 42.007 48.007999 54.008999 60.009998"
                 y="0"
                 id="tspan130"
                 style="font-size:10px;font-variant:normal;font-weight:normal;writing-mode:lr-tb;fill:#000000;fill-opacity:1;fill-rule:nonzero;stroke:none;font-family:Courier New;-inkscape-font-specification:Courier">M1 is M2+1,</tspan></text>
</g><g
             transform="matrix(1,0,0,-1,0,363)"
             id="g132"><text
               transform="translate(37.002,259)"
               id="text134"><tspan
                 x="0 6.0009999 12.002 18.003 24.004 30.004999 36.006001 42.007 48.007999"
                 y="0"
                 id="tspan136"
                 style="font-size:10px;font-variant:normal;font-weight:normal;writing-mode:lr-tb;fill:#000000;fill-opacity:1;fill-rule:nonzero;stroke:none;font-family:Courier New;-inkscape-font-specification:Courier">N is M1+1</tspan></text>
</g><g
             transform="matrix(1,0,0,-1,0,363)"
             id="g138"><path
               d="m 60.125,210 0,15.25"
               id="path140"
               style="fill:none;stroke:#000000;stroke-width:0.25;stroke-linecap:butt;stroke-linejoin:miter;stroke-miterlimit:10;stroke-opacity:1;stroke-dasharray:none" /></g><g
             transform="matrix(1,0,0,-1,0,363)"
             id="g142"><text
               transform="translate(28,288)"
               id="text144"><tspan
                 x="0 6.0009999 12.002 18.003 24.004 30.004999 36.006001 42.007 48.007999 54.008999 60.009998 66.011002"
                 y="0"
                 id="tspan146"
                 style="font-size:10px;font-variant:normal;font-weight:normal;writing-mode:lr-tb;fill:#000000;fill-opacity:1;fill-rule:nonzero;stroke:none;font-family:Courier New;-inkscape-font-specification:Courier">:-M1 is 1+1,</tspan></text>
</g><g
             transform="matrix(1,0,0,-1,0,363)"
             id="g148"><text
               transform="translate(40.002,300)"
               id="text150"><tspan
                 x="0 6.0009999 12.002 18.003 24.004 30.004999 36.006001 42.007 48.007999"
                 y="0"
                 id="tspan152"
                 style="font-size:10px;font-variant:normal;font-weight:normal;writing-mode:lr-tb;fill:#000000;fill-opacity:1;fill-rule:nonzero;stroke:none;font-family:Courier New;-inkscape-font-specification:Courier">N is M1+1</tspan></text>
</g><g
             transform="matrix(1,0,0,-1,0,363)"
             id="g154"><text
               transform="translate(36,329)"
               id="text156"><tspan
                 x="0 6.0009999 12.002 18.003 24.004 30.004999 36.006001 42.007 48.007999 54.008999"
                 y="0"
                 id="tspan158"
                 style="font-size:10px;font-variant:normal;font-weight:normal;writing-mode:lr-tb;fill:#000000;fill-opacity:1;fill-rule:nonzero;stroke:none;font-family:Courier New;-inkscape-font-specification:Courier">:-N is 2+1</tspan></text>
</g><g
             transform="matrix(1,0,0,-1,0,363)"
             id="g160"><text
               transform="translate(60,359)"
               id="text162"><tspan
                 x="-2.5"
                 y="1.75"
                 id="tspan164"
                 style="font-size:20px;font-variant:normal;font-weight:normal;writing-mode:lr-tb;fill:#000000;fill-opacity:1;fill-rule:nonzero;stroke:none;font-family:Geneva;-inkscape-font-specification:Geneva">&#x25A1;</tspan></text>
</g><g
             transform="matrix(1,0,0,-1,0,363)"
             id="g166"><text
               transform="translate(157,9)"
               id="text168"><tspan
                 x="0 6.0009999 12.002 18.003 24.004 30.004999 36.006001 42.007 48.007999 54.008999 60.009998 66.011002 72.012001 78.013 84.014 90.014999 96.015999 102.017 108.018 114.019 120.02 126.021 132.022 138.02299 144.024 150.02499 156.026 162.02699 168.028 174.02901 180.03"
                 y="0"
                 id="tspan170"
                 style="font-size:10px;font-variant:normal;font-weight:normal;writing-mode:lr-tb;fill:#000000;fill-opacity:1;fill-rule:nonzero;stroke:none;font-family:Courier New;-inkscape-font-specification:Courier">length([H|T],N1):-length(T,M1),</tspan></text>
</g><g
             transform="matrix(1,0,0,-1,0,363)"
             id="g172"><text
               transform="translate(265.018,21)"
               id="text174"><tspan
                 x="0 6.0009999 12.002 18.003 24.004 30.004999 36.006001 42.007 48.007999 54.008999"
                 y="0"
                 id="tspan176"
                 style="font-size:10px;font-variant:normal;font-weight:normal;writing-mode:lr-tb;fill:#000000;fill-opacity:1;fill-rule:nonzero;stroke:none;font-family:Courier New;-inkscape-font-specification:Courier">N1 is M1+1</tspan></text>
</g><g
             transform="matrix(1,0,0,-1,0,363)"
             id="g178"><text
               transform="translate(190,93)"
               id="text180"><tspan
                 x="0 6.0009999 12.002 18.003 24.004 30.004999 36.006001 42.007 48.007999 54.008999 60.009998 66.011002 72.012001 78.013 84.014 90.014999 96.015999 102.017 108.018 114.019 120.02 126.021"
                 y="0"
                 id="tspan182"
                 style="font-size:10px;font-variant:normal;font-weight:normal;writing-mode:lr-tb;fill:#000000;fill-opacity:1;fill-rule:nonzero;stroke:none;font-family:Courier New;-inkscape-font-specification:Courier">{H-&gt;b, T-&gt;[c], N2-&gt;M1}</tspan></text>
</g><path
             d="m 254,294 0.25,0 0,-0.25 -171,-36 -0.25,0 0,0.25"
             id="path184"
             style="fill:#000000;fill-opacity:1;fill-rule:nonzero;stroke:none" /><g
             transform="matrix(1,0,0,-1,0,363)"
             id="g186"><text
               transform="translate(158,62)"
               id="text188"><tspan
                 x="0 6.0009999 12.002 18.003 24.004 30.004999 36.006001 42.007 48.007999 54.008999 60.009998 66.011002 72.012001 78.013 84.014 90.014999 96.015999 102.017 108.018 114.019 120.02 126.021 132.022 138.02299 144.024 150.02499 156.026 162.02699 168.028 174.02901 180.03"
                 y="0"
                 id="tspan190"
                 style="font-size:10px;font-variant:normal;font-weight:normal;writing-mode:lr-tb;fill:#000000;fill-opacity:1;fill-rule:nonzero;stroke:none;font-family:Courier New;-inkscape-font-specification:Courier">length([H|T],N2):-length(T,M2),</tspan></text>
</g><g
             transform="matrix(1,0,0,-1,0,363)"
             id="g192"><text
               transform="translate(266.018,74)"
               id="text194"><tspan
                 x="0 6.0009999 12.002 18.003 24.004 30.004999 36.006001 42.007 48.007999 54.008999"
                 y="0"
                 id="tspan196"
                 style="font-size:10px;font-variant:normal;font-weight:normal;writing-mode:lr-tb;fill:#000000;fill-opacity:1;fill-rule:nonzero;stroke:none;font-family:Courier New;-inkscape-font-specification:Courier">N2 is M2+1</tspan></text>
</g><g
             transform="matrix(1,0,0,-1,0,363)"
             id="g198"><text
               transform="translate(189,146)"
               id="text200"><tspan
                 x="0 6.0009999 12.002 18.003 24.004 30.004999 36.006001 42.007 48.007999 54.008999 60.009998 66.011002 72.012001 78.013 84.014 90.014999 96.015999 102.017 108.018 114.019 120.02"
                 y="0"
                 id="tspan202"
                 style="font-size:10px;font-variant:normal;font-weight:normal;writing-mode:lr-tb;fill:#000000;fill-opacity:1;fill-rule:nonzero;stroke:none;font-family:Courier New;-inkscape-font-specification:Courier">{H-&gt;c, T-&gt;[], N3-&gt;M2}</tspan></text>
</g><path
             d="m 253,241 0.25,0 0,-0.25 -171,-36 -0.25,0 0,0.25"
             id="path204"
             style="fill:#000000;fill-opacity:1;fill-rule:nonzero;stroke:none" /><g
             transform="matrix(1,0,0,-1,0,363)"
             id="g206"><text
               transform="translate(157,115)"
               id="text208"><tspan
                 x="0 6.0009999 12.002 18.003 24.004 30.004999 36.006001 42.007 48.007999 54.008999 60.009998 66.011002 72.012001 78.013 84.014 90.014999 96.015999 102.017 108.018 114.019 120.02 126.021 132.022 138.02299 144.024 150.02499 156.026 162.02699 168.028 174.02901 180.03"
                 y="0"
                 id="tspan210"
                 style="font-size:10px;font-variant:normal;font-weight:normal;writing-mode:lr-tb;fill:#000000;fill-opacity:1;fill-rule:nonzero;stroke:none;font-family:Courier New;-inkscape-font-specification:Courier">length([H|T],N3):-length(T,M3),</tspan></text>
</g><g
             transform="matrix(1,0,0,-1,0,363)"
             id="g212"><text
               transform="translate(265.018,127)"
               id="text214"><tspan
                 x="0 6.0009999 12.002 18.003 24.004 30.004999 36.006001 42.007 48.007999 54.008999"
                 y="0"
                 id="tspan216"
                 style="font-size:10px;font-variant:normal;font-weight:normal;writing-mode:lr-tb;fill:#000000;fill-opacity:1;fill-rule:nonzero;stroke:none;font-family:Courier New;-inkscape-font-specification:Courier">N3 is M3+1</tspan></text>
</g><g
             transform="matrix(1,0,0,-1,0,363)"
             id="g218"><text
               transform="translate(184,212)"
               id="text220"><tspan
                 x="0 6.0009999 12.002 18.003 24.004 30.004999 36.006001"
                 y="0"
                 id="tspan222"
                 style="font-size:10px;font-variant:normal;font-weight:normal;writing-mode:lr-tb;fill:#000000;fill-opacity:1;fill-rule:nonzero;stroke:none;font-family:Courier New;-inkscape-font-specification:Courier">{M3-&gt;0}</tspan></text>
</g><path
             d="m 253,175 0.25,0 0,-0.25 -171,-36 -0.25,0 0,0.25"
             id="path224"
             style="fill:#000000;fill-opacity:1;fill-rule:nonzero;stroke:none" /><g
             transform="matrix(1,0,0,-1,0,363)"
             id="g226"><text
               transform="translate(222,184)"
               id="text228"><tspan
                 x="0 6.0009999 12.002 18.003 24.004 30.004999 36.006001 42.007 48.007999 54.008999 60.009998 66.011002"
                 y="0"
                 id="tspan230"
                 style="font-size:10px;font-variant:normal;font-weight:normal;writing-mode:lr-tb;fill:#000000;fill-opacity:1;fill-rule:nonzero;stroke:none;font-family:Courier New;-inkscape-font-specification:Courier">length([],0)</tspan></text>
</g><g
             transform="matrix(1,0,0,-1,0,363)"
             id="g232"><path
               d="m 61.125,263 0,15.25"
               id="path234"
               style="fill:none;stroke:#000000;stroke-width:0.25;stroke-linecap:butt;stroke-linejoin:miter;stroke-miterlimit:10;stroke-opacity:1;stroke-dasharray:none" /></g><g
             transform="matrix(1,0,0,-1,0,363)"
             id="g236"><path
               d="m 62.125,303 0,15.25"
               id="path238"
               style="fill:none;stroke:#000000;stroke-width:0.25;stroke-linecap:butt;stroke-linejoin:miter;stroke-miterlimit:10;stroke-opacity:1;stroke-dasharray:none" /></g><g
             transform="matrix(1,0,0,-1,0,363)"
             id="g240"><path
               d="m 63.125,332 0,15.25"
               id="path242"
               style="fill:none;stroke:#000000;stroke-width:0.25;stroke-linecap:butt;stroke-linejoin:miter;stroke-miterlimit:10;stroke-opacity:1;stroke-dasharray:none" /></g><g
             transform="matrix(1,0,0,-1,0,363)"
             id="g244"><text
               transform="translate(87,273)"
               id="text246"><tspan
                 x="0 6.0009999 12.002 18.003 24.004 30.004999 36.006001"
                 y="0"
                 id="tspan248"
                 style="font-size:10px;font-variant:normal;font-weight:normal;writing-mode:lr-tb;fill:#000000;fill-opacity:1;fill-rule:nonzero;stroke:none;font-family:Courier New;-inkscape-font-specification:Courier">{M2-&gt;1}</tspan></text>
</g><g
             transform="matrix(1,0,0,-1,0,363)"
             id="g250"><text
               transform="translate(87,314)"
               id="text252"><tspan
                 x="0 6.0009999 12.002 18.003 24.004 30.004999 36.006001"
                 y="0"
                 id="tspan254"
                 style="font-size:10px;font-variant:normal;font-weight:normal;writing-mode:lr-tb;fill:#000000;fill-opacity:1;fill-rule:nonzero;stroke:none;font-family:Courier New;-inkscape-font-specification:Courier">{M1-&gt;2}</tspan></text>
</g><g
             transform="matrix(1,0,0,-1,0,363)"
             id="g256"><text
               transform="translate(88,344)"
               id="text258"><tspan
                 x="0 6.0009999 12.002 18.003 24.004 30.004999"
                 y="0"
                 id="tspan260"
                 style="font-size:10px;font-variant:normal;font-weight:normal;writing-mode:lr-tb;fill:#000000;fill-opacity:1;fill-rule:nonzero;stroke:none;font-family:Courier New;-inkscape-font-specification:Courier">{N-&gt;3}</tspan></text>
</g></g></g></g></g></svg>
