<?xml version="1.0" encoding="UTF-8" standalone="no"?>
<!-- Created with Inkscape (http://www.inkscape.org/) -->

<svg
   xmlns:svg="http://www.w3.org/2000/svg"
   xmlns="http://www.w3.org/2000/svg"
   version="1.1"
   width="712.5"
   height="468.75"
   id="svg2"
   xml:space="preserve"><defs
     id="defs6"><clipPath
       id="clipPath20"><path
         d="M 0,0 570,0 570,375 0,375 0,0 z"
         id="path22" /></clipPath><clipPath
       id="clipPath30"><path
         d="m 0,375 570,0 0,-375.000005533366 -570,0 L 0,375 z"
         id="path32" /></clipPath><clipPath
       id="clipPath36"><path
         d="M 0,0 570,0 570,375 0,375 0,0 z"
         id="path38" /></clipPath></defs><g
     transform="matrix(1.25,0,0,-1.25,0,468.75)"
     id="g12"><g
       id="g14" /><g
       id="g16"><g
         clip-path="url(#clipPath20)"
         id="g18"><path
           d="M 0,375 570,375 570,0 0,0 0,375 z"
           id="path24"
           style="fill:#ffffff;fill-opacity:0;fill-rule:evenodd;stroke:none" /></g></g><g
       id="g26"><g
         clip-path="url(#clipPath30)"
         id="g28"><g
           clip-path="url(#clipPath36)"
           id="g34"><g
             transform="matrix(1,0,0,-1,0,375)"
             id="g40"><text
               transform="translate(2,8)"
               id="text42"><tspan
                 x="0 6.9707999 13.9416 20.912399 27.8832 34.854 41.824799 48.795601"
                 y="0"
                 id="tspan44"
                 style="font-size:12px;font-variant:normal;font-weight:normal;writing-mode:lr-tb;fill:#000000;fill-opacity:1;fill-rule:nonzero;stroke:none;font-family:Courier New;-inkscape-font-specification:Courier">sentence</tspan></text>
</g><g
             transform="matrix(1,0,0,-1,0,375)"
             id="g46"><text
               transform="translate(3,46)"
               id="text48"><tspan
                 x="0 6.9912 13.9824 20.9736 27.9648 34.956001 41.947201 48.9384 55.9296 62.920799 69.912003 76.903198 83.894402 90.885597 97.876801 104.868 111.8592 118.8504 125.8416 132.83279 139.82401 146.8152 153.8064"
                 y="0"
                 id="tspan50"
                 style="font-size:12px;font-variant:normal;font-weight:normal;writing-mode:lr-tb;fill:#000000;fill-opacity:1;fill-rule:nonzero;stroke:none;font-family:Courier New;-inkscape-font-specification:Courier">noun_phrase,verb_phrase</tspan></text>
</g><g
             transform="matrix(1,0,0,-1,0,375)"
             id="g52"><text
               transform="translate(3,84)"
               id="text54"><tspan
                 x="0 6.9935999 13.9872 20.980801 27.9744 34.967999 41.961601 48.9552 55.948799 62.942402 69.935997 76.929604 83.923203 90.916801 97.9104 104.904 111.8976 118.8912 125.8848 132.8784 139.87199 146.8656 153.85921 160.8528 167.84641 174.84 181.8336 188.82719 195.8208 202.81441 209.808 216.80161 223.7952 230.7888"
                 y="0"
                 id="tspan56"
                 style="font-size:12px;font-variant:normal;font-weight:normal;writing-mode:lr-tb;fill:#000000;fill-opacity:1;fill-rule:nonzero;stroke:none;font-family:Courier New;-inkscape-font-specification:Courier">article,adjective,noun,verb_phrase</tspan></text>
</g><g
             transform="matrix(1,0,0,-1,0,375)"
             id="g58"><text
               transform="translate(3,123)"
               id="text60"><tspan
                 x="0 6.9935999 13.9872 20.980801 27.9744 34.967999 41.961601 48.9552 55.948799 62.942402 69.935997 76.929604 83.923203 90.916801 97.9104 104.904 111.8976 118.8912 125.8848 132.8784 139.87199 146.8656 153.85921 160.8528 167.84641 174.84 181.8336 188.82719 195.8208 202.81441 209.808 216.80161"
                 y="0"
                 id="tspan62"
                 style="font-size:12px;font-variant:normal;font-weight:normal;writing-mode:lr-tb;fill:#000000;fill-opacity:1;fill-rule:nonzero;stroke:none;font-family:Courier New;-inkscape-font-specification:Courier">[the],adjective,noun,verb_phrase</tspan></text>
</g><g
             transform="matrix(1,0,0,-1,0,375)"
             id="g64"><text
               transform="translate(3,164)"
               id="text66"><tspan
                 x="0 6.9935999 13.9872 20.980801 27.9744 34.967999 41.961601 48.9552 55.948799 62.942402 69.935997 76.929604 83.923203 90.916801 97.9104 104.904 111.8976 118.8912 125.8848 132.8784 139.87199 146.8656 153.85921 160.8528 167.84641 174.84 181.8336 188.82719 195.8208 202.81441"
                 y="0"
                 id="tspan68"
                 style="font-size:12px;font-variant:normal;font-weight:normal;writing-mode:lr-tb;fill:#000000;fill-opacity:1;fill-rule:nonzero;stroke:none;font-family:Courier New;-inkscape-font-specification:Courier">[the],[rapid],noun,verb_phrase</tspan></text>
</g><g
             transform="matrix(1,0,0,-1,0,375)"
             id="g70"><text
               transform="translate(4,205)"
               id="text72"><tspan
                 x="0 6.9935999 13.9872 20.980801 27.9744 34.967999 41.961601 48.9552 55.948799 62.942402 69.935997 76.929604 83.923203 90.916801 97.9104 104.904 111.8976 118.8912 125.8848 132.8784 139.87199 146.8656 153.85921 160.8528 167.84641 174.84 181.8336 188.82719 195.8208 202.81441 209.808 216.80161 223.7952 230.7888"
                 y="0"
                 id="tspan74"
                 style="font-size:12px;font-variant:normal;font-weight:normal;writing-mode:lr-tb;fill:#000000;fill-opacity:1;fill-rule:nonzero;stroke:none;font-family:Courier New;-inkscape-font-specification:Courier">[the],[rapid],[turtle],verb_phrase</tspan></text>
</g><g
             transform="matrix(1,0,0,-1,0,375)"
             id="g76"><text
               transform="translate(3,248)"
               id="text78"><tspan
                 x="0 6.9959998 13.992 20.988001 27.983999 34.98 41.976002 48.972 55.967999 62.964001 69.959999 76.956001 83.952003 90.947998 97.944 104.94 111.936 118.932 125.928 132.924 139.92 146.916 153.912 160.908 167.90401 174.89999 181.896 188.892 195.888 202.884 209.88 216.87601 223.87199 230.868 237.864 244.86 251.856 258.85199 265.84799 272.84399 279.84 286.836 293.832 300.828 307.82401 314.82001 321.81601 328.81201 335.80801 342.80399"
                 y="0"
                 id="tspan80"
                 style="font-size:12px;font-variant:normal;font-weight:normal;writing-mode:lr-tb;fill:#000000;fill-opacity:1;fill-rule:nonzero;stroke:none;font-family:Courier New;-inkscape-font-specification:Courier">[the],[rapid],[turtle],transitive_verb,noun_phrase</tspan></text>
</g><g
             transform="matrix(1,0,0,-1,0,375)"
             id="g82"><text
               transform="translate(4,290)"
               id="text84"><tspan
                 x="0 6.9948001 13.9896 20.9844 27.9792 34.973999 41.9688 48.9636 55.958401 62.953201 69.947998 76.942802 83.937599 90.932404 97.9272 104.922 111.9168 118.9116 125.9064 132.9012 139.896 146.89079 153.8856 160.8804 167.8752 174.87 181.86481 188.8596 195.8544 202.8492 209.84399 216.83881 223.8336 230.8284 237.8232 244.81799 251.81281 258.80759 265.8024 272.79721 279.79199 286.7868"
                 y="0"
                 id="tspan86"
                 style="font-size:12px;font-variant:normal;font-weight:normal;writing-mode:lr-tb;fill:#000000;fill-opacity:1;fill-rule:nonzero;stroke:none;font-family:Courier New;-inkscape-font-specification:Courier">[the],[rapid],[turtle],[beats],noun_phrase</tspan></text>
</g><g
             transform="matrix(1,0,0,-1,0,375)"
             id="g88"><text
               transform="translate(4,330)"
               id="text90"><tspan
                 x="0 6.9948001 13.9896 20.9844 27.9792 34.973999 41.9688 48.9636 55.958401 62.953201 69.947998 76.942802 83.937599 90.932404 97.9272 104.922 111.9168 118.9116 125.9064 132.9012 139.896 146.89079 153.8856 160.8804 167.8752 174.87 181.86481 188.8596 195.8544 202.8492 209.84399 216.83881 223.8336 230.8284 237.8232 244.81799 251.81281 258.80759 265.8024 272.79721 279.79199 286.7868"
                 y="0"
                 id="tspan92"
                 style="font-size:12px;font-variant:normal;font-weight:normal;writing-mode:lr-tb;fill:#000000;fill-opacity:1;fill-rule:nonzero;stroke:none;font-family:Courier New;-inkscape-font-specification:Courier">[the],[rapid],[turtle],[beats],proper_noun</tspan></text>
</g><g
             transform="matrix(1,0,0,-1,0,375)"
             id="g94"><text
               transform="translate(4,372)"
               id="text96"><tspan
                 x="0 6.9948001 13.9896 20.9844 27.9792 34.973999 41.9688 48.9636 55.958401 62.953201 69.947998 76.942802 83.937599 90.932404 97.9272 104.922 111.9168 118.9116 125.9064 132.9012 139.896 146.89079 153.8856 160.8804 167.8752 174.87 181.86481 188.8596 195.8544 202.8492 209.84399 216.83881 223.8336 230.8284 237.8232 244.81799 251.81281 258.80759 265.8024 272.79721 279.79199"
                 y="0"
                 id="tspan98"
                 style="font-size:12px;font-variant:normal;font-weight:normal;writing-mode:lr-tb;fill:#000000;fill-opacity:1;fill-rule:nonzero;stroke:none;font-family:Courier New;-inkscape-font-specification:Courier">[the],[rapid],[turtle],[beats],[achilles]</tspan></text>
</g><g
             transform="matrix(1,0,0,-1,0,375)"
             id="g100"><text
               transform="translate(354,9)"
               id="text102"><tspan
                 x="0 6.9912 13.9824 20.9736 27.9648 34.956001 41.947201 48.9384"
                 y="0"
                 id="tspan104"
                 style="font-size:12px;font-variant:normal;font-weight:normal;writing-mode:lr-tb;fill:#000000;fill-opacity:1;fill-rule:nonzero;stroke:none;font-family:Courier New;-inkscape-font-specification:Courier">sentence</tspan></text>
</g><g
             transform="matrix(1,0,0,-1,0,375)"
             id="g106"><text
               transform="translate(409.9296,9)"
               id="text108"><tspan
                 x="0"
                 y="0"
                 id="tspan110"
                 style="font-size:12px;font-variant:normal;font-weight:normal;writing-mode:lr-tb;fill:#000000;fill-opacity:1;fill-rule:nonzero;stroke:none;font-family:Courier New;-inkscape-font-specification:Courier">!</tspan></text>
</g><g
             transform="matrix(1,0,0,-1,0,375)"
             id="g112"><text
               transform="translate(416.9208,9)"
               id="text114"><tspan
                 x="0 6.9912 13.9824 20.9736 27.9648 34.956001 41.947201 48.9384 55.9296 62.920799 69.912003 76.903198 83.894402 90.885597 97.876801 104.868"
                 y="0"
                 id="tspan116"
                 style="font-size:12px;font-variant:normal;font-weight:normal;writing-mode:lr-tb;fill:#000000;fill-opacity:1;fill-rule:nonzero;stroke:none;font-family:Courier New;-inkscape-font-specification:Courier">--&gt; noun_phrase,</tspan></text>
</g><g
             transform="matrix(1,0,0,-1,0,375)"
             id="g118"><text
               transform="translate(444.8856,21)"
               id="text120"><tspan
                 x="0 6.9912 13.9824 20.9736 27.9648 34.956001 41.947201 48.9384 55.9296 62.920799 69.912003"
                 y="0"
                 id="tspan122"
                 style="font-size:12px;font-variant:normal;font-weight:normal;writing-mode:lr-tb;fill:#000000;fill-opacity:1;fill-rule:nonzero;stroke:none;font-family:Courier New;-inkscape-font-specification:Courier">verb_phrase</tspan></text>
</g><g
             transform="matrix(1,0,0,-1,0,375)"
             id="g124"><text
               transform="translate(334,44)"
               id="text126"><tspan
                 x="0 6.9912 13.9824 20.9736 27.9648 34.956001 41.947201 48.9384 55.9296 62.920799 69.912003"
                 y="0"
                 id="tspan128"
                 style="font-size:12px;font-variant:normal;font-weight:normal;writing-mode:lr-tb;fill:#000000;fill-opacity:1;fill-rule:nonzero;stroke:none;font-family:Courier New;-inkscape-font-specification:Courier">noun_phrase</tspan></text>
</g><g
             transform="matrix(1,0,0,-1,0,375)"
             id="g130"><text
               transform="translate(410.9032,44)"
               id="text132"><tspan
                 x="0"
                 y="0"
                 id="tspan134"
                 style="font-size:12px;font-variant:normal;font-weight:normal;writing-mode:lr-tb;fill:#000000;fill-opacity:1;fill-rule:nonzero;stroke:none;font-family:Courier New;-inkscape-font-specification:Courier">!</tspan></text>
</g><g
             transform="matrix(1,0,0,-1,0,375)"
             id="g136"><text
               transform="translate(417.8944,44)"
               id="text138"><tspan
                 x="0 6.9912 13.9824 20.9736 27.9648 34.956001 41.947201 48.9384 55.9296 62.920799 69.912003 76.903198"
                 y="0"
                 id="tspan140"
                 style="font-size:12px;font-variant:normal;font-weight:normal;writing-mode:lr-tb;fill:#000000;fill-opacity:1;fill-rule:nonzero;stroke:none;font-family:Courier New;-inkscape-font-specification:Courier">--&gt; article,</tspan></text>
</g><g
             transform="matrix(1,0,0,-1,0,375)"
             id="g142"><text
               transform="translate(445.8784,56)"
               id="text144"><tspan
                 x="0 6.9924002 13.9848 20.9772 27.969601 34.962002 41.954399 48.9468 55.939201 62.931599"
                 y="0"
                 id="tspan146"
                 style="font-size:12px;font-variant:normal;font-weight:normal;writing-mode:lr-tb;fill:#000000;fill-opacity:1;fill-rule:nonzero;stroke:none;font-family:Courier New;-inkscape-font-specification:Courier">adjective,</tspan></text>
</g><g
             transform="matrix(1,0,0,-1,0,375)"
             id="g148"><text
               transform="translate(445.84,68)"
               id="text150"><tspan
                 x="0 6.9899998 13.98 20.969999"
                 y="0"
                 id="tspan152"
                 style="font-size:12px;font-variant:normal;font-weight:normal;writing-mode:lr-tb;fill:#000000;fill-opacity:1;fill-rule:nonzero;stroke:none;font-family:Courier New;-inkscape-font-specification:Courier">noun</tspan></text>
</g><g
             transform="matrix(1,0,0,-1,0,375)"
             id="g154"><text
               transform="translate(364,83)"
               id="text156"><tspan
                 x="0 6.9875998 13.9752 20.962799 27.950399 34.938 41.925598"
                 y="0"
                 id="tspan158"
                 style="font-size:12px;font-variant:normal;font-weight:normal;writing-mode:lr-tb;fill:#000000;fill-opacity:1;fill-rule:nonzero;stroke:none;font-family:Courier New;-inkscape-font-specification:Courier">article</tspan></text>
</g><g
             transform="matrix(1,0,0,-1,0,375)"
             id="g160"><text
               transform="translate(412.9132,83)"
               id="text162"><tspan
                 x="0"
                 y="0"
                 id="tspan164"
                 style="font-size:12px;font-variant:normal;font-weight:normal;writing-mode:lr-tb;fill:#000000;fill-opacity:1;fill-rule:nonzero;stroke:none;font-family:Courier New;-inkscape-font-specification:Courier">!</tspan></text>
</g><g
             transform="matrix(1,0,0,-1,0,375)"
             id="g166"><text
               transform="translate(419.9008,83)"
               id="text168"><tspan
                 x="0 6.9875998 13.9752 20.962799 27.950399 34.938 41.925598 48.9132 55.900799"
                 y="0"
                 id="tspan170"
                 style="font-size:12px;font-variant:normal;font-weight:normal;writing-mode:lr-tb;fill:#000000;fill-opacity:1;fill-rule:nonzero;stroke:none;font-family:Courier New;-inkscape-font-specification:Courier">--&gt; [the]</tspan></text>
</g><g
             transform="matrix(1,0,0,-1,0,375)"
             id="g172"><text
               transform="translate(351,122)"
               id="text174"><tspan
                 x="0 6.9899998 13.98 20.969999 27.959999 34.950001 41.939999 48.93 55.919998"
                 y="0"
                 id="tspan176"
                 style="font-size:12px;font-variant:normal;font-weight:normal;writing-mode:lr-tb;fill:#000000;fill-opacity:1;fill-rule:nonzero;stroke:none;font-family:Courier New;-inkscape-font-specification:Courier">adjective</tspan></text>
</g><g
             transform="matrix(1,0,0,-1,0,375)"
             id="g178"><text
               transform="translate(413.91,122)"
               id="text180"><tspan
                 x="0"
                 y="0"
                 id="tspan182"
                 style="font-size:12px;font-variant:normal;font-weight:normal;writing-mode:lr-tb;fill:#000000;fill-opacity:1;fill-rule:nonzero;stroke:none;font-family:Courier New;-inkscape-font-specification:Courier">!</tspan></text>
</g><g
             transform="matrix(1,0,0,-1,0,375)"
             id="g184"><text
               transform="translate(420.9,122)"
               id="text186"><tspan
                 x="0 6.9899998 13.98 20.969999 27.959999 34.950001 41.939999 48.93 55.919998 62.91 69.900002"
                 y="0"
                 id="tspan188"
                 style="font-size:12px;font-variant:normal;font-weight:normal;writing-mode:lr-tb;fill:#000000;fill-opacity:1;fill-rule:nonzero;stroke:none;font-family:Courier New;-inkscape-font-specification:Courier">--&gt; [rapid]</tspan></text>
</g><g
             transform="matrix(1,0,0,-1,0,375)"
             id="g190"><text
               transform="translate(385,160)"
               id="text192"><tspan
                 x="0 6.9875998 13.9752 20.962799"
                 y="0"
                 id="tspan194"
                 style="font-size:12px;font-variant:normal;font-weight:normal;writing-mode:lr-tb;fill:#000000;fill-opacity:1;fill-rule:nonzero;stroke:none;font-family:Courier New;-inkscape-font-specification:Courier">noun</tspan></text>
</g><g
             transform="matrix(1,0,0,-1,0,375)"
             id="g196"><text
               transform="translate(412.9504,160)"
               id="text198"><tspan
                 x="0"
                 y="0"
                 id="tspan200"
                 style="font-size:12px;font-variant:normal;font-weight:normal;writing-mode:lr-tb;fill:#000000;fill-opacity:1;fill-rule:nonzero;stroke:none;font-family:Courier New;-inkscape-font-specification:Courier">!</tspan></text>
</g><g
             transform="matrix(1,0,0,-1,0,375)"
             id="g202"><text
               transform="translate(419.938,160)"
               id="text204"><tspan
                 x="0 6.9875998 13.9752 20.962799 27.950399 34.938 41.925598 48.9132 55.900799 62.888401 69.875999 76.863602"
                 y="0"
                 id="tspan206"
                 style="font-size:12px;font-variant:normal;font-weight:normal;writing-mode:lr-tb;fill:#000000;fill-opacity:1;fill-rule:nonzero;stroke:none;font-family:Courier New;-inkscape-font-specification:Courier">--&gt; [turtle]</tspan></text>
</g><g
             transform="matrix(1,0,0,-1,0,375)"
             id="g208"><text
               transform="translate(341,205)"
               id="text210"><tspan
                 x="0 6.9935999 13.9872 20.980801 27.9744 34.967999 41.961601 48.9552 55.948799 62.942402 69.935997"
                 y="0"
                 id="tspan212"
                 style="font-size:12px;font-variant:normal;font-weight:normal;writing-mode:lr-tb;fill:#000000;fill-opacity:1;fill-rule:nonzero;stroke:none;font-family:Courier New;-inkscape-font-specification:Courier">verb_phrase</tspan></text>
</g><g
             transform="matrix(1,0,0,-1,0,375)"
             id="g214"><text
               transform="translate(417.9296,205)"
               id="text216"><tspan
                 x="0"
                 y="0"
                 id="tspan218"
                 style="font-size:12px;font-variant:normal;font-weight:normal;writing-mode:lr-tb;fill:#000000;fill-opacity:1;fill-rule:nonzero;stroke:none;font-family:Courier New;-inkscape-font-specification:Courier">!</tspan></text>
</g><g
             transform="matrix(1,0,0,-1,0,375)"
             id="g220"><text
               transform="translate(424.9232,205)"
               id="text222"><tspan
                 x="0 6.9935999 13.9872 20.980801 27.9744 34.967999 41.961601 48.9552 55.948799 62.942402 69.935997 76.929604 83.923203 90.916801 97.9104 104.904 111.8976 118.8912 125.8848 132.8784"
                 y="0"
                 id="tspan224"
                 style="font-size:12px;font-variant:normal;font-weight:normal;writing-mode:lr-tb;fill:#000000;fill-opacity:1;fill-rule:nonzero;stroke:none;font-family:Courier New;-inkscape-font-specification:Courier">--&gt; transitive_verb,</tspan></text>
</g><g
             transform="matrix(1,0,0,-1,0,375)"
             id="g226"><text
               transform="translate(452.8784,217)"
               id="text228"><tspan
                 x="0 6.9924002 13.9848 20.9772 27.969601 34.962002 41.954399 48.9468 55.939201 62.931599 69.924004 76.916397"
                 y="0"
                 id="tspan230"
                 style="font-size:12px;font-variant:normal;font-weight:normal;writing-mode:lr-tb;fill:#000000;fill-opacity:1;fill-rule:nonzero;stroke:none;font-family:Courier New;-inkscape-font-specification:Courier">noun_phrase </tspan></text>
</g><g
             transform="matrix(1,0,0,-1,0,375)"
             id="g232"><text
               transform="translate(371,248)"
               id="text234"><tspan
                 x="0 6.9924002 13.9848 20.9772 27.969601 34.962002 41.954399 48.9468 55.939201 62.931599 69.924004 76.916397 83.908798 90.901199 97.8936"
                 y="0"
                 id="tspan236"
                 style="font-size:12px;font-variant:normal;font-weight:normal;writing-mode:lr-tb;fill:#000000;fill-opacity:1;fill-rule:nonzero;stroke:none;font-family:Courier New;-inkscape-font-specification:Courier">transitive_verb</tspan></text>
</g><g
             transform="matrix(1,0,0,-1,0,375)"
             id="g238"><text
               transform="translate(475.886,248)"
               id="text240"><tspan
                 x="0"
                 y="0"
                 id="tspan242"
                 style="font-size:12px;font-variant:normal;font-weight:normal;writing-mode:lr-tb;fill:#000000;fill-opacity:1;fill-rule:nonzero;stroke:none;font-family:Courier New;-inkscape-font-specification:Courier">!</tspan></text>
</g><g
             transform="matrix(1,0,0,-1,0,375)"
             id="g244"><text
               transform="translate(482.8784,248)"
               id="text246"><tspan
                 x="0 6.9924002 13.9848 20.9772 27.969601 34.962002 41.954399 48.9468 55.939201 62.931599 69.924004"
                 y="0"
                 id="tspan248"
                 style="font-size:12px;font-variant:normal;font-weight:normal;writing-mode:lr-tb;fill:#000000;fill-opacity:1;fill-rule:nonzero;stroke:none;font-family:Courier New;-inkscape-font-specification:Courier">--&gt; [beats]</tspan></text>
</g><g
             transform="matrix(1,0,0,-1,0,375)"
             id="g250"><text
               transform="translate(371,291)"
               id="text252"><tspan
                 x="0 6.9924002 13.9848 20.9772 27.969601 34.962002 41.954399 48.9468 55.939201 62.931599 69.924004"
                 y="0"
                 id="tspan254"
                 style="font-size:12px;font-variant:normal;font-weight:normal;writing-mode:lr-tb;fill:#000000;fill-opacity:1;fill-rule:nonzero;stroke:none;font-family:Courier New;-inkscape-font-specification:Courier">noun_phrase</tspan></text>
</g><g
             transform="matrix(1,0,0,-1,0,375)"
             id="g256"><text
               transform="translate(447.9164,291)"
               id="text258"><tspan
                 x="0"
                 y="0"
                 id="tspan260"
                 style="font-size:12px;font-variant:normal;font-weight:normal;writing-mode:lr-tb;fill:#000000;fill-opacity:1;fill-rule:nonzero;stroke:none;font-family:Courier New;-inkscape-font-specification:Courier">!</tspan></text>
</g><g
             transform="matrix(1,0,0,-1,0,375)"
             id="g262"><text
               transform="translate(454.9088,291)"
               id="text264"><tspan
                 x="0 6.9924002 13.9848 20.9772 27.969601 34.962002 41.954399 48.9468 55.939201 62.931599 69.924004 76.916397 83.908798 90.901199 97.8936"
                 y="0"
                 id="tspan266"
                 style="font-size:12px;font-variant:normal;font-weight:normal;writing-mode:lr-tb;fill:#000000;fill-opacity:1;fill-rule:nonzero;stroke:none;font-family:Courier New;-inkscape-font-specification:Courier">--&gt; proper_noun</tspan></text>
</g><g
             transform="matrix(1,0,0,-1,0,375)"
             id="g268"><text
               transform="translate(376,331)"
               id="text270"><tspan
                 x="0 6.9924002 13.9848 20.9772 27.969601 34.962002 41.954399 48.9468 55.939201 62.931599 69.924004"
                 y="0"
                 id="tspan272"
                 style="font-size:12px;font-variant:normal;font-weight:normal;writing-mode:lr-tb;fill:#000000;fill-opacity:1;fill-rule:nonzero;stroke:none;font-family:Courier New;-inkscape-font-specification:Courier">proper_noun</tspan></text>
</g><g
             transform="matrix(1,0,0,-1,0,375)"
             id="g274"><text
               transform="translate(452.9164,331)"
               id="text276"><tspan
                 x="0"
                 y="0"
                 id="tspan278"
                 style="font-size:12px;font-variant:normal;font-weight:normal;writing-mode:lr-tb;fill:#000000;fill-opacity:1;fill-rule:nonzero;stroke:none;font-family:Courier New;-inkscape-font-specification:Courier">!</tspan></text>
</g><g
             transform="matrix(1,0,0,-1,0,375)"
             id="g280"><text
               transform="translate(459.9088,331)"
               id="text282"><tspan
                 x="0 6.9924002 13.9848 20.9772 27.969601 34.962002 41.954399 48.9468 55.939201 62.931599 69.924004 76.916397 83.908798 90.901199"
                 y="0"
                 id="tspan284"
                 style="font-size:12px;font-variant:normal;font-weight:normal;writing-mode:lr-tb;fill:#000000;fill-opacity:1;fill-rule:nonzero;stroke:none;font-family:Courier New;-inkscape-font-specification:Courier">--&gt; [achilles]</tspan></text>
</g><g
             transform="matrix(1,0,0,-1,0,375)"
             id="g286"><path
               d="m 35.125,12 0,23.25"
               id="path288"
               style="fill:none;stroke:#000000;stroke-width:0.25;stroke-linecap:butt;stroke-linejoin:miter;stroke-miterlimit:10;stroke-opacity:1;stroke-dasharray:none" /></g><path
             d="m 419,361 0.25,0 0,-0.25 -296,-21 -0.25,0 0,0.25"
             id="path290"
             style="fill:#000000;fill-opacity:1;fill-rule:nonzero;stroke:none" /><g
             transform="matrix(1,0,0,-1,0,375)"
             id="g292"><path
               d="m 36.125,51 0,23.25"
               id="path294"
               style="fill:none;stroke:#000000;stroke-width:0.25;stroke-linecap:butt;stroke-linejoin:miter;stroke-miterlimit:10;stroke-opacity:1;stroke-dasharray:none" /></g><path
             d="m 420,322 0.25,0 0,-0.25 -296,-21 -0.25,0 0,0.25"
             id="path296"
             style="fill:#000000;fill-opacity:1;fill-rule:nonzero;stroke:none" /><g
             transform="matrix(1,0,0,-1,0,375)"
             id="g298"><path
               d="m 36.125,87 0,23.25"
               id="path300"
               style="fill:none;stroke:#000000;stroke-width:0.25;stroke-linecap:butt;stroke-linejoin:miter;stroke-miterlimit:10;stroke-opacity:1;stroke-dasharray:none" /></g><path
             d="m 420,286 0.25,0 0,-0.25 -296,-21 -0.25,0 0,0.25"
             id="path302"
             style="fill:#000000;fill-opacity:1;fill-rule:nonzero;stroke:none" /><g
             transform="matrix(1,0,0,-1,0,375)"
             id="g304"><path
               d="m 36.125,128 0,23.25"
               id="path306"
               style="fill:none;stroke:#000000;stroke-width:0.25;stroke-linecap:butt;stroke-linejoin:miter;stroke-miterlimit:10;stroke-opacity:1;stroke-dasharray:none" /></g><path
             d="m 420,245 0.25,0 0,-0.25 -296,-21 -0.25,0 0,0.25"
             id="path308"
             style="fill:#000000;fill-opacity:1;fill-rule:nonzero;stroke:none" /><g
             transform="matrix(1,0,0,-1,0,375)"
             id="g310"><path
               d="m 36.125,169 0,23.25"
               id="path312"
               style="fill:none;stroke:#000000;stroke-width:0.25;stroke-linecap:butt;stroke-linejoin:miter;stroke-miterlimit:10;stroke-opacity:1;stroke-dasharray:none" /></g><path
             d="m 420,204 0.25,0 0,-0.25 -296,-21 -0.25,0 0,0.25"
             id="path314"
             style="fill:#000000;fill-opacity:1;fill-rule:nonzero;stroke:none" /><g
             transform="matrix(1,0,0,-1,0,375)"
             id="g316"><path
               d="m 37.125,211 0,23.25"
               id="path318"
               style="fill:none;stroke:#000000;stroke-width:0.25;stroke-linecap:butt;stroke-linejoin:miter;stroke-miterlimit:10;stroke-opacity:1;stroke-dasharray:none" /></g><path
             d="m 421,162 0.25,0 0,-0.25 -296,-21 -0.25,0 0,0.25"
             id="path320"
             style="fill:#000000;fill-opacity:1;fill-rule:nonzero;stroke:none" /><g
             transform="matrix(1,0,0,-1,0,375)"
             id="g322"><path
               d="m 37.125,253 0,23.25"
               id="path324"
               style="fill:none;stroke:#000000;stroke-width:0.25;stroke-linecap:butt;stroke-linejoin:miter;stroke-miterlimit:10;stroke-opacity:1;stroke-dasharray:none" /></g><path
             d="m 421,120 0.25,0 0,-0.25 -296,-21.00001 -0.25,0 0,0.25"
             id="path326"
             style="fill:#000000;fill-opacity:1;fill-rule:nonzero;stroke:none" /><g
             transform="matrix(1,0,0,-1,0,375)"
             id="g328"><path
               d="m 37.125,294 0,23.25"
               id="path330"
               style="fill:none;stroke:#000000;stroke-width:0.25;stroke-linecap:butt;stroke-linejoin:miter;stroke-miterlimit:10;stroke-opacity:1;stroke-dasharray:none" /></g><path
             d="m 421,78.99999 0.25,0 0,-0.25 -296,-20.99999 -0.25,0 0,0.25"
             id="path332"
             style="fill:#000000;fill-opacity:1;fill-rule:nonzero;stroke:none" /><g
             transform="matrix(1,0,0,-1,0,375)"
             id="g334"><path
               d="m 37.125,335 0,23.25"
               id="path336"
               style="fill:none;stroke:#000000;stroke-width:0.25;stroke-linecap:butt;stroke-linejoin:miter;stroke-miterlimit:10;stroke-opacity:1;stroke-dasharray:none" /></g><path
             d="m 421,38 0.25,0 0,-0.25 -296,-21.00001 -0.25,0 0,0.25"
             id="path338"
             style="fill:#000000;fill-opacity:1;fill-rule:nonzero;stroke:none" /></g></g></g></g></svg>