<?xml version="1.0" encoding="UTF-8" standalone="no"?>
<!-- Created with Inkscape (http://www.inkscape.org/) -->

<svg
   xmlns:svg="http://www.w3.org/2000/svg"
   xmlns="http://www.w3.org/2000/svg"
   version="1.1"
   width="382.5"
   height="165"
   id="svg2"
   xml:space="preserve"><defs
     id="defs6"><clipPath
       id="clipPath20"><path
         d="M 0,0 306,0 306,132 0,132 0,0 z"
         id="path22" /></clipPath><clipPath
       id="clipPath30"><path
         d="m 0,132 306,0 0,-132.000001947745 -306,0 L 0,132 z"
         id="path32" /></clipPath><clipPath
       id="clipPath36"><path
         d="M 0,0 306,0 306,132 0,132 0,0 z"
         id="path38" /></clipPath><clipPath
       id="clipPath68"><path
         d="m 0,132 306,0 0,-132.000001947745 -306,0 L 0,132 z"
         id="path70" /></clipPath><clipPath
       id="clipPath74"><path
         d="m 257,71 28,0 0,11 -28,0 0,-11 z"
         id="path76" /></clipPath><clipPath
       id="clipPath88"><path
         d="m 0,132 306,0 0,-132.000001947745 -306,0 L 0,132 z"
         id="path90" /></clipPath><clipPath
       id="clipPath94"><path
         d="m 203,44 20,0 0,11 -20,0 0,-11 z"
         id="path96" /></clipPath><clipPath
       id="clipPath108"><path
         d="m 0,132 306,0 0,-132.000001947745 -306,0 L 0,132 z"
         id="path110" /></clipPath><clipPath
       id="clipPath114"><path
         d="M 0,0 306,0 306,132 0,132 0,0 z"
         id="path116" /></clipPath><clipPath
       id="clipPath128"><path
         d="m 0,132 306,0 0,-132.000001947745 -306,0 L 0,132 z"
         id="path130" /></clipPath><clipPath
       id="clipPath134"><path
         d="m 39,107 63,0 0,11 -63,0 0,-11 z"
         id="path136" /></clipPath><clipPath
       id="clipPath148"><path
         d="m 0,132 306,0 0,-132.000001947745 -306,0 L 0,132 z"
         id="path150" /></clipPath><clipPath
       id="clipPath154"><path
         d="m 161,107 61,0 0,11 -61,0 0,-11 z"
         id="path156" /></clipPath><clipPath
       id="clipPath168"><path
         d="m 0,132 306,0 0,-132.000001947745 -306,0 L 0,132 z"
         id="path170" /></clipPath><clipPath
       id="clipPath174"><path
         d="M 0,0 306,0 306,132 0,132 0,0 z"
         id="path176" /></clipPath><clipPath
       id="clipPath190"><path
         d="m 0,132 306,0 0,-132.000001947745 -306,0 L 0,132 z"
         id="path192" /></clipPath><clipPath
       id="clipPath196"><path
         d="m 139,18 29,0 0,11 -29,0 0,-11 z"
         id="path198" /></clipPath></defs><g
     transform="matrix(1.25,0,0,-1.25,0,165)"
     id="g12"><g
       id="g14" /><g
       id="g16"><g
         clip-path="url(#clipPath20)"
         id="g18"><path
           d="M 0,132 306,132 306,0 0,0 0,132 z"
           id="path24"
           style="fill:#ffffff;fill-opacity:0;fill-rule:evenodd;stroke:none" /></g></g><g
       id="g26"><g
         clip-path="url(#clipPath30)"
         id="g28"><g
           clip-path="url(#clipPath36)"
           id="g34"><path
             d="M 9,25 27,40 27,25 27,8.999998 9,25"
             id="path40"
             style="fill:#dfdfdf;fill-opacity:1;fill-rule:evenodd;stroke:none" /><path
             d="M 297,25 279,8.999998 279,25 l 0,15 18,-15"
             id="path42"
             style="fill:#dfdfdf;fill-opacity:1;fill-rule:evenodd;stroke:none" /><g
             transform="matrix(1,0,0,-1,0,132)"
             id="g44"><path
               d="m 19,107 268,0"
               id="path46"
               style="fill:none;stroke:#dfdfdf;stroke-width:16;stroke-linecap:butt;stroke-linejoin:miter;stroke-miterlimit:10;stroke-opacity:1;stroke-dasharray:none" /></g><path
             d="m 124,51 18,16 0,-16 0,-16 -18,16"
             id="path48"
             style="fill:#dfdfdf;fill-opacity:1;fill-rule:evenodd;stroke:none" /><path
             d="m 297,51 -18,-16 0,16 0,16 18,-16"
             id="path50"
             style="fill:#dfdfdf;fill-opacity:1;fill-rule:evenodd;stroke:none" /><g
             transform="matrix(1,0,0,-1,0,132)"
             id="g52"><path
               d="m 134,81 153,0"
               id="path54"
               style="fill:none;stroke:#dfdfdf;stroke-width:16;stroke-linecap:butt;stroke-linejoin:miter;stroke-miterlimit:10;stroke-opacity:1;stroke-dasharray:none" /></g><path
             d="m 239,77 19,16 0,-16 0,-15 -19,15"
             id="path56"
             style="fill:#dfdfdf;fill-opacity:1;fill-rule:evenodd;stroke:none" /><path
             d="m 297,77 -18,-15 0,15 0,16 18,-16"
             id="path58"
             style="fill:#dfdfdf;fill-opacity:1;fill-rule:evenodd;stroke:none" /><g
             transform="matrix(1,0,0,-1,0,132)"
             id="g60"><path
               d="m 250,55 37,0"
               id="path62"
               style="fill:none;stroke:#dfdfdf;stroke-width:16;stroke-linecap:butt;stroke-linejoin:miter;stroke-miterlimit:10;stroke-opacity:1;stroke-dasharray:none" /></g></g></g></g><g
       id="g64"><g
         clip-path="url(#clipPath68)"
         id="g66"><g
           clip-path="url(#clipPath74)"
           id="g72"><g
             transform="matrix(1,0,0,-1,0,132)"
             id="g78"><text
               transform="translate(258,59)"
               id="text80"><tspan
                 x="0 6.6700001 13.34"
                 y="0"
                 id="tspan82"
                 style="font-size:10px;font-variant:normal;font-weight:normal;writing-mode:lr-tb;fill:#000000;fill-opacity:1;fill-rule:nonzero;stroke:none;font-family:Helvetica;-inkscape-font-specification:Helvetica">VP2</tspan></text>
</g></g></g></g><g
       id="g84"><g
         clip-path="url(#clipPath88)"
         id="g86"><g
           clip-path="url(#clipPath94)"
           id="g92"><g
             transform="matrix(1,0,0,-1,0,132)"
             id="g98"><text
               transform="translate(204,86)"
               id="text100"><tspan
                 x="0 6.6700001 13.34"
                 y="0"
                 id="tspan102"
                 style="font-size:10px;font-variant:normal;font-weight:normal;writing-mode:lr-tb;fill:#000000;fill-opacity:1;fill-rule:nonzero;stroke:none;font-family:Helvetica;-inkscape-font-specification:Helvetica">VP1</tspan></text>
</g></g></g></g><g
       id="g104"><g
         clip-path="url(#clipPath108)"
         id="g106"><g
           clip-path="url(#clipPath114)"
           id="g112"><path
             d="m 9,130 289,0 0,-34 -289,0 0,34 z"
             id="path118"
             style="fill:#ffffff;fill-opacity:1;fill-rule:nonzero;stroke:none" /><g
             transform="matrix(1,0,0,-1,0,132)"
             id="g120"><path
               d="m 9.5,2.5 288,0 0,33 -288,0 0,-33 z"
               id="path122"
               style="fill:none;stroke:#000000;stroke-width:1;stroke-linecap:butt;stroke-linejoin:miter;stroke-miterlimit:10;stroke-opacity:1;stroke-dasharray:none" /></g></g></g></g><g
       id="g124"><g
         clip-path="url(#clipPath128)"
         id="g126"><g
           clip-path="url(#clipPath134)"
           id="g132"><g
             transform="matrix(1,0,0,-1,0,132)"
             id="g138"><text
               transform="translate(40,23)"
               id="text140"><tspan
                 x="0 5.5619998 11.124 16.686001 22.247999 25.025999 30.587999 36.150002 39.48 45.042 50.042"
                 y="0"
                 id="tspan142"
                 style="font-size:10px;font-variant:normal;font-weight:normal;writing-mode:lr-tb;fill:#000000;fill-opacity:1;fill-rule:nonzero;stroke:none;font-family:Helvetica;-inkscape-font-specification:Helvetica">noun phrase</tspan></text>
</g></g></g></g><g
       id="g144"><g
         clip-path="url(#clipPath148)"
         id="g146"><g
           clip-path="url(#clipPath154)"
           id="g152"><g
             transform="matrix(1,0,0,-1,0,132)"
             id="g158"><text
               transform="translate(162,23)"
               id="text160"><tspan
                 x="0 5 10.562 13.892 19.454 22.232 27.794001 33.355999 36.686001 42.248001 47.248001"
                 y="0"
                 id="tspan162"
                 style="font-size:10px;font-variant:normal;font-weight:normal;writing-mode:lr-tb;fill:#000000;fill-opacity:1;fill-rule:nonzero;stroke:none;font-family:Helvetica;-inkscape-font-specification:Helvetica">verb phrase</tspan></text>
</g></g></g></g><g
       id="g164"><g
         clip-path="url(#clipPath168)"
         id="g166"><g
           clip-path="url(#clipPath174)"
           id="g172"><g
             transform="matrix(1,0,0,-1,0,132)"
             id="g178"><path
               d="m 124.5,2 0,34"
               id="path180"
               style="fill:none;stroke:#000000;stroke-width:1;stroke-linecap:butt;stroke-linejoin:miter;stroke-miterlimit:10;stroke-opacity:1;stroke-dasharray:none" /></g><g
             transform="matrix(1,0,0,-1,0,132)"
             id="g182"><path
               d="m 239.5,2 0,34"
               id="path184"
               style="fill:none;stroke:#000000;stroke-width:1;stroke-linecap:butt;stroke-linejoin:miter;stroke-miterlimit:10;stroke-opacity:1;stroke-dasharray:none" /></g></g></g></g><g
       id="g186"><g
         clip-path="url(#clipPath190)"
         id="g188"><g
           clip-path="url(#clipPath196)"
           id="g194"><g
             transform="matrix(1,0,0,-1,0,132)"
             id="g200"><text
               transform="translate(140,112)"
               id="text202"><tspan
                 x="0 7.2220001 13.892"
                 y="0"
                 id="tspan204"
                 style="font-size:10px;font-variant:normal;font-weight:normal;writing-mode:lr-tb;fill:#000000;fill-opacity:1;fill-rule:nonzero;stroke:none;font-family:Helvetica;-inkscape-font-specification:Helvetica">NP1</tspan></text>
</g></g></g></g></g></svg>