<?xml version="1.0" encoding="UTF-8" standalone="no"?>
<!-- Created with Inkscape (http://www.inkscape.org/) -->

<svg
   xmlns:svg="http://www.w3.org/2000/svg"
   xmlns="http://www.w3.org/2000/svg"
   version="1.1"
   width="496.25"
   height="353.75"
   id="svg2"
   xml:space="preserve"><defs
     id="defs6"><clipPath
       id="clipPath20"><path
         d="M 0,0 397,0 397,283 0,283 0,0 z"
         id="path22" /></clipPath><clipPath
       id="clipPath30"><path
         d="m 0,283 397,0 0,-283.000004175847 -397,0 L 0,283 z"
         id="path32" /></clipPath><clipPath
       id="clipPath36"><path
         d="M 0,0 397,0 397,283 0,283 0,0 z"
         id="path38" /></clipPath></defs><g
     transform="matrix(1.25,0,0,-1.25,0,353.75)"
     id="g12"><g
       id="g14" /><g
       id="g16"><g
         clip-path="url(#clipPath20)"
         id="g18"><path
           d="M 0,283 397,283 397,0 0,0 0,283 z"
           id="path24"
           style="fill:#ffffff;fill-opacity:0;fill-rule:evenodd;stroke:none" /></g></g><g
       id="g26"><g
         clip-path="url(#clipPath30)"
         id="g28"><g
           clip-path="url(#clipPath36)"
           id="g34"><g
             transform="matrix(1,0,0,-1,0,283)"
             id="g40"><path
               d="m 95.5,2.5 c 19.8822,0 36,16.11774 36,36 0,0 0,0 0,0"
               id="path42"
               style="fill:none;stroke:#000000;stroke-width:1;stroke-linecap:butt;stroke-linejoin:miter;stroke-miterlimit:10;stroke-opacity:1;stroke-dasharray:none" /></g><g
             transform="matrix(1,0,0,-1,0,283)"
             id="g44"><path
               d="m 131.5,38.5 c 0,19.88225 -16.1178,36 -36,36 0,0 0,0 0,0"
               id="path46"
               style="fill:none;stroke:#000000;stroke-width:1;stroke-linecap:butt;stroke-linejoin:miter;stroke-miterlimit:10;stroke-opacity:1;stroke-dasharray:none" /></g><g
             transform="matrix(1,0,0,-1,0,283)"
             id="g48"><path
               d="m 95.5,2 0,73"
               id="path50"
               style="fill:none;stroke:#000000;stroke-width:1;stroke-linecap:butt;stroke-linejoin:miter;stroke-miterlimit:10;stroke-opacity:1;stroke-dasharray:none" /></g><g
             transform="matrix(1,0,0,-1,0,283)"
             id="g52"><path
               d="m 302.5,29.5 c 19.8823,0 36,16.11775 36,36 0,0 0,0 0,0"
               id="path54"
               style="fill:none;stroke:#000000;stroke-width:1;stroke-linecap:butt;stroke-linejoin:miter;stroke-miterlimit:10;stroke-opacity:1;stroke-dasharray:none" /></g><g
             transform="matrix(1,0,0,-1,0,283)"
             id="g56"><path
               d="m 338.5,65.5 c 0,19.88225 -16.1177,36 -36,36 0,0 0,0 0,0"
               id="path58"
               style="fill:none;stroke:#000000;stroke-width:1;stroke-linecap:butt;stroke-linejoin:miter;stroke-miterlimit:10;stroke-opacity:1;stroke-dasharray:none" /></g><g
             transform="matrix(1,0,0,-1,0,283)"
             id="g60"><path
               d="m 302.5,29 0,73"
               id="path62"
               style="fill:none;stroke:#000000;stroke-width:1;stroke-linecap:butt;stroke-linejoin:miter;stroke-miterlimit:10;stroke-opacity:1;stroke-dasharray:none" /></g><g
             transform="matrix(1,0,0,-1,0,283)"
             id="g64"><path
               d="m 302.5,164.5 c 19.8823,0 36,16.1178 36,36 0,0 0,0 0,0"
               id="path66"
               style="fill:none;stroke:#000000;stroke-width:1;stroke-linecap:butt;stroke-linejoin:miter;stroke-miterlimit:10;stroke-opacity:1;stroke-dasharray:none" /></g><g
             transform="matrix(1,0,0,-1,0,283)"
             id="g68"><path
               d="m 338.5,200.5 c 0,19.8822 -16.1177,36 -36,36 0,0 0,0 0,0"
               id="path70"
               style="fill:none;stroke:#000000;stroke-width:1;stroke-linecap:butt;stroke-linejoin:miter;stroke-miterlimit:10;stroke-opacity:1;stroke-dasharray:none" /></g><g
             transform="matrix(1,0,0,-1,0,283)"
             id="g72"><path
               d="m 302.5,164 0,73"
               id="path74"
               style="fill:none;stroke:#000000;stroke-width:1;stroke-linecap:butt;stroke-linejoin:miter;stroke-miterlimit:10;stroke-opacity:1;stroke-dasharray:none" /></g><g
             transform="matrix(1,0,0,-1,0,283)"
             id="g76"><path
               d="m 185.5,209.5 c 19.8822,0 36,16.1178 36,36 0,0 0,0 0,0"
               id="path78"
               style="fill:none;stroke:#000000;stroke-width:1;stroke-linecap:butt;stroke-linejoin:miter;stroke-miterlimit:10;stroke-opacity:1;stroke-dasharray:none" /></g><g
             transform="matrix(1,0,0,-1,0,283)"
             id="g80"><path
               d="m 221.5,245.5 c 0,19.8823 -16.1178,36 -36,36 0,0 0,0 0,0"
               id="path82"
               style="fill:none;stroke:#000000;stroke-width:1;stroke-linecap:butt;stroke-linejoin:miter;stroke-miterlimit:10;stroke-opacity:1;stroke-dasharray:none" /></g><g
             transform="matrix(1,0,0,-1,0,283)"
             id="g84"><path
               d="m 185.5,209 0,73"
               id="path86"
               style="fill:none;stroke:#000000;stroke-width:1;stroke-linecap:butt;stroke-linejoin:miter;stroke-miterlimit:10;stroke-opacity:1;stroke-dasharray:none" /></g><g
             transform="matrix(1,0,0,-1,0,283)"
             id="g88"><path
               d="m 185.5,119.5 c 19.8822,0 36,16.1178 36,36 0,0 0,0 0,0"
               id="path90"
               style="fill:none;stroke:#000000;stroke-width:1;stroke-linecap:butt;stroke-linejoin:miter;stroke-miterlimit:10;stroke-opacity:1;stroke-dasharray:none" /></g><g
             transform="matrix(1,0,0,-1,0,283)"
             id="g92"><path
               d="m 221.5,155.5 c 0,19.8822 -16.1178,36 -36,36 0,0 0,0 0,0"
               id="path94"
               style="fill:none;stroke:#000000;stroke-width:1;stroke-linecap:butt;stroke-linejoin:miter;stroke-miterlimit:10;stroke-opacity:1;stroke-dasharray:none" /></g><g
             transform="matrix(1,0,0,-1,0,283)"
             id="g96"><path
               d="m 185.5,119 0,73"
               id="path98"
               style="fill:none;stroke:#000000;stroke-width:1;stroke-linecap:butt;stroke-linejoin:miter;stroke-miterlimit:10;stroke-opacity:1;stroke-dasharray:none" /></g><g
             transform="matrix(1,0,0,-1,0,283)"
             id="g100"><path
               d="m 5,20.5 91,0"
               id="path102"
               style="fill:none;stroke:#000000;stroke-width:1;stroke-linecap:butt;stroke-linejoin:miter;stroke-miterlimit:10;stroke-opacity:1;stroke-dasharray:none" /></g><g
             transform="matrix(1,0,0,-1,0,283)"
             id="g104"><path
               d="m 5,56.5 91,0"
               id="path106"
               style="fill:none;stroke:#000000;stroke-width:1;stroke-linecap:butt;stroke-linejoin:miter;stroke-miterlimit:10;stroke-opacity:1;stroke-dasharray:none" /></g><g
             transform="matrix(1,0,0,-1,0,283)"
             id="g108"><path
               d="m 5,92.5 253,0"
               id="path110"
               style="fill:none;stroke:#000000;stroke-width:1;stroke-linecap:butt;stroke-linejoin:miter;stroke-miterlimit:10;stroke-opacity:1;stroke-dasharray:none" /></g><g
             transform="matrix(1,0,0,-1,0,283)"
             id="g112"><path
               d="m 131,38.5 127,0"
               id="path114"
               style="fill:none;stroke:#000000;stroke-width:1;stroke-linecap:butt;stroke-linejoin:miter;stroke-miterlimit:10;stroke-opacity:1;stroke-dasharray:none" /></g><g
             transform="matrix(1,0,0,-1,0,283)"
             id="g116"><path
               d="m 257.5,38 0,10"
               id="path118"
               style="fill:none;stroke:#000000;stroke-width:1;stroke-linecap:butt;stroke-linejoin:miter;stroke-miterlimit:10;stroke-opacity:1;stroke-dasharray:none" /></g><g
             transform="matrix(1,0,0,-1,0,283)"
             id="g120"><path
               d="m 257,47.5 46,0"
               id="path122"
               style="fill:none;stroke:#000000;stroke-width:1;stroke-linecap:butt;stroke-linejoin:miter;stroke-miterlimit:10;stroke-opacity:1;stroke-dasharray:none" /></g><g
             transform="matrix(1,0,0,-1,0,283)"
             id="g124"><path
               d="m 257.5,83 0,10"
               id="path126"
               style="fill:none;stroke:#000000;stroke-width:1;stroke-linecap:butt;stroke-linejoin:miter;stroke-miterlimit:10;stroke-opacity:1;stroke-dasharray:none" /></g><g
             transform="matrix(1,0,0,-1,0,283)"
             id="g128"><path
               d="m 257,83.5 46,0"
               id="path130"
               style="fill:none;stroke:#000000;stroke-width:1;stroke-linecap:butt;stroke-linejoin:miter;stroke-miterlimit:10;stroke-opacity:1;stroke-dasharray:none" /></g><g
             transform="matrix(1,0,0,-1,0,283)"
             id="g132"><path
               d="m 338,65.5 55,0"
               id="path134"
               style="fill:none;stroke:#000000;stroke-width:1;stroke-linecap:butt;stroke-linejoin:miter;stroke-miterlimit:10;stroke-opacity:1;stroke-dasharray:none" /></g><g
             transform="matrix(1,0,0,-1,0,283)"
             id="g136"><path
               d="m 338,200.5 55,0"
               id="path138"
               style="fill:none;stroke:#000000;stroke-width:1;stroke-linecap:butt;stroke-linejoin:miter;stroke-miterlimit:10;stroke-opacity:1;stroke-dasharray:none" /></g><g
             transform="matrix(1,0,0,-1,0,283)"
             id="g140"><path
               d="m 257.5,155 0,28"
               id="path142"
               style="fill:none;stroke:#000000;stroke-width:1;stroke-linecap:butt;stroke-linejoin:miter;stroke-miterlimit:10;stroke-opacity:1;stroke-dasharray:none" /></g><g
             transform="matrix(1,0,0,-1,0,283)"
             id="g144"><path
               d="m 257,182.5 46,0"
               id="path146"
               style="fill:none;stroke:#000000;stroke-width:1;stroke-linecap:butt;stroke-linejoin:miter;stroke-miterlimit:10;stroke-opacity:1;stroke-dasharray:none" /></g><g
             transform="matrix(1,0,0,-1,0,283)"
             id="g148"><path
               d="m 257.5,218 0,28"
               id="path150"
               style="fill:none;stroke:#000000;stroke-width:1;stroke-linecap:butt;stroke-linejoin:miter;stroke-miterlimit:10;stroke-opacity:1;stroke-dasharray:none" /></g><g
             transform="matrix(1,0,0,-1,0,283)"
             id="g152"><path
               d="m 257,218.5 46,0"
               id="path154"
               style="fill:none;stroke:#000000;stroke-width:1;stroke-linecap:butt;stroke-linejoin:miter;stroke-miterlimit:10;stroke-opacity:1;stroke-dasharray:none" /></g><g
             transform="matrix(1,0,0,-1,0,283)"
             id="g156"><path
               d="m 221,155.5 37,0"
               id="path158"
               style="fill:none;stroke:#000000;stroke-width:1;stroke-linecap:butt;stroke-linejoin:miter;stroke-miterlimit:10;stroke-opacity:1;stroke-dasharray:none" /></g><g
             transform="matrix(1,0,0,-1,0,283)"
             id="g160"><path
               d="m 221,245.5 37,0"
               id="path162"
               style="fill:none;stroke:#000000;stroke-width:1;stroke-linecap:butt;stroke-linejoin:miter;stroke-miterlimit:10;stroke-opacity:1;stroke-dasharray:none" /></g><g
             transform="matrix(1,0,0,-1,0,283)"
             id="g164"><path
               d="m 50.5,56 0,28"
               id="path166"
               style="fill:none;stroke:#000000;stroke-width:1;stroke-linecap:butt;stroke-linejoin:miter;stroke-miterlimit:10;stroke-opacity:1;stroke-dasharray:none" /></g><g
             transform="matrix(1,0,0,-1,0,283)"
             id="g168"><path
               d="m 50.5,101 0,73"
               id="path170"
               style="fill:none;stroke:#000000;stroke-width:1;stroke-linecap:butt;stroke-linejoin:miter;stroke-miterlimit:10;stroke-opacity:1;stroke-dasharray:none" /></g><g
             transform="matrix(1,0,0,-1,0,283)"
             id="g172"><path
               d="m 50,173.5 136,0"
               id="path174"
               style="fill:none;stroke:#000000;stroke-width:1;stroke-linecap:butt;stroke-linejoin:miter;stroke-miterlimit:10;stroke-opacity:1;stroke-dasharray:none" /></g><g
             transform="matrix(1,0,0,-1,0,283)"
             id="g176"><path
               d="m 68,137.5 118,0"
               id="path178"
               style="fill:none;stroke:#000000;stroke-width:1;stroke-linecap:butt;stroke-linejoin:miter;stroke-miterlimit:10;stroke-opacity:1;stroke-dasharray:none" /></g><g
             transform="matrix(1,0,0,-1,0,283)"
             id="g180"><path
               d="m 68.5,101 0,37"
               id="path182"
               style="fill:none;stroke:#000000;stroke-width:1;stroke-linecap:butt;stroke-linejoin:miter;stroke-miterlimit:10;stroke-opacity:1;stroke-dasharray:none" /></g><g
             transform="matrix(1,0,0,-1,0,283)"
             id="g184"><path
               d="m 68.5,65 0,19"
               id="path186"
               style="fill:none;stroke:#000000;stroke-width:1;stroke-linecap:butt;stroke-linejoin:miter;stroke-miterlimit:10;stroke-opacity:1;stroke-dasharray:none" /></g><g
             transform="matrix(1,0,0,-1,0,283)"
             id="g188"><path
               d="m 68.5,20 0,28"
               id="path190"
               style="fill:none;stroke:#000000;stroke-width:1;stroke-linecap:butt;stroke-linejoin:miter;stroke-miterlimit:10;stroke-opacity:1;stroke-dasharray:none" /></g><g
             transform="matrix(1,0,0,-1,0,283)"
             id="g192"><path
               d="m 158,218.5 28,0"
               id="path194"
               style="fill:none;stroke:#000000;stroke-width:1;stroke-linecap:butt;stroke-linejoin:miter;stroke-miterlimit:10;stroke-opacity:1;stroke-dasharray:none" /></g><g
             transform="matrix(1,0,0,-1,0,283)"
             id="g196"><path
               d="m 158.5,182 0,37"
               id="path198"
               style="fill:none;stroke:#000000;stroke-width:1;stroke-linecap:butt;stroke-linejoin:miter;stroke-miterlimit:10;stroke-opacity:1;stroke-dasharray:none" /></g><g
             transform="matrix(1,0,0,-1,0,283)"
             id="g200"><path
               d="m 158.5,146 0,19"
               id="path202"
               style="fill:none;stroke:#000000;stroke-width:1;stroke-linecap:butt;stroke-linejoin:miter;stroke-miterlimit:10;stroke-opacity:1;stroke-dasharray:none" /></g><g
             transform="matrix(1,0,0,-1,0,283)"
             id="g204"><path
               d="m 158.5,101 0,28"
               id="path206"
               style="fill:none;stroke:#000000;stroke-width:1;stroke-linecap:butt;stroke-linejoin:miter;stroke-miterlimit:10;stroke-opacity:1;stroke-dasharray:none" /></g><g
             transform="matrix(1,0,0,-1,0,283)"
             id="g208"><path
               d="m 158.5,38 0,46"
               id="path210"
               style="fill:none;stroke:#000000;stroke-width:1;stroke-linecap:butt;stroke-linejoin:miter;stroke-miterlimit:10;stroke-opacity:1;stroke-dasharray:none" /></g><g
             transform="matrix(1,0,0,-1,0,283)"
             id="g212"><path
               d="m 140,263.5 46,0"
               id="path214"
               style="fill:none;stroke:#000000;stroke-width:1;stroke-linecap:butt;stroke-linejoin:miter;stroke-miterlimit:10;stroke-opacity:1;stroke-dasharray:none" /></g><g
             transform="matrix(1,0,0,-1,0,283)"
             id="g216"><path
               d="m 140.5,182 0,82"
               id="path218"
               style="fill:none;stroke:#000000;stroke-width:1;stroke-linecap:butt;stroke-linejoin:miter;stroke-miterlimit:10;stroke-opacity:1;stroke-dasharray:none" /></g><g
             transform="matrix(1,0,0,-1,0,283)"
             id="g220"><path
               d="m 140.5,146 0,19"
               id="path222"
               style="fill:none;stroke:#000000;stroke-width:1;stroke-linecap:butt;stroke-linejoin:miter;stroke-miterlimit:10;stroke-opacity:1;stroke-dasharray:none" /></g><g
             transform="matrix(1,0,0,-1,0,283)"
             id="g224"><path
               d="m 140.5,92 0,37"
               id="path226"
               style="fill:none;stroke:#000000;stroke-width:1;stroke-linecap:butt;stroke-linejoin:miter;stroke-miterlimit:10;stroke-opacity:1;stroke-dasharray:none" /></g><path
             d="m 72,262.5 c 0,-1.933 -1.56699,-3.5 -3.5,-3.5 -1.933,0 -3.5,1.567 -3.5,3.5 0,1.933 1.567,3.5 3.5,3.5 1.93301,0 3.5,-1.567 3.5,-3.5"
             id="path228"
             style="fill:#000000;fill-opacity:1;fill-rule:evenodd;stroke:none" /><g
             transform="matrix(1,0,0,-1,0,283)"
             id="g230"><path
               d="m 71.5,20.5 c 0,1.65686 -1.34315,3 -3,3 -1.65685,0 -3,-1.34314 -3,-3 0,-1.65686 1.34315,-3 3,-3 1.65685,0 3,1.34314 3,3 z"
               id="path232"
               style="fill:none;stroke:#000000;stroke-width:1;stroke-linecap:butt;stroke-linejoin:miter;stroke-miterlimit:10;stroke-opacity:1;stroke-dasharray:none" /></g><path
             d="m 54,226.5 c 0,-1.933 -1.56701,-3.5 -3.5,-3.5 -1.93299,0 -3.5,1.567 -3.5,3.5 0,1.933 1.56701,3.5 3.5,3.5 1.93299,0 3.5,-1.567 3.5,-3.5"
             id="path234"
             style="fill:#000000;fill-opacity:1;fill-rule:evenodd;stroke:none" /><g
             transform="matrix(1,0,0,-1,0,283)"
             id="g236"><path
               d="m 53.5,56.5 c 0,1.65686 -1.34315,3 -3,3 -1.65685,0 -3,-1.34314 -3,-3 0,-1.65686 1.34315,-3 3,-3 1.65685,0 3,1.34314 3,3 z"
               id="path238"
               style="fill:none;stroke:#000000;stroke-width:1;stroke-linecap:butt;stroke-linejoin:miter;stroke-miterlimit:10;stroke-opacity:1;stroke-dasharray:none" /></g><path
             d="m 162,244.5 c 0,-1.933 -1.567,-3.5 -3.5,-3.5 -1.933,0 -3.5,1.567 -3.5,3.5 0,1.933 1.567,3.5 3.5,3.5 1.933,0 3.5,-1.567 3.5,-3.5"
             id="path240"
             style="fill:#000000;fill-opacity:1;fill-rule:evenodd;stroke:none" /><g
             transform="matrix(1,0,0,-1,0,283)"
             id="g242"><path
               d="m 161.5,38.5 c 0,1.65686 -1.3431,3 -3,3 -1.6569,0 -3,-1.34314 -3,-3 0,-1.65686 1.3431,-3 3,-3 1.6569,0 3,1.34314 3,3 z"
               id="path244"
               style="fill:none;stroke:#000000;stroke-width:1;stroke-linecap:butt;stroke-linejoin:miter;stroke-miterlimit:10;stroke-opacity:1;stroke-dasharray:none" /></g><path
             d="m 144,190.5 c 0,-1.933 -1.567,-3.5 -3.5,-3.5 -1.933,0 -3.5,1.567 -3.5,3.5 0,1.933 1.567,3.5 3.5,3.5 1.933,0 3.5,-1.567 3.5,-3.5"
             id="path246"
             style="fill:#000000;fill-opacity:1;fill-rule:evenodd;stroke:none" /><g
             transform="matrix(1,0,0,-1,0,283)"
             id="g248"><path
               d="m 143.5,92.5 c 0,1.65686 -1.3431,3 -3,3 -1.6569,0 -3,-1.34314 -3,-3 0,-1.65686 1.3431,-3 3,-3 1.6569,0 3,1.34314 3,3 z"
               id="path250"
               style="fill:none;stroke:#000000;stroke-width:1;stroke-linecap:butt;stroke-linejoin:miter;stroke-miterlimit:10;stroke-opacity:1;stroke-dasharray:none" /></g><path
             d="M 9,262.5 C 9,260.567 7.432997,259 5.5,259 3.567003,259 2,260.567 2,262.5 c 0,1.933 1.567003,3.5 3.5,3.5 1.932997,0 3.5,-1.567 3.5,-3.5"
             id="path252"
             style="fill:#ffffff;fill-opacity:1;fill-rule:evenodd;stroke:none" /><g
             transform="matrix(1,0,0,-1,0,283)"
             id="g254"><path
               d="m 8.5,20.5 c 0,1.65686 -1.343146,3 -3,3 -1.656854,0 -3,-1.34314 -3,-3 0,-1.65686 1.343146,-3 3,-3 1.656854,0 3,1.34314 3,3 z"
               id="path256"
               style="fill:none;stroke:#000000;stroke-width:1;stroke-linecap:butt;stroke-linejoin:miter;stroke-miterlimit:10;stroke-opacity:1;stroke-dasharray:none" /></g><path
             d="M 9,226.5 C 9,224.567 7.432997,223 5.5,223 3.567003,223 2,224.567 2,226.5 c 0,1.933 1.567003,3.5 3.5,3.5 1.932997,0 3.5,-1.567 3.5,-3.5"
             id="path258"
             style="fill:#ffffff;fill-opacity:1;fill-rule:evenodd;stroke:none" /><g
             transform="matrix(1,0,0,-1,0,283)"
             id="g260"><path
               d="m 8.5,56.5 c 0,1.65686 -1.343146,3 -3,3 -1.656854,0 -3,-1.34314 -3,-3 0,-1.65686 1.343146,-3 3,-3 1.656854,0 3,1.34314 3,3 z"
               id="path262"
               style="fill:none;stroke:#000000;stroke-width:1;stroke-linecap:butt;stroke-linejoin:miter;stroke-miterlimit:10;stroke-opacity:1;stroke-dasharray:none" /></g><path
             d="M 9,190.5 C 9,188.567 7.432997,187 5.5,187 3.567003,187 2,188.567 2,190.5 c 0,1.933 1.567003,3.5 3.5,3.5 1.932997,0 3.5,-1.567 3.5,-3.5"
             id="path264"
             style="fill:#ffffff;fill-opacity:1;fill-rule:evenodd;stroke:none" /><g
             transform="matrix(1,0,0,-1,0,283)"
             id="g266"><path
               d="m 8.5,92.5 c 0,1.65686 -1.343146,3 -3,3 -1.656854,0 -3,-1.34314 -3,-3 0,-1.65686 1.343146,-3 3,-3 1.656854,0 3,1.34314 3,3 z"
               id="path268"
               style="fill:none;stroke:#000000;stroke-width:1;stroke-linecap:butt;stroke-linejoin:miter;stroke-miterlimit:10;stroke-opacity:1;stroke-dasharray:none" /></g><path
             d="m 396,217.5 c 0,-1.933 -1.567,-3.5 -3.5,-3.5 -1.933,0 -3.5,1.567 -3.5,3.5 0,1.933 1.567,3.5 3.5,3.5 1.933,0 3.5,-1.567 3.5,-3.5"
             id="path270"
             style="fill:#ffffff;fill-opacity:1;fill-rule:evenodd;stroke:none" /><g
             transform="matrix(1,0,0,-1,0,283)"
             id="g272"><path
               d="m 395.5,65.5 c 0,1.65686 -1.3431,3 -3,3 -1.6569,0 -3,-1.34314 -3,-3 0,-1.65686 1.3431,-3 3,-3 1.6569,0 3,1.34314 3,3 z"
               id="path274"
               style="fill:none;stroke:#000000;stroke-width:1;stroke-linecap:butt;stroke-linejoin:miter;stroke-miterlimit:10;stroke-opacity:1;stroke-dasharray:none" /></g><path
             d="m 396,82.49999 c 0,-1.933 -1.567,-3.5 -3.5,-3.5 -1.933,0 -3.5,1.567 -3.5,3.5 0,1.93301 1.567,3.5 3.5,3.5 1.933,0 3.5,-1.56699 3.5,-3.5"
             id="path276"
             style="fill:#ffffff;fill-opacity:1;fill-rule:evenodd;stroke:none" /><g
             transform="matrix(1,0,0,-1,0,283)"
             id="g278"><path
               d="m 395.5,200.5 c 0,1.6569 -1.3431,3 -3,3 -1.6569,0 -3,-1.3431 -3,-3 0,-1.6569 1.3431,-3 3,-3 1.6569,0 3,1.3431 3,3 z"
               id="path280"
               style="fill:none;stroke:#000000;stroke-width:1;stroke-linecap:butt;stroke-linejoin:miter;stroke-miterlimit:10;stroke-opacity:1;stroke-dasharray:none" /></g><g
             transform="matrix(1,0,0,-1,0,283)"
             id="g282"><text
               transform="translate(15,11)"
               id="text284"><tspan
                 x="0"
                 y="0"
                 id="tspan286"
                 style="font-size:12px;font-variant:normal;font-weight:normal;writing-mode:lr-tb;fill:#000000;fill-opacity:1;fill-rule:nonzero;stroke:none;font-family:Courier New;-inkscape-font-specification:Courier">X</tspan></text>
</g><g
             transform="matrix(1,0,0,-1,0,283)"
             id="g288"><text
               transform="translate(15,47)"
               id="text290"><tspan
                 x="0"
                 y="0"
                 id="tspan292"
                 style="font-size:12px;font-variant:normal;font-weight:normal;writing-mode:lr-tb;fill:#000000;fill-opacity:1;fill-rule:nonzero;stroke:none;font-family:Courier New;-inkscape-font-specification:Courier">Y</tspan></text>
</g><g
             transform="matrix(1,0,0,-1,0,283)"
             id="g294"><text
               transform="translate(15,83)"
               id="text296"><tspan
                 x="0"
                 y="0"
                 id="tspan298"
                 style="font-size:12px;font-variant:normal;font-weight:normal;writing-mode:lr-tb;fill:#000000;fill-opacity:1;fill-rule:nonzero;stroke:none;font-family:Courier New;-inkscape-font-specification:Courier">Z</tspan></text>
</g><g
             transform="matrix(1,0,0,-1,0,283)"
             id="g300"><text
               transform="translate(141,29)"
               id="text302"><tspan
                 x="0"
                 y="0"
                 id="tspan304"
                 style="font-size:12px;font-variant:normal;font-weight:normal;writing-mode:lr-tb;fill:#000000;fill-opacity:1;fill-rule:nonzero;stroke:none;font-family:Courier New;-inkscape-font-specification:Courier">S</tspan></text>
</g><g
             transform="matrix(1,0,0,-1,0,283)"
             id="g306"><text
               transform="translate(348,56)"
               id="text308"><tspan
                 x="0 6.9000001 13.8"
                 y="0"
                 id="tspan310"
                 style="font-size:12px;font-variant:normal;font-weight:normal;writing-mode:lr-tb;fill:#000000;fill-opacity:1;fill-rule:nonzero;stroke:none;font-family:Courier New;-inkscape-font-specification:Courier">Sum</tspan></text>
</g><g
             transform="matrix(1,0,0,-1,0,283)"
             id="g312"><text
               transform="translate(231,146)"
               id="text314"><tspan
                 x="0 6.7992001"
                 y="0"
                 id="tspan316"
                 style="font-size:12px;font-variant:normal;font-weight:normal;writing-mode:lr-tb;fill:#000000;fill-opacity:1;fill-rule:nonzero;stroke:none;font-family:Courier New;-inkscape-font-specification:Courier">C1</tspan></text>
</g><g
             transform="matrix(1,0,0,-1,0,283)"
             id="g318"><text
               transform="translate(231,236)"
               id="text320"><tspan
                 x="0 6.7992001"
                 y="0"
                 id="tspan322"
                 style="font-size:12px;font-variant:normal;font-weight:normal;writing-mode:lr-tb;fill:#000000;fill-opacity:1;fill-rule:nonzero;stroke:none;font-family:Courier New;-inkscape-font-specification:Courier">C2</tspan></text>
</g><g
             transform="matrix(1,0,0,-1,0,283)"
             id="g324"><text
               transform="translate(348,191)"
               id="text326"><tspan
                 x="0 6.9492002 13.8984 20.847601 27.796801"
                 y="0"
                 id="tspan328"
                 style="font-size:12px;font-variant:normal;font-weight:normal;writing-mode:lr-tb;fill:#000000;fill-opacity:1;fill-rule:nonzero;stroke:none;font-family:Courier New;-inkscape-font-specification:Courier">Carry</tspan></text>
</g><g
             transform="matrix(1,0,0,-1,0,283)"
             id="g330"><text
               transform="translate(100,42)"
               id="text332"><tspan
                 x="0 6.9324002 13.8648 20.797199"
                 y="0"
                 id="tspan334"
                 style="font-size:12px;font-variant:normal;font-weight:normal;writing-mode:lr-tb;fill:#000000;fill-opacity:1;fill-rule:nonzero;stroke:none;font-family:Courier New;-inkscape-font-specification:Courier">xor1</tspan></text>
</g><g
             transform="matrix(1,0,0,-1,0,283)"
             id="g336"><text
               transform="translate(307,69)"
               id="text338"><tspan
                 x="0 6.9324002 13.8648 20.797199"
                 y="0"
                 id="tspan340"
                 style="font-size:12px;font-variant:normal;font-weight:normal;writing-mode:lr-tb;fill:#000000;fill-opacity:1;fill-rule:nonzero;stroke:none;font-family:Courier New;-inkscape-font-specification:Courier">xor2</tspan></text>
</g><g
             transform="matrix(1,0,0,-1,0,283)"
             id="g342"><text
               transform="translate(190,159)"
               id="text344"><tspan
                 x="0 6.9324002 13.8648 20.797199"
                 y="0"
                 id="tspan346"
                 style="font-size:12px;font-variant:normal;font-weight:normal;writing-mode:lr-tb;fill:#000000;fill-opacity:1;fill-rule:nonzero;stroke:none;font-family:Courier New;-inkscape-font-specification:Courier">and1</tspan></text>
</g><g
             transform="matrix(1,0,0,-1,0,283)"
             id="g348"><text
               transform="translate(190,249)"
               id="text350"><tspan
                 x="0 6.9324002 13.8648 20.797199"
                 y="0"
                 id="tspan352"
                 style="font-size:12px;font-variant:normal;font-weight:normal;writing-mode:lr-tb;fill:#000000;fill-opacity:1;fill-rule:nonzero;stroke:none;font-family:Courier New;-inkscape-font-specification:Courier">and2</tspan></text>
</g><g
             transform="matrix(1,0,0,-1,0,283)"
             id="g354"><text
               transform="translate(307,204)"
               id="text356"><tspan
                 x="0 6.9000001 13.8"
                 y="0"
                 id="tspan358"
                 style="font-size:12px;font-variant:normal;font-weight:normal;writing-mode:lr-tb;fill:#000000;fill-opacity:1;fill-rule:nonzero;stroke:none;font-family:Courier New;-inkscape-font-specification:Courier">or1</tspan></text>
</g></g></g></g></g></svg>