<?xml version="1.0" encoding="UTF-8" standalone="no"?>
<!-- Created with Inkscape (http://www.inkscape.org/) -->

<svg
   xmlns:svg="http://www.w3.org/2000/svg"
   xmlns="http://www.w3.org/2000/svg"
   version="1.1"
   width="360"
   height="567.5"
   id="svg2"
   xml:space="preserve"><defs
     id="defs6"><clipPath
       id="clipPath20"><path
         d="M 0,0 288,0 288,454 0,454 0,0 z"
         id="path22" /></clipPath><clipPath
       id="clipPath30"><path
         d="m 0,454 288,0 0,-454.000006699061 -288,0 L 0,454 z"
         id="path32" /></clipPath><clipPath
       id="clipPath36"><path
         d="M 0,0 288,0 288,454 0,454 0,0 z"
         id="path38" /></clipPath></defs><g
     transform="matrix(1.25,0,0,-1.25,0,567.5)"
     id="g12"><g
       id="g14" /><g
       id="g16"><g
         clip-path="url(#clipPath20)"
         id="g18"><path
           d="M 0,454 288,454 288,0 0,0 0,454 z"
           id="path24"
           style="fill:#ffffff;fill-opacity:0;fill-rule:evenodd;stroke:none" /></g></g><g
       id="g26"><g
         clip-path="url(#clipPath30)"
         id="g28"><g
           clip-path="url(#clipPath36)"
           id="g34"><path
             d="m 186,292 73,0 0,-78 -73,0 0,78 z"
             id="path40"
             style="fill:#efefef;fill-opacity:1;fill-rule:nonzero;stroke:none" /><g
             transform="matrix(1,0,0,-1,0,454)"
             id="g42"><path
               d="m 186.5,162.5 72,0 0,77 -72,0 0,-77 z"
               id="path44"
               style="fill:none;stroke:#ffffff;stroke-width:1;stroke-linecap:butt;stroke-linejoin:miter;stroke-miterlimit:10;stroke-opacity:1;stroke-dasharray:none" /></g><g
             transform="matrix(1,0,0,-1,0,454)"
             id="g46"><text
               transform="translate(110,11)"
               id="text48"><tspan
                 x="0 6.9851999 13.9704 20.955601 27.9408 34.925999 41.911201 48.8964 55.881599 62.866798 69.851997 76.837196 83.822403 90.807602 97.792801"
                 y="0"
                 id="tspan50"
                 style="font-size:12px;font-variant:normal;font-weight:normal;writing-mode:lr-tb;fill:#000000;fill-opacity:1;fill-rule:nonzero;stroke:none;font-family:Courier New;-inkscape-font-specification:Courier">?-flies(tweety)</tspan></text>
</g><g
             transform="matrix(1,0,0,-1,0,454)"
             id="g52"><text
               transform="translate(38,83)"
               id="text54"><tspan
                 x="0 6.9935999 13.9872 20.980801 27.9744 34.967999 41.961601 48.9552 55.948799 62.942402 69.935997 76.929604 83.923203 90.916801 97.9104 104.904 111.8976 118.8912 125.8848 132.8784 139.87199 146.8656 153.85921 160.8528 167.84641 174.84 181.8336 188.82719 195.8208 202.81441 209.808 216.80161 223.7952 230.7888 237.78239"
                 y="0"
                 id="tspan56"
                 style="font-size:12px;font-variant:normal;font-weight:normal;writing-mode:lr-tb;fill:#000000;fill-opacity:1;fill-rule:nonzero;stroke:none;font-family:Courier New;-inkscape-font-specification:Courier">:-bird(tweety),not abnormal(tweety)</tspan></text>
</g><g
             transform="matrix(1,0,0,-1,0,454)"
             id="g58"><text
               transform="translate(83,155)"
               id="text60"><tspan
                 x="0 6.9899998 13.98 20.969999 27.959999 34.950001 41.939999 48.93 55.919998 62.91 69.900002 76.889999 83.879997 90.870003 97.860001 104.85 111.84 118.83 125.82 132.81 139.8 146.78999"
                 y="0"
                 id="tspan62"
                 style="font-size:12px;font-variant:normal;font-weight:normal;writing-mode:lr-tb;fill:#000000;fill-opacity:1;fill-rule:nonzero;stroke:none;font-family:Courier New;-inkscape-font-specification:Courier">:-not abnormal(tweety)</tspan></text>
</g><g
             transform="matrix(1,0,0,-1,0,454)"
             id="g64"><text
               transform="translate(2,227)"
               id="text66"><tspan
                 x="0 6.9912 13.9824 20.9736 27.9648 34.956001 41.947201 48.9384 55.9296 62.920799 69.912003 76.903198 83.894402 90.885597 97.876801 104.868 111.8592 118.8504 125.8416 132.83279 139.82401 146.8152 153.8064 160.79761 167.7888"
                 y="0"
                 id="tspan68"
                 style="font-size:12px;font-variant:normal;font-weight:normal;writing-mode:lr-tb;fill:#000000;fill-opacity:1;fill-rule:nonzero;stroke:none;font-family:Courier New;-inkscape-font-specification:Courier">:-abnormal(tweety),!,fail</tspan></text>
</g><g
             transform="matrix(1,0,0,-1,0,454)"
             id="g70"><text
               transform="translate(236,230)"
               id="text72"><tspan
                 x="0"
                 y="0"
                 id="tspan74"
                 style="font-size:20px;font-variant:normal;font-weight:normal;writing-mode:lr-tb;fill:#000000;fill-opacity:1;fill-rule:nonzero;stroke:none;font-family:Geneva;-inkscape-font-specification:Geneva">&#x25A1;</tspan></text>
</g><path
             d="m 136,290 0.25,0 0,-0.25 -45,-45 -0.25,0 0,0.25"
             id="path76"
             style="fill:#000000;fill-opacity:1;fill-rule:nonzero;stroke:none" /><path
             d="m 190,290 0.25,0 45,-45 0,-0.25 -0.25,0 -45,45"
             id="path78"
             style="fill:#000000;fill-opacity:1;fill-rule:nonzero;stroke:none" /><g
             transform="matrix(1,0,0,-1,0,454)"
             id="g80"><path
               d="m 163.5,20 0,46"
               id="path82"
               style="fill:none;stroke:#000000;stroke-width:1;stroke-linecap:butt;stroke-linejoin:miter;stroke-miterlimit:10;stroke-opacity:1;stroke-dasharray:none" /></g><g
             transform="matrix(1,0,0,-1,0,454)"
             id="g84"><path
               d="m 163.5,92 0,46"
               id="path86"
               style="fill:none;stroke:#000000;stroke-width:1;stroke-linecap:butt;stroke-linejoin:miter;stroke-miterlimit:10;stroke-opacity:1;stroke-dasharray:none" /></g><g
             transform="matrix(1,0,0,-1,0,454)"
             id="g88"><text
               transform="translate(8,299)"
               id="text90"><tspan
                 x="0 6.9912 13.9824 20.9736 27.9648 34.956001 41.947201 48.9384 55.9296 62.920799 69.912003 76.903198 83.894402 90.885597 97.876801 104.868 111.8592 118.8504 125.8416 132.83279 139.82401 146.8152 153.8064 160.79761"
                 y="0"
                 id="tspan92"
                 style="font-size:12px;font-variant:normal;font-weight:normal;writing-mode:lr-tb;fill:#000000;fill-opacity:1;fill-rule:nonzero;stroke:none;font-family:Courier New;-inkscape-font-specification:Courier">:-ostrich(tweety),!,fail</tspan></text>
</g><g
             transform="matrix(1,0,0,-1,0,454)"
             id="g94"><text
               transform="translate(64,371)"
               id="text96"><tspan
                 x="0 6.9707999 13.9416 20.912399 27.8832 34.854 41.824799 48.795601"
                 y="0"
                 id="tspan98"
                 style="font-size:12px;font-variant:normal;font-weight:normal;writing-mode:lr-tb;fill:#000000;fill-opacity:1;fill-rule:nonzero;stroke:none;font-family:Courier New;-inkscape-font-specification:Courier">:-!,fail</tspan></text>
</g><g
             transform="matrix(1,0,0,-1,0,454)"
             id="g100"><text
               transform="translate(67,443)"
               id="text102"><tspan
                 x="0 6.9660001 13.932 20.898001 27.864 34.830002 41.796001"
                 y="0"
                 id="tspan104"
                 style="font-size:12px;font-variant:normal;font-weight:normal;writing-mode:lr-tb;fill:#000000;fill-opacity:1;fill-rule:nonzero;stroke:none;font-family:Courier New;-inkscape-font-specification:Courier">:-fail.</tspan></text>
</g><g
             transform="matrix(1,0,0,-1,0,454)"
             id="g106"><path
               d="m 72,452 38,0"
               id="path108"
               style="fill:none;stroke:#000000;stroke-width:2;stroke-linecap:butt;stroke-linejoin:miter;stroke-miterlimit:10;stroke-opacity:1;stroke-dasharray:none" /></g><g
             transform="matrix(1,0,0,-1,0,454)"
             id="g110"><path
               d="m 91.5,236 0,46"
               id="path112"
               style="fill:none;stroke:#000000;stroke-width:1;stroke-linecap:butt;stroke-linejoin:miter;stroke-miterlimit:10;stroke-opacity:1;stroke-dasharray:none" /></g><g
             transform="matrix(1,0,0,-1,0,454)"
             id="g114"><path
               d="m 91.5,308 0,46"
               id="path116"
               style="fill:none;stroke:#000000;stroke-width:1;stroke-linecap:butt;stroke-linejoin:miter;stroke-miterlimit:10;stroke-opacity:1;stroke-dasharray:none" /></g><g
             transform="matrix(1,0,0,-1,0,454)"
             id="g118"><path
               d="m 91.5,380 0,46"
               id="path120"
               style="fill:none;stroke:#000000;stroke-width:1;stroke-linecap:butt;stroke-linejoin:miter;stroke-miterlimit:10;stroke-opacity:1;stroke-dasharray:none" /></g></g></g></g></g></svg>
