<?xml version="1.0" encoding="UTF-8" standalone="no"?>
<!-- Created with Inkscape (http://www.inkscape.org/) -->

<svg
   xmlns:svg="http://www.w3.org/2000/svg"
   xmlns="http://www.w3.org/2000/svg"
   version="1.1"
   width="182.5"
   height="233.75"
   id="svg2"
   xml:space="preserve"><defs
     id="defs6"><clipPath
       id="clipPath20"><path
         d="M 0,0 146,0 146,187 0,187 0,0 z"
         id="path22" /></clipPath><clipPath
       id="clipPath30"><path
         d="m 0,187 146,0 0,-187.000002759305 -146,0 L 0,187 z"
         id="path32" /></clipPath><clipPath
       id="clipPath36"><path
         d="M 0,0 146,0 146,187 0,187 0,0 z"
         id="path38" /></clipPath></defs><g
     transform="matrix(1.25,0,0,-1.25,0,233.75)"
     id="g12"><g
       id="g14" /><g
       id="g16"><g
         clip-path="url(#clipPath20)"
         id="g18"><path
           d="M 0,187 146,187 146,0 0,0 0,187 z"
           id="path24"
           style="fill:#ffffff;fill-opacity:0;fill-rule:evenodd;stroke:none" /></g></g><g
       id="g26"><g
         clip-path="url(#clipPath30)"
         id="g28"><g
           clip-path="url(#clipPath36)"
           id="g34"><g
             transform="matrix(1,0,0,-1,0,187)"
             id="g40"><text
               transform="translate(60,12)"
               id="text42"><tspan
                 x="0 5.9159999 9.1680002 15.756 19.667999"
                 y="0"
                 id="tspan44"
                 style="font-size:12px;font-style:italic;font-variant:normal;writing-mode:lr-tb;fill:#000000;fill-opacity:1;fill-rule:nonzero;stroke:none;font-family:Helvetica;-inkscape-font-specification:Helvetica-Oblique">start</tspan></text>
</g><g
             transform="matrix(1,0,0,-1,0,187)"
             id="g46"><text
               transform="translate(63,182)"
               id="text48"><tspan
                 x="0 6.6743999 13.3488 20.023199"
                 y="0"
                 id="tspan50"
                 style="font-size:12px;font-style:italic;font-variant:normal;writing-mode:lr-tb;fill:#000000;fill-opacity:1;fill-rule:nonzero;stroke:none;font-family:Helvetica;-inkscape-font-specification:Helvetica-Oblique">goal</tspan></text>
</g><g
             transform="matrix(1,0,0,-1,0,187)"
             id="g52"><text
               transform="translate(27,54)"
               id="text54"><tspan
                 x="0"
                 y="0"
                 id="tspan56"
                 style="font-size:12px;font-style:italic;font-variant:normal;writing-mode:lr-tb;fill:#000000;fill-opacity:1;fill-rule:nonzero;stroke:none;font-family:Helvetica;-inkscape-font-specification:Helvetica-Oblique">p</tspan></text>
</g><g
             transform="matrix(1,0,0,-1,0,187)"
             id="g58"><text
               transform="translate(28,96)"
               id="text60"><tspan
                 x="0"
                 y="0"
                 id="tspan62"
                 style="font-size:12px;font-style:italic;font-variant:normal;writing-mode:lr-tb;fill:#000000;fill-opacity:1;fill-rule:nonzero;stroke:none;font-family:Helvetica;-inkscape-font-specification:Helvetica-Oblique">q</tspan></text>
</g><g
             transform="matrix(1,0,0,-1,0,187)"
             id="g64"><text
               transform="translate(70,138)"
               id="text66"><tspan
                 x="0"
                 y="0"
                 id="tspan68"
                 style="font-size:12px;font-style:italic;font-variant:normal;writing-mode:lr-tb;fill:#000000;fill-opacity:1;fill-rule:nonzero;stroke:none;font-family:Helvetica;-inkscape-font-specification:Helvetica-Oblique">s</tspan></text>
</g><g
             transform="matrix(1,0,0,-1,0,187)"
             id="g70"><text
               transform="translate(109,79)"
               id="text72"><tspan
                 x="0"
                 y="0"
                 id="tspan74"
                 style="font-size:12px;font-style:italic;font-variant:normal;writing-mode:lr-tb;fill:#000000;fill-opacity:1;fill-rule:nonzero;stroke:none;font-family:Helvetica;-inkscape-font-specification:Helvetica-Oblique">r</tspan></text>
</g><path
             d="m 39,145 3.4202,9.3969 c 2.66317,-0.9693 4.78997,-3.0231 5.85164,-5.6508"
             id="path76"
             style="fill:#000000;fill-opacity:1;fill-rule:evenodd;stroke:none" /><path
             d="m 63,170 0.25,0 0,-0.25 -21,-22 -0.25,0 0,0.25"
             id="path78"
             style="fill:#000000;fill-opacity:1;fill-rule:nonzero;stroke:none" /><path
             d="m 111,122 -8.2904,5.5919 c 1.5848,2.3496 4.0922,3.9164 6.8987,4.3108"
             id="path80"
             style="fill:#000000;fill-opacity:1;fill-rule:evenodd;stroke:none" /><path
             d="m 83,168 0.25,0 26,-42 0,-0.25 -0.25,0 -26,42"
             id="path82"
             style="fill:#000000;fill-opacity:1;fill-rule:nonzero;stroke:none" /><path
             d="m 32,105 -4.06737,9.1355 c 2.58907,1.1527 5.54567,1.1527 8.13474,0"
             id="path84"
             style="fill:#000000;fill-opacity:1;fill-rule:evenodd;stroke:none" /><g
             transform="matrix(1,0,0,-1,0,187)"
             id="g86"><path
               d="m 32.125,61 0,16.25"
               id="path88"
               style="fill:none;stroke:#000000;stroke-width:0.25;stroke-linecap:butt;stroke-linejoin:miter;stroke-miterlimit:10;stroke-opacity:1;stroke-dasharray:none" /></g><path
             d="m 64,59 -9.39693,3.42019 c 0.96932,2.66318 3.02315,4.78998 5.65087,5.85165"
             id="path90"
             style="fill:#000000;fill-opacity:1;fill-rule:evenodd;stroke:none" /><path
             d="m 38,84 0.25,0 23,-22 0,-0.25 -0.25,0 -23,22"
             id="path92"
             style="fill:#000000;fill-opacity:1;fill-rule:nonzero;stroke:none" /><path
             d="m 83,62 1.90809,9.81627 c 2.78202,-0.54077 5.20392,-2.2366 6.66358,-4.66589"
             id="path94"
             style="fill:#000000;fill-opacity:1;fill-rule:evenodd;stroke:none" /><path
             d="m 109,100 0.25,0 0,-0.25 -24,-34 -0.25,0 0,0.25"
             id="path96"
             style="fill:#000000;fill-opacity:1;fill-rule:nonzero;stroke:none" /><path
             d="m 74,19 -4.06738,9.13545 c 2.58908,1.15273 5.54567,1.15273 8.13475,0"
             id="path98"
             style="fill:#000000;fill-opacity:1;fill-rule:evenodd;stroke:none" /><g
             transform="matrix(1,0,0,-1,0,187)"
             id="g100"><path
               d="m 74.125,144 0,19.25"
               id="path102"
               style="fill:none;stroke:#000000;stroke-width:0.25;stroke-linecap:butt;stroke-linejoin:miter;stroke-miterlimit:10;stroke-opacity:1;stroke-dasharray:none" /></g><g
             transform="matrix(1,0,0,-1,0,187)"
             id="g104"><text
               transform="translate(134,80)"
               id="text106"><tspan
                 x="0"
                 y="0"
                 id="tspan108"
                 style="font-size:12px;font-variant:normal;font-weight:normal;writing-mode:lr-tb;fill:#000000;fill-opacity:1;fill-rule:nonzero;stroke:none;font-family:Helvetica;-inkscape-font-specification:Helvetica">2</tspan></text>
</g><g
             transform="matrix(1,0,0,-1,0,187)"
             id="g110"><text
               transform="translate(103,138)"
               id="text112"><tspan
                 x="0"
                 y="0"
                 id="tspan114"
                 style="font-size:12px;font-variant:normal;font-weight:normal;writing-mode:lr-tb;fill:#000000;fill-opacity:1;fill-rule:nonzero;stroke:none;font-family:Helvetica;-inkscape-font-specification:Helvetica">1</tspan></text>
</g><g
             transform="matrix(1,0,0,-1,0,187)"
             id="g116"><text
               transform="translate(2,56)"
               id="text118"><tspan
                 x="0"
                 y="0"
                 id="tspan120"
                 style="font-size:12px;font-variant:normal;font-weight:normal;writing-mode:lr-tb;fill:#000000;fill-opacity:1;fill-rule:nonzero;stroke:none;font-family:Helvetica;-inkscape-font-specification:Helvetica">1</tspan></text>
</g><g
             transform="matrix(1,0,0,-1,0,187)"
             id="g122"><text
               transform="translate(2,98)"
               id="text124"><tspan
                 x="0"
                 y="0"
                 id="tspan126"
                 style="font-size:12px;font-variant:normal;font-weight:normal;writing-mode:lr-tb;fill:#000000;fill-opacity:1;fill-rule:nonzero;stroke:none;font-family:Helvetica;-inkscape-font-specification:Helvetica">0</tspan></text>
</g><g
             transform="matrix(1,0,0,-1,0,187)"
             id="g128"><text
               transform="translate(103,13)"
               id="text130"><tspan
                 x="0"
                 y="0"
                 id="tspan132"
                 style="font-size:12px;font-variant:normal;font-weight:normal;writing-mode:lr-tb;fill:#000000;fill-opacity:1;fill-rule:nonzero;stroke:none;font-family:Helvetica;-inkscape-font-specification:Helvetica">3</tspan></text>
</g></g></g></g></g></svg>