<?xml version="1.0" encoding="UTF-8" standalone="no"?>
<!-- Created with Inkscape (http://www.inkscape.org/) -->

<svg
   xmlns:svg="http://www.w3.org/2000/svg"
   xmlns="http://www.w3.org/2000/svg"
   version="1.1"
   width="333.75"
   height="187.5"
   id="svg2"
   xml:space="preserve"><defs
     id="defs6"><clipPath
       id="clipPath20"><path
         d="M 0,0 267,0 267,150 0,150 0,0 z"
         id="path22" /></clipPath><clipPath
       id="clipPath30"><path
         d="m 0,150 267,0 0,-150.000002213346 -267,0 L 0,150 z"
         id="path32" /></clipPath><clipPath
       id="clipPath36"><path
         d="M 0,0 267,0 267,150 0,150 0,0 z"
         id="path38" /></clipPath></defs><g
     transform="matrix(1.25,0,0,-1.25,0,187.5)"
     id="g12"><g
       id="g14" /><g
       id="g16"><g
         clip-path="url(#clipPath20)"
         id="g18"><path
           d="M 0,150 267,150 267,0 0,0 0,150 z"
           id="path24"
           style="fill:#ffffff;fill-opacity:0;fill-rule:evenodd;stroke:none" /></g></g><g
       id="g26"><g
         clip-path="url(#clipPath30)"
         id="g28"><g
           clip-path="url(#clipPath36)"
           id="g34"><path
             d="m 71,86 c 0,-1.65685 -1.11929,-3 -2.5,-3 -1.38071,0 -2.5,1.34315 -2.5,3 0,1.65685 1.11929,3 2.5,3 1.38071,0 2.5,-1.34315 2.5,-3"
             id="path40"
             style="fill:#000000;fill-opacity:1;fill-rule:evenodd;stroke:none" /><g
             transform="matrix(1,0,0,-1,0,150)"
             id="g42"><path
               d="m 70.5,64 c 0,1.38071 -0.89543,2.5 -2,2.5 -1.10457,0 -2,-1.11929 -2,-2.5 0,-1.38071 0.89543,-2.5 2,-2.5 1.10457,0 2,1.11929 2,2.5 z"
               id="path44"
               style="fill:none;stroke:#000000;stroke-width:0.25;stroke-linecap:butt;stroke-linejoin:miter;stroke-miterlimit:10;stroke-opacity:1;stroke-dasharray:none" /></g><path
             d="m 67,87 0.25,0 0,-0.25 -48,-35 -0.25,0 0,0.25"
             id="path46"
             style="fill:#000000;fill-opacity:1;fill-rule:nonzero;stroke:none" /><path
             d="m 68,86 0.25,0 50,-35 0,-0.25 -0.25,0 -50,35"
             id="path48"
             style="fill:#000000;fill-opacity:1;fill-rule:nonzero;stroke:none" /><path
             d="m 22,50 c 0,-1.65686 -1.34315,-3 -3,-3 -1.65685,0 -3,1.34314 -3,3 0,1.65685 1.34315,3 3,3 1.65685,0 3,-1.34315 3,-3"
             id="path50"
             style="fill:#000000;fill-opacity:1;fill-rule:evenodd;stroke:none" /><g
             transform="matrix(1,0,0,-1,0,150)"
             id="g52"><path
               d="m 21.5,100 c 0,1.3807 -1.11929,2.5 -2.5,2.5 -1.38071,0 -2.5,-1.1193 -2.5,-2.5 0,-1.38071 1.11929,-2.5 2.5,-2.5 1.38071,0 2.5,1.11929 2.5,2.5 z"
               id="path54"
               style="fill:none;stroke:#000000;stroke-width:0.25;stroke-linecap:butt;stroke-linejoin:miter;stroke-miterlimit:10;stroke-opacity:1;stroke-dasharray:none" /></g><path
             d="m 121,51 c 0,-1.65686 -1.3431,-3 -3,-3 -1.6569,0 -3,1.34314 -3,3 0,1.65685 1.3431,3 3,3 1.6569,0 3,-1.34315 3,-3"
             id="path56"
             style="fill:#000000;fill-opacity:1;fill-rule:evenodd;stroke:none" /><g
             transform="matrix(1,0,0,-1,0,150)"
             id="g58"><path
               d="m 120.5,99 c 0,1.3807 -1.1193,2.5 -2.5,2.5 -1.3807,0 -2.5,-1.1193 -2.5,-2.5 0,-1.38071 1.1193,-2.5 2.5,-2.5 1.3807,0 2.5,1.11929 2.5,2.5 z"
               id="path60"
               style="fill:none;stroke:#000000;stroke-width:0.25;stroke-linecap:butt;stroke-linejoin:miter;stroke-miterlimit:10;stroke-opacity:1;stroke-dasharray:none" /></g><path
             d="m 220,87 c 0,-1.65685 -1.3431,-3 -3,-3 -1.6569,0 -3,1.34315 -3,3 0,1.65685 1.3431,3 3,3 1.6569,0 3,-1.34315 3,-3"
             id="path62"
             style="fill:#000000;fill-opacity:1;fill-rule:evenodd;stroke:none" /><g
             transform="matrix(1,0,0,-1,0,150)"
             id="g64"><path
               d="m 219.5,63 c 0,1.38071 -1.1193,2.5 -2.5,2.5 -1.3807,0 -2.5,-1.11929 -2.5,-2.5 0,-1.38071 1.1193,-2.5 2.5,-2.5 1.3807,0 2.5,1.11929 2.5,2.5 z"
               id="path66"
               style="fill:none;stroke:#000000;stroke-width:0.25;stroke-linecap:butt;stroke-linejoin:miter;stroke-miterlimit:10;stroke-opacity:1;stroke-dasharray:none" /></g><path
             d="m 216,86 0.25,0 0,-0.25 -33,-33 -0.25,0 0,0.25"
             id="path68"
             style="fill:#000000;fill-opacity:1;fill-rule:nonzero;stroke:none" /><path
             d="m 218,85 0.25,0 33,-33 0,-0.25 -0.25,0 -33,33"
             id="path70"
             style="fill:#000000;fill-opacity:1;fill-rule:nonzero;stroke:none" /><path
             d="m 185,52 c 0,-1.65686 -1.1193,-3 -2.5,-3 -1.3807,0 -2.5,1.34314 -2.5,3 0,1.65685 1.1193,3 2.5,3 1.3807,0 2.5,-1.34315 2.5,-3"
             id="path72"
             style="fill:#000000;fill-opacity:1;fill-rule:evenodd;stroke:none" /><g
             transform="matrix(1,0,0,-1,0,150)"
             id="g74"><path
               d="m 184.5,98 c 0,1.38071 -0.8954,2.5 -2,2.5 -1.1046,0 -2,-1.11929 -2,-2.5 0,-1.38071 0.8954,-2.5 2,-2.5 1.1046,0 2,1.11929 2,2.5 z"
               id="path76"
               style="fill:none;stroke:#000000;stroke-width:0.25;stroke-linecap:butt;stroke-linejoin:miter;stroke-miterlimit:10;stroke-opacity:1;stroke-dasharray:none" /></g><path
             d="m 254,53 c 0,-1.65686 -1.3431,-3 -3,-3 -1.6569,0 -3,1.34314 -3,3 0,1.65685 1.3431,3 3,3 1.6569,0 3,-1.34315 3,-3"
             id="path78"
             style="fill:#000000;fill-opacity:1;fill-rule:evenodd;stroke:none" /><g
             transform="matrix(1,0,0,-1,0,150)"
             id="g80"><path
               d="m 253.5,97 c 0,1.38071 -1.1193,2.5 -2.5,2.5 -1.3807,0 -2.5,-1.11929 -2.5,-2.5 0,-1.38071 1.1193,-2.5 2.5,-2.5 1.3807,0 2.5,1.11929 2.5,2.5 z"
               id="path82"
               style="fill:none;stroke:#000000;stroke-width:0.25;stroke-linecap:butt;stroke-linejoin:miter;stroke-miterlimit:10;stroke-opacity:1;stroke-dasharray:none" /></g><path
             d="m 144,139 c 0,-1.6569 -1.3431,-3 -3,-3 -1.6569,0 -3,1.3431 -3,3 0,1.6569 1.3431,3 3,3 1.6569,0 3,-1.3431 3,-3"
             id="path84"
             style="fill:#000000;fill-opacity:1;fill-rule:evenodd;stroke:none" /><g
             transform="matrix(1,0,0,-1,0,150)"
             id="g86"><path
               d="m 143.5,11 c 0,1.38071 -1.1193,2.5 -2.5,2.5 -1.3807,0 -2.5,-1.11929 -2.5,-2.5 0,-1.380707 1.1193,-2.5 2.5,-2.5 1.3807,0 2.5,1.119293 2.5,2.5 z"
               id="path88"
               style="fill:none;stroke:#000000;stroke-width:0.25;stroke-linecap:butt;stroke-linejoin:miter;stroke-miterlimit:10;stroke-opacity:1;stroke-dasharray:none" /></g><path
             d="m 139,139 0.25,0 0,-0.25 -70,-51 -0.25,0 0,0.25"
             id="path90"
             style="fill:#000000;fill-opacity:1;fill-rule:nonzero;stroke:none" /><path
             d="m 141,139 0.25,0 75,-51 0,-0.25 -0.25,0 -75,51"
             id="path92"
             style="fill:#000000;fill-opacity:1;fill-rule:nonzero;stroke:none" /><g
             transform="matrix(1,0,0,-1,0,150)"
             id="g94"><text
               transform="translate(156,11)"
               id="text96"><tspan
                 x="0"
                 y="0"
                 id="tspan98"
                 style="font-size:12px;font-variant:normal;font-weight:normal;writing-mode:lr-tb;fill:#000000;fill-opacity:1;fill-rule:nonzero;stroke:none;font-family:Helvetica;-inkscape-font-specification:Helvetica">1</tspan></text>
</g><g
             transform="matrix(1,0,0,-1,0,150)"
             id="g100"><text
               transform="translate(50,67)"
               id="text102"><tspan
                 x="0"
                 y="0"
                 id="tspan104"
                 style="font-size:12px;font-variant:normal;font-weight:normal;writing-mode:lr-tb;fill:#000000;fill-opacity:1;fill-rule:nonzero;stroke:none;font-family:Helvetica;-inkscape-font-specification:Helvetica">2</tspan></text>
</g><g
             transform="matrix(1,0,0,-1,0,150)"
             id="g106"><text
               transform="translate(230,64)"
               id="text108"><tspan
                 x="0"
                 y="0"
                 id="tspan110"
                 style="font-size:12px;font-variant:normal;font-weight:normal;writing-mode:lr-tb;fill:#000000;fill-opacity:1;fill-rule:nonzero;stroke:none;font-family:Helvetica;-inkscape-font-specification:Helvetica">3</tspan></text>
</g><g
             transform="matrix(1,0,0,-1,0,150)"
             id="g112"><path
               d="m 67.125,64 0,35.25"
               id="path114"
               style="fill:none;stroke:#000000;stroke-width:0.25;stroke-linecap:butt;stroke-linejoin:miter;stroke-miterlimit:10;stroke-opacity:1;stroke-dasharray:none" /></g><path
             d="m 70,50 c 0,-1.65686 -1.11929,-3 -2.5,-3 -1.38071,0 -2.5,1.34314 -2.5,3 0,1.65685 1.11929,3 2.5,3 1.38071,0 2.5,-1.34315 2.5,-3"
             id="path116"
             style="fill:#000000;fill-opacity:1;fill-rule:evenodd;stroke:none" /><g
             transform="matrix(1,0,0,-1,0,150)"
             id="g118"><path
               d="m 69.5,100 c 0,1.3807 -0.89543,2.5 -2,2.5 -1.10457,0 -2,-1.1193 -2,-2.5 0,-1.38071 0.89543,-2.5 2,-2.5 1.10457,0 2,1.11929 2,2.5 z"
               id="path120"
               style="fill:none;stroke:#000000;stroke-width:0.25;stroke-linecap:butt;stroke-linejoin:miter;stroke-miterlimit:10;stroke-opacity:1;stroke-dasharray:none" /></g><g
             transform="matrix(1,0,0,-1,0,150)"
             id="g122"><path
               d="m 67.125,100 0,34.25"
               id="path124"
               style="fill:none;stroke:#000000;stroke-width:0.25;stroke-linecap:butt;stroke-linejoin:miter;stroke-miterlimit:10;stroke-opacity:1;stroke-dasharray:none" /></g><g
             transform="matrix(1,0,0,-1,0,150)"
             id="g126"><path
               d="m 251.125,97 0,34.25"
               id="path128"
               style="fill:none;stroke:#000000;stroke-width:0.25;stroke-linecap:butt;stroke-linejoin:miter;stroke-miterlimit:10;stroke-opacity:1;stroke-dasharray:none" /></g><path
             d="m 255,18 c 0,-1.65685 -1.3431,-3 -3,-3 -1.6569,0 -3,1.34315 -3,3 0,1.65685 1.3431,3 3,3 1.6569,0 3,-1.34315 3,-3"
             id="path130"
             style="fill:#000000;fill-opacity:1;fill-rule:evenodd;stroke:none" /><g
             transform="matrix(1,0,0,-1,0,150)"
             id="g132"><path
               d="m 254.5,132 c 0,1.3807 -1.1193,2.5 -2.5,2.5 -1.3807,0 -2.5,-1.1193 -2.5,-2.5 0,-1.3807 1.1193,-2.5 2.5,-2.5 1.3807,0 2.5,1.1193 2.5,2.5 z"
               id="path134"
               style="fill:none;stroke:#000000;stroke-width:0.25;stroke-linecap:butt;stroke-linejoin:miter;stroke-miterlimit:10;stroke-opacity:1;stroke-dasharray:none" /></g><path
             d="m 71,15 c 0,-1.65685 -1.34315,-3 -3,-3 -1.65685,0 -3,1.34315 -3,3 0,1.65685 1.34315,3 3,3 1.65685,0 3,-1.34315 3,-3"
             id="path136"
             style="fill:#000000;fill-opacity:1;fill-rule:evenodd;stroke:none" /><g
             transform="matrix(1,0,0,-1,0,150)"
             id="g138"><path
               d="m 70.5,135 c 0,1.3807 -1.11929,2.5 -2.5,2.5 -1.38071,0 -2.5,-1.1193 -2.5,-2.5 0,-1.3807 1.11929,-2.5 2.5,-2.5 1.38071,0 2.5,1.1193 2.5,2.5 z"
               id="path140"
               style="fill:none;stroke:#000000;stroke-width:0.25;stroke-linecap:butt;stroke-linejoin:miter;stroke-miterlimit:10;stroke-opacity:1;stroke-dasharray:none" /></g><g
             transform="matrix(1,0,0,-1,0,150)"
             id="g142"><text
               transform="translate(2,102)"
               id="text144"><tspan
                 x="0"
                 y="0"
                 id="tspan146"
                 style="font-size:12px;font-variant:normal;font-weight:normal;writing-mode:lr-tb;fill:#000000;fill-opacity:1;fill-rule:nonzero;stroke:none;font-family:Helvetica;-inkscape-font-specification:Helvetica">4</tspan></text>
</g><g
             transform="matrix(1,0,0,-1,0,150)"
             id="g148"><text
               transform="translate(51,103)"
               id="text150"><tspan
                 x="0"
                 y="0"
                 id="tspan152"
                 style="font-size:12px;font-variant:normal;font-weight:normal;writing-mode:lr-tb;fill:#000000;fill-opacity:1;fill-rule:nonzero;stroke:none;font-family:Helvetica;-inkscape-font-specification:Helvetica">5</tspan></text>
</g><g
             transform="matrix(1,0,0,-1,0,150)"
             id="g154"><text
               transform="translate(99,103)"
               id="text156"><tspan
                 x="0"
                 y="0"
                 id="tspan158"
                 style="font-size:12px;font-variant:normal;font-weight:normal;writing-mode:lr-tb;fill:#000000;fill-opacity:1;fill-rule:nonzero;stroke:none;font-family:Helvetica;-inkscape-font-specification:Helvetica">6</tspan></text>
</g><g
             transform="matrix(1,0,0,-1,0,150)"
             id="g160"><text
               transform="translate(51,139)"
               id="text162"><tspan
                 x="0"
                 y="0"
                 id="tspan164"
                 style="font-size:12px;font-variant:normal;font-weight:normal;writing-mode:lr-tb;fill:#000000;fill-opacity:1;fill-rule:nonzero;stroke:none;font-family:Helvetica;-inkscape-font-specification:Helvetica">7</tspan></text>
</g><g
             transform="matrix(1,0,0,-1,0,150)"
             id="g166"><text
               transform="translate(166,100)"
               id="text168"><tspan
                 x="0"
                 y="0"
                 id="tspan170"
                 style="font-size:12px;font-variant:normal;font-weight:normal;writing-mode:lr-tb;fill:#000000;fill-opacity:1;fill-rule:nonzero;stroke:none;font-family:Helvetica;-inkscape-font-specification:Helvetica">8</tspan></text>
</g><g
             transform="matrix(1,0,0,-1,0,150)"
             id="g172"><text
               transform="translate(231,99)"
               id="text174"><tspan
                 x="0"
                 y="0"
                 id="tspan176"
                 style="font-size:12px;font-variant:normal;font-weight:normal;writing-mode:lr-tb;fill:#000000;fill-opacity:1;fill-rule:nonzero;stroke:none;font-family:Helvetica;-inkscape-font-specification:Helvetica">9</tspan></text>
</g><g
             transform="matrix(1,0,0,-1,0,150)"
             id="g178"><text
               transform="translate(234,136)"
               id="text180"><tspan
                 x="0 6.6743999"
                 y="0"
                 id="tspan182"
                 style="font-size:12px;font-variant:normal;font-weight:normal;writing-mode:lr-tb;fill:#000000;fill-opacity:1;fill-rule:nonzero;stroke:none;font-family:Helvetica;-inkscape-font-specification:Helvetica">10</tspan></text>
</g></g></g></g></g></svg>