<?xml version="1.0" encoding="UTF-8" standalone="no"?>
<!-- Created with Inkscape (http://www.inkscape.org/) -->

<svg
   xmlns:svg="http://www.w3.org/2000/svg"
   xmlns="http://www.w3.org/2000/svg"
   version="1.1"
   width="285"
   height="105"
   id="svg2"
   xml:space="preserve"><defs
     id="defs6"><clipPath
       id="clipPath20"><path
         d="M 0,0 228,0 228,84 0,84 0,0 z"
         id="path22" /></clipPath><clipPath
       id="clipPath30"><path
         d="m 0,84 228,0 0,-84.000001239474 -228,0 L 0,84 z"
         id="path32" /></clipPath><clipPath
       id="clipPath36"><path
         d="M 0,0 228,0 228,84 0,84 0,0 z"
         id="path38" /></clipPath></defs><g
     transform="matrix(1.25,0,0,-1.25,0,105)"
     id="g12"><g
       id="g14" /><g
       id="g16"><g
         clip-path="url(#clipPath20)"
         id="g18"><path
           d="M 0,84 228,84 228,0 0,0 0,84 z"
           id="path24"
           style="fill:#ffffff;fill-opacity:0;fill-rule:evenodd;stroke:none" /></g></g><g
       id="g26"><g
         clip-path="url(#clipPath30)"
         id="g28"><g
           clip-path="url(#clipPath36)"
           id="g34"><path
             d="m 115,82 5,0 0,-46 -5,0 0,46 z"
             id="path40"
             style="fill:#bfbfbf;fill-opacity:1;fill-rule:nonzero;stroke:none" /><g
             transform="matrix(1,0,0,-1,0,84)"
             id="g42"><path
               d="m 115.5,2.5 4,0 0,45 -4,0 0,-45 z"
               id="path44"
               style="fill:none;stroke:#ffffff;stroke-width:1;stroke-linecap:butt;stroke-linejoin:miter;stroke-miterlimit:10;stroke-opacity:1;stroke-dasharray:none" /></g><g
             transform="matrix(1,0,0,-1,0,84)"
             id="g46"><path
               d="m 110.5,2.5 9,0 0,45 -9,0 0,-45 z"
               id="path48"
               style="fill:none;stroke:#000000;stroke-width:1;stroke-linecap:butt;stroke-linejoin:miter;stroke-miterlimit:10;stroke-opacity:1;stroke-dasharray:none" /></g><path
             d="m 43,82 5,0 0,-55 -5,0 0,55 z"
             id="path50"
             style="fill:#bfbfbf;fill-opacity:1;fill-rule:nonzero;stroke:none" /><g
             transform="matrix(1,0,0,-1,0,84)"
             id="g52"><path
               d="m 43.5,2.5 4,0 0,54 -4,0 0,-54 z"
               id="path54"
               style="fill:none;stroke:#ffffff;stroke-width:1;stroke-linecap:butt;stroke-linejoin:miter;stroke-miterlimit:10;stroke-opacity:1;stroke-dasharray:none" /></g><g
             transform="matrix(1,0,0,-1,0,84)"
             id="g56"><path
               d="m 38.5,2.5 9,0 0,54 -9,0 0,-54 z"
               id="path58"
               style="fill:none;stroke:#000000;stroke-width:1;stroke-linecap:butt;stroke-linejoin:miter;stroke-miterlimit:10;stroke-opacity:1;stroke-dasharray:none" /></g><path
             d="m 2,10 226,0 0,-10.000001239474 -226,0 L 2,10 z"
             id="path60"
             style="fill:#808080;fill-opacity:1;fill-rule:nonzero;stroke:none" /><g
             transform="matrix(1,0,0,-1,0,84)"
             id="g62"><path
               d="m 2.5,74.5 225,0 0,9 -225,0 0,-9 z"
               id="path64"
               style="fill:none;stroke:#000000;stroke-width:1;stroke-linecap:butt;stroke-linejoin:miter;stroke-miterlimit:10;stroke-opacity:1;stroke-dasharray:none" /></g><path
             d="M 58,19 75,19 75,9 58,9 58,19 z"
             id="path66"
             style="fill:#bfbfbf;fill-opacity:1;fill-rule:nonzero;stroke:none" /><g
             transform="matrix(1,0,0,-1,0,84)"
             id="g68"><path
               d="m 58.5,65.5 16,0 0,9 -16,0 0,-9 z"
               id="path70"
               style="fill:none;stroke:#ffffff;stroke-width:1;stroke-linecap:butt;stroke-linejoin:miter;stroke-miterlimit:10;stroke-opacity:1;stroke-dasharray:none" /></g><path
             d="m 56,28 15,0 0,-10 -15,0 0,10 z"
             id="path72"
             style="fill:#bfbfbf;fill-opacity:1;fill-rule:nonzero;stroke:none" /><g
             transform="matrix(1,0,0,-1,0,84)"
             id="g74"><path
               d="m 56.5,56.5 14,0 0,9 -14,0 0,-9 z"
               id="path76"
               style="fill:none;stroke:#ffffff;stroke-width:1;stroke-linecap:butt;stroke-linejoin:miter;stroke-miterlimit:10;stroke-opacity:1;stroke-dasharray:none" /></g><g
             transform="matrix(1,0,0,-1,0,84)"
             id="g78"><path
               d="m 11.5,65.5 63,0 0,9 -63,0 0,-9 z"
               id="path80"
               style="fill:none;stroke:#000000;stroke-width:1;stroke-linecap:butt;stroke-linejoin:miter;stroke-miterlimit:10;stroke-opacity:1;stroke-dasharray:none" /></g><g
             transform="matrix(1,0,0,-1,0,84)"
             id="g82"><path
               d="m 14.5,56.5 56,0 0,9 -56,0 0,-9 z"
               id="path84"
               style="fill:none;stroke:#000000;stroke-width:1;stroke-linecap:butt;stroke-linejoin:miter;stroke-miterlimit:10;stroke-opacity:1;stroke-dasharray:none" /></g><path
             d="m 126,19 13,0 0,-10 -13,0 0,10 z"
             id="path86"
             style="fill:#bfbfbf;fill-opacity:1;fill-rule:nonzero;stroke:none" /><g
             transform="matrix(1,0,0,-1,0,84)"
             id="g88"><path
               d="m 126.5,65.5 12,0 0,9 -12,0 0,-9 z"
               id="path90"
               style="fill:none;stroke:#ffffff;stroke-width:1;stroke-linecap:butt;stroke-linejoin:miter;stroke-miterlimit:10;stroke-opacity:1;stroke-dasharray:none" /></g><path
             d="m 124,28 11,0 0,-10 -11,0 0,10 z"
             id="path92"
             style="fill:#bfbfbf;fill-opacity:1;fill-rule:nonzero;stroke:none" /><g
             transform="matrix(1,0,0,-1,0,84)"
             id="g94"><path
               d="m 124.5,56.5 10,0 0,9 -10,0 0,-9 z"
               id="path96"
               style="fill:none;stroke:#ffffff;stroke-width:1;stroke-linecap:butt;stroke-linejoin:miter;stroke-miterlimit:10;stroke-opacity:1;stroke-dasharray:none" /></g><path
             d="m 122,37 9,0 0,-10 -9,0 0,10 z"
             id="path98"
             style="fill:#bfbfbf;fill-opacity:1;fill-rule:nonzero;stroke:none" /><g
             transform="matrix(1,0,0,-1,0,84)"
             id="g100"><path
               d="m 122.5,47.5 8,0 0,9 -8,0 0,-9 z"
               id="path102"
               style="fill:none;stroke:#ffffff;stroke-width:1;stroke-linecap:butt;stroke-linejoin:miter;stroke-miterlimit:10;stroke-opacity:1;stroke-dasharray:none" /></g><g
             transform="matrix(1,0,0,-1,0,84)"
             id="g104"><path
               d="m 90.5,65.5 48,0 0,9 -48,0 0,-9 z"
               id="path106"
               style="fill:none;stroke:#000000;stroke-width:1;stroke-linecap:butt;stroke-linejoin:miter;stroke-miterlimit:10;stroke-opacity:1;stroke-dasharray:none" /></g><g
             transform="matrix(1,0,0,-1,0,84)"
             id="g108"><path
               d="m 94.5,56.5 40,0 0,9 -40,0 0,-9 z"
               id="path110"
               style="fill:none;stroke:#000000;stroke-width:1;stroke-linecap:butt;stroke-linejoin:miter;stroke-miterlimit:10;stroke-opacity:1;stroke-dasharray:none" /></g><g
             transform="matrix(1,0,0,-1,0,84)"
             id="g112"><path
               d="m 98.5,47.5 32,0 0,9 -32,0 0,-9 z"
               id="path114"
               style="fill:none;stroke:#000000;stroke-width:1;stroke-linecap:butt;stroke-linejoin:miter;stroke-miterlimit:10;stroke-opacity:1;stroke-dasharray:none" /></g><path
             d="m 187,82 5,0 0,-73 -5,0 0,73 z"
             id="path116"
             style="fill:#bfbfbf;fill-opacity:1;fill-rule:nonzero;stroke:none" /><g
             transform="matrix(1,0,0,-1,0,84)"
             id="g118"><path
               d="m 187.5,2.5 4,0 0,72 -4,0 0,-72 z"
               id="path120"
               style="fill:none;stroke:#ffffff;stroke-width:1;stroke-linecap:butt;stroke-linejoin:miter;stroke-miterlimit:10;stroke-opacity:1;stroke-dasharray:none" /></g><g
             transform="matrix(1,0,0,-1,0,84)"
             id="g122"><path
               d="m 182.5,2.5 9,0 0,72 -9,0 0,-72 z"
               id="path124"
               style="fill:none;stroke:#000000;stroke-width:1;stroke-linecap:butt;stroke-linejoin:miter;stroke-miterlimit:10;stroke-opacity:1;stroke-dasharray:none" /></g></g></g></g></g></svg>