<?xml version="1.0" encoding="UTF-8" standalone="no"?>
<!-- Created with Inkscape (http://www.inkscape.org/) -->

<svg
   xmlns:svg="http://www.w3.org/2000/svg"
   xmlns="http://www.w3.org/2000/svg"
   version="1.1"
   width="186.25"
   height="228.75"
   id="svg2"
   xml:space="preserve"><defs
     id="defs6"><clipPath
       id="clipPath20"><path
         d="M 0,0 149,0 149,183 0,183 0,0 z"
         id="path22" /></clipPath><clipPath
       id="clipPath30"><path
         d="m 0,183 149,0 0,-183.000002700282 -149,0 L 0,183 z"
         id="path32" /></clipPath><clipPath
       id="clipPath36"><path
         d="M 0,0 149,0 149,183 0,183 0,0 z"
         id="path38" /></clipPath></defs><g
     transform="matrix(1.25,0,0,-1.25,0,228.75)"
     id="g12"><g
       id="g14" /><g
       id="g16"><g
         clip-path="url(#clipPath20)"
         id="g18"><path
           d="M 0,183 149,183 149,0 0,0 0,183 z"
           id="path24"
           style="fill:#ffffff;fill-opacity:0;fill-rule:evenodd;stroke:none" /></g></g><g
       id="g26"><g
         clip-path="url(#clipPath30)"
         id="g28"><g
           clip-path="url(#clipPath36)"
           id="g34"><g
             transform="matrix(1,0,0,-1,0,183)"
             id="g40"><text
               transform="translate(5,46)"
               id="text42"><tspan
                 x="0 6.0009999 12.002 18.003 24.004 30.004999 36.006001 42.007 48.007999 54.008999 60.009998"
                 y="0"
                 id="tspan44"
                 style="font-size:10px;font-variant:normal;font-weight:normal;writing-mode:lr-tb;fill:#000000;fill-opacity:1;fill-rule:nonzero;stroke:none;font-family:Courier New;-inkscape-font-specification:Courier">:-q,r,s,!,t</tspan></text>
</g><g
             transform="matrix(1,0,0,-1,0,183)"
             id="g46"><text
               transform="translate(72,10)"
               id="text48"><tspan
                 x="0 6.0009999 12.002"
                 y="0"
                 id="tspan50"
                 style="font-size:10px;font-variant:normal;font-weight:normal;writing-mode:lr-tb;fill:#000000;fill-opacity:1;fill-rule:nonzero;stroke:none;font-family:Courier New;-inkscape-font-specification:Courier">?-p</tspan></text>
</g><path
             d="m 72,170 0.25,0 0,-0.25 -20,-22 -0.25,0 0,0.25"
             id="path52"
             style="fill:#000000;fill-opacity:1;fill-rule:nonzero;stroke:none" /><path
             d="m 92,170 0.25,0 20,-22 0,-0.25 -0.25,0 -20,22"
             id="path54"
             style="fill:#000000;fill-opacity:1;fill-rule:nonzero;stroke:none" /><g
             transform="matrix(1,0,0,-1,0,183)"
             id="g56"><path
               d="m 19,140.5 46,0"
               id="path58"
               style="fill:none;stroke:#000000;stroke-width:1;stroke-linecap:butt;stroke-linejoin:miter;stroke-miterlimit:10;stroke-opacity:1;stroke-dasharray:none" /></g><g
             transform="matrix(1,0,0,-1,0,183)"
             id="g60"><path
               d="m 43.125,96 0,29.25"
               id="path62"
               style="fill:none;stroke:#000000;stroke-width:0.25;stroke-linecap:butt;stroke-linejoin:miter;stroke-miterlimit:10;stroke-opacity:1;stroke-dasharray:none" /></g><g
             transform="matrix(1,0,0,-1,0,183)"
             id="g64"><text
               transform="translate(128,179)"
               id="text66"><tspan
                 x="0"
                 y="0"
                 id="tspan68"
                 style="font-size:10px;font-variant:normal;font-weight:normal;writing-mode:lr-tb;fill:#000000;fill-opacity:1;fill-rule:nonzero;stroke:none;font-family:Geneva;-inkscape-font-specification:Geneva">∆</tspan></text>
</g><g
             transform="matrix(1,0,0,-1,0,183)"
             id="g70"><path
               d="m 131.125,138 0,29.25"
               id="path72"
               style="fill:none;stroke:#000000;stroke-width:0.25;stroke-linecap:butt;stroke-linejoin:miter;stroke-miterlimit:10;stroke-opacity:1;stroke-dasharray:none" /></g><g
             transform="matrix(1,0,0,-1,0,183)"
             id="g74"><path
               d="m 43.125,51 0,29.25"
               id="path76"
               style="fill:none;stroke:#000000;stroke-width:0.25;stroke-linecap:butt;stroke-linejoin:miter;stroke-miterlimit:10;stroke-opacity:1;stroke-dasharray:none" /></g><g
             transform="matrix(1,0,0,-1,0,183)"
             id="g78"><text
               transform="translate(12,90)"
               id="text80"><tspan
                 x="0 6.0009999 12.002 18.003 24.004 30.004999 36.006001 42.007 48.007999"
                 y="0"
                 id="tspan82"
                 style="font-size:10px;font-variant:normal;font-weight:normal;writing-mode:lr-tb;fill:#000000;fill-opacity:1;fill-rule:nonzero;stroke:none;font-family:Courier New;-inkscape-font-specification:Courier">:-r,s,!,t</tspan></text>
</g><g
             transform="matrix(1,0,0,-1,0,183)"
             id="g84"><text
               transform="translate(19,136)"
               id="text86"><tspan
                 x="0 6.0009999 12.002 18.003 24.004 30.004999 36.006001"
                 y="0"
                 id="tspan88"
                 style="font-size:10px;font-variant:normal;font-weight:normal;writing-mode:lr-tb;fill:#000000;fill-opacity:1;fill-rule:nonzero;stroke:none;font-family:Courier New;-inkscape-font-specification:Courier">:-s,!,t</tspan></text>
</g><g
             transform="matrix(1,0,0,-1,0,183)"
             id="g90"><text
               transform="translate(104,45)"
               id="text92"><tspan
                 x="0 6.0009999 12.002 18.003 24.004 30.004999 36.006001"
                 y="0"
                 id="tspan94"
                 style="font-size:10px;font-variant:normal;font-weight:normal;writing-mode:lr-tb;fill:#000000;fill-opacity:1;fill-rule:nonzero;stroke:none;font-family:Courier New;-inkscape-font-specification:Courier">:-q,r,u</tspan></text>
</g><g
             transform="matrix(1,0,0,-1,0,183)"
             id="g96"><path
               d="m 130.125,95 0,29.25"
               id="path98"
               style="fill:none;stroke:#000000;stroke-width:0.25;stroke-linecap:butt;stroke-linejoin:miter;stroke-miterlimit:10;stroke-opacity:1;stroke-dasharray:none" /></g><g
             transform="matrix(1,0,0,-1,0,183)"
             id="g100"><path
               d="m 130.125,50 0,29.25"
               id="path102"
               style="fill:none;stroke:#000000;stroke-width:0.25;stroke-linecap:butt;stroke-linejoin:miter;stroke-miterlimit:10;stroke-opacity:1;stroke-dasharray:none" /></g><g
             transform="matrix(1,0,0,-1,0,183)"
             id="g104"><text
               transform="translate(111,89)"
               id="text106"><tspan
                 x="0 6.0009999 12.002 18.003 24.004"
                 y="0"
                 id="tspan108"
                 style="font-size:10px;font-variant:normal;font-weight:normal;writing-mode:lr-tb;fill:#000000;fill-opacity:1;fill-rule:nonzero;stroke:none;font-family:Courier New;-inkscape-font-specification:Courier">:-r,u</tspan></text>
</g><g
             transform="matrix(1,0,0,-1,0,183)"
             id="g110"><text
               transform="translate(118,135)"
               id="text112"><tspan
                 x="0 6.0009999 12.002"
                 y="0"
                 id="tspan114"
                 style="font-size:10px;font-variant:normal;font-weight:normal;writing-mode:lr-tb;fill:#000000;fill-opacity:1;fill-rule:nonzero;stroke:none;font-family:Courier New;-inkscape-font-specification:Courier">:-u</tspan></text>
</g></g></g></g></g></svg>