<?xml version="1.0" encoding="UTF-8" standalone="no"?>
<!-- Created with Inkscape (http://www.inkscape.org/) -->

<svg
   xmlns:svg="http://www.w3.org/2000/svg"
   xmlns="http://www.w3.org/2000/svg"
   version="1.1"
   width="590"
   height="293.75"
   id="svg2"
   xml:space="preserve"><defs
     id="defs6"><clipPath
       id="clipPath20"><path
         d="M 0,0 472,0 472,235 0,235 0,0 z"
         id="path22" /></clipPath><clipPath
       id="clipPath30"><path
         d="m 0,235 472,0 0,-235.000003467576 -472,0 L 0,235 z"
         id="path32" /></clipPath><clipPath
       id="clipPath36"><path
         d="M 0,0 472,0 472,235 0,235 0,0 z"
         id="path38" /></clipPath></defs><g
     transform="matrix(1.25,0,0,-1.25,0,293.75)"
     id="g12"><g
       id="g14" /><g
       id="g16"><g
         clip-path="url(#clipPath20)"
         id="g18"><path
           d="M 0,235 472,235 472,0 0,0 0,235 z"
           id="path24"
           style="fill:#ffffff;fill-opacity:0;fill-rule:evenodd;stroke:none" /></g></g><g
       id="g26"><g
         clip-path="url(#clipPath30)"
         id="g28"><g
           clip-path="url(#clipPath36)"
           id="g34"><g
             transform="matrix(1,0,0,-1,0,235)"
             id="g40"><text
               transform="translate(3,80)"
               id="text42"><tspan
                 x="0 6.0009999 12.002 18.003 24.004 30.004999 36.006001 42.007 48.007999 54.008999 60.009998 66.011002 72.012001 78.013 84.014 90.014999 96.015999 102.017 108.018"
                 y="0"
                 id="tspan44"
                 style="font-size:10px;font-variant:normal;font-weight:normal;writing-mode:lr-tb;fill:#000000;fill-opacity:1;fill-rule:nonzero;stroke:none;font-family:Courier New;-inkscape-font-specification:Courier">?-connected(W,Z,L),</tspan></text>
</g><g
             transform="matrix(1,0,0,-1,0,235)"
             id="g46"><text
               transform="translate(3,92)"
               id="text48"><tspan
                 x="0 6.0009999"
                 y="0"
                 id="tspan50"
                 style="font-size:10px;font-variant:normal;font-weight:normal;writing-mode:lr-tb;fill:#000000;fill-opacity:1;fill-rule:nonzero;stroke:none;font-family:Courier New;-inkscape-font-specification:Courier">!!</tspan></text>
</g><g
             transform="matrix(1,0,0,-1,0,235)"
             id="g52"><text
               transform="translate(15.002,92)"
               id="text54"><tspan
                 x="0 6.0009999 12.002 18.003 24.004 30.004999 36.006001 42.007 48.007999 54.008999 60.009998 66.011002 72.012001 78.013 84.014 90.014999 96.015999 102.017 108.018 114.019 120.02 126.021 132.022 138.02299 144.024 150.02499 156.026 162.02699"
                 y="0"
                 id="tspan56"
                 style="font-size:10px;font-variant:normal;font-weight:normal;writing-mode:lr-tb;fill:#000000;fill-opacity:1;fill-rule:nonzero;stroke:none;font-family:Courier New;-inkscape-font-specification:Courier">connected(Z,charing_cross,L)</tspan></text>
</g><g
             transform="matrix(1,0,0,-1,0,235)"
             id="g58"><text
               transform="translate(211,100)"
               id="text60"><tspan
                 x="0 6.0009999 12.002 18.003 24.004 30.004999 36.006001 42.007 48.007999 54.008999 60.009998 66.011002 72.012001 78.013 84.014 90.014999 96.015999 102.017 108.018 114.019 120.02 126.021 132.022 138.02299 144.024 150.02499 156.026 162.02699 168.028 174.02901 180.03 186.03101 192.032 198.033 204.034 210.035 216.036 222.037 228.03799 234.039 240.03999"
                 y="0"
                 id="tspan62"
                 style="font-size:10px;font-variant:normal;font-weight:normal;writing-mode:lr-tb;fill:#000000;fill-opacity:1;fill-rule:nonzero;stroke:none;font-family:Courier New;-inkscape-font-specification:Courier">connected(bond_street,green_park,jubilee)</tspan></text>
</g><g
             transform="matrix(1,0,0,-1,0,235)"
             id="g64"><text
               transform="translate(210,125)"
               id="text66"><tspan
                 x="0 6.0009999 12.002 18.003 24.004 30.004999 36.006001 42.007 48.007999 54.008999 60.009998 66.011002 72.012001 78.013 84.014 90.014999 96.015999 102.017 108.018 114.019 120.02 126.021 132.022 138.02299 144.024 150.02499 156.026 162.02699 168.028 174.02901 180.03 186.03101 192.032 198.033 204.034 210.035 216.036 222.037 228.03799 234.039 240.03999 246.041 252.04201"
                 y="0"
                 id="tspan68"
                 style="font-size:10px;font-variant:normal;font-weight:normal;writing-mode:lr-tb;fill:#000000;fill-opacity:1;fill-rule:nonzero;stroke:none;font-family:Courier New;-inkscape-font-specification:Courier">{W-&gt;bond_street, Z-&gt;green_park, L-&gt;jubilee}</tspan></text>
</g><g
             transform="matrix(1,0,0,-1,0,235)"
             id="g70"><text
               transform="translate(1,153)"
               id="text72"><tspan
                 x="0 6.0009999 12.002 18.003 24.004 30.004999 36.006001 42.007 48.007999 54.008999 60.009998 66.011002 72.012001 78.013 84.014 90.014999 96.015999 102.017 108.018 114.019 120.02 126.021 132.022 138.02299 144.024 150.02499 156.026 162.02699 168.028 174.02901 180.03 186.03101 192.032 198.033 204.034 210.035 216.036 222.037 228.03799 234.039 240.03999 246.041 252.04201 258.043 264.04401"
                 y="0"
                 id="tspan74"
                 style="font-size:10px;font-variant:normal;font-weight:normal;writing-mode:lr-tb;fill:#000000;fill-opacity:1;fill-rule:nonzero;stroke:none;font-family:Courier New;-inkscape-font-specification:Courier">?-connected(green_park,charing_cross,jubilee)</tspan></text>
</g><g
             transform="matrix(1,0,0,-1,0,235)"
             id="g76"><path
               d="m 74.125,97 0,44.25"
               id="path78"
               style="fill:none;stroke:#000000;stroke-width:0.25;stroke-linecap:butt;stroke-linejoin:miter;stroke-miterlimit:10;stroke-opacity:1;stroke-dasharray:none" /></g><g
             transform="matrix(1,0,0,-1,0,235)"
             id="g80"><path
               d="m 73.125,158 0,60.25"
               id="path82"
               style="fill:none;stroke:#000000;stroke-width:0.25;stroke-linecap:butt;stroke-linejoin:miter;stroke-miterlimit:10;stroke-opacity:1;stroke-dasharray:none" /></g><path
             d="m 263,131 0.25,0 0,-0.25 -171,-35 -0.25,0 0,0.25"
             id="path84"
             style="fill:#000000;fill-opacity:1;fill-rule:nonzero;stroke:none" /><path
             d="m 262,54 0.25,0 0,-0.25 -171,-36 -0.25,0 0,0.25"
             id="path86"
             style="fill:#000000;fill-opacity:1;fill-rule:nonzero;stroke:none" /><g
             transform="matrix(1,0,0,-1,0,235)"
             id="g88"><text
               transform="translate(77,231)"
               id="text90"><tspan
                 x="0"
                 y="0"
                 id="tspan92"
                 style="font-size:10px;font-variant:normal;font-weight:normal;writing-mode:lr-tb;fill:#000000;fill-opacity:1;fill-rule:nonzero;stroke:none;font-family:Geneva;-inkscape-font-specification:Geneva">∆</tspan></text>
</g><g
             transform="matrix(1,0,0,-1,0,235)"
             id="g94"><text
               transform="translate(2,28)"
               id="text96"><tspan
                 x="0 6.0009999 12.002 18.003 24.004 30.004999 36.006001 42.007 48.007999 54.008999 60.009998 66.011002 72.012001 78.013 84.014 90.014999 96.015999 102.017 108.018 114.019 120.02 126.021 132.022 138.02299 144.024 150.02499 156.026 162.02699"
                 y="0"
                 id="tspan98"
                 style="font-size:10px;font-variant:normal;font-weight:normal;writing-mode:lr-tb;fill:#000000;fill-opacity:1;fill-rule:nonzero;stroke:none;font-family:Courier New;-inkscape-font-specification:Courier">?-reachable(W,charing_cross)</tspan></text>
</g><g
             transform="matrix(1,0,0,-1,0,235)"
             id="g100"><text
               transform="translate(254,28)"
               id="text102"><tspan
                 x="0 6.0009999 12.002 18.003 24.004 30.004999 36.006001 42.007 48.007999 54.008999 60.009998 66.011002 72.012001 78.013 84.014 90.014999 96.015999 102.017 108.018 114.019 120.02 126.021 132.022 138.02299 144.024 150.02499 156.026 162.02699 168.028 174.02901 180.03 186.03101 192.032"
                 y="0"
                 id="tspan104"
                 style="font-size:10px;font-variant:normal;font-weight:normal;writing-mode:lr-tb;fill:#000000;fill-opacity:1;fill-rule:nonzero;stroke:none;font-family:Courier New;-inkscape-font-specification:Courier">reachable(X,Y):-connected(X,Z,L),</tspan></text>
</g><g
             transform="matrix(1,0,0,-1,0,235)"
             id="g106"><text
               transform="translate(356,40)"
               id="text108"><tspan
                 x="0 6.0009999 12.002 18.003 24.004 30.004999 36.006001 42.007 48.007999 54.008999 60.009998 66.011002 72.012001 78.013 84.014 90.014999 96.015999"
                 y="0"
                 id="tspan110"
                 style="font-size:10px;font-variant:normal;font-weight:normal;writing-mode:lr-tb;fill:#000000;fill-opacity:1;fill-rule:nonzero;stroke:none;font-family:Courier New;-inkscape-font-specification:Courier">connected(Z,Y,L) </tspan></text>
</g><g
             transform="matrix(1,0,0,-1,0,235)"
             id="g112"><text
               transform="translate(207,53)"
               id="text114"><tspan
                 x="0 6.0009999 12.002 18.003 24.004 30.004999 36.006001 42.007 48.007999 54.008999 60.009998 66.011002 72.012001 78.013 84.014 90.014999 96.015999 102.017 108.018 114.019 120.02 126.021 132.022 138.02299"
                 y="0"
                 id="tspan116"
                 style="font-size:10px;font-variant:normal;font-weight:normal;writing-mode:lr-tb;fill:#000000;fill-opacity:1;fill-rule:nonzero;stroke:none;font-family:Courier New;-inkscape-font-specification:Courier">{X-&gt;W, Y-&gt;charing_cross}</tspan></text>
</g><g
             transform="matrix(1,0,0,-1,0,235)"
             id="g118"><path
               d="m 74.125,33 0,35.25"
               id="path120"
               style="fill:none;stroke:#000000;stroke-width:0.25;stroke-linecap:butt;stroke-linejoin:miter;stroke-miterlimit:10;stroke-opacity:1;stroke-dasharray:none" /></g><path
             d="m 263,203 0.25,0 0,-0.25 -171,-35 -0.25,0 0,0.25"
             id="path122"
             style="fill:#000000;fill-opacity:1;fill-rule:nonzero;stroke:none" /><g
             transform="matrix(1,0,0,-1,0,235)"
             id="g124"><text
               transform="translate(207,176)"
               id="text126"><tspan
                 x="0 6.0009999 12.002 18.003 24.004 30.004999 36.006001 42.007 48.007999 54.008999 60.009998 66.011002 72.012001 78.013 84.014 90.014999 96.015999 102.017 108.018 114.019 120.02 126.021 132.022 138.02299 144.024 150.02499 156.026 162.02699 168.028 174.02901 180.03 186.03101 192.032 198.033 204.034 210.035 216.036 222.037 228.03799 234.039 240.03999 246.041 252.04201"
                 y="0"
                 id="tspan128"
                 style="font-size:10px;font-variant:normal;font-weight:normal;writing-mode:lr-tb;fill:#000000;fill-opacity:1;fill-rule:nonzero;stroke:none;font-family:Courier New;-inkscape-font-specification:Courier">connected(green_park,charing_cross,jubilee)</tspan></text>
</g></g></g></g></g></svg>