<?xml version="1.0" encoding="UTF-8" standalone="no"?>
<!-- Created with Inkscape (http://www.inkscape.org/) -->

<svg
   xmlns:svg="http://www.w3.org/2000/svg"
   xmlns="http://www.w3.org/2000/svg"
   version="1.1"
   width="296.25"
   height="252.5"
   id="svg2"
   xml:space="preserve"><defs
     id="defs6"><clipPath
       id="clipPath20"><path
         d="M 0,0 237,0 237,202 0,202 0,0 z"
         id="path22" /></clipPath><clipPath
       id="clipPath30"><path
         d="m 0,202 237,0 0,-202.00000298064 -237,0 L 0,202 z"
         id="path32" /></clipPath><clipPath
       id="clipPath36"><path
         d="M 0,0 237,0 237,202 0,202 0,0 z"
         id="path38" /></clipPath></defs><g
     transform="matrix(1.25,0,0,-1.25,0,252.5)"
     id="g12"><g
       id="g14" /><g
       id="g16"><g
         clip-path="url(#clipPath20)"
         id="g18"><path
           d="M 0,202 237,202 237,0 0,0 0,202 z"
           id="path24"
           style="fill:#ffffff;fill-opacity:0;fill-rule:evenodd;stroke:none" /></g></g><g
       id="g26"><g
         clip-path="url(#clipPath30)"
         id="g28"><g
           clip-path="url(#clipPath36)"
           id="g34"><g
             transform="matrix(1,0,0,-1,0,202)"
             id="g40"><text
               transform="translate(4,16)"
               id="text42"><tspan
                 x="0 6.9780002 13.956 20.934 27.912001 34.889999 41.868 48.846001 55.824001 62.801998"
                 y="0"
                 id="tspan44"
                 style="font-size:12px;font-variant:normal;font-weight:bold;writing-mode:lr-tb;fill:#000000;fill-opacity:1;fill-rule:nonzero;stroke:none;font-family:Courier New;-inkscape-font-specification:Courier-Bold">:-friendly</tspan></text>
</g><g
             transform="matrix(1,0,0,-1,0,202)"
             id="g46"><text
               transform="translate(120,16)"
               id="text48"><tspan
                 x="0 6.9851999 13.9704 20.955601 27.9408 34.925999 41.911201 48.8964 55.881599 62.866798 69.851997 76.837196 83.822403 90.807602 97.792801"
                 y="0"
                 id="tspan50"
                 style="font-size:12px;font-variant:normal;font-weight:normal;writing-mode:lr-tb;fill:#000000;fill-opacity:1;fill-rule:nonzero;stroke:none;font-family:Courier New;-inkscape-font-specification:Courier">friendly:-happy</tspan></text>
</g><g
             transform="matrix(1,0,0,-1,0,202)"
             id="g52"><text
               transform="translate(13,73)"
               id="text54"><tspan
                 x="0 6.9660001 13.932 20.898001 27.864 34.830002 41.796001"
                 y="0"
                 id="tspan56"
                 style="font-size:12px;font-variant:normal;font-weight:normal;writing-mode:lr-tb;fill:#000000;fill-opacity:1;fill-rule:nonzero;stroke:none;font-family:Courier New;-inkscape-font-specification:Courier">:-happy</tspan></text>
</g><g
             transform="matrix(1,0,0,-1,0,202)"
             id="g58"><text
               transform="translate(106,73)"
               id="text60"><tspan
                 x="0 6.9875998 13.9752 20.962799 27.950399 34.938 41.925598 48.9132 55.900799 62.888401 69.875999 76.863602 83.851196 90.838799 97.826401 104.814 111.8016 118.7892"
                 y="0"
                 id="tspan62"
                 style="font-size:12px;font-variant:normal;font-weight:normal;writing-mode:lr-tb;fill:#000000;fill-opacity:1;fill-rule:nonzero;stroke:none;font-family:Courier New;-inkscape-font-specification:Courier">happy:-has_friends</tspan></text>
</g><g
             transform="matrix(1,0,0,-1,0,202)"
             id="g64"><text
               transform="translate(2,132)"
               id="text66"><tspan
                 x="0 6.9828 13.9656 20.9484 27.9312 34.914001 41.896801 48.879601 55.8624 62.8452 69.828003 76.810799 83.793602"
                 y="0"
                 id="tspan68"
                 style="font-size:12px;font-variant:normal;font-weight:normal;writing-mode:lr-tb;fill:#000000;fill-opacity:1;fill-rule:nonzero;stroke:none;font-family:Courier New;-inkscape-font-specification:Courier">:-has_friends</tspan></text>
</g><g
             transform="matrix(1,0,0,-1,0,202)"
             id="g70"><text
               transform="translate(136,132)"
               id="text72"><tspan
                 x="0 6.9804001 13.9608 20.9412 27.9216 34.902 41.882401 48.862801 55.843201 62.823601 69.804001"
                 y="0"
                 id="tspan74"
                 style="font-size:12px;font-variant:normal;font-weight:bold;writing-mode:lr-tb;fill:#000000;fill-opacity:1;fill-rule:nonzero;stroke:none;font-family:Courier New;-inkscape-font-specification:Courier-Bold">has_friends</tspan></text>
</g><g
             transform="matrix(1,0,0,-1,0,202)"
             id="g76"><text
               transform="translate(40,196)"
               id="text78"><tspan
                 x="0"
                 y="0"
                 id="tspan80"
                 style="font-size:12px;font-variant:normal;font-weight:normal;writing-mode:lr-tb;fill:#000000;fill-opacity:1;fill-rule:nonzero;stroke:none;font-family:Geneva;-inkscape-font-specification:Geneva">∆</tspan></text>
</g><g
             transform="matrix(1,0,0,-1,0,202)"
             id="g82"><path
               d="m 40.125,20 0,41.25"
               id="path84"
               style="fill:none;stroke:#000000;stroke-width:0.25;stroke-linecap:butt;stroke-linejoin:miter;stroke-miterlimit:10;stroke-opacity:1;stroke-dasharray:none" /></g><path
             d="m 159,182 0.25,0 0,-0.25 -106,-41 -0.25,0 0,0.25"
             id="path86"
             style="fill:#000000;fill-opacity:1;fill-rule:nonzero;stroke:none" /><g
             transform="matrix(1,0,0,-1,0,202)"
             id="g88"><path
               d="m 40.125,78 0,41.25"
               id="path90"
               style="fill:none;stroke:#000000;stroke-width:0.25;stroke-linecap:butt;stroke-linejoin:miter;stroke-miterlimit:10;stroke-opacity:1;stroke-dasharray:none" /></g><path
             d="m 159,124 0.25,0 0,-0.25 -106,-41 -0.25,0 0,0.25"
             id="path92"
             style="fill:#000000;fill-opacity:1;fill-rule:nonzero;stroke:none" /><g
             transform="matrix(1,0,0,-1,0,202)"
             id="g94"><path
               d="m 41.125,138 0,41.25"
               id="path96"
               style="fill:none;stroke:#000000;stroke-width:0.25;stroke-linecap:butt;stroke-linejoin:miter;stroke-miterlimit:10;stroke-opacity:1;stroke-dasharray:none" /></g><path
             d="m 160,64 0.25,0 0,-0.25 -106,-41 -0.25,0 0,0.25"
             id="path98"
             style="fill:#000000;fill-opacity:1;fill-rule:nonzero;stroke:none" /></g></g></g></g></svg>