<?xml version="1.0" encoding="UTF-8" standalone="no"?>
<!-- Created with Inkscape (http://www.inkscape.org/) -->

<svg
   xmlns:svg="http://www.w3.org/2000/svg"
   xmlns="http://www.w3.org/2000/svg"
   version="1.1"
   width="707.5"
   height="181.25"
   id="svg2"
   xml:space="preserve"><defs
     id="defs6"><clipPath
       id="clipPath20"><path
         d="M 0,0 566,0 566,145 0,145 0,0 z"
         id="path22" /></clipPath><clipPath
       id="clipPath30"><path
         d="m 0,145 566,0 0,-145.000002139568 -566,0 L 0,145 z"
         id="path32" /></clipPath><clipPath
       id="clipPath36"><path
         d="M 0,0 566,0 566,145 0,145 0,0 z"
         id="path38" /></clipPath></defs><g
     transform="matrix(1.25,0,0,-1.25,0,181.25)"
     id="g12"><g
       id="g14" /><g
       id="g16"><g
         clip-path="url(#clipPath20)"
         id="g18"><path
           d="M 0,145 566,145 566,0 0,0 0,145 z"
           id="path24"
           style="fill:#ffffff;fill-opacity:0;fill-rule:evenodd;stroke:none" /></g></g><g
       id="g26"><g
         clip-path="url(#clipPath30)"
         id="g28"><g
           clip-path="url(#clipPath36)"
           id="g34"><g
             transform="matrix(1,0,0,-1,0,145)"
             id="g40"><text
               transform="translate(374,18)"
               id="text42"><tspan
                 x="0 6.9815998 13.9632 20.944799 27.926399 34.908001 41.889599 48.871201 55.852798 62.8344 69.816002 76.7976"
                 y="0"
                 id="tspan44"
                 style="font-size:12px;font-variant:normal;font-weight:normal;writing-mode:lr-tb;fill:#000000;fill-opacity:1;fill-rule:nonzero;stroke:none;font-family:Courier New;-inkscape-font-specification:Courier">teacher;wise</tspan></text>
</g><g
             transform="matrix(1,0,0,-1,0,145)"
             id="g46"><text
               transform="translate(470,19)"
               id="text48"><tspan
                 x="0 6.9828 13.9656 20.9484 27.9312 34.914001 41.896801 48.879601 55.8624 62.8452 69.828003 76.810799 83.793602"
                 y="0"
                 id="tspan50"
                 style="font-size:12px;font-variant:normal;font-weight:normal;writing-mode:lr-tb;fill:#000000;fill-opacity:1;fill-rule:nonzero;stroke:none;font-family:Courier New;-inkscape-font-specification:Courier">teacher:-wise</tspan></text>
</g><g
             transform="matrix(1,0,0,-1,0,145)"
             id="g52"><text
               transform="translate(446,79)"
               id="text54"><tspan
                 x="0 6.9660001 13.932 20.898001 27.864 34.830002 41.796001"
                 y="0"
                 id="tspan56"
                 style="font-size:12px;font-variant:normal;font-weight:normal;writing-mode:lr-tb;fill:#000000;fill-opacity:1;fill-rule:nonzero;stroke:none;font-family:Courier New;-inkscape-font-specification:Courier">teacher</tspan></text>
</g><g
             transform="matrix(1,0,0,-1,0,145)"
             id="g58"><text
               transform="translate(4,17)"
               id="text60"><tspan
                 x="0 6.9912 13.9824 20.9736 27.9648 34.956001 41.947201 48.9384 55.9296 62.920799 69.912003 76.903198 83.894402 90.885597 97.876801 104.868 111.8592 118.8504 125.8416 132.83279 139.82401 146.8152 153.8064"
                 y="0"
                 id="tspan62"
                 style="font-size:12px;font-variant:normal;font-weight:normal;writing-mode:lr-tb;fill:#000000;fill-opacity:1;fill-rule:nonzero;stroke:none;font-family:Courier New;-inkscape-font-specification:Courier">happy;friendly:-teacher</tspan></text>
</g><g
             transform="matrix(1,0,0,-1,0,145)"
             id="g64"><text
               transform="translate(187,17)"
               id="text66"><tspan
                 x="0 6.9912 13.9824 20.9736 27.9648 34.956001 41.947201 48.9384 55.9296 62.920799 69.912003 76.903198 83.894402 90.885597 97.876801 104.868 111.8592 118.8504 125.8416 132.83279 139.82401 146.8152 153.8064"
                 y="0"
                 id="tspan68"
                 style="font-size:12px;font-variant:normal;font-weight:normal;writing-mode:lr-tb;fill:#000000;fill-opacity:1;fill-rule:nonzero;stroke:none;font-family:Courier New;-inkscape-font-specification:Courier">friendly:-teacher,happy</tspan></text>
</g><g
             transform="matrix(1,0,0,-1,0,145)"
             id="g70"><text
               transform="translate(118,77)"
               id="text72"><tspan
                 x="0 6.9875998 13.9752 20.962799 27.950399 34.938 41.925598 48.9132 55.900799 62.888401 69.875999 76.863602 83.851196 90.838799 97.826401 104.814 111.8016"
                 y="0"
                 id="tspan74"
                 style="font-size:12px;font-variant:normal;font-weight:normal;writing-mode:lr-tb;fill:#000000;fill-opacity:1;fill-rule:nonzero;stroke:none;font-family:Courier New;-inkscape-font-specification:Courier">friendly:-teacher</tspan></text>
</g><g
             transform="matrix(1,0,0,-1,0,145)"
             id="g76"><text
               transform="translate(298,141)"
               id="text78"><tspan
                 x="0 6.9707999 13.9416 20.912399 27.8832 34.854 41.824799 48.795601"
                 y="0"
                 id="tspan80"
                 style="font-size:12px;font-variant:normal;font-weight:normal;writing-mode:lr-tb;fill:#000000;fill-opacity:1;fill-rule:nonzero;stroke:none;font-family:Courier New;-inkscape-font-specification:Courier">friendly</tspan></text>
</g><path
             d="m 71,123 0.25,0 100,-40 0,-0.25 -0.25,0 -100,40"
             id="path82"
             style="fill:#000000;fill-opacity:1;fill-rule:nonzero;stroke:none" /><path
             d="m 283,123 0.25,0 0,-0.25 -100,-40 -0.25,0 0,0.25"
             id="path84"
             style="fill:#000000;fill-opacity:1;fill-rule:nonzero;stroke:none" /><path
             d="m 423,121 0.25,0 37,-43 0,-0.25 -0.25,0 -37,43"
             id="path86"
             style="fill:#000000;fill-opacity:1;fill-rule:nonzero;stroke:none" /><path
             d="m 520,122 0.25,0 0,-0.25 -37,-43 -0.25,0 0,0.25"
             id="path88"
             style="fill:#000000;fill-opacity:1;fill-rule:nonzero;stroke:none" /><path
             d="m 179,62 0.25,0 131,-45 0,-0.25 -0.25,0 -131,45"
             id="path90"
             style="fill:#000000;fill-opacity:1;fill-rule:nonzero;stroke:none" /><path
             d="m 465,61 0.25,0 0,-0.25 -131,-45 -0.25,0 0,0.25"
             id="path92"
             style="fill:#000000;fill-opacity:1;fill-rule:nonzero;stroke:none" /></g></g></g></g></svg>