<?xml version="1.0" encoding="UTF-8" standalone="no"?>
<!-- Created with Inkscape (http://www.inkscape.org/) -->

<svg
   xmlns:svg="http://www.w3.org/2000/svg"
   xmlns="http://www.w3.org/2000/svg"
   version="1.1"
   width="672.5"
   height="828.75"
   id="svg2"
   xml:space="preserve"><defs
     id="defs6"><clipPath
       id="clipPath20"><path
         d="M 0,0 538,0 538,663 0,663 0,0 z"
         id="path22" /></clipPath><clipPath
       id="clipPath30"><path
         d="m 0,663 538,0 0,-663.000009782991 -538,0 L 0,663 z"
         id="path32" /></clipPath><clipPath
       id="clipPath36"><path
         d="M 0,0 538,0 538,663 0,663 0,0 z"
         id="path38" /></clipPath></defs><g
     transform="matrix(1.25,0,0,-1.25,0,828.75)"
     id="g12"><g
       id="g14" /><g
       id="g16"><g
         clip-path="url(#clipPath20)"
         id="g18"><path
           d="M 0,663 538,663 538,0 0,0 0,663 z"
           id="path24"
           style="fill:#ffffff;fill-opacity:0;fill-rule:evenodd;stroke:none" /></g></g><g
       id="g26"><g
         clip-path="url(#clipPath30)"
         id="g28"><g
           clip-path="url(#clipPath36)"
           id="g34"><path
             d="M 180,414 26,353 27,0.9999902 l 508,0 L 535,267 180,414"
             id="path40"
             style="fill:#efefef;fill-opacity:1;fill-rule:evenodd;stroke:none" /><g
             transform="matrix(1,0,0,-1,0,663)"
             id="g42"><text
               transform="translate(206,11)"
               id="text44"><tspan
                 x="0 6.9707999 13.9416 20.912399 27.8832 34.854 41.824799 48.795601"
                 y="0"
                 id="tspan46"
                 style="font-size:12px;font-variant:normal;font-weight:normal;writing-mode:lr-tb;fill:#000000;fill-opacity:1;fill-rule:nonzero;stroke:none;font-family:Courier New;-inkscape-font-specification:Courier">sentence</tspan></text>
</g><g
             transform="matrix(1,0,0,-1,0,663)"
             id="g48"><text
               transform="translate(215,47)"
               id="text50"><tspan
                 x="0 6.9492002 13.8984 20.847601 27.796801"
                 y="0"
                 id="tspan52"
                 style="font-size:12px;font-variant:normal;font-weight:normal;writing-mode:lr-tb;fill:#000000;fill-opacity:1;fill-rule:nonzero;stroke:none;font-family:Courier New;-inkscape-font-specification:Courier">np,vp</tspan></text>
</g><g
             transform="matrix(1,0,0,-1,0,663)"
             id="g54"><text
               transform="translate(31,92)"
               id="text56"><tspan
                 x="0 6.9492002 13.8984 20.847601 27.796801"
                 y="0"
                 id="tspan58"
                 style="font-size:12px;font-variant:normal;font-weight:normal;writing-mode:lr-tb;fill:#000000;fill-opacity:1;fill-rule:nonzero;stroke:none;font-family:Courier New;-inkscape-font-specification:Courier">pn,vp</tspan></text>
</g><g
             transform="matrix(1,0,0,-1,0,663)"
             id="g60"><text
               transform="translate(201,90)"
               id="text62"><tspan
                 x="0 6.9815998 13.9632 20.944799 27.926399 34.908001 41.889599 48.871201 55.852798 62.8344 69.816002 76.7976"
                 y="0"
                 id="tspan64"
                 style="font-size:12px;font-variant:normal;font-weight:normal;writing-mode:lr-tb;fill:#000000;fill-opacity:1;fill-rule:nonzero;stroke:none;font-family:Courier New;-inkscape-font-specification:Courier">art,adj,n,vp</tspan></text>
</g><g
             transform="matrix(1,0,0,-1,0,663)"
             id="g66"><text
               transform="translate(410,91)"
               id="text68"><tspan
                 x="0 6.9707999 13.9416 20.912399 27.8832 34.854 41.824799 48.795601"
                 y="0"
                 id="tspan70"
                 style="font-size:12px;font-variant:normal;font-weight:normal;writing-mode:lr-tb;fill:#000000;fill-opacity:1;fill-rule:nonzero;stroke:none;font-family:Courier New;-inkscape-font-specification:Courier">art,n,vp</tspan></text>
</g><g
             transform="matrix(1,0,0,-1,0,663)"
             id="g72"><text
               transform="translate(15,133)"
               id="text74"><tspan
                 x="0 6.9804001 13.9608 20.9412 27.9216 34.902 41.882401 48.862801 55.843201 62.823601 69.804001"
                 y="0"
                 id="tspan76"
                 style="font-size:12px;font-variant:normal;font-weight:normal;writing-mode:lr-tb;fill:#000000;fill-opacity:1;fill-rule:nonzero;stroke:none;font-family:Courier New;-inkscape-font-specification:Courier">[achilles],</tspan></text>
</g><g
             transform="matrix(1,0,0,-1,0,663)"
             id="g78"><text
               transform="translate(46,145)"
               id="text80"><tspan
                 x="0 6.7992001"
                 y="0"
                 id="tspan82"
                 style="font-size:12px;font-variant:normal;font-weight:normal;writing-mode:lr-tb;fill:#000000;fill-opacity:1;fill-rule:nonzero;stroke:none;font-family:Courier New;-inkscape-font-specification:Courier">vp</tspan></text>
</g><g
             transform="matrix(1,0,0,-1,0,663)"
             id="g84"><text
               transform="translate(222,133)"
               id="text86"><tspan
                 x="0 6.96 13.92 20.879999 27.84 34.799999"
                 y="0"
                 id="tspan88"
                 style="font-size:12px;font-variant:normal;font-weight:normal;writing-mode:lr-tb;fill:#000000;fill-opacity:1;fill-rule:nonzero;stroke:none;font-family:Courier New;-inkscape-font-specification:Courier">[the],</tspan></text>
</g><g
             transform="matrix(1,0,0,-1,0,663)"
             id="g90"><text
               transform="translate(215,145)"
               id="text92"><tspan
                 x="0 6.9707999 13.9416 20.912399 27.8832 34.854 41.824799 48.795601"
                 y="0"
                 id="tspan94"
                 style="font-size:12px;font-variant:normal;font-weight:normal;writing-mode:lr-tb;fill:#000000;fill-opacity:1;fill-rule:nonzero;stroke:none;font-family:Courier New;-inkscape-font-specification:Courier">adj,n,vp</tspan></text>
</g><g
             transform="matrix(1,0,0,-1,0,663)"
             id="g96"><text
               transform="translate(418,135)"
               id="text98"><tspan
                 x="0 6.96 13.92 20.879999 27.84 34.799999"
                 y="0"
                 id="tspan100"
                 style="font-size:12px;font-variant:normal;font-weight:normal;writing-mode:lr-tb;fill:#000000;fill-opacity:1;fill-rule:nonzero;stroke:none;font-family:Courier New;-inkscape-font-specification:Courier">[the],</tspan></text>
</g><g
             transform="matrix(1,0,0,-1,0,663)"
             id="g102"><text
               transform="translate(425,147)"
               id="text104"><tspan
                 x="0 6.9324002 13.8648 20.797199"
                 y="0"
                 id="tspan106"
                 style="font-size:12px;font-variant:normal;font-weight:normal;writing-mode:lr-tb;fill:#000000;fill-opacity:1;fill-rule:nonzero;stroke:none;font-family:Courier New;-inkscape-font-specification:Courier">n,vp</tspan></text>
</g><g
             transform="matrix(1,0,0,-1,0,663)"
             id="g108"><text
               transform="translate(141,185)"
               id="text110"><tspan
                 x="0 6.9828 13.9656 20.9484 27.9312 34.914001 41.896801 48.879601 55.8624 62.8452 69.828003 76.810799 83.793602"
                 y="0"
                 id="tspan112"
                 style="font-size:12px;font-variant:normal;font-weight:normal;writing-mode:lr-tb;fill:#000000;fill-opacity:1;fill-rule:nonzero;stroke:none;font-family:Courier New;-inkscape-font-specification:Courier">[the],[lazy],</tspan></text>
</g><g
             transform="matrix(1,0,0,-1,0,663)"
             id="g114"><text
               transform="translate(172,197)"
               id="text116"><tspan
                 x="0 6.9324002 13.8648 20.797199"
                 y="0"
                 id="tspan118"
                 style="font-size:12px;font-variant:normal;font-weight:normal;writing-mode:lr-tb;fill:#000000;fill-opacity:1;fill-rule:nonzero;stroke:none;font-family:Courier New;-inkscape-font-specification:Courier">n,vp</tspan></text>
</g><g
             transform="matrix(1,0,0,-1,0,663)"
             id="g120"><text
               transform="translate(269,185)"
               id="text122"><tspan
                 x="0 6.9840002 13.968 20.952 27.936001 34.919998 41.903999 48.888 55.872002 62.855999 69.839996 76.823997 83.807999 90.792"
                 y="0"
                 id="tspan124"
                 style="font-size:12px;font-variant:normal;font-weight:normal;writing-mode:lr-tb;fill:#000000;fill-opacity:1;fill-rule:nonzero;stroke:none;font-family:Courier New;-inkscape-font-specification:Courier">[the],[rapid],</tspan></text>
</g><g
             transform="matrix(1,0,0,-1,0,663)"
             id="g126"><text
               transform="translate(304,197)"
               id="text128"><tspan
                 x="0 6.9324002 13.8648 20.797199"
                 y="0"
                 id="tspan130"
                 style="font-size:12px;font-variant:normal;font-weight:normal;writing-mode:lr-tb;fill:#000000;fill-opacity:1;fill-rule:nonzero;stroke:none;font-family:Courier New;-inkscape-font-specification:Courier">n,vp</tspan></text>
</g><g
             transform="matrix(1,0,0,-1,0,663)"
             id="g132"><text
               transform="translate(389,185)"
               id="text134"><tspan
                 x="0 6.9851999 13.9704 20.955601 27.9408 34.925999 41.911201 48.8964 55.881599 62.866798 69.851997 76.837196 83.822403 90.807602 97.792801"
                 y="0"
                 id="tspan136"
                 style="font-size:12px;font-variant:normal;font-weight:normal;writing-mode:lr-tb;fill:#000000;fill-opacity:1;fill-rule:nonzero;stroke:none;font-family:Courier New;-inkscape-font-specification:Courier">[the],[turtle],</tspan></text>
</g><g
             transform="matrix(1,0,0,-1,0,663)"
             id="g138"><text
               transform="translate(434,197)"
               id="text140"><tspan
                 x="0 6.7992001"
                 y="0"
                 id="tspan142"
                 style="font-size:12px;font-variant:normal;font-weight:normal;writing-mode:lr-tb;fill:#000000;fill-opacity:1;fill-rule:nonzero;stroke:none;font-family:Courier New;-inkscape-font-specification:Courier">vp</tspan></text>
</g><g
             transform="matrix(1,0,0,-1,0,663)"
             id="g144"><text
               transform="translate(141,234)"
               id="text146"><tspan
                 x="0 6.9828 13.9656 20.9484 27.9312 34.914001 41.896801 48.879601 55.8624 62.8452 69.828003 76.810799 83.793602"
                 y="0"
                 id="tspan148"
                 style="font-size:12px;font-variant:normal;font-weight:normal;writing-mode:lr-tb;fill:#000000;fill-opacity:1;fill-rule:nonzero;stroke:none;font-family:Courier New;-inkscape-font-specification:Courier">[the],[lazy],</tspan></text>
</g><g
             transform="matrix(1,0,0,-1,0,663)"
             id="g150"><text
               transform="translate(148,246)"
               id="text152"><tspan
                 x="0 6.9804001 13.9608 20.9412 27.9216 34.902 41.882401 48.862801 55.843201 62.823601 69.804001"
                 y="0"
                 id="tspan154"
                 style="font-size:12px;font-variant:normal;font-weight:normal;writing-mode:lr-tb;fill:#000000;fill-opacity:1;fill-rule:nonzero;stroke:none;font-family:Courier New;-inkscape-font-specification:Courier">[turtle],vp</tspan></text>
</g><g
             transform="matrix(1,0,0,-1,0,663)"
             id="g156"><text
               transform="translate(274,234)"
               id="text158"><tspan
                 x="0 6.9840002 13.968 20.952 27.936001 34.919998 41.903999 48.888 55.872002 62.855999 69.839996 76.823997 83.807999 90.792"
                 y="0"
                 id="tspan160"
                 style="font-size:12px;font-variant:normal;font-weight:normal;writing-mode:lr-tb;fill:#000000;fill-opacity:1;fill-rule:nonzero;stroke:none;font-family:Courier New;-inkscape-font-specification:Courier">[the],[rapid],</tspan></text>
</g><g
             transform="matrix(1,0,0,-1,0,663)"
             id="g162"><text
               transform="translate(284,246)"
               id="text164"><tspan
                 x="0 6.9804001 13.9608 20.9412 27.9216 34.902 41.882401 48.862801 55.843201 62.823601 69.804001"
                 y="0"
                 id="tspan166"
                 style="font-size:12px;font-variant:normal;font-weight:normal;writing-mode:lr-tb;fill:#000000;fill-opacity:1;fill-rule:nonzero;stroke:none;font-family:Courier New;-inkscape-font-specification:Courier">[turtle],vp</tspan></text>
</g><g
             transform="matrix(1,0,0,-1,0,663)"
             id="g168"><text
               transform="translate(60,310)"
               id="text170"><tspan
                 x="0 6.9828 13.9656 20.9484 27.9312 34.914001 41.896801 48.879601 55.8624 62.8452 69.828003 76.810799 83.793602"
                 y="0"
                 id="tspan172"
                 style="font-size:12px;font-variant:normal;font-weight:normal;writing-mode:lr-tb;fill:#000000;fill-opacity:1;fill-rule:nonzero;stroke:none;font-family:Courier New;-inkscape-font-specification:Courier">[the],[lazy],</tspan></text>
</g><g
             transform="matrix(1,0,0,-1,0,663)"
             id="g174"><text
               transform="translate(67,322)"
               id="text176"><tspan
                 x="0 6.9804001 13.9608 20.9412 27.9216 34.902 41.882401 48.862801 55.843201 62.823601 69.804001"
                 y="0"
                 id="tspan178"
                 style="font-size:12px;font-variant:normal;font-weight:normal;writing-mode:lr-tb;fill:#000000;fill-opacity:1;fill-rule:nonzero;stroke:none;font-family:Courier New;-inkscape-font-specification:Courier">[turtle],iv</tspan></text>
</g><g
             transform="matrix(1,0,0,-1,0,663)"
             id="g180"><text
               transform="translate(217,311)"
               id="text182"><tspan
                 x="0 6.9828 13.9656 20.9484 27.9312 34.914001 41.896801 48.879601 55.8624 62.8452 69.828003 76.810799 83.793602"
                 y="0"
                 id="tspan184"
                 style="font-size:12px;font-variant:normal;font-weight:normal;writing-mode:lr-tb;fill:#000000;fill-opacity:1;fill-rule:nonzero;stroke:none;font-family:Courier New;-inkscape-font-specification:Courier">[the],[lazy],</tspan></text>
</g><g
             transform="matrix(1,0,0,-1,0,663)"
             id="g186"><text
               transform="translate(214,323)"
               id="text188"><tspan
                 x="0 6.9840002 13.968 20.952 27.936001 34.919998 41.903999 48.888 55.872002 62.855999 69.839996 76.823997 83.807999 90.792"
                 y="0"
                 id="tspan190"
                 style="font-size:12px;font-variant:normal;font-weight:normal;writing-mode:lr-tb;fill:#000000;fill-opacity:1;fill-rule:nonzero;stroke:none;font-family:Courier New;-inkscape-font-specification:Courier">[turtle],tv,np</tspan></text>
</g><g
             transform="matrix(1,0,0,-1,0,663)"
             id="g192"><text
               transform="translate(62,364)"
               id="text194"><tspan
                 x="0 6.9828 13.9656 20.9484 27.9312 34.914001 41.896801 48.879601 55.8624 62.8452 69.828003 76.810799 83.793602"
                 y="0"
                 id="tspan196"
                 style="font-size:12px;font-variant:normal;font-weight:normal;writing-mode:lr-tb;fill:#000000;fill-opacity:1;fill-rule:nonzero;stroke:none;font-family:Courier New;-inkscape-font-specification:Courier">[the],[lazy],</tspan></text>
</g><g
             transform="matrix(1,0,0,-1,0,663)"
             id="g198"><text
               transform="translate(48,376)"
               id="text200"><tspan
                 x="0 6.9875998 13.9752 20.962799 27.950399 34.938 41.925598 48.9132 55.900799 62.888401 69.875999 76.863602 83.851196 90.838799 97.826401 104.814 111.8016"
                 y="0"
                 id="tspan202"
                 style="font-size:12px;font-variant:normal;font-weight:normal;writing-mode:lr-tb;fill:#000000;fill-opacity:1;fill-rule:nonzero;stroke:none;font-family:Courier New;-inkscape-font-specification:Courier">[turtle],[sleeps]</tspan></text>
</g><g
             transform="matrix(1,0,0,-1,0,663)"
             id="g204"><text
               transform="translate(216,363)"
               id="text206"><tspan
                 x="0 6.9828 13.9656 20.9484 27.9312 34.914001 41.896801 48.879601 55.8624 62.8452 69.828003 76.810799 83.793602"
                 y="0"
                 id="tspan208"
                 style="font-size:12px;font-variant:normal;font-weight:normal;writing-mode:lr-tb;fill:#000000;fill-opacity:1;fill-rule:nonzero;stroke:none;font-family:Courier New;-inkscape-font-specification:Courier">[the],[lazy],</tspan></text>
</g><g
             transform="matrix(1,0,0,-1,0,663)"
             id="g210"><text
               transform="translate(195,375)"
               id="text212"><tspan
                 x="0 6.9888 13.9776 20.9664 27.9552 34.944 41.9328 48.9216 55.9104 62.8992 69.888 76.876801 83.865601 90.854401 97.843201 104.832 111.8208 118.8096 125.7984"
                 y="0"
                 id="tspan214"
                 style="font-size:12px;font-variant:normal;font-weight:normal;writing-mode:lr-tb;fill:#000000;fill-opacity:1;fill-rule:nonzero;stroke:none;font-family:Courier New;-inkscape-font-specification:Courier">[turtle],[beats],np</tspan></text>
</g><g
             transform="matrix(1,0,0,-1,0,663)"
             id="g216"><path
               d="m 233.125,15 0,20.25"
               id="path218"
               style="fill:none;stroke:#000000;stroke-width:0.25;stroke-linecap:butt;stroke-linejoin:miter;stroke-miterlimit:10;stroke-opacity:1;stroke-dasharray:none" /></g><g
             transform="matrix(1,0,0,-1,0,663)"
             id="g220"><path
               d="m 233.125,51 0,28.25"
               id="path222"
               style="fill:none;stroke:#000000;stroke-width:0.25;stroke-linecap:butt;stroke-linejoin:miter;stroke-miterlimit:10;stroke-opacity:1;stroke-dasharray:none" /></g><g
             transform="matrix(1,0,0,-1,0,663)"
             id="g224"><path
               d="m 234.125,95 0,25.25"
               id="path226"
               style="fill:none;stroke:#000000;stroke-width:0.25;stroke-linecap:butt;stroke-linejoin:miter;stroke-miterlimit:10;stroke-opacity:1;stroke-dasharray:none" /></g><g
             transform="matrix(1,0,0,-1,0,663)"
             id="g228"><path
               d="m 179.125,201 0,21.25"
               id="path230"
               style="fill:none;stroke:#000000;stroke-width:0.25;stroke-linecap:butt;stroke-linejoin:miter;stroke-miterlimit:10;stroke-opacity:1;stroke-dasharray:none" /></g><g
             transform="matrix(1,0,0,-1,0,663)"
             id="g232"><path
               d="m 318.125,200 0,22.25"
               id="path234"
               style="fill:none;stroke:#000000;stroke-width:0.25;stroke-linecap:butt;stroke-linejoin:miter;stroke-miterlimit:10;stroke-opacity:1;stroke-dasharray:none" /></g><g
             transform="matrix(1,0,0,-1,0,663)"
             id="g236"><path
               d="m 437.125,151 0,21.25"
               id="path238"
               style="fill:none;stroke:#000000;stroke-width:0.25;stroke-linecap:butt;stroke-linejoin:miter;stroke-miterlimit:10;stroke-opacity:1;stroke-dasharray:none" /></g><g
             transform="matrix(1,0,0,-1,0,663)"
             id="g240"><path
               d="m 436.125,96 0,28.25"
               id="path242"
               style="fill:none;stroke:#000000;stroke-width:0.25;stroke-linecap:butt;stroke-linejoin:miter;stroke-miterlimit:10;stroke-opacity:1;stroke-dasharray:none" /></g><g
             transform="matrix(1,0,0,-1,0,663)"
             id="g244"><path
               d="m 50.125,96 0,25.25"
               id="path246"
               style="fill:none;stroke:#000000;stroke-width:0.25;stroke-linecap:butt;stroke-linejoin:miter;stroke-miterlimit:10;stroke-opacity:1;stroke-dasharray:none" /></g><path
             d="m 215,612 0.25,0 0,-0.25 -149,-31 -0.25,0 0,0.25"
             id="path248"
             style="fill:#000000;fill-opacity:1;fill-rule:nonzero;stroke:none" /><path
             d="m 254,613 0.25,0 149,-31 0,-0.25 -0.25,0 -149,31"
             id="path250"
             style="fill:#000000;fill-opacity:1;fill-rule:nonzero;stroke:none" /><path
             d="m 222,516 0.25,0 0,-0.25 -43,-27 -0.25,0 0,0.25"
             id="path252"
             style="fill:#000000;fill-opacity:1;fill-rule:nonzero;stroke:none" /><path
             d="m 270,515 0.25,0 43,-27 0,-0.25 -0.25,0 -43,27"
             id="path254"
             style="fill:#000000;fill-opacity:1;fill-rule:nonzero;stroke:none" /><path
             d="m 164,413 0.25,0 0,-0.25 -49,-49 -0.25,0 0,0.25"
             id="path256"
             style="fill:#000000;fill-opacity:1;fill-rule:nonzero;stroke:none" /><path
             d="m 198,413 0.25,0 49,-49 0,-0.25 -0.25,0 -49,49"
             id="path258"
             style="fill:#000000;fill-opacity:1;fill-rule:nonzero;stroke:none" /><g
             transform="matrix(1,0,0,-1,0,663)"
             id="g260"><path
               d="m 103.125,325 0,25.25"
               id="path262"
               style="fill:none;stroke:#000000;stroke-width:0.25;stroke-linecap:butt;stroke-linejoin:miter;stroke-miterlimit:10;stroke-opacity:1;stroke-dasharray:none" /></g><g
             transform="matrix(1,0,0,-1,0,663)"
             id="g264"><path
               d="m 262.125,326 0,25.25"
               id="path266"
               style="fill:none;stroke:#000000;stroke-width:0.25;stroke-linecap:butt;stroke-linejoin:miter;stroke-miterlimit:10;stroke-opacity:1;stroke-dasharray:none" /></g><g
             transform="matrix(1,0,0,-1,0,663)"
             id="g268"><path
               d="m 263.125,381 0,28.25"
               id="path270"
               style="fill:none;stroke:#000000;stroke-width:0.25;stroke-linecap:butt;stroke-linejoin:miter;stroke-miterlimit:10;stroke-opacity:1;stroke-dasharray:none" /></g><g
             transform="matrix(1,0,0,-1,0,663)"
             id="g272"><path
               d="m 264.125,453 0,25.25"
               id="path274"
               style="fill:none;stroke:#000000;stroke-width:0.25;stroke-linecap:butt;stroke-linejoin:miter;stroke-miterlimit:10;stroke-opacity:1;stroke-dasharray:none" /></g><g
             transform="matrix(1,0,0,-1,0,663)"
             id="g276"><path
               d="m 209.125,591 0,21.25"
               id="path278"
               style="fill:none;stroke:#000000;stroke-width:0.25;stroke-linecap:butt;stroke-linejoin:miter;stroke-miterlimit:10;stroke-opacity:1;stroke-dasharray:none" /></g><g
             transform="matrix(1,0,0,-1,0,663)"
             id="g280"><path
               d="m 348.125,589 0,22.25"
               id="path282"
               style="fill:none;stroke:#000000;stroke-width:0.25;stroke-linecap:butt;stroke-linejoin:miter;stroke-miterlimit:10;stroke-opacity:1;stroke-dasharray:none" /></g><g
             transform="matrix(1,0,0,-1,0,663)"
             id="g284"><path
               d="m 471.125,450 0,28.25"
               id="path286"
               style="fill:none;stroke:#000000;stroke-width:0.25;stroke-linecap:butt;stroke-linejoin:miter;stroke-miterlimit:10;stroke-opacity:1;stroke-dasharray:none" /></g><g
             transform="matrix(1,0,0,-1,0,663)"
             id="g288"><path
               d="m 97.12501,454 0,25.25"
               id="path290"
               style="fill:none;stroke:#000000;stroke-width:0.25;stroke-linecap:butt;stroke-linejoin:miter;stroke-miterlimit:10;stroke-opacity:1;stroke-dasharray:none" /></g><path
             d="m 245,282 0.25,0 0,-0.25 -149,-31 -0.25,0 0,0.25"
             id="path292"
             style="fill:#000000;fill-opacity:1;fill-rule:nonzero;stroke:none" /><path
             d="m 284,283 0.25,0 149,-31 0,-0.25 -0.25,0 -149,31"
             id="path294"
             style="fill:#000000;fill-opacity:1;fill-rule:nonzero;stroke:none" /><path
             d="m 252,141 0.25,0 0,-0.25 -43,-27 -0.25,0 0,0.25"
             id="path296"
             style="fill:#000000;fill-opacity:1;fill-rule:nonzero;stroke:none" /><path
             d="m 300,140 0.25,0 43,-27 0,-0.25 -0.25,0 -43,27"
             id="path298"
             style="fill:#000000;fill-opacity:1;fill-rule:nonzero;stroke:none" /><g
             transform="matrix(1,0,0,-1,0,663)"
             id="g300"><text
               transform="translate(54,425)"
               id="text302"><tspan
                 x="0 6.9828 13.9656 20.9484 27.9312 34.914001 41.896801 48.879601 55.8624 62.8452 69.828003 76.810799 83.793602"
                 y="0"
                 id="tspan304"
                 style="font-size:12px;font-variant:normal;font-weight:normal;writing-mode:lr-tb;fill:#000000;fill-opacity:1;fill-rule:nonzero;stroke:none;font-family:Courier New;-inkscape-font-specification:Courier">[the],[lazy],</tspan></text>
</g><g
             transform="matrix(1,0,0,-1,0,663)"
             id="g306"><text
               transform="translate(40,437)"
               id="text308"><tspan
                 x="0 6.9875998 13.9752 20.962799 27.950399 34.938 41.925598 48.9132 55.900799 62.888401 69.875999 76.863602 83.851196 90.838799 97.826401 104.814 111.8016"
                 y="0"
                 id="tspan310"
                 style="font-size:12px;font-variant:normal;font-weight:normal;writing-mode:lr-tb;fill:#000000;fill-opacity:1;fill-rule:nonzero;stroke:none;font-family:Courier New;-inkscape-font-specification:Courier">[turtle],[beats],</tspan></text>
</g><g
             transform="matrix(1,0,0,-1,0,663)"
             id="g312"><text
               transform="translate(92,449)"
               id="text314"><tspan
                 x="0 6.7992001"
                 y="0"
                 id="tspan316"
                 style="font-size:12px;font-variant:normal;font-weight:normal;writing-mode:lr-tb;fill:#000000;fill-opacity:1;fill-rule:nonzero;stroke:none;font-family:Courier New;-inkscape-font-specification:Courier">pn</tspan></text>
</g><g
             transform="matrix(1,0,0,-1,0,663)"
             id="g318"><text
               transform="translate(226,424)"
               id="text320"><tspan
                 x="0 6.9828 13.9656 20.9484 27.9312 34.914001 41.896801 48.879601 55.8624 62.8452 69.828003 76.810799 83.793602"
                 y="0"
                 id="tspan322"
                 style="font-size:12px;font-variant:normal;font-weight:normal;writing-mode:lr-tb;fill:#000000;fill-opacity:1;fill-rule:nonzero;stroke:none;font-family:Courier New;-inkscape-font-specification:Courier">[the],[lazy],</tspan></text>
</g><g
             transform="matrix(1,0,0,-1,0,663)"
             id="g324"><text
               transform="translate(212,436)"
               id="text326"><tspan
                 x="0 6.9875998 13.9752 20.962799 27.950399 34.938 41.925598 48.9132 55.900799 62.888401 69.875999 76.863602 83.851196 90.838799 97.826401 104.814 111.8016"
                 y="0"
                 id="tspan328"
                 style="font-size:12px;font-variant:normal;font-weight:normal;writing-mode:lr-tb;fill:#000000;fill-opacity:1;fill-rule:nonzero;stroke:none;font-family:Courier New;-inkscape-font-specification:Courier">[turtle],[beats],</tspan></text>
</g><g
             transform="matrix(1,0,0,-1,0,663)"
             id="g330"><text
               transform="translate(240,448)"
               id="text332"><tspan
                 x="0 6.9744 13.9488 20.923201 27.8976 34.872002 41.846401 48.820801 55.7952"
                 y="0"
                 id="tspan334"
                 style="font-size:12px;font-variant:normal;font-weight:normal;writing-mode:lr-tb;fill:#000000;fill-opacity:1;fill-rule:nonzero;stroke:none;font-family:Courier New;-inkscape-font-specification:Courier">art,adj,n</tspan></text>
</g><g
             transform="matrix(1,0,0,-1,0,663)"
             id="g336"><text
               transform="translate(424,423)"
               id="text338"><tspan
                 x="0 6.9828 13.9656 20.9484 27.9312 34.914001 41.896801 48.879601 55.8624 62.8452 69.828003 76.810799 83.793602"
                 y="0"
                 id="tspan340"
                 style="font-size:12px;font-variant:normal;font-weight:normal;writing-mode:lr-tb;fill:#000000;fill-opacity:1;fill-rule:nonzero;stroke:none;font-family:Courier New;-inkscape-font-specification:Courier">[the],[lazy],</tspan></text>
</g><g
             transform="matrix(1,0,0,-1,0,663)"
             id="g342"><text
               transform="translate(410,435)"
               id="text344"><tspan
                 x="0 6.9875998 13.9752 20.962799 27.950399 34.938 41.925598 48.9132 55.900799 62.888401 69.875999 76.863602 83.851196 90.838799 97.826401 104.814 111.8016"
                 y="0"
                 id="tspan346"
                 style="font-size:12px;font-variant:normal;font-weight:normal;writing-mode:lr-tb;fill:#000000;fill-opacity:1;fill-rule:nonzero;stroke:none;font-family:Courier New;-inkscape-font-specification:Courier">[turtle],[beats],</tspan></text>
</g><g
             transform="matrix(1,0,0,-1,0,663)"
             id="g348"><text
               transform="translate(452,447)"
               id="text350"><tspan
                 x="0 6.9492002 13.8984 20.847601 27.796801"
                 y="0"
                 id="tspan352"
                 style="font-size:12px;font-variant:normal;font-weight:normal;writing-mode:lr-tb;fill:#000000;fill-opacity:1;fill-rule:nonzero;stroke:none;font-family:Courier New;-inkscape-font-specification:Courier">art,n</tspan></text>
</g><g
             transform="matrix(1,0,0,-1,0,663)"
             id="g354"><text
               transform="translate(55,491)"
               id="text356"><tspan
                 x="0 6.9828 13.9656 20.9484 27.9312 34.914001 41.896801 48.879601 55.8624 62.8452 69.828003 76.810799 83.793602"
                 y="0"
                 id="tspan358"
                 style="font-size:12px;font-variant:normal;font-weight:normal;writing-mode:lr-tb;fill:#000000;fill-opacity:1;fill-rule:nonzero;stroke:none;font-family:Courier New;-inkscape-font-specification:Courier">[the],[lazy],</tspan></text>
</g><g
             transform="matrix(1,0,0,-1,0,663)"
             id="g360"><text
               transform="translate(41,503)"
               id="text362"><tspan
                 x="0 6.9875998 13.9752 20.962799 27.950399 34.938 41.925598 48.9132 55.900799 62.888401 69.875999 76.863602 83.851196 90.838799 97.826401 104.814 111.8016"
                 y="0"
                 id="tspan364"
                 style="font-size:12px;font-variant:normal;font-weight:normal;writing-mode:lr-tb;fill:#000000;fill-opacity:1;fill-rule:nonzero;stroke:none;font-family:Courier New;-inkscape-font-specification:Courier">[turtle],[beats],</tspan></text>
</g><g
             transform="matrix(1,0,0,-1,0,663)"
             id="g366"><text
               transform="translate(65,515)"
               id="text368"><tspan
                 x="0 6.9780002 13.956 20.934 27.912001 34.889999 41.868 48.846001 55.824001 62.801998"
                 y="0"
                 id="tspan370"
                 style="font-size:12px;font-variant:normal;font-weight:normal;writing-mode:lr-tb;fill:#000000;fill-opacity:1;fill-rule:nonzero;stroke:none;font-family:Courier New;-inkscape-font-specification:Courier">[achilles]</tspan></text>
</g><g
             transform="matrix(1,0,0,-1,0,663)"
             id="g372"><path
               d="m 473.125,518 0,28.25"
               id="path374"
               style="fill:none;stroke:#000000;stroke-width:0.25;stroke-linecap:butt;stroke-linejoin:miter;stroke-miterlimit:10;stroke-opacity:1;stroke-dasharray:none" /></g><g
             transform="matrix(1,0,0,-1,0,663)"
             id="g376"><text
               transform="translate(426,491)"
               id="text378"><tspan
                 x="0 6.9828 13.9656 20.9484 27.9312 34.914001 41.896801 48.879601 55.8624 62.8452 69.828003 76.810799 83.793602"
                 y="0"
                 id="tspan380"
                 style="font-size:12px;font-variant:normal;font-weight:normal;writing-mode:lr-tb;fill:#000000;fill-opacity:1;fill-rule:nonzero;stroke:none;font-family:Courier New;-inkscape-font-specification:Courier">[the],[lazy],</tspan></text>
</g><g
             transform="matrix(1,0,0,-1,0,663)"
             id="g382"><text
               transform="translate(412,503)"
               id="text384"><tspan
                 x="0 6.9875998 13.9752 20.962799 27.950399 34.938 41.925598 48.9132 55.900799 62.888401 69.875999 76.863602 83.851196 90.838799 97.826401 104.814 111.8016"
                 y="0"
                 id="tspan386"
                 style="font-size:12px;font-variant:normal;font-weight:normal;writing-mode:lr-tb;fill:#000000;fill-opacity:1;fill-rule:nonzero;stroke:none;font-family:Courier New;-inkscape-font-specification:Courier">[turtle],[beats],</tspan></text>
</g><g
             transform="matrix(1,0,0,-1,0,663)"
             id="g388"><text
               transform="translate(447,515)"
               id="text390"><tspan
                 x="0 6.9660001 13.932 20.898001 27.864 34.830002 41.796001"
                 y="0"
                 id="tspan392"
                 style="font-size:12px;font-variant:normal;font-weight:normal;writing-mode:lr-tb;fill:#000000;fill-opacity:1;fill-rule:nonzero;stroke:none;font-family:Courier New;-inkscape-font-specification:Courier">[the],n</tspan></text>
</g><g
             transform="matrix(1,0,0,-1,0,663)"
             id="g394"><text
               transform="translate(430,558)"
               id="text396"><tspan
                 x="0 6.9828 13.9656 20.9484 27.9312 34.914001 41.896801 48.879601 55.8624 62.8452 69.828003 76.810799 83.793602"
                 y="0"
                 id="tspan398"
                 style="font-size:12px;font-variant:normal;font-weight:normal;writing-mode:lr-tb;fill:#000000;fill-opacity:1;fill-rule:nonzero;stroke:none;font-family:Courier New;-inkscape-font-specification:Courier">[the],[lazy],</tspan></text>
</g><g
             transform="matrix(1,0,0,-1,0,663)"
             id="g400"><text
               transform="translate(416,570)"
               id="text402"><tspan
                 x="0 6.9875998 13.9752 20.962799 27.950399 34.938 41.925598 48.9132 55.900799 62.888401 69.875999 76.863602 83.851196 90.838799 97.826401 104.814 111.8016"
                 y="0"
                 id="tspan404"
                 style="font-size:12px;font-variant:normal;font-weight:normal;writing-mode:lr-tb;fill:#000000;fill-opacity:1;fill-rule:nonzero;stroke:none;font-family:Courier New;-inkscape-font-specification:Courier">[turtle],[beats],</tspan></text>
</g><g
             transform="matrix(1,0,0,-1,0,663)"
             id="g406"><text
               transform="translate(426,582)"
               id="text408"><tspan
                 x="0 6.9840002 13.968 20.952 27.936001 34.919998 41.903999 48.888 55.872002 62.855999 69.839996 76.823997 83.807999 90.792"
                 y="0"
                 id="tspan410"
                 style="font-size:12px;font-variant:normal;font-weight:normal;writing-mode:lr-tb;fill:#000000;fill-opacity:1;fill-rule:nonzero;stroke:none;font-family:Courier New;-inkscape-font-specification:Courier">[the],[turtle]</tspan></text>
</g><g
             transform="matrix(1,0,0,-1,0,663)"
             id="g412"><text
               transform="translate(226,492)"
               id="text414"><tspan
                 x="0 6.9828 13.9656 20.9484 27.9312 34.914001 41.896801 48.879601 55.8624 62.8452 69.828003 76.810799 83.793602"
                 y="0"
                 id="tspan416"
                 style="font-size:12px;font-variant:normal;font-weight:normal;writing-mode:lr-tb;fill:#000000;fill-opacity:1;fill-rule:nonzero;stroke:none;font-family:Courier New;-inkscape-font-specification:Courier">[the],[lazy],</tspan></text>
</g><g
             transform="matrix(1,0,0,-1,0,663)"
             id="g418"><text
               transform="translate(212,504)"
               id="text420"><tspan
                 x="0 6.9875998 13.9752 20.962799 27.950399 34.938 41.925598 48.9132 55.900799 62.888401 69.875999 76.863602 83.851196 90.838799 97.826401 104.814 111.8016"
                 y="0"
                 id="tspan422"
                 style="font-size:12px;font-variant:normal;font-weight:normal;writing-mode:lr-tb;fill:#000000;fill-opacity:1;fill-rule:nonzero;stroke:none;font-family:Courier New;-inkscape-font-specification:Courier">[turtle],[beats],</tspan></text>
</g><g
             transform="matrix(1,0,0,-1,0,663)"
             id="g424"><text
               transform="translate(233,516)"
               id="text426"><tspan
                 x="0 6.9804001 13.9608 20.9412 27.9216 34.902 41.882401 48.862801 55.843201 62.823601 69.804001"
                 y="0"
                 id="tspan428"
                 style="font-size:12px;font-variant:normal;font-weight:normal;writing-mode:lr-tb;fill:#000000;fill-opacity:1;fill-rule:nonzero;stroke:none;font-family:Courier New;-inkscape-font-specification:Courier">[the],adj,n</tspan></text>
</g><g
             transform="matrix(1,0,0,-1,0,663)"
             id="g430"><text
               transform="translate(165,562)"
               id="text432"><tspan
                 x="0 6.9828 13.9656 20.9484 27.9312 34.914001 41.896801 48.879601 55.8624 62.8452 69.828003 76.810799 83.793602"
                 y="0"
                 id="tspan434"
                 style="font-size:12px;font-variant:normal;font-weight:normal;writing-mode:lr-tb;fill:#000000;fill-opacity:1;fill-rule:nonzero;stroke:none;font-family:Courier New;-inkscape-font-specification:Courier">[the],[lazy],</tspan></text>
</g><g
             transform="matrix(1,0,0,-1,0,663)"
             id="g436"><text
               transform="translate(151,574)"
               id="text438"><tspan
                 x="0 6.9875998 13.9752 20.962799 27.950399 34.938 41.925598 48.9132 55.900799 62.888401 69.875999 76.863602 83.851196 90.838799 97.826401 104.814 111.8016"
                 y="0"
                 id="tspan440"
                 style="font-size:12px;font-variant:normal;font-weight:normal;writing-mode:lr-tb;fill:#000000;fill-opacity:1;fill-rule:nonzero;stroke:none;font-family:Courier New;-inkscape-font-specification:Courier">[turtle],[beats],</tspan></text>
</g><g
             transform="matrix(1,0,0,-1,0,663)"
             id="g442"><text
               transform="translate(161,586)"
               id="text444"><tspan
                 x="0 6.9840002 13.968 20.952 27.936001 34.919998 41.903999 48.888 55.872002 62.855999 69.839996 76.823997 83.807999 90.792"
                 y="0"
                 id="tspan446"
                 style="font-size:12px;font-variant:normal;font-weight:normal;writing-mode:lr-tb;fill:#000000;fill-opacity:1;fill-rule:nonzero;stroke:none;font-family:Courier New;-inkscape-font-specification:Courier">[the],[lazy],n</tspan></text>
</g><g
             transform="matrix(1,0,0,-1,0,663)"
             id="g448"><text
               transform="translate(298,561)"
               id="text450"><tspan
                 x="0 6.9828 13.9656 20.9484 27.9312 34.914001 41.896801 48.879601 55.8624 62.8452 69.828003 76.810799 83.793602"
                 y="0"
                 id="tspan452"
                 style="font-size:12px;font-variant:normal;font-weight:normal;writing-mode:lr-tb;fill:#000000;fill-opacity:1;fill-rule:nonzero;stroke:none;font-family:Courier New;-inkscape-font-specification:Courier">[the],[lazy],</tspan></text>
</g><g
             transform="matrix(1,0,0,-1,0,663)"
             id="g454"><text
               transform="translate(284,573)"
               id="text456"><tspan
                 x="0 6.9875998 13.9752 20.962799 27.950399 34.938 41.925598 48.9132 55.900799 62.888401 69.875999 76.863602 83.851196 90.838799 97.826401 104.814 111.8016"
                 y="0"
                 id="tspan458"
                 style="font-size:12px;font-variant:normal;font-weight:normal;writing-mode:lr-tb;fill:#000000;fill-opacity:1;fill-rule:nonzero;stroke:none;font-family:Courier New;-inkscape-font-specification:Courier">[turtle],[beats],</tspan></text>
</g><g
             transform="matrix(1,0,0,-1,0,663)"
             id="g460"><text
               transform="translate(291,585)"
               id="text462"><tspan
                 x="0 6.9851999 13.9704 20.955601 27.9408 34.925999 41.911201 48.8964 55.881599 62.866798 69.851997 76.837196 83.822403 90.807602 97.792801"
                 y="0"
                 id="tspan464"
                 style="font-size:12px;font-variant:normal;font-weight:normal;writing-mode:lr-tb;fill:#000000;fill-opacity:1;fill-rule:nonzero;stroke:none;font-family:Courier New;-inkscape-font-specification:Courier">[the],[rapid],n</tspan></text>
</g><g
             transform="matrix(1,0,0,-1,0,663)"
             id="g466"><text
               transform="translate(158,624)"
               id="text468"><tspan
                 x="0 6.9828 13.9656 20.9484 27.9312 34.914001 41.896801 48.879601 55.8624 62.8452 69.828003 76.810799 83.793602"
                 y="0"
                 id="tspan470"
                 style="font-size:12px;font-variant:normal;font-weight:normal;writing-mode:lr-tb;fill:#000000;fill-opacity:1;fill-rule:nonzero;stroke:none;font-family:Courier New;-inkscape-font-specification:Courier">[the],[lazy],</tspan></text>
</g><g
             transform="matrix(1,0,0,-1,0,663)"
             id="g472"><text
               transform="translate(144,636)"
               id="text474"><tspan
                 x="0 6.9875998 13.9752 20.962799 27.950399 34.938 41.925598 48.9132 55.900799 62.888401 69.875999 76.863602 83.851196 90.838799 97.826401 104.814 111.8016"
                 y="0"
                 id="tspan476"
                 style="font-size:12px;font-variant:normal;font-weight:normal;writing-mode:lr-tb;fill:#000000;fill-opacity:1;fill-rule:nonzero;stroke:none;font-family:Courier New;-inkscape-font-specification:Courier">[turtle],[beats],</tspan></text>
</g><g
             transform="matrix(1,0,0,-1,0,663)"
             id="g478"><text
               transform="translate(130,648)"
               id="text480"><tspan
                 x="0 6.9899998 13.98 20.969999 27.959999 34.950001 41.939999 48.93 55.919998 62.91 69.900002 76.889999 83.879997 90.870003 97.860001 104.85 111.84 118.83 125.82 132.81 139.8"
                 y="0"
                 id="tspan482"
                 style="font-size:12px;font-variant:normal;font-weight:normal;writing-mode:lr-tb;fill:#000000;fill-opacity:1;fill-rule:nonzero;stroke:none;font-family:Courier New;-inkscape-font-specification:Courier">[the],[lazy],[turtle]</tspan></text>
</g><g
             transform="matrix(1,0,0,-1,0,663)"
             id="g484"><text
               transform="translate(319,623)"
               id="text486"><tspan
                 x="0 6.9828 13.9656 20.9484 27.9312 34.914001 41.896801 48.879601 55.8624 62.8452 69.828003 76.810799 83.793602"
                 y="0"
                 id="tspan488"
                 style="font-size:12px;font-variant:normal;font-weight:normal;writing-mode:lr-tb;fill:#000000;fill-opacity:1;fill-rule:nonzero;stroke:none;font-family:Courier New;-inkscape-font-specification:Courier">[the],[lazy],</tspan></text>
</g><g
             transform="matrix(1,0,0,-1,0,663)"
             id="g490"><text
               transform="translate(305,635)"
               id="text492"><tspan
                 x="0 6.9875998 13.9752 20.962799 27.950399 34.938 41.925598 48.9132 55.900799 62.888401 69.875999 76.863602 83.851196 90.838799 97.826401 104.814 111.8016"
                 y="0"
                 id="tspan494"
                 style="font-size:12px;font-variant:normal;font-weight:normal;writing-mode:lr-tb;fill:#000000;fill-opacity:1;fill-rule:nonzero;stroke:none;font-family:Courier New;-inkscape-font-specification:Courier">[turtle],[beats],</tspan></text>
</g><g
             transform="matrix(1,0,0,-1,0,663)"
             id="g496"><text
               transform="translate(288,647)"
               id="text498"><tspan
                 x="0 6.9899998 13.98 20.969999 27.959999 34.950001 41.939999 48.93 55.919998 62.91 69.900002 76.889999 83.879997 90.870003 97.860001 104.85 111.84 118.83 125.82 132.81 139.8 146.78999"
                 y="0"
                 id="tspan500"
                 style="font-size:12px;font-variant:normal;font-weight:normal;writing-mode:lr-tb;fill:#000000;fill-opacity:1;fill-rule:nonzero;stroke:none;font-family:Courier New;-inkscape-font-specification:Courier">[the],[rapid],[turtle]</tspan></text>
</g><path
             d="m 52,513 -17,-7 0,-22 34,0 0,16 -17,13"
             id="path502"
             style="fill:#efefef;fill-opacity:1;fill-rule:evenodd;stroke:none" /><path
             d="m 52,513 0.25,0 0,-0.25 -17,-7 -0.25,0 0,0.25"
             id="path504"
             style="fill:#000000;fill-opacity:1;fill-rule:nonzero;stroke:none" /><g
             transform="matrix(1,0,0,-1,0,663)"
             id="g506"><path
               d="m 35.125,157 0,22.25"
               id="path508"
               style="fill:none;stroke:#000000;stroke-width:0.25;stroke-linecap:butt;stroke-linejoin:miter;stroke-miterlimit:10;stroke-opacity:1;stroke-dasharray:none" /></g><g
             transform="matrix(1,0,0,-1,0,663)"
             id="g510"><path
               d="m 35,179.125 34.25,0"
               id="path512"
               style="fill:none;stroke:#000000;stroke-width:0.25;stroke-linecap:butt;stroke-linejoin:miter;stroke-miterlimit:10;stroke-opacity:1;stroke-dasharray:none" /></g><g
             transform="matrix(1,0,0,-1,0,663)"
             id="g514"><path
               d="m 69.125,163 0,16.25"
               id="path516"
               style="fill:none;stroke:#000000;stroke-width:0.25;stroke-linecap:butt;stroke-linejoin:miter;stroke-miterlimit:10;stroke-opacity:1;stroke-dasharray:none" /></g><path
             d="m 52,513 0.25,0 17,-13 0,-0.25 -0.25,0 -17,13"
             id="path518"
             style="fill:#000000;fill-opacity:1;fill-rule:nonzero;stroke:none" /><path
             d="m 320,414 -17,-7 0,-22 34,0 0,16 -17,13"
             id="path520"
             style="fill:#efefef;fill-opacity:1;fill-rule:evenodd;stroke:none" /><path
             d="m 320,414 0.25,0 0,-0.25 -17,-7 -0.25,0 0,0.25"
             id="path522"
             style="fill:#000000;fill-opacity:1;fill-rule:nonzero;stroke:none" /><g
             transform="matrix(1,0,0,-1,0,663)"
             id="g524"><path
               d="m 303.125,256 0,22.25"
               id="path526"
               style="fill:none;stroke:#000000;stroke-width:0.25;stroke-linecap:butt;stroke-linejoin:miter;stroke-miterlimit:10;stroke-opacity:1;stroke-dasharray:none" /></g><g
             transform="matrix(1,0,0,-1,0,663)"
             id="g528"><path
               d="m 303,278.125 34.25,0"
               id="path530"
               style="fill:none;stroke:#000000;stroke-width:0.25;stroke-linecap:butt;stroke-linejoin:miter;stroke-miterlimit:10;stroke-opacity:1;stroke-dasharray:none" /></g><g
             transform="matrix(1,0,0,-1,0,663)"
             id="g532"><path
               d="m 337.125,262 0,16.25"
               id="path534"
               style="fill:none;stroke:#000000;stroke-width:0.25;stroke-linecap:butt;stroke-linejoin:miter;stroke-miterlimit:10;stroke-opacity:1;stroke-dasharray:none" /></g><path
             d="m 320,414 0.25,0 17,-13 0,-0.25 -0.25,0 -17,13"
             id="path536"
             style="fill:#000000;fill-opacity:1;fill-rule:nonzero;stroke:none" /><path
             d="m 439,463 -17,-7 0,-22 34,0 0,16 -17,13"
             id="path538"
             style="fill:#efefef;fill-opacity:1;fill-rule:evenodd;stroke:none" /><path
             d="m 439,463 0.25,0 0,-0.25 -17,-7 -0.25,0 0,0.25"
             id="path540"
             style="fill:#000000;fill-opacity:1;fill-rule:nonzero;stroke:none" /><g
             transform="matrix(1,0,0,-1,0,663)"
             id="g542"><path
               d="m 422.125,207 0,22.25"
               id="path544"
               style="fill:none;stroke:#000000;stroke-width:0.25;stroke-linecap:butt;stroke-linejoin:miter;stroke-miterlimit:10;stroke-opacity:1;stroke-dasharray:none" /></g><g
             transform="matrix(1,0,0,-1,0,663)"
             id="g546"><path
               d="m 422,229.125 34.25,0"
               id="path548"
               style="fill:none;stroke:#000000;stroke-width:0.25;stroke-linecap:butt;stroke-linejoin:miter;stroke-miterlimit:10;stroke-opacity:1;stroke-dasharray:none" /></g><g
             transform="matrix(1,0,0,-1,0,663)"
             id="g550"><path
               d="m 456.125,213 0,16.25"
               id="path552"
               style="fill:none;stroke:#000000;stroke-width:0.25;stroke-linecap:butt;stroke-linejoin:miter;stroke-miterlimit:10;stroke-opacity:1;stroke-dasharray:none" /></g><path
             d="m 439,463 0.25,0 17,-13 0,-0.25 -0.25,0 -17,13"
             id="path554"
             style="fill:#000000;fill-opacity:1;fill-rule:nonzero;stroke:none" /></g></g></g></g></svg>