<?xml version="1.0" encoding="UTF-8" standalone="no"?>
<!-- Created with Inkscape (http://www.inkscape.org/) -->

<svg
   xmlns:svg="http://www.w3.org/2000/svg"
   xmlns="http://www.w3.org/2000/svg"
   version="1.1"
   width="267.5"
   height="185"
   id="svg2"
   xml:space="preserve"><defs
     id="defs6"><clipPath
       id="clipPath20"><path
         d="M 0,0 214,0 214,148 0,148 0,0 z"
         id="path22" /></clipPath><clipPath
       id="clipPath30"><path
         d="m 0,148 214,0 0,-148.000002183835 -214,0 L 0,148 z"
         id="path32" /></clipPath><clipPath
       id="clipPath36"><path
         d="M 0,0 214,0 214,148 0,148 0,0 z"
         id="path38" /></clipPath><clipPath
       id="clipPath50"><path
         d="m 0,148 214,0 0,-148.000002183835 -214,0 L 0,148 z"
         id="path52" /></clipPath><clipPath
       id="clipPath56"><path
         d="m 53,135 74,0 0,12 -74,0 0,-12 z"
         id="path58" /></clipPath><clipPath
       id="clipPath70"><path
         d="m 0,148 214,0 0,-148.000002183835 -214,0 L 0,148 z"
         id="path72" /></clipPath><clipPath
       id="clipPath76"><path
         d="M 0,0 214,0 214,148 0,148 0,0 z"
         id="path78" /></clipPath><clipPath
       id="clipPath88"><path
         d="m 0,148 214,0 0,-148.000002183835 -214,0 L 0,148 z"
         id="path90" /></clipPath><clipPath
       id="clipPath94"><path
         d="m 94,98 115,0 0,12 -115,0 0,-12 z"
         id="path96" /></clipPath><clipPath
       id="clipPath108"><path
         d="m 0,148 214,0 0,-148.000002183835 -214,0 L 0,148 z"
         id="path110" /></clipPath><clipPath
       id="clipPath114"><path
         d="M 0,0 214,0 214,148 0,148 0,0 z"
         id="path116" /></clipPath><clipPath
       id="clipPath126"><path
         d="m 0,148 214,0 0,-148.000002183835 -214,0 L 0,148 z"
         id="path128" /></clipPath><clipPath
       id="clipPath132"><path
         d="m 114,15 10,0 0,13 -10,0 0,-13 z"
         id="path134" /></clipPath><clipPath
       id="clipPath146"><path
         d="m 0,148 214,0 0,-148.000002183835 -214,0 L 0,148 z"
         id="path148" /></clipPath><clipPath
       id="clipPath152"><path
         d="m 195,15 10,0 0,13 -10,0 0,-13 z"
         id="path154" /></clipPath><clipPath
       id="clipPath166"><path
         d="m 0,148 214,0 0,-148.000002183835 -214,0 L 0,148 z"
         id="path168" /></clipPath><clipPath
       id="clipPath172"><path
         d="m 1,97 80,0 0,12 -80,0 0,-12 z"
         id="path174" /></clipPath><clipPath
       id="clipPath186"><path
         d="m 0,148 214,0 0,-148.000002183835 -214,0 L 0,148 z"
         id="path188" /></clipPath><clipPath
       id="clipPath192"><path
         d="m 40,54 10,0 0,13 -10,0 0,-13 z"
         id="path194" /></clipPath><clipPath
       id="clipPath206"><path
         d="m 0,148 214,0 0,-148.000002183835 -214,0 L 0,148 z"
         id="path208" /></clipPath><clipPath
       id="clipPath212"><path
         d="M 0,0 214,0 214,148 0,148 0,0 z"
         id="path214" /></clipPath><clipPath
       id="clipPath224"><path
         d="m 0,148 214,0 0,-148.000002183835 -214,0 L 0,148 z"
         id="path226" /></clipPath><clipPath
       id="clipPath230"><path
         d="m 19,41 44,0 0,12 -44,0 0,-12 z"
         id="path232" /></clipPath><clipPath
       id="clipPath244"><path
         d="m 0,148 214,0 0,-148.000002183835 -214,0 L 0,148 z"
         id="path246" /></clipPath><clipPath
       id="clipPath250"><path
         d="m 110,2.999998 44,0 0,12 -44,0 0,-12 z"
         id="path252" /></clipPath><clipPath
       id="clipPath264"><path
         d="m 0,148 214,0 0,-148.000002183835 -214,0 L 0,148 z"
         id="path266" /></clipPath><clipPath
       id="clipPath270"><path
         d="m 170,2.999998 38,0 0,12 -38,0 0,-12 z"
         id="path272" /></clipPath><clipPath
       id="clipPath284"><path
         d="m 0,148 214,0 0,-148.000002183835 -214,0 L 0,148 z"
         id="path286" /></clipPath><clipPath
       id="clipPath290"><path
         d="M 0,0 214,0 214,148 0,148 0,0 z"
         id="path292" /></clipPath><clipPath
       id="clipPath302"><path
         d="m 0,148 214,0 0,-148.000002183835 -214,0 L 0,148 z"
         id="path304" /></clipPath><clipPath
       id="clipPath308"><path
         d="m 106,59 19,0 0,12 -19,0 0,-12 z"
         id="path310" /></clipPath><clipPath
       id="clipPath322"><path
         d="m 0,148 214,0 0,-148.000002183835 -214,0 L 0,148 z"
         id="path324" /></clipPath><clipPath
       id="clipPath328"><path
         d="m 187,59 19,0 0,12 -19,0 0,-12 z"
         id="path330" /></clipPath><clipPath
       id="clipPath342"><path
         d="m 0,148 214,0 0,-148.000002183835 -214,0 L 0,148 z"
         id="path344" /></clipPath><clipPath
       id="clipPath348"><path
         d="M 0,0 214,0 214,148 0,148 0,0 z"
         id="path350" /></clipPath></defs><g
     transform="matrix(1.25,0,0,-1.25,0,185)"
     id="g12"><g
       id="g14" /><g
       id="g16"><g
         clip-path="url(#clipPath20)"
         id="g18"><path
           d="M 0,148 214,148 214,0 0,0 0,148 z"
           id="path24"
           style="fill:#ffffff;fill-opacity:0;fill-rule:evenodd;stroke:none" /></g></g><g
       id="g26"><g
         clip-path="url(#clipPath30)"
         id="g28"><g
           clip-path="url(#clipPath36)"
           id="g34"><path
             d="m 166,96 47,0 0,-95.0000022 -47,0 L 166,96 z"
             id="path40"
             style="fill:#efefef;fill-opacity:1;fill-rule:nonzero;stroke:none" /><g
             transform="matrix(1,0,0,-1,0,148)"
             id="g42"><path
               d="m 166.5,52.5 46,0 0,94 -46,0 0,-94 z"
               id="path44"
               style="fill:none;stroke:#ffffff;stroke-width:1;stroke-linecap:butt;stroke-linejoin:miter;stroke-miterlimit:10;stroke-opacity:1;stroke-dasharray:none" /></g></g></g></g><g
       id="g46"><g
         clip-path="url(#clipPath50)"
         id="g48"><g
           clip-path="url(#clipPath56)"
           id="g54"><g
             transform="matrix(1,0,0,-1,0,148)"
             id="g60"><text
               transform="translate(54,10)"
               id="text62"><tspan
                 x="0 6.0009999 12.002 18.003 24.004 30.004999 36.006001 42.007 48.007999 54.008999 60.009998 66.011002"
                 y="0"
                 id="tspan64"
                 style="font-size:10px;font-variant:normal;font-weight:normal;writing-mode:lr-tb;fill:#000000;fill-opacity:1;fill-rule:nonzero;stroke:none;font-family:Courier New;-inkscape-font-specification:Courier">?-likes(A,B)</tspan></text>
</g></g></g></g><g
       id="g66"><g
         clip-path="url(#clipPath70)"
         id="g68"><g
           clip-path="url(#clipPath76)"
           id="g74"><path
             d="m 72,133 0.25,0 0,-0.25 -20,-22 -0.25,0 0,0.25"
             id="path80"
             style="fill:#000000;fill-opacity:1;fill-rule:nonzero;stroke:none" /><path
             d="m 112,133 0.25,0 20,-22 0,-0.25 -0.25,0 -20,22"
             id="path82"
             style="fill:#000000;fill-opacity:1;fill-rule:nonzero;stroke:none" /></g></g></g><g
       id="g84"><g
         clip-path="url(#clipPath88)"
         id="g86"><g
           clip-path="url(#clipPath94)"
           id="g92"><g
             transform="matrix(1,0,0,-1,0,148)"
             id="g98"><text
               transform="translate(95,47)"
               id="text100"><tspan
                 x="0 6.0009999 12.002 18.003 24.004 30.004999 36.006001 42.007 48.007999 54.008999 60.009998 66.011002 72.012001 78.013 84.014 90.014999 96.015999 102.017 108.018"
                 y="0"
                 id="tspan102"
                 style="font-size:10px;font-variant:normal;font-weight:normal;writing-mode:lr-tb;fill:#000000;fill-opacity:1;fill-rule:nonzero;stroke:none;font-family:Courier New;-inkscape-font-specification:Courier">:-student_of(B,A),!</tspan></text>
</g></g></g></g><g
       id="g104"><g
         clip-path="url(#clipPath108)"
         id="g106"><g
           clip-path="url(#clipPath114)"
           id="g112"><path
             d="m 136,95 0.25,0 0,-0.25 -20,-22 -0.25,0 0,0.25"
             id="path118"
             style="fill:#000000;fill-opacity:1;fill-rule:nonzero;stroke:none" /><path
             d="m 176,95 0.25,0 20,-22 0,-0.25 -0.25,0 -20,22"
             id="path120"
             style="fill:#000000;fill-opacity:1;fill-rule:nonzero;stroke:none" /></g></g></g><g
       id="g122"><g
         clip-path="url(#clipPath126)"
         id="g124"><g
           clip-path="url(#clipPath132)"
           id="g130"><g
             transform="matrix(1,0,0,-1,0,148)"
             id="g136"><text
               transform="translate(115,130)"
               id="text138"><tspan
                 x="-2.95"
                 y="0.75"
                 id="tspan140"
                 style="font-size:20px;font-variant:normal;font-weight:normal;writing-mode:lr-tb;fill:#000000;fill-opacity:1;fill-rule:nonzero;stroke:none;font-family:Geneva;-inkscape-font-specification:Geneva">&#x25A1;</tspan></text>
</g></g></g></g><g
       id="g142"><g
         clip-path="url(#clipPath146)"
         id="g144"><g
           clip-path="url(#clipPath152)"
           id="g150"><g
             transform="matrix(1,0,0,-1,0,148)"
             id="g156"><text
               transform="translate(196,130)"
               id="text158"><tspan
                 x="-2.95"
                 y="0.75"
                 id="tspan160"
                 style="font-size:20px;font-variant:normal;font-weight:normal;writing-mode:lr-tb;fill:#000000;fill-opacity:1;fill-rule:nonzero;stroke:none;font-family:Geneva;-inkscape-font-specification:Geneva">&#x25A1;</tspan></text>
</g></g></g></g><g
       id="g162"><g
         clip-path="url(#clipPath166)"
         id="g164"><g
           clip-path="url(#clipPath172)"
           id="g170"><g
             transform="matrix(1,0,0,-1,0,148)"
             id="g176"><text
               transform="translate(2,48)"
               id="text178"><tspan
                 x="0 6.0009999 12.002 18.003 24.004 30.004999 36.006001 42.007 48.007999 54.008999 60.009998 66.011002 72.012001"
                 y="0"
                 id="tspan180"
                 style="font-size:10px;font-variant:normal;font-weight:normal;writing-mode:lr-tb;fill:#000000;fill-opacity:1;fill-rule:nonzero;stroke:none;font-family:Courier New;-inkscape-font-specification:Courier">:-friendly(B)</tspan></text>
</g></g></g></g><g
       id="g182"><g
         clip-path="url(#clipPath186)"
         id="g184"><g
           clip-path="url(#clipPath192)"
           id="g190"><g
             transform="matrix(1,0,0,-1,0,148)"
             id="g196"><text
               transform="translate(41,91)"
               id="text198"><tspan
                 x="-2.95"
                 y="0.75"
                 id="tspan200"
                 style="font-size:20px;font-variant:normal;font-weight:normal;writing-mode:lr-tb;fill:#000000;fill-opacity:1;fill-rule:nonzero;stroke:none;font-family:Geneva;-inkscape-font-specification:Geneva">&#x25A1;</tspan></text>
</g></g></g></g><g
       id="g202"><g
         clip-path="url(#clipPath206)"
         id="g204"><g
           clip-path="url(#clipPath212)"
           id="g210"><g
             transform="matrix(1,0,0,-1,0,148)"
             id="g216"><path
               d="m 43.125,52 0,27.25"
               id="path218"
               style="fill:none;stroke:#000000;stroke-width:0.25;stroke-linecap:butt;stroke-linejoin:miter;stroke-miterlimit:10;stroke-opacity:1;stroke-dasharray:none" /></g></g></g></g><g
       id="g220"><g
         clip-path="url(#clipPath224)"
         id="g222"><g
           clip-path="url(#clipPath230)"
           id="g228"><g
             transform="matrix(1,0,0,-1,0,148)"
             id="g234"><text
               transform="translate(20,104)"
               id="text236"><tspan
                 x="0 6.0009999 12.002 18.003 24.004 30.004999 36.006001"
                 y="0"
                 id="tspan238"
                 style="font-size:10px;font-variant:normal;font-weight:normal;writing-mode:lr-tb;fill:#000000;fill-opacity:1;fill-rule:nonzero;stroke:none;font-family:Courier New;-inkscape-font-specification:Courier">B=maria</tspan></text>
</g></g></g></g><g
       id="g240"><g
         clip-path="url(#clipPath244)"
         id="g242"><g
           clip-path="url(#clipPath250)"
           id="g248"><g
             transform="matrix(1,0,0,-1,0,148)"
             id="g254"><text
               transform="translate(111,142)"
               id="text256"><tspan
                 x="0 6.0009999 12.002 18.003 24.004 30.004999 36.006001"
                 y="0"
                 id="tspan258"
                 style="font-size:10px;font-variant:normal;font-weight:normal;writing-mode:lr-tb;fill:#000000;fill-opacity:1;fill-rule:nonzero;stroke:none;font-family:Courier New;-inkscape-font-specification:Courier">B=maria</tspan></text>
</g></g></g></g><g
       id="g260"><g
         clip-path="url(#clipPath264)"
         id="g262"><g
           clip-path="url(#clipPath270)"
           id="g268"><g
             transform="matrix(1,0,0,-1,0,148)"
             id="g274"><text
               transform="translate(171,142)"
               id="text276"><tspan
                 x="0 6.0009999 12.002 18.003 24.004 30.004999"
                 y="0"
                 id="tspan278"
                 style="font-size:10px;font-variant:normal;font-weight:normal;writing-mode:lr-tb;fill:#000000;fill-opacity:1;fill-rule:nonzero;stroke:none;font-family:Courier New;-inkscape-font-specification:Courier">B=paul</tspan></text>
</g></g></g></g><g
       id="g280"><g
         clip-path="url(#clipPath284)"
         id="g282"><g
           clip-path="url(#clipPath290)"
           id="g288"><g
             transform="matrix(1,0,0,-1,0,148)"
             id="g294"><path
               d="m 117.125,91 0,27.25"
               id="path296"
               style="fill:none;stroke:#000000;stroke-width:0.25;stroke-linecap:butt;stroke-linejoin:miter;stroke-miterlimit:10;stroke-opacity:1;stroke-dasharray:none" /></g></g></g></g><g
       id="g298"><g
         clip-path="url(#clipPath302)"
         id="g300"><g
           clip-path="url(#clipPath308)"
           id="g306"><g
             transform="matrix(1,0,0,-1,0,148)"
             id="g312"><text
               transform="translate(107,86)"
               id="text314"><tspan
                 x="0 6.0009999 12.002"
                 y="0"
                 id="tspan316"
                 style="font-size:10px;font-variant:normal;font-weight:normal;writing-mode:lr-tb;fill:#000000;fill-opacity:1;fill-rule:nonzero;stroke:none;font-family:Courier New;-inkscape-font-specification:Courier">:-!</tspan></text>
</g></g></g></g><g
       id="g318"><g
         clip-path="url(#clipPath322)"
         id="g320"><g
           clip-path="url(#clipPath328)"
           id="g326"><g
             transform="matrix(1,0,0,-1,0,148)"
             id="g332"><text
               transform="translate(188,86)"
               id="text334"><tspan
                 x="0 6.0009999 12.002"
                 y="0"
                 id="tspan336"
                 style="font-size:10px;font-variant:normal;font-weight:normal;writing-mode:lr-tb;fill:#000000;fill-opacity:1;fill-rule:nonzero;stroke:none;font-family:Courier New;-inkscape-font-specification:Courier">:-!</tspan></text>
</g></g></g></g><g
       id="g338"><g
         clip-path="url(#clipPath342)"
         id="g340"><g
           clip-path="url(#clipPath348)"
           id="g346"><g
             transform="matrix(1,0,0,-1,0,148)"
             id="g352"><path
               d="m 198.125,91 0,27.25"
               id="path354"
               style="fill:none;stroke:#000000;stroke-width:0.25;stroke-linecap:butt;stroke-linejoin:miter;stroke-miterlimit:10;stroke-opacity:1;stroke-dasharray:none" /></g></g></g></g></g></svg>
