<?xml version="1.0" encoding="UTF-8" standalone="no"?>
<!-- Created with Inkscape (http://www.inkscape.org/) -->

<svg
   xmlns:svg="http://www.w3.org/2000/svg"
   xmlns="http://www.w3.org/2000/svg"
   version="1.1"
   width="196.25"
   height="227.5"
   id="svg2"
   xml:space="preserve"><defs
     id="defs6"><clipPath
       id="clipPath20"><path
         d="M 0,0 157,0 157,182 0,182 0,0 z"
         id="path22" /></clipPath><clipPath
       id="clipPath30"><path
         d="m 0,182 157,0 0,-182.000002685527 -157,0 L 0,182 z"
         id="path32" /></clipPath><clipPath
       id="clipPath36"><path
         d="M 0,0 157,0 157,182 0,182 0,0 z"
         id="path38" /></clipPath></defs><g
     transform="matrix(1.25,0,0,-1.25,0,227.5)"
     id="g12"><g
       id="g14" /><g
       id="g16"><g
         clip-path="url(#clipPath20)"
         id="g18"><path
           d="M 0,182 157,182 157,0 0,0 0,182 z"
           id="path24"
           style="fill:#ffffff;fill-opacity:0;fill-rule:evenodd;stroke:none" /></g></g><g
       id="g26"><g
         clip-path="url(#clipPath30)"
         id="g28"><g
           clip-path="url(#clipPath36)"
           id="g34"><path
             d="m 78,124 46,0 0,-81 -46,0 0,81 z"
             id="path40"
             style="fill:#efefef;fill-opacity:1;fill-rule:nonzero;stroke:none" /><g
             transform="matrix(1,0,0,-1,0,182)"
             id="g42"><path
               d="m 78.5,58.5 45,0 0,80 -45,0 0,-80 z"
               id="path44"
               style="fill:none;stroke:#ffffff;stroke-width:1;stroke-linecap:butt;stroke-linejoin:miter;stroke-miterlimit:10;stroke-opacity:1;stroke-dasharray:none" /></g><g
             transform="matrix(1,0,0,-1,0,182)"
             id="g46"><text
               transform="translate(38,46)"
               id="text48"><tspan
                 x="0 6.0009999 12.002 18.003 24.004 30.004999 36.006001 42.007 48.007999 54.008999"
                 y="0"
                 id="tspan50"
                 style="font-size:10px;font-variant:normal;font-weight:normal;writing-mode:lr-tb;fill:#000000;fill-opacity:1;fill-rule:nonzero;stroke:none;font-family:Courier New;-inkscape-font-specification:Courier">:-not(q),r</tspan></text>
</g><g
             transform="matrix(1,0,0,-1,0,182)"
             id="g52"><text
               transform="translate(94,9)"
               id="text54"><tspan
                 x="0 6.0009999 12.002"
                 y="0"
                 id="tspan56"
                 style="font-size:10px;font-variant:normal;font-weight:normal;writing-mode:lr-tb;fill:#000000;fill-opacity:1;fill-rule:nonzero;stroke:none;font-family:Courier New;-inkscape-font-specification:Courier">?-p</tspan></text>
</g><path
             d="m 94,170 0.25,0 0,-0.25 -20,-22 -0.25,0 0,0.25"
             id="path58"
             style="fill:#000000;fill-opacity:1;fill-rule:nonzero;stroke:none" /><path
             d="m 114,170 0.25,0 20,-22 0,-0.25 -0.25,0 -20,22"
             id="path60"
             style="fill:#000000;fill-opacity:1;fill-rule:nonzero;stroke:none" /><g
             transform="matrix(1,0,0,-1,0,182)"
             id="g62"><text
               transform="translate(98,132)"
               id="text64"><tspan
                 x="-2.5"
                 y="0"
                 id="tspan66"
                 style="font-size:20px;font-variant:normal;font-weight:normal;writing-mode:lr-tb;fill:#000000;fill-opacity:1;fill-rule:nonzero;stroke:none;font-family:Geneva;-inkscape-font-specification:Geneva">&#x25A1;</tspan></text>
</g><path
             d="m 60,130 0.25,0 0,-0.25 -20,-22 -0.25,0 0,0.25"
             id="path68"
             style="fill:#000000;fill-opacity:1;fill-rule:nonzero;stroke:none" /><path
             d="m 74,130 0.25,0 20,-22 0,-0.25 -0.25,0 -20,22"
             id="path70"
             style="fill:#000000;fill-opacity:1;fill-rule:nonzero;stroke:none" /><g
             transform="matrix(1,0,0,-1,0,182)"
             id="g72"><text
               transform="translate(1,86)"
               id="text74"><tspan
                 x="0 6.0009999 12.002 18.003 24.004 30.004999 36.006001 42.007 48.007999 54.008999 60.009998 66.011002"
                 y="0"
                 id="tspan76"
                 style="font-size:10px;font-variant:normal;font-weight:normal;writing-mode:lr-tb;fill:#000000;fill-opacity:1;fill-rule:nonzero;stroke:none;font-family:Courier New;-inkscape-font-specification:Courier">:-q,!,fail,r</tspan></text>
</g><g
             transform="matrix(1,0,0,-1,0,182)"
             id="g78"><path
               d="m 15,181.5 46,0"
               id="path80"
               style="fill:none;stroke:#000000;stroke-width:1;stroke-linecap:butt;stroke-linejoin:miter;stroke-miterlimit:10;stroke-opacity:1;stroke-dasharray:none" /></g><g
             transform="matrix(1,0,0,-1,0,182)"
             id="g82"><text
               transform="translate(94,86)"
               id="text84"><tspan
                 x="0 6.0009999 12.002"
                 y="0"
                 id="tspan86"
                 style="font-size:10px;font-variant:normal;font-weight:normal;writing-mode:lr-tb;fill:#000000;fill-opacity:1;fill-rule:nonzero;stroke:none;font-family:Courier New;-inkscape-font-specification:Courier">:-r</tspan></text>
</g><g
             transform="matrix(1,0,0,-1,0,182)"
             id="g88"><path
               d="m 101.125,90 0,29.25"
               id="path90"
               style="fill:none;stroke:#000000;stroke-width:0.25;stroke-linecap:butt;stroke-linejoin:miter;stroke-miterlimit:10;stroke-opacity:1;stroke-dasharray:none" /></g><g
             transform="matrix(1,0,0,-1,0,182)"
             id="g92"><path
               d="m 39.125,90 0,29.25"
               id="path94"
               style="fill:none;stroke:#000000;stroke-width:0.25;stroke-linecap:butt;stroke-linejoin:miter;stroke-miterlimit:10;stroke-opacity:1;stroke-dasharray:none" /></g><g
             transform="matrix(1,0,0,-1,0,182)"
             id="g96"><text
               transform="translate(7,131)"
               id="text98"><tspan
                 x="0 6.0009999 12.002 18.003 24.004 30.004999 36.006001 42.007 48.007999 54.008999"
                 y="0"
                 id="tspan100"
                 style="font-size:10px;font-variant:normal;font-weight:normal;writing-mode:lr-tb;fill:#000000;fill-opacity:1;fill-rule:nonzero;stroke:none;font-family:Courier New;-inkscape-font-specification:Courier">:-!,fail,r</tspan></text>
</g><g
             transform="matrix(1,0,0,-1,0,182)"
             id="g102"><path
               d="m 39.125,135 0,29.25"
               id="path104"
               style="fill:none;stroke:#000000;stroke-width:0.25;stroke-linecap:butt;stroke-linejoin:miter;stroke-miterlimit:10;stroke-opacity:1;stroke-dasharray:none" /></g><g
             transform="matrix(1,0,0,-1,0,182)"
             id="g106"><text
               transform="translate(13,176)"
               id="text108"><tspan
                 x="0 6.0009999 12.002 18.003 24.004 30.004999 36.006001 42.007"
                 y="0"
                 id="tspan110"
                 style="font-size:10px;font-variant:normal;font-weight:normal;writing-mode:lr-tb;fill:#000000;fill-opacity:1;fill-rule:nonzero;stroke:none;font-family:Courier New;-inkscape-font-specification:Courier">:-fail,r</tspan></text>
</g><g
             transform="matrix(1,0,0,-1,0,182)"
             id="g112"><text
               transform="translate(138,91)"
               id="text114"><tspan
                 x="-2.5"
                 y="0.75"
                 id="tspan116"
                 style="font-size:20px;font-variant:normal;font-weight:normal;writing-mode:lr-tb;fill:#000000;fill-opacity:1;fill-rule:nonzero;stroke:none;font-family:Geneva;-inkscape-font-specification:Geneva">&#x25A1;</tspan></text>
</g><g
             transform="matrix(1,0,0,-1,0,182)"
             id="g118"><text
               transform="translate(132,44)"
               id="text120"><tspan
                 x="0 6.0009999 12.002"
                 y="0"
                 id="tspan122"
                 style="font-size:10px;font-variant:normal;font-weight:normal;writing-mode:lr-tb;fill:#000000;fill-opacity:1;fill-rule:nonzero;stroke:none;font-family:Courier New;-inkscape-font-specification:Courier">:-q</tspan></text>
</g><g
             transform="matrix(1,0,0,-1,0,182)"
             id="g124"><path
               d="m 141.125,50 0,29.25"
               id="path126"
               style="fill:none;stroke:#000000;stroke-width:0.25;stroke-linecap:butt;stroke-linejoin:miter;stroke-miterlimit:10;stroke-opacity:1;stroke-dasharray:none" /></g></g></g></g></g></svg>
