<?xml version="1.0" encoding="UTF-8" standalone="no"?>
<!-- Created with Inkscape (http://www.inkscape.org/) -->

<svg
   xmlns:svg="http://www.w3.org/2000/svg"
   xmlns="http://www.w3.org/2000/svg"
   version="1.1"
   width="258.75"
   height="187.5"
   id="svg2"
   xml:space="preserve"><defs
     id="defs6"><clipPath
       id="clipPath20"><path
         d="M 0,0 207,0 207,150 0,150 0,0 z"
         id="path22" /></clipPath><clipPath
       id="clipPath30"><path
         d="m 0,150 207,0 0,-150.000002213346 -207,0 L 0,150 z"
         id="path32" /></clipPath><clipPath
       id="clipPath36"><path
         d="M 0,0 207,0 207,150 0,150 0,0 z"
         id="path38" /></clipPath></defs><g
     transform="matrix(1.25,0,0,-1.25,0,187.5)"
     id="g12"><g
       id="g14" /><g
       id="g16"><g
         clip-path="url(#clipPath20)"
         id="g18"><path
           d="M 0,150 207,150 207,0 0,0 0,150 z"
           id="path24"
           style="fill:#ffffff;fill-opacity:0;fill-rule:evenodd;stroke:none" /></g></g><g
       id="g26"><g
         clip-path="url(#clipPath30)"
         id="g28"><g
           clip-path="url(#clipPath36)"
           id="g34"><path
             d="m 94,136 112,0 0,-93 -112,0 0,93 z"
             id="path40"
             style="fill:#efefef;fill-opacity:1;fill-rule:nonzero;stroke:none" /><g
             transform="matrix(1,0,0,-1,0,150)"
             id="g42"><path
               d="m 94.5,14.5 111,0 0,92 -111,0 0,-92 z"
               id="path44"
               style="fill:none;stroke:#ffffff;stroke-width:1;stroke-linecap:butt;stroke-linejoin:miter;stroke-miterlimit:10;stroke-opacity:1;stroke-dasharray:none" /></g><g
             transform="matrix(1,0,0,-1,0,150)"
             id="g46"><text
               transform="translate(53,10)"
               id="text48"><tspan
                 x="0 6.0009999 12.002 18.003 24.004 30.004999 36.006001 42.007 48.007999 54.008999 60.009998 66.011002"
                 y="0"
                 id="tspan50"
                 style="font-size:10px;font-variant:normal;font-weight:normal;writing-mode:lr-tb;fill:#000000;fill-opacity:1;fill-rule:nonzero;stroke:none;font-family:Courier New;-inkscape-font-specification:Courier">?-likes(A,B)</tspan></text>
</g><path
             d="m 74,135 0.25,0 0,-0.25 -20,-22 -0.25,0 0,0.25"
             id="path52"
             style="fill:#000000;fill-opacity:1;fill-rule:nonzero;stroke:none" /><path
             d="m 114,135 0.25,0 20,-22 0,-0.25 -0.25,0 -20,22"
             id="path54"
             style="fill:#000000;fill-opacity:1;fill-rule:nonzero;stroke:none" /><g
             transform="matrix(1,0,0,-1,0,150)"
             id="g56"><text
               transform="translate(98,47)"
               id="text58"><tspan
                 x="0 6.0009999 12.002 18.003 24.004 30.004999 36.006001 42.007 48.007999 54.008999 60.009998 66.011002 72.012001 78.013 84.014 90.014999 96.015999"
                 y="0"
                 id="tspan60"
                 style="font-size:10px;font-variant:normal;font-weight:normal;writing-mode:lr-tb;fill:#000000;fill-opacity:1;fill-rule:nonzero;stroke:none;font-family:Courier New;-inkscape-font-specification:Courier">:-student_of(B,A)</tspan></text>
</g><path
             d="m 122,95 0.25,0 0,-0.25 -20,-22 -0.25,0 0,0.25"
             id="path62"
             style="fill:#000000;fill-opacity:1;fill-rule:nonzero;stroke:none" /><path
             d="m 162,95 0.25,0 20,-22 0,-0.25 -0.25,0 -20,22"
             id="path64"
             style="fill:#000000;fill-opacity:1;fill-rule:nonzero;stroke:none" /><g
             transform="matrix(1,0,0,-1,0,150)"
             id="g66"><text
               transform="translate(97,90)"
               id="text68"><tspan
                 x="-0.75"
                 y="0"
                 id="tspan70"
                 style="font-size:20px;font-variant:normal;font-weight:normal;writing-mode:lr-tb;fill:#000000;fill-opacity:1;fill-rule:nonzero;stroke:none;font-family:Geneva;-inkscape-font-specification:Geneva">&#x25A1;</tspan></text>
</g><g
             transform="matrix(1,0,0,-1,0,150)"
             id="g72"><text
               transform="translate(182,90)"
               id="text74"><tspan
                 x="-4.75"
                 y="0"
                 id="tspan76"
                 style="font-size:20px;font-variant:normal;font-weight:normal;writing-mode:lr-tb;fill:#000000;fill-opacity:1;fill-rule:nonzero;stroke:none;font-family:Geneva;-inkscape-font-specification:Geneva">&#x25A1;</tspan></text>
</g><g
             transform="matrix(1,0,0,-1,0,150)"
             id="g78"><text
               transform="translate(4,90)"
               id="text80"><tspan
                 x="0 6.0009999 12.002 18.003 24.004 30.004999 36.006001 42.007 48.007999 54.008999 60.009998 66.011002 72.012001"
                 y="0"
                 id="tspan82"
                 style="font-size:10px;font-variant:normal;font-weight:normal;writing-mode:lr-tb;fill:#000000;fill-opacity:1;fill-rule:nonzero;stroke:none;font-family:Courier New;-inkscape-font-specification:Courier">:-friendly(B)</tspan></text>
</g><g
             transform="matrix(1,0,0,-1,0,150)"
             id="g84"><text
               transform="translate(43,133)"
               id="text86"><tspan
                 x="-3.5"
                 y="0.75"
                 id="tspan88"
                 style="font-size:20px;font-variant:normal;font-weight:normal;writing-mode:lr-tb;fill:#000000;fill-opacity:1;fill-rule:nonzero;stroke:none;font-family:Geneva;-inkscape-font-specification:Geneva">&#x25A1;</tspan></text>
</g><g
             transform="matrix(1,0,0,-1,0,150)"
             id="g90"><path
               d="m 45.125,94 0,27.25"
               id="path92"
               style="fill:none;stroke:#000000;stroke-width:0.25;stroke-linecap:butt;stroke-linejoin:miter;stroke-miterlimit:10;stroke-opacity:1;stroke-dasharray:none" /></g><g
             transform="matrix(1,0,0,-1,0,150)"
             id="g94"><text
               transform="translate(22,146)"
               id="text96"><tspan
                 x="0 6.0009999 12.002 18.003 24.004 30.004999 36.006001"
                 y="0"
                 id="tspan98"
                 style="font-size:10px;font-variant:normal;font-weight:normal;writing-mode:lr-tb;fill:#000000;fill-opacity:1;fill-rule:nonzero;stroke:none;font-family:Courier New;-inkscape-font-specification:Courier">B=maria</tspan></text>
</g><g
             transform="matrix(1,0,0,-1,0,150)"
             id="g100"><text
               transform="translate(99,102)"
               id="text102"><tspan
                 x="0 6.0009999 12.002 18.003 24.004 30.004999 36.006001"
                 y="0"
                 id="tspan104"
                 style="font-size:10px;font-variant:normal;font-weight:normal;writing-mode:lr-tb;fill:#000000;fill-opacity:1;fill-rule:nonzero;stroke:none;font-family:Courier New;-inkscape-font-specification:Courier">B=maria</tspan></text>
</g><g
             transform="matrix(1,0,0,-1,0,150)"
             id="g106"><text
               transform="translate(158,102)"
               id="text108"><tspan
                 x="0 6.0009999 12.002 18.003 24.004 30.004999"
                 y="0"
                 id="tspan110"
                 style="font-size:10px;font-variant:normal;font-weight:normal;writing-mode:lr-tb;fill:#000000;fill-opacity:1;fill-rule:nonzero;stroke:none;font-family:Courier New;-inkscape-font-specification:Courier">B=paul</tspan></text>
</g><g
             transform="matrix(1,0,0,-1,0,150)"
             id="g112"><path
               d="m 44.125,51 0,27.25"
               id="path114"
               style="fill:none;stroke:#000000;stroke-width:0.25;stroke-linecap:butt;stroke-linejoin:miter;stroke-miterlimit:10;stroke-opacity:1;stroke-dasharray:none" /></g><g
             transform="matrix(1,0,0,-1,0,150)"
             id="g116"><text
               transform="translate(4,47)"
               id="text118"><tspan
                 x="0 6.0009999 12.002 18.003 24.004 30.004999 36.006001 42.007 48.007999 54.008999 60.009998 66.011002 72.012001 78.013 84.014"
                 y="0"
                 id="tspan120"
                 style="font-size:10px;font-variant:normal;font-weight:normal;writing-mode:lr-tb;fill:#000000;fill-opacity:1;fill-rule:nonzero;stroke:none;font-family:Courier New;-inkscape-font-specification:Courier">:-!,friendly(B)</tspan></text>
</g></g></g></g></g></svg>
