<?xml version="1.0" encoding="UTF-8" standalone="no"?>
<!-- Created with Inkscape (http://www.inkscape.org/) -->

<svg
   xmlns:svg="http://www.w3.org/2000/svg"
   xmlns="http://www.w3.org/2000/svg"
   version="1.1"
   width="255"
   height="42.5"
   id="svg2"
   xml:space="preserve"><defs
     id="defs6"><clipPath
       id="clipPath20"><path
         d="M 0,0 204,0 204,34 0,34 0,0 z"
         id="path22" /></clipPath><clipPath
       id="clipPath30"><path
         d="M 0,34 204,34 204,0 0,0 0,34 z"
         id="path32" /></clipPath><clipPath
       id="clipPath36"><path
         d="M 0,0 204,0 204,34 0,34 0,0 z"
         id="path38" /></clipPath></defs><g
     transform="matrix(1.25,0,0,-1.25,0,42.5)"
     id="g12"><g
       id="g14" /><g
       id="g16"><g
         clip-path="url(#clipPath20)"
         id="g18"><path
           d="M 0,34 204,34 204,0 0,0 0,34 z"
           id="path24"
           style="fill:#ffffff;fill-opacity:0;fill-rule:evenodd;stroke:none" /></g></g><g
       id="g26"><g
         clip-path="url(#clipPath30)"
         id="g28"><g
           clip-path="url(#clipPath36)"
           id="g34"><path
             d="M 3,31 202,31 202,2 3,2 3,31 z"
             id="path40"
             style="fill:#ffffff;fill-opacity:1;fill-rule:nonzero;stroke:none" /><g
             transform="matrix(1,0,0,-1,0,34)"
             id="g42"><path
               d="m 3.5,3.5 198,0 0,28 -198,0 0,-28 z"
               id="path44"
               style="fill:none;stroke:#000000;stroke-width:1;stroke-linecap:butt;stroke-linejoin:miter;stroke-miterlimit:10;stroke-opacity:1;stroke-dasharray:none" /></g><g
             transform="matrix(1,0,0,-1,0,34)"
             id="g46"><path
               d="m 31.5,3 0,29"
               id="path48"
               style="fill:none;stroke:#000000;stroke-width:1;stroke-linecap:butt;stroke-linejoin:miter;stroke-miterlimit:10;stroke-opacity:1;stroke-dasharray:none" /></g><g
             transform="matrix(1,0,0,-1,0,34)"
             id="g50"><path
               d="m 60.5,3 0,29"
               id="path52"
               style="fill:none;stroke:#000000;stroke-width:1;stroke-linecap:butt;stroke-linejoin:miter;stroke-miterlimit:10;stroke-opacity:1;stroke-dasharray:none" /></g><g
             transform="matrix(1,0,0,-1,0,34)"
             id="g54"><path
               d="m 88.5,3 0,29"
               id="path56"
               style="fill:none;stroke:#000000;stroke-width:1;stroke-linecap:butt;stroke-linejoin:miter;stroke-miterlimit:10;stroke-opacity:1;stroke-dasharray:none" /></g><g
             transform="matrix(1,0,0,-1,0,34)"
             id="g58"><path
               d="m 116.5,3 0,29"
               id="path60"
               style="fill:none;stroke:#000000;stroke-width:1;stroke-linecap:butt;stroke-linejoin:miter;stroke-miterlimit:10;stroke-opacity:1;stroke-dasharray:none" /></g><g
             transform="matrix(1,0,0,-1,0,34)"
             id="g62"><path
               d="m 145.5,3 0,29"
               id="path64"
               style="fill:none;stroke:#000000;stroke-width:1;stroke-linecap:butt;stroke-linejoin:miter;stroke-miterlimit:10;stroke-opacity:1;stroke-dasharray:none" /></g><g
             transform="matrix(1,0,0,-1,0,34)"
             id="g66"><path
               d="m 173.5,3 0,29"
               id="path68"
               style="fill:none;stroke:#000000;stroke-width:1;stroke-linecap:butt;stroke-linejoin:miter;stroke-miterlimit:10;stroke-opacity:1;stroke-dasharray:none" /></g><path
             d="M 30,16 C 30,9.372581 24.62742,4 18,4 11.37258,4 6,9.372581 6,16 c 0,6.62742 5.37258,12 12,12 6.62742,0 12,-5.37258 12,-12"
             id="path70"
             style="fill:#000000;fill-opacity:1;fill-rule:evenodd;stroke:none" /><g
             transform="matrix(1,0,0,-1,0,34)"
             id="g72"><path
               d="M 29.5,18 C 29.5,24.35127 24.35127,29.5 18,29.5 11.64873,29.5 6.5,24.35127 6.5,18 6.5,11.64873 11.64873,6.5 18,6.5 c 6.35127,0 11.5,5.14873 11.5,11.5 z"
               id="path74"
               style="fill:none;stroke:#000000;stroke-width:1;stroke-linecap:butt;stroke-linejoin:miter;stroke-miterlimit:10;stroke-opacity:1;stroke-dasharray:none" /></g><path
             d="M 58,16 C 58,9.372581 52.62742,4 46,4 39.37258,4 34,9.372581 34,16 c 0,6.62742 5.37258,12 12,12 6.62742,0 12,-5.37258 12,-12"
             id="path76"
             style="fill:#000000;fill-opacity:1;fill-rule:evenodd;stroke:none" /><g
             transform="matrix(1,0,0,-1,0,34)"
             id="g78"><path
               d="M 57.5,18 C 57.5,24.35127 52.35128,29.5 46,29.5 39.64872,29.5 34.5,24.35127 34.5,18 34.5,11.64873 39.64872,6.5 46,6.5 c 6.35128,0 11.5,5.14873 11.5,11.5 z"
               id="path80"
               style="fill:none;stroke:#000000;stroke-width:1;stroke-linecap:butt;stroke-linejoin:miter;stroke-miterlimit:10;stroke-opacity:1;stroke-dasharray:none" /></g><path
             d="M 86,16 C 86,9.372581 80.85126,4 74.5,4 68.14873,4 63,9.372581 63,16 63,22.62742 68.14873,28 74.5,28 80.85126,28 86,22.62742 86,16"
             id="path82"
             style="fill:#000000;fill-opacity:1;fill-rule:evenodd;stroke:none" /><g
             transform="matrix(1,0,0,-1,0,34)"
             id="g84"><path
               d="m 85.5,18 c 0,6.35127 -4.92487,11.5 -11,11.5 -6.07513,0 -11,-5.14873 -11,-11.5 0,-6.35127 4.92487,-11.5 11,-11.5 6.07513,0 11,5.14873 11,11.5 z"
               id="path86"
               style="fill:none;stroke:#000000;stroke-width:1;stroke-linecap:butt;stroke-linejoin:miter;stroke-miterlimit:10;stroke-opacity:1;stroke-dasharray:none" /></g><path
             d="m 143,16 c 0,-6.627419 -5.3726,-12 -12,-12 -6.6274,0 -12,5.372581 -12,12 0,6.62742 5.3726,12 12,12 6.6274,0 12,-5.37258 12,-12"
             id="path88"
             style="fill:#ffffff;fill-opacity:1;fill-rule:evenodd;stroke:none" /><g
             transform="matrix(1,0,0,-1,0,34)"
             id="g90"><path
               d="m 142.5,18 c 0,6.35127 -5.1487,11.5 -11.5,11.5 -6.3513,0 -11.5,-5.14873 -11.5,-11.5 0,-6.35127 5.1487,-11.5 11.5,-11.5 6.3513,0 11.5,5.14873 11.5,11.5 z"
               id="path92"
               style="fill:none;stroke:#000000;stroke-width:1;stroke-linecap:butt;stroke-linejoin:miter;stroke-miterlimit:10;stroke-opacity:1;stroke-dasharray:none" /></g><path
             d="M 171,16 C 171,9.372581 165.8513,4 159.5,4 153.1487,4 148,9.372581 148,16 c 0,6.62742 5.1487,12 11.5,12 6.3513,0 11.5,-5.37258 11.5,-12"
             id="path94"
             style="fill:#ffffff;fill-opacity:1;fill-rule:evenodd;stroke:none" /><g
             transform="matrix(1,0,0,-1,0,34)"
             id="g96"><path
               d="m 170.5,18 c 0,6.35127 -4.9249,11.5 -11,11.5 -6.0751,0 -11,-5.14873 -11,-11.5 0,-6.35127 4.9249,-11.5 11,-11.5 6.0751,0 11,5.14873 11,11.5 z"
               id="path98"
               style="fill:none;stroke:#000000;stroke-width:1;stroke-linecap:butt;stroke-linejoin:miter;stroke-miterlimit:10;stroke-opacity:1;stroke-dasharray:none" /></g><path
             d="m 200,16 c 0,-6.627419 -5.3726,-12 -12,-12 -6.6274,0 -12,5.372581 -12,12 0,6.62742 5.3726,12 12,12 6.6274,0 12,-5.37258 12,-12"
             id="path100"
             style="fill:#ffffff;fill-opacity:1;fill-rule:evenodd;stroke:none" /><g
             transform="matrix(1,0,0,-1,0,34)"
             id="g102"><path
               d="m 199.5,18 c 0,6.35127 -5.1487,11.5 -11.5,11.5 -6.3513,0 -11.5,-5.14873 -11.5,-11.5 0,-6.35127 5.1487,-11.5 11.5,-11.5 6.3513,0 11.5,5.14873 11.5,11.5 z"
               id="path104"
               style="fill:none;stroke:#000000;stroke-width:1;stroke-linecap:butt;stroke-linejoin:miter;stroke-miterlimit:10;stroke-opacity:1;stroke-dasharray:none" /></g></g></g></g></g></svg>