<?xml version="1.0" encoding="UTF-8" standalone="no"?>
<!-- Created with Inkscape (http://www.inkscape.org/) -->

<svg
   xmlns:svg="http://www.w3.org/2000/svg"
   xmlns="http://www.w3.org/2000/svg"
   version="1.1"
   width="610"
   height="256.25"
   id="svg2"
   xml:space="preserve"><defs
     id="defs6"><clipPath
       id="clipPath20"><path
         d="M 0,0 488,0 488,205 0,205 0,0 z"
         id="path22" /></clipPath><clipPath
       id="clipPath30"><path
         d="m 0,205 488,0 0,-205.000003024907 -488,0 L 0,205 z"
         id="path32" /></clipPath><clipPath
       id="clipPath36"><path
         d="M 0,0 488,0 488,205 0,205 0,0 z"
         id="path38" /></clipPath></defs><g
     transform="matrix(1.25,0,0,-1.25,0,256.25)"
     id="g12"><g
       id="g14" /><g
       id="g16"><g
         clip-path="url(#clipPath20)"
         id="g18"><path
           d="M 0,205 488,205 488,0 0,0 0,205 z"
           id="path24"
           style="fill:#ffffff;fill-opacity:0;fill-rule:evenodd;stroke:none" /></g></g><g
       id="g26"><g
         clip-path="url(#clipPath30)"
         id="g28"><g
           clip-path="url(#clipPath36)"
           id="g34"><g
             transform="matrix(1,0,0,-1,0,205)"
             id="g40"><text
               transform="translate(151,179)"
               id="text42"><tspan
                 x="0"
                 y="0"
                 id="tspan44"
                 style="font-size:10px;font-variant:normal;font-weight:normal;writing-mode:lr-tb;fill:#000000;fill-opacity:1;fill-rule:nonzero;stroke:none;font-family:Courier New;-inkscape-font-specification:Courier">•</tspan></text>
</g><g
             transform="matrix(1,0,0,-1,0,205)"
             id="g46"><text
               transform="translate(151,190)"
               id="text48"><tspan
                 x="0"
                 y="0"
                 id="tspan50"
                 style="font-size:10px;font-variant:normal;font-weight:normal;writing-mode:lr-tb;fill:#000000;fill-opacity:1;fill-rule:nonzero;stroke:none;font-family:Courier New;-inkscape-font-specification:Courier">•</tspan></text>
</g><g
             transform="matrix(1,0,0,-1,0,205)"
             id="g52"><text
               transform="translate(151,201)"
               id="text54"><tspan
                 x="0"
                 y="0"
                 id="tspan56"
                 style="font-size:10px;font-variant:normal;font-weight:normal;writing-mode:lr-tb;fill:#000000;fill-opacity:1;fill-rule:nonzero;stroke:none;font-family:Courier New;-inkscape-font-specification:Courier">•</tspan></text>
</g><g
             transform="matrix(1,0,0,-1,0,205)"
             id="g58"><text
               transform="translate(79,61)"
               id="text60"><tspan
                 x="0 6.0009999 12.002 18.003 24.004 30.004999 36.006001 42.007 48.007999 54.008999 60.009998 66.011002 72.012001 78.013 84.014 90.014999 96.015999 102.017 108.018 114.019 120.02 126.021 132.022 138.02299 144.024 150.02499 156.026 162.02699 168.028 174.02901 180.03 186.03101 192.032 198.033 204.034 210.035"
                 y="0"
                 id="tspan62"
                 style="font-size:10px;font-variant:normal;font-weight:normal;writing-mode:lr-tb;fill:#000000;fill-opacity:1;fill-rule:nonzero;stroke:none;font-family:Courier New;-inkscape-font-specification:Courier">:-brother_of(paul,Z),brother_of(Z,B)</tspan></text>
</g><g
             transform="matrix(1,0,0,-1,0,205)"
             id="g64"><text
               transform="translate(42,61)"
               id="text66"><tspan
                 x="-1"
                 y="2"
                 id="tspan68"
                 style="font-size:20px;font-variant:normal;font-weight:normal;writing-mode:lr-tb;fill:#000000;fill-opacity:1;fill-rule:nonzero;stroke:none;font-family:Geneva;-inkscape-font-specification:Geneva">&#x25A1;</tspan></text>
</g><g
             transform="matrix(1,0,0,-1,0,205)"
             id="g70"><text
               transform="translate(60,10)"
               id="text72"><tspan
                 x="0 6.0009999 12.002 18.003 24.004 30.004999 36.006001 42.007 48.007999 54.008999 60.009998 66.011002 72.012001 78.013 84.014 90.014999 96.015999 102.017 108.018 114.019"
                 y="0"
                 id="tspan74"
                 style="font-size:10px;font-variant:normal;font-weight:normal;writing-mode:lr-tb;fill:#000000;fill-opacity:1;fill-rule:nonzero;stroke:none;font-family:Courier New;-inkscape-font-specification:Courier">?-brother_of(paul,B)</tspan></text>
</g><path
             d="m 78,190 0.25,0 0,-0.25 -34,-35 -0.25,0 0,0.25"
             id="path76"
             style="fill:#000000;fill-opacity:1;fill-rule:nonzero;stroke:none" /><path
             d="m 157,190 0.25,0 34,-35 0,-0.25 -0.25,0 -34,35"
             id="path78"
             style="fill:#000000;fill-opacity:1;fill-rule:nonzero;stroke:none" /><g
             transform="matrix(1,0,0,-1,0,205)"
             id="g80"><text
               transform="translate(161,112)"
               id="text82"><tspan
                 x="0 6 12 18 24 30 36 42 48 54 60 66 72 78 84 90 96 102 108 114 120 126 132 138 144 150 156 162 168 174 180 186 192 198 204 210 216 222 228 234 240 246 252 258 264 270 276 282 288 294 300 306 312 318"
                 y="0"
                 id="tspan84"
                 style="font-size:10px;font-variant:normal;font-weight:normal;writing-mode:lr-tb;fill:#000000;fill-opacity:1;fill-rule:nonzero;stroke:none;font-family:Courier New;-inkscape-font-specification:Courier">:-brother_of(paul,Z1),brother_of(Z1,Z),brother_of(Z,B)</tspan></text>
</g><path
             d="m 129,139 0.25,0 0,-0.25 -34,-35 -0.25,0 0,0.25"
             id="path86"
             style="fill:#000000;fill-opacity:1;fill-rule:nonzero;stroke:none" /><path
             d="m 208,139 0.25,0 34,-35 0,-0.25 -0.25,0 -34,35"
             id="path88"
             style="fill:#000000;fill-opacity:1;fill-rule:nonzero;stroke:none" /><g
             transform="matrix(1,0,0,-1,0,205)"
             id="g90"><text
               transform="translate(11,112)"
               id="text92"><tspan
                 x="0 6.0009999 12.002 18.003 24.004 30.004999 36.006001 42.007 48.007999 54.008999 60.009998 66.011002 72.012001 78.013 84.014 90.014999 96.015999 102.017 108.018 114.019 120.02"
                 y="0"
                 id="tspan94"
                 style="font-size:10px;font-variant:normal;font-weight:normal;writing-mode:lr-tb;fill:#000000;fill-opacity:1;fill-rule:nonzero;stroke:none;font-family:Courier New;-inkscape-font-specification:Courier">:-brother_of(peter,B)</tspan></text>
</g><g
             transform="matrix(1,0,0,-1,0,205)"
             id="g96"><text
               transform="translate(36,163)"
               id="text98"><tspan
                 x="0 6.0009999 12.002 18.003 24.004 30.004999 36.006001 42.007 48.007999 54.008999 60.009998 66.011002 72.012001 78.013 84.014 90.014999 96.015999 102.017 108.018 114.019 120.02 126.021 132.022 138.02299 144.024 150.02499 156.026 162.02699 168.028 174.02901 180.03 186.03101 192.032 198.033 204.034 210.035 216.036"
                 y="0"
                 id="tspan100"
                 style="font-size:10px;font-variant:normal;font-weight:normal;writing-mode:lr-tb;fill:#000000;fill-opacity:1;fill-rule:nonzero;stroke:none;font-family:Courier New;-inkscape-font-specification:Courier">:-brother_of(peter,Z),brother_of(Z,B)</tspan></text>
</g><g
             transform="matrix(1,0,0,-1,0,205)"
             id="g102"><text
               transform="translate(2,163)"
               id="text104"><tspan
                 x="-1"
                 y="2"
                 id="tspan106"
                 style="font-size:20px;font-variant:normal;font-weight:normal;writing-mode:lr-tb;fill:#000000;fill-opacity:1;fill-rule:nonzero;stroke:none;font-family:Geneva;-inkscape-font-specification:Geneva">&#x25A1;</tspan></text>
</g><path
             d="m 38,88 0.25,0 0,-0.25 -34,-35 -0.25,0 0,0.25"
             id="path108"
             style="fill:#000000;fill-opacity:1;fill-rule:nonzero;stroke:none" /><path
             d="m 118,88 0.25,0 34,-35 0,-0.25 -0.25,0 -34,35"
             id="path110"
             style="fill:#000000;fill-opacity:1;fill-rule:nonzero;stroke:none" /><g
             transform="matrix(1,0,0,-1,0,205)"
             id="g112"><text
               transform="translate(304,128)"
               id="text114"><tspan
                 x="0"
                 y="0"
                 id="tspan116"
                 style="font-size:10px;font-variant:normal;font-weight:normal;writing-mode:lr-tb;fill:#000000;fill-opacity:1;fill-rule:nonzero;stroke:none;font-family:Courier New;-inkscape-font-specification:Courier">•</tspan></text>
</g><g
             transform="matrix(1,0,0,-1,0,205)"
             id="g118"><text
               transform="translate(304,139)"
               id="text120"><tspan
                 x="0"
                 y="0"
                 id="tspan122"
                 style="font-size:10px;font-variant:normal;font-weight:normal;writing-mode:lr-tb;fill:#000000;fill-opacity:1;fill-rule:nonzero;stroke:none;font-family:Courier New;-inkscape-font-specification:Courier">•</tspan></text>
</g><g
             transform="matrix(1,0,0,-1,0,205)"
             id="g124"><text
               transform="translate(304,150)"
               id="text126"><tspan
                 x="0"
                 y="0"
                 id="tspan128"
                 style="font-size:10px;font-variant:normal;font-weight:normal;writing-mode:lr-tb;fill:#000000;fill-opacity:1;fill-rule:nonzero;stroke:none;font-family:Courier New;-inkscape-font-specification:Courier">•</tspan></text>
</g></g></g></g></g></svg>
