<?xml version="1.0" encoding="UTF-8" standalone="no"?>
<!-- Created with Inkscape (http://www.inkscape.org/) -->

<svg
   xmlns:svg="http://www.w3.org/2000/svg"
   xmlns="http://www.w3.org/2000/svg"
   version="1.1"
   width="635"
   height="217.5"
   id="svg2"
   xml:space="preserve"><defs
     id="defs6"><clipPath
       id="clipPath20"><path
         d="M 0,0 508,0 508,174 0,174 0,0 z"
         id="path22" /></clipPath><clipPath
       id="clipPath30"><path
         d="m 0,174 508,0 0,-174.000002567482 -508,0 L 0,174 z"
         id="path32" /></clipPath><clipPath
       id="clipPath36"><path
         d="M 0,0 508,0 508,174 0,174 0,0 z"
         id="path38" /></clipPath></defs><g
     transform="matrix(1.25,0,0,-1.25,0,217.5)"
     id="g12"><g
       id="g14" /><g
       id="g16"><g
         clip-path="url(#clipPath20)"
         id="g18"><path
           d="M 0,174 508,174 508,0 0,0 0,174 z"
           id="path24"
           style="fill:#ffffff;fill-opacity:0;fill-rule:evenodd;stroke:none" /></g></g><g
       id="g26"><g
         clip-path="url(#clipPath30)"
         id="g28"><g
           clip-path="url(#clipPath36)"
           id="g34"><g
             transform="matrix(1,0,0,-1,0,174)"
             id="g40"><text
               transform="translate(218,11)"
               id="text42"><tspan
                 x="0 6.9815998 13.9632 20.944799 27.926399 34.908001 41.889599 48.871201 55.852798 62.8344 69.816002 76.7976"
                 y="0"
                 id="tspan44"
                 style="font-size:12px;font-variant:normal;font-weight:normal;writing-mode:lr-tb;fill:#000000;fill-opacity:1;fill-rule:nonzero;stroke:none;font-family:Courier New;-inkscape-font-specification:Courier">element(X,Y)</tspan></text>
</g><g
             transform="matrix(1,0,0,-1,0,174)"
             id="g46"><text
               transform="translate(90,101)"
               id="text48"><tspan
                 x="0 6.9864001 13.9728 20.9592 27.945601 34.931999 41.9184 48.9048 55.891201 62.877602 69.863998 76.850403 83.8368 90.823196 97.809601 104.796"
                 y="0"
                 id="tspan50"
                 style="font-size:12px;font-variant:normal;font-weight:normal;writing-mode:lr-tb;fill:#000000;fill-opacity:1;fill-rule:nonzero;stroke:none;font-family:Courier New;-inkscape-font-specification:Courier">element(X,[Y|Z])</tspan></text>
</g><g
             transform="matrix(1,0,0,-1,0,174)"
             id="g52"><text
               transform="translate(234,101)"
               id="text54"><tspan
                 x="0 6.9864001 13.9728 20.9592 27.945601 34.931999 41.9184 48.9048 55.891201 62.877602 69.863998 76.850403 83.8368 90.823196 97.809601 104.796"
                 y="0"
                 id="tspan56"
                 style="font-size:12px;font-variant:normal;font-weight:normal;writing-mode:lr-tb;fill:#000000;fill-opacity:1;fill-rule:nonzero;stroke:none;font-family:Courier New;-inkscape-font-specification:Courier">element([X|Y],Z)</tspan></text>
</g><g
             transform="matrix(1,0,0,-1,0,174)"
             id="g58"><text
               transform="translate(2,66)"
               id="text60"><tspan
                 x="0 6.9815998 13.9632 20.944799 27.926399 34.908001 41.889599 48.871201 55.852798 62.8344 69.816002 76.7976"
                 y="0"
                 id="tspan62"
                 style="font-size:12px;font-variant:normal;font-weight:normal;writing-mode:lr-tb;fill:#000000;fill-opacity:1;fill-rule:nonzero;stroke:none;font-family:Courier New;-inkscape-font-specification:Courier">element(X,X)</tspan></text>
</g><g
             transform="matrix(1,0,0,-1,0,174)"
             id="g64"><text
               transform="translate(323,66)"
               id="text66"><tspan
                 x="0 6.9924002 13.9848 20.9772 27.969601 34.962002 41.954399 48.9468 55.939201 62.931599 69.924004 76.916397 83.908798 90.901199 97.8936 104.886 111.8784 118.8708 125.8632 132.85561 139.84801 146.84039 153.83279 160.8252 167.8176 174.81"
                 y="0"
                 id="tspan68"
                 style="font-size:12px;font-variant:normal;font-weight:normal;writing-mode:lr-tb;fill:#000000;fill-opacity:1;fill-rule:nonzero;stroke:none;font-family:Courier New;-inkscape-font-specification:Courier">element(X,Y):-element(Y,X)</tspan></text>
</g><g
             transform="matrix(1,0,0,-1,0,174)"
             id="g70"><text
               transform="translate(25,171)"
               id="text72"><tspan
                 x="0 6.9864001 13.9728 20.9592 27.945601 34.931999 41.9184 48.9048 55.891201 62.877602 69.863998 76.850403 83.8368 90.823196 97.809601 104.796"
                 y="0"
                 id="tspan74"
                 style="font-size:12px;font-variant:normal;font-weight:normal;writing-mode:lr-tb;fill:#000000;fill-opacity:1;fill-rule:nonzero;stroke:none;font-family:Courier New;-inkscape-font-specification:Courier">element(X,[X|Z])</tspan></text>
</g><g
             transform="matrix(1,0,0,-1,0,174)"
             id="g76"><text
               transform="translate(162,171)"
               id="text78"><tspan
                 x="0 6.9935999 13.9872 20.980801 27.9744 34.967999 41.961601 48.9552 55.948799 62.942402 69.935997 76.929604 83.923203 90.916801 97.9104 104.904 111.8976 118.8912 125.8848 132.8784 139.87199 146.8656 153.85921 160.8528 167.84641 174.84 181.8336 188.82719 195.8208 202.81441"
                 y="0"
                 id="tspan80"
                 style="font-size:12px;font-variant:normal;font-weight:normal;writing-mode:lr-tb;fill:#000000;fill-opacity:1;fill-rule:nonzero;stroke:none;font-family:Courier New;-inkscape-font-specification:Courier">element(X,[Y|Z]):-element(X,Z)</tspan></text>
</g><path
             d="m 225,157 0.25,0 0,-0.25 -65,-65 -0.25,0 0,0.25"
             id="path82"
             style="fill:#000000;fill-opacity:1;fill-rule:nonzero;stroke:none" /><g
             transform="matrix(1,0,0,-1,0,174)"
             id="g84"><path
               d="m 261.125,17 0,65.25"
               id="path86"
               style="fill:none;stroke:#000000;stroke-width:0.25;stroke-linecap:butt;stroke-linejoin:miter;stroke-miterlimit:10;stroke-opacity:1;stroke-dasharray:none" /></g><path
             d="m 205,162 0.25,0 0,-0.25 -160,-35 -0.25,0 0,0.25"
             id="path88"
             style="fill:#000000;fill-opacity:1;fill-rule:nonzero;stroke:none" /><path
             d="m 295,157 0.25,0 160,-30 0,-0.25 -0.25,0 -160,30"
             id="path90"
             style="fill:#000000;fill-opacity:1;fill-rule:nonzero;stroke:none" /><path
             d="m 125,67 0.25,0 0,-0.25 -45,-45 -0.25,0 0,0.25"
             id="path92"
             style="fill:#000000;fill-opacity:1;fill-rule:nonzero;stroke:none" /><path
             d="m 182,67 0.25,0 45,-45 0,-0.25 -0.25,0 -45,45"
             id="path94"
             style="fill:#000000;fill-opacity:1;fill-rule:nonzero;stroke:none" /></g></g></g></g></svg>