<?xml version="1.0" encoding="UTF-8" standalone="no"?>
<!-- Created with Inkscape (http://www.inkscape.org/) -->

<svg
   xmlns:svg="http://www.w3.org/2000/svg"
   xmlns="http://www.w3.org/2000/svg"
   version="1.1"
   width="586.25"
   height="416.25"
   id="svg2"
   xml:space="preserve"><defs
     id="defs6"><clipPath
       id="clipPath20"><path
         d="M 0,0 469,0 469,333 0,333 0,0 z"
         id="path22" /></clipPath><clipPath
       id="clipPath30"><path
         d="m 0,333 469,0 0,-333.000004913629 -469,0 L 0,333 z"
         id="path32" /></clipPath><clipPath
       id="clipPath36"><path
         d="M 0,0 469,0 469,333 0,333 0,0 z"
         id="path38" /></clipPath><clipPath
       id="clipPath248"><path
         d="m 0,333 469,0 0,-333.000004913629 -469,0 L 0,333 z"
         id="path250" /></clipPath><clipPath
       id="clipPath254"><path
         d="m 3,24.99999 98,0 0,20 -98,0 0,-20 z"
         id="path256" /></clipPath></defs><g
     transform="matrix(1.25,0,0,-1.25,0,416.25)"
     id="g12"><g
       id="g14" /><g
       id="g16"><g
         clip-path="url(#clipPath20)"
         id="g18"><path
           d="M 0,333 469,333 469,0 0,0 0,333 z"
           id="path24"
           style="fill:#ffffff;fill-opacity:0;fill-rule:evenodd;stroke:none" /></g></g><g
       id="g26"><g
         clip-path="url(#clipPath30)"
         id="g28"><g
           clip-path="url(#clipPath36)"
           id="g34"><path
             d="m 68,259 6,0 135,-135 0,-6 -6,0 -135,135"
             id="path40"
             style="fill:#dfdfdf;fill-opacity:1;fill-rule:nonzero;stroke:none" /><g
             transform="matrix(1,0,0,-1,0,333)"
             id="g42"><path
               d="m 203,211 115,0"
               id="path44"
               style="fill:none;stroke:#dfdfdf;stroke-width:8;stroke-linecap:butt;stroke-linejoin:miter;stroke-miterlimit:10;stroke-opacity:1;stroke-dasharray:none" /></g><g
             transform="matrix(1,0,0,-1,0,333)"
             id="g46"><path
               d="m 71,19 0,62"
               id="path48"
               style="fill:none;stroke:#dfdfdf;stroke-width:8;stroke-linecap:butt;stroke-linejoin:miter;stroke-miterlimit:10;stroke-opacity:1;stroke-dasharray:none" /></g><g
             transform="matrix(1,0,0,-1,0,333)"
             id="g50"><path
               d="m 49,77 377,0"
               id="path52"
               style="fill:none;stroke:#202020;stroke-width:8;stroke-linecap:butt;stroke-linejoin:miter;stroke-miterlimit:10;stroke-opacity:1;stroke-dasharray:none" /></g><g
             transform="matrix(1,0,0,-1,0,333)"
             id="g54"><path
               d="m 314,19 0,233"
               id="path56"
               style="fill:none;stroke:#000000;stroke-width:8;stroke-linecap:butt;stroke-linejoin:miter;stroke-miterlimit:10;stroke-opacity:1;stroke-dasharray:none" /></g><path
             d="m 229,314 6,0 0,-6 -81,-81 -6,0 0,6"
             id="path58"
             style="fill:#bfbfbf;fill-opacity:1;fill-rule:nonzero;stroke:none" /><g
             transform="matrix(1,0,0,-1,0,333)"
             id="g60"><path
               d="m 152,100 0,152"
               id="path62"
               style="fill:none;stroke:#bfbfbf;stroke-width:8;stroke-linecap:butt;stroke-linejoin:miter;stroke-miterlimit:10;stroke-opacity:1;stroke-dasharray:none" /></g><path
             d="m 176,259 6,0 164,-165.00001 0,-6 -6,0 L 176,253"
             id="path64"
             style="fill:#404040;fill-opacity:1;fill-rule:nonzero;stroke:none" /><g
             transform="matrix(1,0,0,-1,0,333)"
             id="g66"><path
               d="m 179,19 0,62"
               id="path68"
               style="fill:none;stroke:#404040;stroke-width:8;stroke-linecap:butt;stroke-linejoin:miter;stroke-miterlimit:10;stroke-opacity:1;stroke-dasharray:none" /></g><g
             transform="matrix(1,0,0,-1,0,333)"
             id="g70"><path
               d="m 94,158 278,0"
               id="path72"
               style="fill:none;stroke:#808080;stroke-width:8;stroke-linecap:butt;stroke-linejoin:miter;stroke-miterlimit:10;stroke-opacity:1;stroke-dasharray:none" /></g><path
             d="m 94,179 6,0 0,-6 -45,-45 -6,0 0,6"
             id="path74"
             style="fill:#808080;fill-opacity:1;fill-rule:nonzero;stroke:none" /><path
             d="m 411,222 6,0 0,-6 -45,-45 -6,0 0,6"
             id="path76"
             style="fill:#808080;fill-opacity:1;fill-rule:nonzero;stroke:none" /><path
             d="m 78,256.5 c 0,-4.1421 -3.35786,-7.5 -7.5,-7.5 -4.14214,0 -7.5,3.3579 -7.5,7.5 0,4.1422 3.35786,7.5 7.5,7.5 4.14214,0 7.5,-3.3578 7.5,-7.5"
             id="path78"
             style="fill:#ffffff;fill-opacity:1;fill-rule:evenodd;stroke:none" /><g
             transform="matrix(1,0,0,-1,0,333)"
             id="g80"><path
               d="M 78,76.5 C 78,80.64214 74.64214,84 70.5,84 66.35786,84 63,80.64214 63,76.5 63,72.35785 66.35786,69 70.5,69 c 4.14214,0 7.5,3.35785 7.5,7.5 z"
               id="path82"
               style="fill:none;stroke:#000000;stroke-width:4;stroke-linecap:butt;stroke-linejoin:miter;stroke-miterlimit:10;stroke-opacity:1;stroke-dasharray:none" /></g><path
             d="m 186,256.5 c 0,-4.1421 -3.3579,-7.5 -7.5,-7.5 -4.1421,0 -7.5,3.3579 -7.5,7.5 0,4.1422 3.3579,7.5 7.5,7.5 4.1421,0 7.5,-3.3578 7.5,-7.5"
             id="path84"
             style="fill:#ffffff;fill-opacity:1;fill-rule:evenodd;stroke:none" /><g
             transform="matrix(1,0,0,-1,0,333)"
             id="g86"><path
               d="m 186,76.5 c 0,4.14214 -3.3579,7.5 -7.5,7.5 -4.1421,0 -7.5,-3.35786 -7.5,-7.5 0,-4.14215 3.3579,-7.5 7.5,-7.5 4.1421,0 7.5,3.35785 7.5,7.5 z"
               id="path88"
               style="fill:none;stroke:#000000;stroke-width:4;stroke-linecap:butt;stroke-linejoin:miter;stroke-miterlimit:10;stroke-opacity:1;stroke-dasharray:none" /></g><path
             d="m 322,256.5 c 0,-4.1421 -3.3578,-7.5 -7.5,-7.5 -4.1422,0 -7.5,3.3579 -7.5,7.5 0,4.1422 3.3578,7.5 7.5,7.5 4.1422,0 7.5,-3.3578 7.5,-7.5"
             id="path90"
             style="fill:#ffffff;fill-opacity:1;fill-rule:evenodd;stroke:none" /><g
             transform="matrix(1,0,0,-1,0,333)"
             id="g92"><path
               d="m 322,76.5 c 0,4.14214 -3.3578,7.5 -7.5,7.5 -4.1422,0 -7.5,-3.35786 -7.5,-7.5 0,-4.14215 3.3578,-7.5 7.5,-7.5 4.1422,0 7.5,3.35785 7.5,7.5 z"
               id="path94"
               style="fill:none;stroke:#000000;stroke-width:4;stroke-linecap:butt;stroke-linejoin:miter;stroke-miterlimit:10;stroke-opacity:1;stroke-dasharray:none" /></g><path
             d="m 160,175.5 c 0,-4.1421 -3.3579,-7.5 -7.5,-7.5 -4.1421,0 -7.5,3.3579 -7.5,7.5 0,4.1421 3.3579,7.5 7.5,7.5 4.1421,0 7.5,-3.3579 7.5,-7.5"
             id="path96"
             style="fill:#ffffff;fill-opacity:1;fill-rule:evenodd;stroke:none" /><g
             transform="matrix(1,0,0,-1,0,333)"
             id="g98"><path
               d="m 160,157.5 c 0,4.1421 -3.3579,7.5 -7.5,7.5 -4.1421,0 -7.5,-3.3579 -7.5,-7.5 0,-4.1421 3.3579,-7.5 7.5,-7.5 4.1421,0 7.5,3.3579 7.5,7.5 z"
               id="path100"
               style="fill:none;stroke:#000000;stroke-width:4;stroke-linecap:butt;stroke-linejoin:miter;stroke-miterlimit:10;stroke-opacity:1;stroke-dasharray:none" /></g><path
             d="m 322,122.5 c 0,-4.1421 -3.3578,-7.5 -7.5,-7.5 -4.1422,0 -7.5,3.3579 -7.5,7.5 0,4.1421 3.3578,7.5 7.5,7.5 4.1422,0 7.5,-3.3579 7.5,-7.5"
             id="path102"
             style="fill:#ffffff;fill-opacity:1;fill-rule:evenodd;stroke:none" /><g
             transform="matrix(1,0,0,-1,0,333)"
             id="g104"><path
               d="m 322,210.5 c 0,4.1421 -3.3578,7.5 -7.5,7.5 -4.1422,0 -7.5,-3.3579 -7.5,-7.5 0,-4.1421 3.3578,-7.5 7.5,-7.5 4.1422,0 7.5,3.3579 7.5,7.5 z"
               id="path106"
               style="fill:none;stroke:#000000;stroke-width:4;stroke-linecap:butt;stroke-linejoin:miter;stroke-miterlimit:10;stroke-opacity:1;stroke-dasharray:none" /></g><path
             d="m 322,175.5 c 0,-4.1421 -3.3578,-7.5 -7.5,-7.5 -4.1422,0 -7.5,3.3579 -7.5,7.5 0,4.1421 3.3578,7.5 7.5,7.5 4.1422,0 7.5,-3.3579 7.5,-7.5"
             id="path108"
             style="fill:#ffffff;fill-opacity:1;fill-rule:evenodd;stroke:none" /><g
             transform="matrix(1,0,0,-1,0,333)"
             id="g110"><path
               d="m 322,157.5 c 0,4.1421 -3.3578,7.5 -7.5,7.5 -4.1422,0 -7.5,-3.3579 -7.5,-7.5 0,-4.1421 3.3578,-7.5 7.5,-7.5 4.1422,0 7.5,3.3579 7.5,7.5 z"
               id="path112"
               style="fill:none;stroke:#000000;stroke-width:4;stroke-linecap:butt;stroke-linejoin:miter;stroke-miterlimit:10;stroke-opacity:1;stroke-dasharray:none" /></g><path
             d="m 268,175.5 c 0,-4.1421 -3.3578,-7.5 -7.5,-7.5 -4.1422,0 -7.5,3.3579 -7.5,7.5 0,4.1421 3.3578,7.5 7.5,7.5 4.1422,0 7.5,-3.3579 7.5,-7.5"
             id="path114"
             style="fill:#ffffff;fill-opacity:1;fill-rule:evenodd;stroke:none" /><g
             transform="matrix(1,0,0,-1,0,333)"
             id="g116"><path
               d="m 268,157.5 c 0,4.1421 -3.3578,7.5 -7.5,7.5 -4.1422,0 -7.5,-3.3579 -7.5,-7.5 0,-4.1421 3.3578,-7.5 7.5,-7.5 4.1422,0 7.5,3.3579 7.5,7.5 z"
               id="path118"
               style="fill:none;stroke:#000000;stroke-width:4;stroke-linecap:butt;stroke-linejoin:miter;stroke-miterlimit:10;stroke-opacity:1;stroke-dasharray:none" /></g><g
             transform="matrix(1,0,0,-1,0,333)"
             id="g120"><text
               transform="translate(44.97461,95)"
               id="text122"><tspan
                 x="0 8.0039997 14.6784 21.3528"
                 y="0"
                 id="tspan124"
                 style="font-size:12px;font-variant:normal;font-weight:normal;writing-mode:lr-tb;fill:#000000;fill-opacity:1;fill-rule:nonzero;stroke:none;font-family:Helvetica;-inkscape-font-specification:Helvetica">Bond</tspan></text>
</g><g
             transform="matrix(1,0,0,-1,0,333)"
             id="g126"><text
               transform="translate(40,109)"
               id="text128"><tspan
                 x="0 8.0039997 11.3376 15.3336 22.007999 28.6824"
                 y="0"
                 id="tspan130"
                 style="font-size:12px;font-variant:normal;font-weight:normal;writing-mode:lr-tb;fill:#000000;fill-opacity:1;fill-rule:nonzero;stroke:none;font-family:Helvetica;-inkscape-font-specification:Helvetica">Street</tspan></text>
</g><g
             transform="matrix(1,0,0,-1,0,333)"
             id="g132"><text
               transform="translate(109,174)"
               id="text134"><tspan
                 x="0 9.2460003 13.152 19.733999 26.316"
                 y="0"
                 id="tspan136"
                 style="font-size:12px;font-variant:normal;font-weight:normal;writing-mode:lr-tb;fill:#000000;fill-opacity:1;fill-rule:nonzero;stroke:none;font-family:Helvetica;-inkscape-font-specification:Helvetica">Green</tspan></text>
</g><g
             transform="matrix(1,0,0,-1,0,333)"
             id="g138"><text
               transform="translate(118,188)"
               id="text140"><tspan
                 x="0 7.1124001 12.892799 15.9972"
                 y="0"
                 id="tspan142"
                 style="font-size:12px;font-variant:normal;font-weight:normal;writing-mode:lr-tb;fill:#000000;fill-opacity:1;fill-rule:nonzero;stroke:none;font-family:Helvetica;-inkscape-font-specification:Helvetica">Park</tspan></text>
</g><g
             transform="matrix(1,0,0,-1,0,333)"
             id="g144"><text
               transform="translate(135,50)"
               id="text146"><tspan
                 x="0 9.3336 15.3336 18.6672 25.3416 29.337601"
                 y="0"
                 id="tspan148"
                 style="font-size:12px;font-variant:normal;font-weight:normal;writing-mode:lr-tb;fill:#000000;fill-opacity:1;fill-rule:nonzero;stroke:none;font-family:Helvetica;-inkscape-font-specification:Helvetica">Oxford</tspan></text>
</g><g
             transform="matrix(1,0,0,-1,0,333)"
             id="g150"><text
               transform="translate(136,64)"
               id="text152"><tspan
                 x="0 8.2656002 10.5312 14.1288 19.7304 26.004"
                 y="0"
                 id="tspan154"
                 style="font-size:12px;font-variant:normal;font-weight:normal;writing-mode:lr-tb;fill:#000000;fill-opacity:1;fill-rule:nonzero;stroke:none;font-family:Helvetica;-inkscape-font-specification:Helvetica">Circus</tspan></text>
</g><g
             transform="matrix(1,0,0,-1,0,333)"
             id="g156"><text
               transform="translate(204,174)"
               id="text158"><tspan
                 x="0 7.5576 9.7751999 15.3288 20.882401 27.108 33.333599 35.551201 37.768799 39.986401"
                 y="0"
                 id="tspan160"
                 style="font-size:12px;font-variant:normal;font-weight:normal;writing-mode:lr-tb;fill:#000000;fill-opacity:1;fill-rule:nonzero;stroke:none;font-family:Helvetica;-inkscape-font-specification:Helvetica">Piccadilly</tspan></text>
</g><g
             transform="matrix(1,0,0,-1,0,333)"
             id="g162"><text
               transform="translate(221,188)"
               id="text164"><tspan
                 x="0 8.2656002 10.5312 14.1288 19.7304 26.004"
                 y="0"
                 id="tspan166"
                 style="font-size:12px;font-variant:normal;font-weight:normal;writing-mode:lr-tb;fill:#000000;fill-opacity:1;fill-rule:nonzero;stroke:none;font-family:Helvetica;-inkscape-font-specification:Helvetica">Circus</tspan></text>
</g><g
             transform="matrix(1,0,0,-1,0,333)"
             id="g168"><text
               transform="translate(265,229)"
               id="text170"><tspan
                 x="0 8.3291998 14.6664 21.003599 24.664801 26.993999 33.3312"
                 y="0"
                 id="tspan172"
                 style="font-size:12px;font-variant:normal;font-weight:normal;writing-mode:lr-tb;fill:#000000;fill-opacity:1;fill-rule:nonzero;stroke:none;font-family:Helvetica;-inkscape-font-specification:Helvetica">Charing</tspan></text>
</g><g
             transform="matrix(1,0,0,-1,0,333)"
             id="g174"><text
               transform="translate(277.6641,243)"
               id="text176"><tspan
                 x="0 8.6664 12.6624 19.3368 25.3368"
                 y="0"
                 id="tspan178"
                 style="font-size:12px;font-variant:normal;font-weight:normal;writing-mode:lr-tb;fill:#000000;fill-opacity:1;fill-rule:nonzero;stroke:none;font-family:Helvetica;-inkscape-font-specification:Helvetica">Cross</tspan></text>
</g><g
             transform="matrix(1,0,0,-1,0,333)"
             id="g180"><text
               transform="translate(326,176)"
               id="text182"><tspan
                 x="0 6.4619999 12.924 15.378 21.167999 27.629999 33.419998 36.546001 43.007999"
                 y="0"
                 id="tspan184"
                 style="font-size:12px;font-variant:normal;font-weight:normal;writing-mode:lr-tb;fill:#000000;fill-opacity:1;fill-rule:nonzero;stroke:none;font-family:Helvetica;-inkscape-font-specification:Helvetica">Leicester</tspan></text>
</g><g
             transform="matrix(1,0,0,-1,0,333)"
             id="g186"><text
               transform="translate(326,190)"
               id="text188"><tspan
                 x="0 7.8648 14.3976 20.930401 27.4632 31.32"
                 y="0"
                 id="tspan190"
                 style="font-size:12px;font-variant:normal;font-weight:normal;writing-mode:lr-tb;fill:#000000;fill-opacity:1;fill-rule:nonzero;stroke:none;font-family:Helvetica;-inkscape-font-specification:Helvetica">Square</tspan></text>
</g><g
             transform="matrix(1,0,0,-1,0,333)"
             id="g192"><text
               transform="translate(249,95)"
               id="text194"><tspan
                 x="0 7.0344 13.4088 16.447201 19.4856 25.860001 32.234402 38.608799 44.9832"
                 y="0"
                 id="tspan196"
                 style="font-size:12px;font-variant:normal;font-weight:normal;writing-mode:lr-tb;fill:#000000;fill-opacity:1;fill-rule:nonzero;stroke:none;font-family:Helvetica;-inkscape-font-specification:Helvetica">Tottenham</tspan></text>
</g><g
             transform="matrix(1,0,0,-1,0,333)"
             id="g198"><text
               transform="translate(245,109)"
               id="text200"><tspan
                 x="0 8.6255999 15.2592 21.892799 25.850401 29.148001 32.445599 41.071201 47.7048 54.338402"
                 y="0"
                 id="tspan202"
                 style="font-size:12px;font-variant:normal;font-weight:normal;writing-mode:lr-tb;fill:#000000;fill-opacity:1;fill-rule:nonzero;stroke:none;font-family:Helvetica;-inkscape-font-specification:Helvetica">Court Road</tspan></text>
</g><g
             transform="matrix(1,0,0,-1,0,333)"
             id="g204"><text
               transform="translate(47,11)"
               id="text206"><tspan
                 x="0 6 14.6664 22.670401 26.004 32.678398 40.6824"
                 y="0"
                 id="tspan208"
                 style="font-size:12px;font-variant:normal;font-weight:normal;writing-mode:lr-tb;fill:#000000;fill-opacity:1;fill-rule:nonzero;stroke:none;font-family:Helvetica;-inkscape-font-specification:Helvetica">JUBILEE</tspan></text>
</g><g
             transform="matrix(1,0,0,-1,0,333)"
             id="g210"><text
               transform="translate(151,11)"
               id="text212"><tspan
                 x="0 8.0039997 16.007999 24.011999 32.015999 40.6824 47.3568 56.690399"
                 y="0"
                 id="tspan214"
                 style="font-size:12px;font-variant:normal;font-weight:normal;writing-mode:lr-tb;fill:#000000;fill-opacity:1;fill-rule:nonzero;stroke:none;font-family:Helvetica;-inkscape-font-specification:Helvetica">BAKERLOO</tspan></text>
</g><g
             transform="matrix(1,0,0,-1,0,333)"
             id="g216"><text
               transform="translate(282,11)"
               id="text218"><tspan
                 x="0 8.6664 18 26.666401 33.995998 42.662399 50.666401 59.332802"
                 y="0"
                 id="tspan220"
                 style="font-size:12px;font-variant:normal;font-weight:normal;writing-mode:lr-tb;fill:#000000;fill-opacity:1;fill-rule:nonzero;stroke:none;font-family:Helvetica;-inkscape-font-specification:Helvetica">NORTHERN</tspan></text>
</g><g
             transform="matrix(1,0,0,-1,0,333)"
             id="g222"><text
               transform="translate(392,64)"
               id="text224"><tspan
                 x="0 8.6664 16.670401 25.3368 32.666401 41.332802 49.3368"
                 y="0"
                 id="tspan226"
                 style="font-size:12px;font-variant:normal;font-weight:normal;writing-mode:lr-tb;fill:#000000;fill-opacity:1;fill-rule:nonzero;stroke:none;font-family:Helvetica;-inkscape-font-specification:Helvetica">CENTRAL</tspan></text>
</g><g
             transform="matrix(1,0,0,-1,0,333)"
             id="g228"><text
               transform="translate(394,163)"
               id="text230"><tspan
                 x="0 8.0039997 11.3376 20.004 28.670401 36.6744 45.340801 48.6744 55.348801 62.023201"
                 y="0"
                 id="tspan232"
                 style="font-size:12px;font-variant:normal;font-weight:normal;writing-mode:lr-tb;fill:#000000;fill-opacity:1;fill-rule:nonzero;stroke:none;font-family:Helvetica;-inkscape-font-specification:Helvetica">PICCADILLY</tspan></text>
</g><g
             transform="matrix(1,0,0,-1,0,333)"
             id="g234"><text
               transform="translate(130,271)"
               id="text236"><tspan
                 x="0 8.0039997 11.3376 20.004 27.333599 36.667198 45.333599 48.667198"
                 y="0"
                 id="tspan238"
                 style="font-size:12px;font-variant:normal;font-weight:normal;writing-mode:lr-tb;fill:#000000;fill-opacity:1;fill-rule:nonzero;stroke:none;font-family:Helvetica;-inkscape-font-specification:Helvetica">VICTORIA</tspan></text>
</g><g
             transform="matrix(1,0,0,-1,0,333)"
             id="g240"><path
               d="M 84,296.5 C 84,313.897 69.89697,328 52.5,328 35.10303,328 21,313.897 21,296.5 21,279.103 35.10303,265 52.5,265 69.89697,265 84,279.103 84,296.5 z"
               id="path242"
               style="fill:none;stroke:#000000;stroke-width:8;stroke-linecap:butt;stroke-linejoin:miter;stroke-miterlimit:10;stroke-opacity:1;stroke-dasharray:none" /></g></g></g></g><g
       id="g244"><g
         clip-path="url(#clipPath248)"
         id="g246"><g
           clip-path="url(#clipPath254)"
           id="g252"><path
             d="m 4,44 96,0 0,-16.00001 -96,0 L 4,44 z"
             id="path258"
             style="fill:#000000;fill-opacity:1;fill-rule:nonzero;stroke:none" /><g
             transform="matrix(1,0,0,-1,0,333)"
             id="g260"><path
               d="m 4.5,289.5 95,0 0,15 -95,0 0,-15 z"
               id="path262"
               style="fill:none;stroke:#000000;stroke-width:1;stroke-linecap:butt;stroke-linejoin:miter;stroke-miterlimit:10;stroke-opacity:1;stroke-dasharray:none" /></g><g
             transform="matrix(1,0,0,-1,0,333)"
             id="g264"><text
               transform="translate(12.5,301)"
               id="text266"><tspan
                 x="0 7.2220001 14.444 21.666 28.336 35.557999 43.335999 50.557999 58.335999 65.557999 72.779999"
                 y="0"
                 id="tspan268"
                 style="font-size:10px;font-variant:normal;font-weight:bold;writing-mode:lr-tb;fill:#ffffff;fill-opacity:1;fill-rule:nonzero;stroke:none;font-family:Helvetica;-inkscape-font-specification:Helvetica-Bold">UNDERGROUND</tspan></text>
</g></g></g></g></g></svg>