<?xml version="1.0" encoding="UTF-8" standalone="no"?>
<!-- Created with Inkscape (http://www.inkscape.org/) -->

<svg
   xmlns:svg="http://www.w3.org/2000/svg"
   xmlns="http://www.w3.org/2000/svg"
   version="1.1"
   width="628.75"
   height="276.25"
   id="svg2"
   xml:space="preserve"><defs
     id="defs6"><clipPath
       id="clipPath20"><path
         d="M 0,0 503,0 503,221 0,221 0,0 z"
         id="path22" /></clipPath><clipPath
       id="clipPath30"><path
         d="m 0,221 503,0 0,-221.000003260997 -503,0 L 0,221 z"
         id="path32" /></clipPath><clipPath
       id="clipPath36"><path
         d="M 0,0 503,0 503,221 0,221 0,0 z"
         id="path38" /></clipPath></defs><g
     transform="matrix(1.25,0,0,-1.25,0,276.25)"
     id="g12"><g
       id="g14" /><g
       id="g16"><g
         clip-path="url(#clipPath20)"
         id="g18"><path
           d="M 0,221 503,221 503,0 0,0 0,221 z"
           id="path24"
           style="fill:#ffffff;fill-opacity:0;fill-rule:evenodd;stroke:none" /></g></g><g
       id="g26"><g
         clip-path="url(#clipPath30)"
         id="g28"><g
           clip-path="url(#clipPath36)"
           id="g34"><g
             transform="matrix(1,0,0,-1,0,221)"
             id="g40"><text
               transform="translate(219,11)"
               id="text42"><tspan
                 x="0 6.9707999 13.9416 20.912399 27.8832 34.854 41.824799 48.795601"
                 y="0"
                 id="tspan44"
                 style="font-size:12px;font-variant:normal;font-weight:normal;writing-mode:lr-tb;fill:#000000;fill-opacity:1;fill-rule:nonzero;stroke:none;font-family:Courier New;-inkscape-font-specification:Courier">sentence</tspan></text>
</g><g
             transform="matrix(1,0,0,-1,0,221)"
             id="g46"><text
               transform="translate(66,56)"
               id="text48"><tspan
                 x="0 6.9804001 13.9608 20.9412 27.9216 34.902 41.882401 48.862801 55.843201 62.823601 69.804001"
                 y="0"
                 id="tspan50"
                 style="font-size:12px;font-variant:normal;font-weight:normal;writing-mode:lr-tb;fill:#000000;fill-opacity:1;fill-rule:nonzero;stroke:none;font-family:Courier New;-inkscape-font-specification:Courier">noun_phrase</tspan></text>
</g><g
             transform="matrix(1,0,0,-1,0,221)"
             id="g52"><text
               transform="translate(336,56)"
               id="text54"><tspan
                 x="0 6.9804001 13.9608 20.9412 27.9216 34.902 41.882401 48.862801 55.843201 62.823601 69.804001"
                 y="0"
                 id="tspan56"
                 style="font-size:12px;font-variant:normal;font-weight:normal;writing-mode:lr-tb;fill:#000000;fill-opacity:1;fill-rule:nonzero;stroke:none;font-family:Courier New;-inkscape-font-specification:Courier">verb_phrase</tspan></text>
</g><g
             transform="matrix(1,0,0,-1,0,221)"
             id="g58"><text
               transform="translate(2,110)"
               id="text60"><tspan
                 x="0 6.9660001 13.932 20.898001 27.864 34.830002 41.796001"
                 y="0"
                 id="tspan62"
                 style="font-size:12px;font-variant:normal;font-weight:normal;writing-mode:lr-tb;fill:#000000;fill-opacity:1;fill-rule:nonzero;stroke:none;font-family:Courier New;-inkscape-font-specification:Courier">article</tspan></text>
</g><g
             transform="matrix(1,0,0,-1,0,221)"
             id="g64"><text
               transform="translate(74,110)"
               id="text66"><tspan
                 x="0 6.9744 13.9488 20.923201 27.8976 34.872002 41.846401 48.820801 55.7952"
                 y="0"
                 id="tspan68"
                 style="font-size:12px;font-variant:normal;font-weight:normal;writing-mode:lr-tb;fill:#000000;fill-opacity:1;fill-rule:nonzero;stroke:none;font-family:Courier New;-inkscape-font-specification:Courier">adjective</tspan></text>
</g><g
             transform="matrix(1,0,0,-1,0,221)"
             id="g70"><text
               transform="translate(174,110)"
               id="text72"><tspan
                 x="0 6.9324002 13.8648 20.797199"
                 y="0"
                 id="tspan74"
                 style="font-size:12px;font-variant:normal;font-weight:normal;writing-mode:lr-tb;fill:#000000;fill-opacity:1;fill-rule:nonzero;stroke:none;font-family:Courier New;-inkscape-font-specification:Courier">noun</tspan></text>
</g><g
             transform="matrix(1,0,0,-1,0,221)"
             id="g76"><text
               transform="translate(255,110)"
               id="text78"><tspan
                 x="0 6.9851999 13.9704 20.955601 27.9408 34.925999 41.911201 48.8964 55.881599 62.866798 69.851997 76.837196 83.822403 90.807602 97.792801"
                 y="0"
                 id="tspan80"
                 style="font-size:12px;font-variant:normal;font-weight:normal;writing-mode:lr-tb;fill:#000000;fill-opacity:1;fill-rule:nonzero;stroke:none;font-family:Courier New;-inkscape-font-specification:Courier">transitive_verb</tspan></text>
</g><g
             transform="matrix(1,0,0,-1,0,221)"
             id="g82"><text
               transform="translate(418,110)"
               id="text84"><tspan
                 x="0 6.9804001 13.9608 20.9412 27.9216 34.902 41.882401 48.862801 55.843201 62.823601 69.804001"
                 y="0"
                 id="tspan86"
                 style="font-size:12px;font-variant:normal;font-weight:normal;writing-mode:lr-tb;fill:#000000;fill-opacity:1;fill-rule:nonzero;stroke:none;font-family:Courier New;-inkscape-font-specification:Courier">noun_phrase</tspan></text>
</g><g
             transform="matrix(1,0,0,-1,0,221)"
             id="g88"><text
               transform="translate(423,164)"
               id="text90"><tspan
                 x="0 6.9804001 13.9608 20.9412 27.9216 34.902 41.882401 48.862801 55.843201 62.823601 69.804001"
                 y="0"
                 id="tspan92"
                 style="font-size:12px;font-variant:normal;font-weight:normal;writing-mode:lr-tb;fill:#000000;fill-opacity:1;fill-rule:nonzero;stroke:none;font-family:Courier New;-inkscape-font-specification:Courier">proper_noun</tspan></text>
</g><path
             d="m 208,211 0.25,0 0,-0.25 -90,-27 -0.25,0 0,0.25"
             id="path94"
             style="fill:#000000;fill-opacity:1;fill-rule:nonzero;stroke:none" /><path
             d="m 64,157 0.25,0 0,-0.25 -36,-27 -0.25,0 0,0.25"
             id="path96"
             style="fill:#000000;fill-opacity:1;fill-rule:nonzero;stroke:none" /><g
             transform="matrix(1,0,0,-1,0,221)"
             id="g98"><path
               d="m 109.125,64 0,27.25"
               id="path100"
               style="fill:none;stroke:#000000;stroke-width:0.25;stroke-linecap:butt;stroke-linejoin:miter;stroke-miterlimit:10;stroke-opacity:1;stroke-dasharray:none" /></g><path
             d="m 289,211 0.25,0 90,-27 0,-0.25 -0.25,0 -90,27"
             id="path102"
             style="fill:#000000;fill-opacity:1;fill-rule:nonzero;stroke:none" /><path
             d="m 145,157 0.25,0 36,-27 0,-0.25 -0.25,0 -36,27"
             id="path104"
             style="fill:#000000;fill-opacity:1;fill-rule:nonzero;stroke:none" /><path
             d="m 334,157 0.25,0 0,-0.25 -36,-27 -0.25,0 0,0.25"
             id="path106"
             style="fill:#000000;fill-opacity:1;fill-rule:nonzero;stroke:none" /><path
             d="m 415,157 0.25,0 36,-27 0,-0.25 -0.25,0 -36,27"
             id="path108"
             style="fill:#000000;fill-opacity:1;fill-rule:nonzero;stroke:none" /><g
             transform="matrix(1,0,0,-1,0,221)"
             id="g110"><path
               d="m 451.125,118 0,27.25"
               id="path112"
               style="fill:none;stroke:#000000;stroke-width:0.25;stroke-linecap:butt;stroke-linejoin:miter;stroke-miterlimit:10;stroke-opacity:1;stroke-dasharray:none" /></g><g
             transform="matrix(1,0,0,-1,0,221)"
             id="g114"><text
               transform="translate(426,218)"
               id="text116"><tspan
                 x="0 6.9707999 13.9416 20.912399 27.8832 34.854 41.824799 48.795601"
                 y="0"
                 id="tspan118"
                 style="font-size:12px;font-variant:normal;font-weight:normal;writing-mode:lr-tb;fill:#000000;fill-opacity:1;fill-rule:nonzero;stroke:none;font-family:Courier New;-inkscape-font-specification:Courier">achilles</tspan></text>
</g><g
             transform="matrix(1,0,0,-1,0,221)"
             id="g120"><path
               d="m 451.125,172 0,27.25"
               id="path122"
               style="fill:none;stroke:#000000;stroke-width:0.25;stroke-linecap:butt;stroke-linejoin:miter;stroke-miterlimit:10;stroke-opacity:1;stroke-dasharray:none" /></g><g
             transform="matrix(1,0,0,-1,0,221)"
             id="g124"><text
               transform="translate(284,218)"
               id="text126"><tspan
                 x="0 6.9492002 13.8984 20.847601 27.796801"
                 y="0"
                 id="tspan128"
                 style="font-size:12px;font-variant:normal;font-weight:normal;writing-mode:lr-tb;fill:#000000;fill-opacity:1;fill-rule:nonzero;stroke:none;font-family:Courier New;-inkscape-font-specification:Courier">beats</tspan></text>
</g><g
             transform="matrix(1,0,0,-1,0,221)"
             id="g130"><path
               d="m 298.125,118 0,81.25"
               id="path132"
               style="fill:none;stroke:#000000;stroke-width:0.25;stroke-linecap:butt;stroke-linejoin:miter;stroke-miterlimit:10;stroke-opacity:1;stroke-dasharray:none" /></g><g
             transform="matrix(1,0,0,-1,0,221)"
             id="g134"><text
               transform="translate(172,218)"
               id="text136"><tspan
                 x="0 6.96 13.92 20.879999 27.84 34.799999"
                 y="0"
                 id="tspan138"
                 style="font-size:12px;font-variant:normal;font-weight:normal;writing-mode:lr-tb;fill:#000000;fill-opacity:1;fill-rule:nonzero;stroke:none;font-family:Courier New;-inkscape-font-specification:Courier">turtle</tspan></text>
</g><g
             transform="matrix(1,0,0,-1,0,221)"
             id="g140"><path
               d="m 190.125,118 0,81.25"
               id="path142"
               style="fill:none;stroke:#000000;stroke-width:0.25;stroke-linecap:butt;stroke-linejoin:miter;stroke-miterlimit:10;stroke-opacity:1;stroke-dasharray:none" /></g><g
             transform="matrix(1,0,0,-1,0,221)"
             id="g144"><text
               transform="translate(95,218)"
               id="text146"><tspan
                 x="0 6.9492002 13.8984 20.847601 27.796801"
                 y="0"
                 id="tspan148"
                 style="font-size:12px;font-variant:normal;font-weight:normal;writing-mode:lr-tb;fill:#000000;fill-opacity:1;fill-rule:nonzero;stroke:none;font-family:Courier New;-inkscape-font-specification:Courier">rapid</tspan></text>
</g><g
             transform="matrix(1,0,0,-1,0,221)"
             id="g150"><path
               d="m 109.125,118 0,81.25"
               id="path152"
               style="fill:none;stroke:#000000;stroke-width:0.25;stroke-linecap:butt;stroke-linejoin:miter;stroke-miterlimit:10;stroke-opacity:1;stroke-dasharray:none" /></g><g
             transform="matrix(1,0,0,-1,0,221)"
             id="g154"><text
               transform="translate(21,218)"
               id="text156"><tspan
                 x="0 6.9000001 13.8"
                 y="0"
                 id="tspan158"
                 style="font-size:12px;font-variant:normal;font-weight:normal;writing-mode:lr-tb;fill:#000000;fill-opacity:1;fill-rule:nonzero;stroke:none;font-family:Courier New;-inkscape-font-specification:Courier">the</tspan></text>
</g><g
             transform="matrix(1,0,0,-1,0,221)"
             id="g160"><path
               d="m 28.125,118 0,81.25"
               id="path162"
               style="fill:none;stroke:#000000;stroke-width:0.25;stroke-linecap:butt;stroke-linejoin:miter;stroke-miterlimit:10;stroke-opacity:1;stroke-dasharray:none" /></g></g></g></g></g></svg>