<?xml version="1.0" encoding="UTF-8"?>
<!DOCTYPE svg PUBLIC "-//W3C//DTD SVG 1.1//EN" "http://www.w3.org/Graphics/SVG/1.1/DTD/svg11.dtd">
<svg version="1.2" width="25mm" height="25mm" viewBox="0 0 2500 2500" preserveAspectRatio="xMidYMid" fill-rule="evenodd" stroke-width="28.222" stroke-linejoin="round" xmlns="http://www.w3.org/2000/svg" xmlns:ooo="http://xml.openoffice.org/svg/export" xmlns:xlink="http://www.w3.org/1999/xlink" xmlns:presentation="http://sun.com/xmlns/staroffice/presentation" xmlns:smil="http://www.w3.org/2001/SMIL20/" xmlns:anim="urn:oasis:names:tc:opendocument:xmlns:animation:1.0" xml:space="preserve">
 <defs class="ClipPathGroup">
  <clipPath id="presentation_clip_path" clipPathUnits="userSpaceOnUse">
   <rect x="0" y="0" width="2500" height="2500"/>
  </clipPath>
  <clipPath id="presentation_clip_path_shrink" clipPathUnits="userSpaceOnUse">
   <rect x="2" y="2" width="2495" height="2495"/>
  </clipPath>
 </defs>
 <defs class="TextShapeIndex">
  <g ooo:slide="id1" ooo:id-list="id3 id4 id5 id6 id7 id8 id9 id10 id11 id12 id13 id14 id15 id16 id17 id18 id19 id20 id21 id22 id23 id24 id25 id26 id27 id28 id29 id30 id31 id32"/>
 </defs>
 <defs class="EmbeddedBulletChars">
  <g id="bullet-char-template-57356" transform="scale(0.00048828125,-0.00048828125)">
   <path d="M 580,1141 L 1163,571 580,0 -4,571 580,1141 Z"/>
  </g>
  <g id="bullet-char-template-57354" transform="scale(0.00048828125,-0.00048828125)">
   <path d="M 8,1128 L 1137,1128 1137,0 8,0 8,1128 Z"/>
  </g>
  <g id="bullet-char-template-10146" transform="scale(0.00048828125,-0.00048828125)">
   <path d="M 174,0 L 602,739 174,1481 1456,739 174,0 Z M 1358,739 L 309,1346 659,739 1358,739 Z"/>
  </g>
  <g id="bullet-char-template-10132" transform="scale(0.00048828125,-0.00048828125)">
   <path d="M 2015,739 L 1276,0 717,0 1260,543 174,543 174,936 1260,936 717,1481 1274,1481 2015,739 Z"/>
  </g>
  <g id="bullet-char-template-10007" transform="scale(0.00048828125,-0.00048828125)">
   <path d="M 0,-2 C -7,14 -16,27 -25,37 L 356,567 C 262,823 215,952 215,954 215,979 228,992 255,992 264,992 276,990 289,987 310,991 331,999 354,1012 L 381,999 492,748 772,1049 836,1024 860,1049 C 881,1039 901,1025 922,1006 886,937 835,863 770,784 769,783 710,716 594,584 L 774,223 C 774,196 753,168 711,139 L 727,119 C 717,90 699,76 672,76 641,76 570,178 457,381 L 164,-76 C 142,-110 111,-127 72,-127 30,-127 9,-110 8,-76 1,-67 -2,-52 -2,-32 -2,-23 -1,-13 0,-2 Z"/>
  </g>
  <g id="bullet-char-template-10004" transform="scale(0.00048828125,-0.00048828125)">
   <path d="M 285,-33 C 182,-33 111,30 74,156 52,228 41,333 41,471 41,549 55,616 82,672 116,743 169,778 240,778 293,778 328,747 346,684 L 369,508 C 377,444 397,411 428,410 L 1163,1116 C 1174,1127 1196,1133 1229,1133 1271,1133 1292,1118 1292,1087 L 1292,965 C 1292,929 1282,901 1262,881 L 442,47 C 390,-6 338,-33 285,-33 Z"/>
  </g>
  <g id="bullet-char-template-9679" transform="scale(0.00048828125,-0.00048828125)">
   <path d="M 813,0 C 632,0 489,54 383,161 276,268 223,411 223,592 223,773 276,916 383,1023 489,1130 632,1184 813,1184 992,1184 1136,1130 1245,1023 1353,916 1407,772 1407,592 1407,412 1353,268 1245,161 1136,54 992,0 813,0 Z"/>
  </g>
  <g id="bullet-char-template-8226" transform="scale(0.00048828125,-0.00048828125)">
   <path d="M 346,457 C 273,457 209,483 155,535 101,586 74,649 74,723 74,796 101,859 155,911 209,963 273,989 346,989 419,989 480,963 531,910 582,859 608,796 608,723 608,648 583,586 532,535 482,483 420,457 346,457 Z"/>
  </g>
  <g id="bullet-char-template-8211" transform="scale(0.00048828125,-0.00048828125)">
   <path d="M -4,459 L 1135,459 1135,606 -4,606 -4,459 Z"/>
  </g>
  <g id="bullet-char-template-61548" transform="scale(0.00048828125,-0.00048828125)">
   <path d="M 173,740 C 173,903 231,1043 346,1159 462,1274 601,1332 765,1332 928,1332 1067,1274 1183,1159 1299,1043 1357,903 1357,740 1357,577 1299,437 1183,322 1067,206 928,148 765,148 601,148 462,206 346,322 231,437 173,577 173,740 Z"/>
  </g>
 </defs>
 <defs class="TextEmbeddedBitmaps"/>
 <g>
  <g id="id2" class="Master_Slide">
   <g id="bg-id2" class="Background"/>
   <g id="bo-id2" class="BackgroundObjects"/>
  </g>
 </g>
 <g class="SlideGroup">
  <g>
   <g id="container-id1">
    <g id="id1" class="Slide" clip-path="url(#presentation_clip_path)">
     <g class="Page">
      <g class="com.sun.star.drawing.PolyPolygonShape">
       <g id="id3">
        <rect class="BoundingBox" stroke="none" fill="none" x="1290" y="0" width="101" height="2501"/>
        <path fill="rgb(255,0,0)" stroke="none" d="M 1290,0 L 1290,2500 1390,2500 1390,0 1290,0 Z"/>
       </g>
      </g>
      <g class="com.sun.star.drawing.PolyPolygonShape">
       <g id="id4">
        <rect class="BoundingBox" stroke="none" fill="none" x="1471" y="0" width="101" height="2501"/>
        <path fill="rgb(255,102,0)" stroke="none" d="M 1471,0 L 1471,2500 1571,2500 1571,0 1471,0 Z"/>
       </g>
      </g>
      <g class="com.sun.star.drawing.PolyPolygonShape">
       <g id="id5">
        <rect class="BoundingBox" stroke="none" fill="none" x="1652" y="0" width="101" height="2501"/>
        <path fill="rgb(255,169,83)" stroke="none" d="M 1652,0 L 1652,2500 1752,2500 1752,0 1652,0 Z"/>
       </g>
      </g>
      <g class="com.sun.star.drawing.PolyPolygonShape">
       <g id="id6">
        <rect class="BoundingBox" stroke="none" fill="none" x="1844" y="0" width="101" height="2501"/>
        <path fill="rgb(255,204,0)" stroke="none" d="M 1844,0 L 1844,2500 1944,2500 1944,0 1844,0 Z"/>
       </g>
      </g>
      <g class="com.sun.star.drawing.PolyPolygonShape">
       <g id="id7">
        <rect class="BoundingBox" stroke="none" fill="none" x="0" y="557" width="2501" height="101"/>
        <path fill="rgb(153,0,153)" stroke="none" d="M 0,557 L 0,657 2500,657 2500,557 0,557 Z"/>
       </g>
      </g>
      <g class="com.sun.star.drawing.PolyPolygonShape">
       <g id="id8">
        <rect class="BoundingBox" stroke="none" fill="none" x="0" y="737" width="2501" height="102"/>
        <path fill="rgb(51,102,204)" stroke="none" d="M 0,737 L 0,837 2500,837 2500,737 0,737 Z"/>
       </g>
      </g>
      <g class="com.sun.star.drawing.PolyPolygonShape">
       <g id="id9">
        <rect class="BoundingBox" stroke="none" fill="none" x="0" y="918" width="2501" height="101"/>
        <path fill="rgb(0,204,255)" stroke="none" d="M 0,918 L 0,1018 2500,1018 2500,918 0,918 Z"/>
       </g>
      </g>
      <g class="com.sun.star.drawing.PolyPolygonShape">
       <g id="id10">
        <rect class="BoundingBox" stroke="none" fill="none" x="0" y="1099" width="2501" height="101"/>
        <path fill="rgb(0,204,153)" stroke="none" d="M 2500,1188 L 2500,1099 0,1109 0,1199 2500,1188 Z"/>
       </g>
      </g>
      <g class="com.sun.star.drawing.PolyPolygonShape">
       <g id="id11">
        <rect class="BoundingBox" stroke="none" fill="none" x="0" y="1291" width="2501" height="101"/>
        <path fill="rgb(255,0,0)" stroke="none" d="M 0,1291 L 0,1391 2500,1391 2500,1291 0,1291 Z"/>
       </g>
      </g>
      <g class="com.sun.star.drawing.PolyPolygonShape">
       <g id="id12">
        <rect class="BoundingBox" stroke="none" fill="none" x="0" y="1471" width="2501" height="101"/>
        <path fill="rgb(255,102,0)" stroke="none" d="M 0,1471 L 0,1571 2500,1571 2500,1471 0,1471 Z"/>
       </g>
      </g>
      <g class="com.sun.star.drawing.PolyPolygonShape">
       <g id="id13">
        <rect class="BoundingBox" stroke="none" fill="none" x="0" y="1652" width="2501" height="101"/>
        <path fill="rgb(255,169,83)" stroke="none" d="M 0,1652 L 0,1752 2500,1752 2500,1652 0,1652 Z"/>
       </g>
      </g>
      <g class="com.sun.star.drawing.PolyPolygonShape">
       <g id="id14">
        <rect class="BoundingBox" stroke="none" fill="none" x="0" y="1844" width="2501" height="101"/>
        <path fill="rgb(255,204,0)" stroke="none" d="M 0,1844 L 0,1944 2500,1944 2500,1844 0,1844 Z"/>
       </g>
      </g>
      <g class="com.sun.star.drawing.TextShape">
       <g id="id15">
        <rect class="BoundingBox" stroke="none" fill="none" x="351" y="-20303" width="3" height="938"/>
       </g>
      </g>
      <g class="com.sun.star.drawing.TextShape">
       <g id="id16">
        <rect class="BoundingBox" stroke="none" fill="none" x="29375" y="-20303" width="3" height="938"/>
       </g>
      </g>
      <g class="com.sun.star.drawing.TextShape">
       <g id="id17">
        <rect class="BoundingBox" stroke="none" fill="none" x="32501" y="-20303" width="3" height="938"/>
       </g>
      </g>
      <g class="com.sun.star.drawing.TextShape">
       <g id="id18">
        <rect class="BoundingBox" stroke="none" fill="none" x="6503" y="-20314" width="3" height="938"/>
       </g>
      </g>
      <g class="com.sun.star.drawing.TextShape">
       <g id="id19">
        <rect class="BoundingBox" stroke="none" fill="none" x="1920" y="3370" width="3" height="938"/>
       </g>
      </g>
      <g class="com.sun.star.drawing.TextShape">
       <g id="id20">
        <rect class="BoundingBox" stroke="none" fill="none" x="3738" y="-17973" width="3" height="938"/>
       </g>
      </g>
      <g class="com.sun.star.drawing.TextShape">
       <g id="id21">
        <rect class="BoundingBox" stroke="none" fill="none" x="5137" y="-15685" width="3" height="938"/>
       </g>
      </g>
      <g class="com.sun.star.drawing.TextShape">
       <g id="id22">
        <rect class="BoundingBox" stroke="none" fill="none" x="5137" y="-14669" width="3" height="938"/>
       </g>
      </g>
      <g class="com.sun.star.drawing.TextShape">
       <g id="id23">
        <rect class="BoundingBox" stroke="none" fill="none" x="3738" y="-12216" width="3" height="938"/>
       </g>
      </g>
      <g class="com.sun.star.drawing.TextShape">
       <g id="id24">
        <rect class="BoundingBox" stroke="none" fill="none" x="5137" y="-9928" width="3" height="938"/>
       </g>
      </g>
      <g class="com.sun.star.drawing.TextShape">
       <g id="id25">
        <rect class="BoundingBox" stroke="none" fill="none" x="5137" y="-8912" width="3" height="938"/>
       </g>
      </g>
      <g class="com.sun.star.drawing.TextShape">
       <g id="id26">
        <rect class="BoundingBox" stroke="none" fill="none" x="3738" y="-6459" width="3" height="938"/>
       </g>
      </g>
      <g class="com.sun.star.drawing.TextShape">
       <g id="id27">
        <rect class="BoundingBox" stroke="none" fill="none" x="5137" y="-4171" width="3" height="938"/>
       </g>
      </g>
      <g class="com.sun.star.drawing.TextShape">
       <g id="id28">
        <rect class="BoundingBox" stroke="none" fill="none" x="5137" y="-3155" width="3" height="938"/>
       </g>
      </g>
      <g class="com.sun.star.drawing.PolyPolygonShape">
       <g id="id29">
        <rect class="BoundingBox" stroke="none" fill="none" x="557" y="0" width="101" height="2501"/>
        <path fill="rgb(153,0,153)" stroke="none" d="M 557,0 L 557,2500 657,2500 657,0 557,0 Z"/>
       </g>
      </g>
      <g class="com.sun.star.drawing.PolyPolygonShape">
       <g id="id30">
        <rect class="BoundingBox" stroke="none" fill="none" x="737" y="0" width="102" height="2501"/>
        <path fill="rgb(51,102,204)" stroke="none" d="M 737,0 L 737,2500 837,2500 837,0 737,0 Z"/>
       </g>
      </g>
      <g class="com.sun.star.drawing.PolyPolygonShape">
       <g id="id31">
        <rect class="BoundingBox" stroke="none" fill="none" x="918" y="0" width="101" height="2501"/>
        <path fill="rgb(0,204,255)" stroke="none" d="M 918,0 L 918,2500 1018,2500 1018,0 918,0 Z"/>
       </g>
      </g>
      <g class="com.sun.star.drawing.PolyPolygonShape">
       <g id="id32">
        <rect class="BoundingBox" stroke="none" fill="none" x="1099" y="0" width="101" height="2501"/>
        <path fill="rgb(0,204,153)" stroke="none" d="M 1099,0 L 1099,2500 1199,2500 1199,0 1099,0 Z"/>
       </g>
      </g>
     </g>
    </g>
   </g>
  </g>
 </g>
</svg>