<?xml version="1.0" encoding="UTF-8" standalone="no"?>
<!-- Created with Inkscape (http://www.inkscape.org/) -->

<svg
   xmlns:svg="http://www.w3.org/2000/svg"
   xmlns="http://www.w3.org/2000/svg"
   version="1.1"
   width="306.25"
   height="240"
   id="svg2"
   xml:space="preserve"><defs
     id="defs6"><clipPath
       id="clipPath20"><path
         d="M 0,0 245,0 245,192 0,192 0,0 z"
         id="path22" /></clipPath><clipPath
       id="clipPath30"><path
         d="m 0,192 245,0 0,-192.000002833083 -245,0 L 0,192 z"
         id="path32" /></clipPath><clipPath
       id="clipPath36"><path
         d="M 0,0 245,0 245,192 0,192 0,0 z"
         id="path38" /></clipPath></defs><g
     transform="matrix(1.25,0,0,-1.25,0,240)"
     id="g12"><g
       id="g14" /><g
       id="g16"><g
         clip-path="url(#clipPath20)"
         id="g18"><path
           d="M 0,192 245,192 245,0 0,0 0,192 z"
           id="path24"
           style="fill:#ffffff;fill-opacity:0;fill-rule:evenodd;stroke:none" /></g></g><g
       id="g26"><g
         clip-path="url(#clipPath30)"
         id="g28"><g
           clip-path="url(#clipPath36)"
           id="g34"><path
             d="m 165,131 78,0 0,-82 -78,0 0,82 z"
             id="path40"
             style="fill:#efefef;fill-opacity:1;fill-rule:nonzero;stroke:none" /><g
             transform="matrix(1,0,0,-1,0,192)"
             id="g42"><path
               d="m 165.5,61.5 77,0 0,81 -77,0 0,-81 z"
               id="path44"
               style="fill:none;stroke:#ffffff;stroke-width:1;stroke-linecap:butt;stroke-linejoin:miter;stroke-miterlimit:10;stroke-opacity:1;stroke-dasharray:none" /></g><g
             transform="matrix(1,0,0,-1,0,192)"
             id="g46"><text
               transform="translate(70,57)"
               id="text48"><tspan
                 x="0 6.0009999 12.002 18.003 24.004 30.004999 36.006001 42.007 48.007999 54.008999 60.009998 66.011002 72.012001 78.013 84.014 90.014999 96.015999 102.017 108.018 114.019 120.02 126.021 132.022 138.02299"
                 y="0"
                 id="tspan50"
                 style="font-size:10px;font-variant:normal;font-weight:normal;writing-mode:lr-tb;fill:#000000;fill-opacity:1;fill-rule:nonzero;stroke:none;font-family:Courier New;-inkscape-font-specification:Courier">:-not(married(X)),man(X)</tspan></text>
</g><g
             transform="matrix(1,0,0,-1,0,192)"
             id="g52"><text
               transform="translate(99,10)"
               id="text54"><tspan
                 x="0 6.0009999 12.002 18.003 24.004 30.004999 36.006001 42.007 48.007999 54.008999 60.009998 66.011002 72.012001"
                 y="0"
                 id="tspan56"
                 style="font-size:10px;font-variant:normal;font-weight:normal;writing-mode:lr-tb;fill:#000000;fill-opacity:1;fill-rule:nonzero;stroke:none;font-family:Courier New;-inkscape-font-specification:Courier">?-bachelor(X)</tspan></text>
</g><g
             transform="matrix(1,0,0,-1,0,192)"
             id="g58"><text
               transform="translate(174,135)"
               id="text60"><tspan
                 x="-2.5"
                 y="-1"
                 id="tspan62"
                 style="font-size:20px;font-variant:normal;font-weight:normal;writing-mode:lr-tb;fill:#000000;fill-opacity:1;fill-rule:nonzero;stroke:none;font-family:Geneva;-inkscape-font-specification:Geneva">&#x25A1;</tspan></text>
</g><path
             d="m 101,130 0.25,0 0,-0.25 -20,-22 -0.25,0 0,0.25"
             id="path64"
             style="fill:#000000;fill-opacity:1;fill-rule:nonzero;stroke:none" /><path
             d="m 178,130 0.25,0 20,-22 0,-0.25 -0.25,0 -20,22"
             id="path66"
             style="fill:#000000;fill-opacity:1;fill-rule:nonzero;stroke:none" /><g
             transform="matrix(1,0,0,-1,0,192)"
             id="g68"><text
               transform="translate(2,97)"
               id="text70"><tspan
                 x="0 6.0009999 12.002 18.003 24.004 30.004999 36.006001 42.007 48.007999 54.008999 60.009998 66.011002 72.012001 78.013 84.014 90.014999 96.015999 102.017 108.018 114.019 120.02 126.021 132.022 138.02299 144.024 150.02499"
                 y="0"
                 id="tspan72"
                 style="font-size:10px;font-variant:normal;font-weight:normal;writing-mode:lr-tb;fill:#000000;fill-opacity:1;fill-rule:nonzero;stroke:none;font-family:Courier New;-inkscape-font-specification:Courier">:-married(X),!,fail,man(X)</tspan></text>
</g><g
             transform="matrix(1,0,0,-1,0,192)"
             id="g74"><path
               d="m 34,191.5 91,0"
               id="path76"
               style="fill:none;stroke:#000000;stroke-width:1;stroke-linecap:butt;stroke-linejoin:miter;stroke-miterlimit:10;stroke-opacity:1;stroke-dasharray:none" /></g><g
             transform="matrix(1,0,0,-1,0,192)"
             id="g78"><text
               transform="translate(180,93)"
               id="text80"><tspan
                 x="0 6.0009999 12.002 18.003 24.004 30.004999 36.006001 42.007"
                 y="0"
                 id="tspan82"
                 style="font-size:10px;font-variant:normal;font-weight:normal;writing-mode:lr-tb;fill:#000000;fill-opacity:1;fill-rule:nonzero;stroke:none;font-family:Courier New;-inkscape-font-specification:Courier">:-man(X)</tspan></text>
</g><g
             transform="matrix(1,0,0,-1,0,192)"
             id="g84"><path
               d="m 80.125,101 0,29.25"
               id="path86"
               style="fill:none;stroke:#000000;stroke-width:0.25;stroke-linecap:butt;stroke-linejoin:miter;stroke-miterlimit:10;stroke-opacity:1;stroke-dasharray:none" /></g><g
             transform="matrix(1,0,0,-1,0,192)"
             id="g88"><text
               transform="translate(26,142)"
               id="text90"><tspan
                 x="0 6.0009999 12.002 18.003 24.004 30.004999 36.006001 42.007 48.007999 54.008999 60.009998 66.011002 72.012001 78.013 84.014 90.014999 96.015999 102.017"
                 y="0"
                 id="tspan92"
                 style="font-size:10px;font-variant:normal;font-weight:normal;writing-mode:lr-tb;fill:#000000;fill-opacity:1;fill-rule:nonzero;stroke:none;font-family:Courier New;-inkscape-font-specification:Courier">:-!,fail,man(fred)</tspan></text>
</g><g
             transform="matrix(1,0,0,-1,0,192)"
             id="g94"><path
               d="m 80.125,146 0,29.25"
               id="path96"
               style="fill:none;stroke:#000000;stroke-width:0.25;stroke-linecap:butt;stroke-linejoin:miter;stroke-miterlimit:10;stroke-opacity:1;stroke-dasharray:none" /></g><g
             transform="matrix(1,0,0,-1,0,192)"
             id="g98"><text
               transform="translate(32,187)"
               id="text100"><tspan
                 x="0 6.0009999 12.002 18.003 24.004 30.004999 36.006001 42.007 48.007999 54.008999 60.009998 66.011002 72.012001 78.013 84.014 90.014999"
                 y="0"
                 id="tspan102"
                 style="font-size:10px;font-variant:normal;font-weight:normal;writing-mode:lr-tb;fill:#000000;fill-opacity:1;fill-rule:nonzero;stroke:none;font-family:Courier New;-inkscape-font-specification:Courier">:-fail,man(fred)</tspan></text>
</g><g
             transform="matrix(1,0,0,-1,0,192)"
             id="g104"><path
               d="m 137.125,15 0,29.25"
               id="path106"
               style="fill:none;stroke:#000000;stroke-width:0.25;stroke-linecap:butt;stroke-linejoin:miter;stroke-miterlimit:10;stroke-opacity:1;stroke-dasharray:none" /></g><path
             d="m 198,93 0.25,0 0,-0.25 -20,-22 -0.25,0 0,0.25"
             id="path108"
             style="fill:#000000;fill-opacity:1;fill-rule:nonzero;stroke:none" /><path
             d="m 209,92 0.25,0 20,-22 0,-0.25 -0.25,0 -20,22"
             id="path110"
             style="fill:#000000;fill-opacity:1;fill-rule:nonzero;stroke:none" /><g
             transform="matrix(1,0,0,-1,0,192)"
             id="g112"><text
               transform="translate(225,135)"
               id="text114"><tspan
                 x="-1.5"
                 y="0"
                 id="tspan116"
                 style="font-size:20px;font-variant:normal;font-weight:normal;writing-mode:lr-tb;fill:#000000;fill-opacity:1;fill-rule:nonzero;stroke:none;font-family:Geneva;-inkscape-font-specification:Geneva">&#x25A1;</tspan></text>
</g></g></g></g></g></svg>
