<?xml version="1.0" encoding="UTF-8" standalone="no"?>
<!-- Created with Inkscape (http://www.inkscape.org/) -->

<svg
   version="1.1"
   width="425"
   height="93.75"
   id="svg2"
   xml:space="preserve"
   sodipodi:docname="image016.svg"
   inkscape:version="1.2.2 (b0a8486541, 2022-12-01)"
   xmlns:inkscape="http://www.inkscape.org/namespaces/inkscape"
   xmlns:sodipodi="http://sodipodi.sourceforge.net/DTD/sodipodi-0.dtd"
   xmlns="http://www.w3.org/2000/svg"
   xmlns:svg="http://www.w3.org/2000/svg"><sodipodi:namedview
     id="namedview41"
     pagecolor="#ffffff"
     bordercolor="#000000"
     borderopacity="0.25"
     inkscape:showpageshadow="2"
     inkscape:pageopacity="0.0"
     inkscape:pagecheckerboard="0"
     inkscape:deskcolor="#d1d1d1"
     showgrid="false"
     inkscape:zoom="2.7858824"
     inkscape:cx="195.27027"
     inkscape:cy="47.022804"
     inkscape:window-width="1920"
     inkscape:window-height="1007"
     inkscape:window-x="0"
     inkscape:window-y="0"
     inkscape:window-maximized="1"
     inkscape:current-layer="g26" /><defs
     id="defs6"><clipPath
       id="clipPath20"><path
         d="M 0,0 340,0 340,75 0,75 0,0 z"
         id="path22" /></clipPath><clipPath
       id="clipPath30"><path
         d="m 0,75 340,0 0,-75.000001106673 -340,0 L 0,75 z"
         id="path32" /></clipPath><clipPath
       id="clipPath36"><path
         d="M 0,0 340,0 340,75 0,75 0,0 z"
         id="path38" /></clipPath></defs><g
     transform="matrix(1.25,0,0,-1.25,0,93.75)"
     id="g12"><g
       id="g14" /><g
       id="g16"><g
         clip-path="url(#clipPath20)"
         id="g18"><path
           d="M 0,75 340,75 340,0 0,0 0,75 z"
           id="path24"
           style="fill:#ffffff;fill-opacity:0;fill-rule:evenodd;stroke:none" /></g></g><g
       id="g26"><g
         clip-path="url(#clipPath30)"
         id="g28"><g
           clip-path="url(#clipPath36)"
           id="g34"><g
             transform="matrix(1,0,0,-1,0,75)"
             id="g40"><text
   transform="translate(2,10)"
   id="text42"
   style="-inkscape-font-specification:'Iosevka, Normal';font-family:Iosevka;font-weight:normal;font-style:normal;font-stretch:normal;font-variant:normal;font-size:12px;font-variant-ligatures:normal;font-variant-caps:normal;font-variant-numeric:normal;font-variant-east-asian:normal"><tspan
     sodipodi:role="line"
     id="tspan205">has_spouse:-man,married</tspan></text>
</g><g
             transform="matrix(1,0,0,-1,0,75)"
             id="g46"><text
   transform="translate(174,10)"
   id="text48"
   inkscape:label="text48"
   style="-inkscape-font-specification:'Iosevka, Normal';font-family:Iosevka;font-weight:normal;font-style:normal;font-stretch:normal;font-variant:normal;font-size:12px;font-variant-ligatures:normal;font-variant-caps:normal;font-variant-numeric:normal;font-variant-east-asian:normal"><tspan
     x="0 6.0009999 12.002 18.003 24.004 30.004999 36.006001 42.007 48.007999 54.008999 60.009998 66.011002 72.012001 78.013 84.014 90.014999 96.015999 102.017 108.018 114.019 120.02 126.021 132.022 138.02299 144.024 150.02499 156.026"
     y="0"
     id="tspan50"
     style="font-size:12px;font-variant:normal;font-weight:normal;writing-mode:lr-tb;fill:#000000;fill-opacity:1;fill-rule:nonzero;stroke:none;font-family:Iosevka;-inkscape-font-specification:'Iosevka, Normal';font-style:normal;font-stretch:normal;font-variant-ligatures:normal;font-variant-caps:normal;font-variant-numeric:normal;font-variant-east-asian:normal">married;bachelor:-man,adult</tspan></text>
</g><g
             transform="matrix(1,0,0,-1,0,75)"
             id="g52"><text
   id="text54"
   style="-inkscape-font-specification:'Iosevka, Normal';font-family:Iosevka;font-weight:normal;font-style:normal;font-stretch:normal;font-variant:normal;font-size:12px;font-variant-ligatures:normal;font-variant-caps:normal;font-variant-numeric:normal;font-variant-east-asian:normal"
   transform="translate(83,71)"><tspan
     sodipodi:role="line"
     id="tspan207">has_spouse;bachelor:-man,adult</tspan></text>
</g><g
             transform="matrix(0.97328723,0,0,1,14.358108,47.435811)"
             id="g58"><path
               d="m 86,14.5 h 43"
               id="path60"
               style="fill:none;stroke:#000000;stroke-width:1;stroke-linecap:butt;stroke-linejoin:miter;stroke-miterlimit:10;stroke-dasharray:none;stroke-opacity:1" /></g><g
             transform="matrix(1,0,0,-1,0,75)"
             id="g62"><path
               d="m 174,14.5 44,0"
               id="path64"
               style="fill:none;stroke:#000000;stroke-width:1;stroke-linecap:butt;stroke-linejoin:miter;stroke-miterlimit:10;stroke-opacity:1;stroke-dasharray:none" /></g><path
             d="m 103,15 -9.92546,1.21869 c 0.34539,2.81296 1.86815,5.34727 4.1897,6.97283"
             id="path66"
             style="fill:#000000;fill-opacity:1;fill-rule:evenodd;stroke:none" /><path
             d="m 28,60 0.25,0 71,-43 0,-0.25 -0.25,0 -71,43"
             id="path68"
             style="fill:#000000;fill-opacity:1;fill-rule:nonzero;stroke:none" /><path
             d="m 210.76351,14.564189 -9.9619,-0.87156 c -0.2471,2.82331 0.7155,5.61882 2.6484,7.69154"
             id="path70"
             style="fill:#000000;fill-opacity:1;fill-rule:evenodd;stroke:none"
             inkscape:label="path70" /><path
             d="m 72,61 h 0.268915 L 206.72635,15.572301 V 15.31419 h -0.26891 L 72,60.741888"
             id="path72"
             style="fill:#000000;fill-opacity:1;fill-rule:nonzero;stroke:none;stroke-width:1.05384" /><path
             d="m 164.9223,14.712838 6.4279,7.66045 c 2.171,-1.82172 3.4671,-4.4791 3.566,-7.31145"
             id="path74"
             style="fill:#000000;fill-opacity:1;fill-rule:evenodd;stroke:none" /><path
             d="m 244.048,61 h 0.202 V 60.75649 L 173.14457,17.898649 h -0.202 v 0.24351"
             id="path76"
             style="fill:#000000;fill-opacity:1;fill-rule:nonzero;stroke:none;stroke-width:0.887154" /><path
             d="m 217.04054,13.564189 6.0181,7.98635 c 2.2634,-1.70559 3.6968,-4.29149 3.9438,-7.11479"
             id="path78"
             style="fill:#000000;fill-opacity:1;fill-rule:evenodd;stroke:none" /><path
             d="m 289.82854,64.117545 0.21814,0.01889 0.023,-0.232142 -64.88471,-46.825892 -0.21815,-0.01889 -0.023,0.232142"
             id="path80"
             style="fill:#000000;fill-opacity:1;fill-rule:nonzero;stroke:none;stroke-width:0.903993" /><path
             d="m 246.47635,15.574324 6.0181,7.98635 c 2.2634,-1.70559 3.6968,-4.29149 3.9438,-7.11479"
             id="path82"
             style="fill:#000000;fill-opacity:1;fill-rule:evenodd;stroke:none" /><path
             d="M 320.04076,61 H 320.25 V 60.762979 L 254.13153,19.047297 h -0.20923 v 0.237021"
             id="path84"
             style="fill:#000000;fill-opacity:1;fill-rule:nonzero;stroke:none;stroke-width:0.890781" /></g></g></g></g></svg>
