<?xml version="1.0" encoding="UTF-8" standalone="no"?>
<!-- Created with Inkscape (http://www.inkscape.org/) -->

<svg
   xmlns:svg="http://www.w3.org/2000/svg"
   xmlns="http://www.w3.org/2000/svg"
   version="1.1"
   width="283.75"
   height="168.75"
   id="svg2"
   xml:space="preserve"><defs
     id="defs6"><clipPath
       id="clipPath20"><path
         d="M 0,0 227,0 227,135 0,135 0,0 z"
         id="path22" /></clipPath><clipPath
       id="clipPath30"><path
         d="m 0,135 227,0 0,-135.000001992012 -227,0 L 0,135 z"
         id="path32" /></clipPath><clipPath
       id="clipPath36"><path
         d="M 0,0 227,0 227,135 0,135 0,0 z"
         id="path38" /></clipPath></defs><g
     transform="matrix(1.25,0,0,-1.25,0,168.75)"
     id="g12"><g
       id="g14" /><g
       id="g16"><g
         clip-path="url(#clipPath20)"
         id="g18"><path
           d="M 0,135 227,135 227,0 0,0 0,135 z"
           id="path24"
           style="fill:#ffffff;fill-opacity:0;fill-rule:evenodd;stroke:none" /></g></g><g
       id="g26"><g
         clip-path="url(#clipPath30)"
         id="g28"><g
           clip-path="url(#clipPath36)"
           id="g34"><path
             d="m 59,85 47,0 0,-84.000002 -47,0 L 59,85 z"
             id="path40"
             style="fill:#efefef;fill-opacity:1;fill-rule:nonzero;stroke:none" /><g
             transform="matrix(1,0,0,-1,0,135)"
             id="g42"><path
               d="m 59.5,50.5 46,0 0,83 -46,0 0,-83 z"
               id="path44"
               style="fill:none;stroke:#ffffff;stroke-width:1;stroke-linecap:butt;stroke-linejoin:miter;stroke-miterlimit:10;stroke-opacity:1;stroke-dasharray:none" /></g><path
             d="m 117,124 109,0 0,-46 -109,0 0,46 z"
             id="path46"
             style="fill:#efefef;fill-opacity:1;fill-rule:nonzero;stroke:none" /><g
             transform="matrix(1,0,0,-1,0,135)"
             id="g48"><path
               d="m 117.5,11.5 108,0 0,45 -108,0 0,-45 z"
               id="path50"
               style="fill:none;stroke:#ffffff;stroke-width:1;stroke-linecap:butt;stroke-linejoin:miter;stroke-miterlimit:10;stroke-opacity:1;stroke-dasharray:none" /></g><g
             transform="matrix(1,0,0,-1,0,135)"
             id="g52"><text
               transform="translate(119,47)"
               id="text54"><tspan
                 x="0 6.0009999 12.002 18.003 24.004 30.004999 36.006001 42.007 48.007999 54.008999 60.009998 66.011002 72.012001 78.013 84.014 90.014999"
                 y="0"
                 id="tspan56"
                 style="font-size:10px;font-variant:normal;font-weight:normal;writing-mode:lr-tb;fill:#000000;fill-opacity:1;fill-rule:nonzero;stroke:none;font-family:Courier New;-inkscape-font-specification:Courier">:-mother(john,C)</tspan></text>
</g><g
             transform="matrix(1,0,0,-1,0,135)"
             id="g58"><text
               transform="translate(58,9)"
               id="text60"><tspan
                 x="0 6.0009999 12.002 18.003 24.004 30.004999 36.006001 42.007 48.007999 54.008999 60.009998 66.011002 72.012001 78.013 84.014 90.014999"
                 y="0"
                 id="tspan62"
                 style="font-size:10px;font-variant:normal;font-weight:normal;writing-mode:lr-tb;fill:#000000;fill-opacity:1;fill-rule:nonzero;stroke:none;font-family:Courier New;-inkscape-font-specification:Courier">?-parent(john,C)</tspan></text>
</g><path
             d="m 76,123 0.25,0 0,-0.25 -20,-22 -0.25,0 0,0.25"
             id="path64"
             style="fill:#000000;fill-opacity:1;fill-rule:nonzero;stroke:none" /><path
             d="m 130,123 0.25,0 20,-22 0,-0.25 -0.25,0 -20,22"
             id="path66"
             style="fill:#000000;fill-opacity:1;fill-rule:nonzero;stroke:none" /><g
             transform="matrix(1,0,0,-1,0,135)"
             id="g68"><text
               transform="translate(-1,47)"
               id="text70"><tspan
                 x="0 6.0009999 12.002 18.003 24.004 30.004999 36.006001 42.007 48.007999 54.008999 60.009998 66.011002 72.012001 78.013 84.014 90.014999 96.015999 102.017"
                 y="0"
                 id="tspan72"
                 style="font-size:10px;font-variant:normal;font-weight:normal;writing-mode:lr-tb;fill:#000000;fill-opacity:1;fill-rule:nonzero;stroke:none;font-family:Courier New;-inkscape-font-specification:Courier">:-father(john,C),!</tspan></text>
</g><g
             transform="matrix(1,0,0,-1,0,135)"
             id="g74"><path
               d="m 132,51.5 75,0"
               id="path76"
               style="fill:none;stroke:#000000;stroke-width:1;stroke-linecap:butt;stroke-linejoin:miter;stroke-miterlimit:10;stroke-opacity:1;stroke-dasharray:none" /></g><g
             transform="matrix(1,0,0,-1,0,135)"
             id="g78"><path
               d="m 26.125,93 0,23.25"
               id="path80"
               style="fill:none;stroke:#000000;stroke-width:0.25;stroke-linecap:butt;stroke-linejoin:miter;stroke-miterlimit:10;stroke-opacity:1;stroke-dasharray:none" /></g><g
             transform="matrix(1,0,0,-1,0,135)"
             id="g82"><text
               transform="translate(23,127)"
               id="text84"><tspan
                 x="-2.5"
                 y="2.5"
                 id="tspan86"
                 style="font-size:20px;font-variant:normal;font-weight:normal;writing-mode:lr-tb;fill:#000000;fill-opacity:1;fill-rule:nonzero;stroke:none;font-family:Geneva;-inkscape-font-specification:Geneva">&#x25A1;</tspan></text>
</g><g
             transform="matrix(1,0,0,-1,0,135)"
             id="g88"><text
               transform="translate(13,87)"
               id="text90"><tspan
                 x="0 6.0009999 12.002"
                 y="0"
                 id="tspan92"
                 style="font-size:10px;font-variant:normal;font-weight:normal;writing-mode:lr-tb;fill:#000000;fill-opacity:1;fill-rule:nonzero;stroke:none;font-family:Courier New;-inkscape-font-specification:Courier">:-!</tspan></text>
</g><path
             d="m 45,83 0.25,0 0,-0.25 -20,-22 -0.25,0 0,0.25"
             id="path94"
             style="fill:#000000;fill-opacity:1;fill-rule:nonzero;stroke:none" /><g
             transform="matrix(1,0,0,-1,0,135)"
             id="g96"><path
               d="m 86.12501,93 0,23.25"
               id="path98"
               style="fill:none;stroke:#000000;stroke-width:0.25;stroke-linecap:butt;stroke-linejoin:miter;stroke-miterlimit:10;stroke-opacity:1;stroke-dasharray:none" /></g><g
             transform="matrix(1,0,0,-1,0,135)"
             id="g100"><text
               transform="translate(83,127)"
               id="text102"><tspan
                 x="-2.5"
                 y="2.5"
                 id="tspan104"
                 style="font-size:20px;font-variant:normal;font-weight:normal;writing-mode:lr-tb;fill:#000000;fill-opacity:1;fill-rule:nonzero;stroke:none;font-family:Geneva;-inkscape-font-specification:Geneva">&#x25A1;</tspan></text>
</g><g
             transform="matrix(1,0,0,-1,0,135)"
             id="g106"><text
               transform="translate(73,87)"
               id="text108"><tspan
                 x="0 6.0009999 12.002"
                 y="0"
                 id="tspan110"
                 style="font-size:10px;font-variant:normal;font-weight:normal;writing-mode:lr-tb;fill:#000000;fill-opacity:1;fill-rule:nonzero;stroke:none;font-family:Courier New;-inkscape-font-specification:Courier">:-!</tspan></text>
</g><path
             d="m 64,83 0.25,0 20,-22 0,-0.25 -0.25,0 -20,22"
             id="path112"
             style="fill:#000000;fill-opacity:1;fill-rule:nonzero;stroke:none" /></g></g></g></g></svg>
