<?xml version="1.0" encoding="UTF-8" standalone="no"?>
<!-- Created with Inkscape (http://www.inkscape.org/) -->

<svg
   xmlns:svg="http://www.w3.org/2000/svg"
   xmlns="http://www.w3.org/2000/svg"
   version="1.1"
   width="355"
   height="325"
   id="svg2"
   xml:space="preserve"><defs
     id="defs6"><clipPath
       id="clipPath20"><path
         d="M 0,0 284,0 284,260 0,260 0,0 z"
         id="path22" /></clipPath><clipPath
       id="clipPath30"><path
         d="m 0,260 284,0 0,-260.000003836467 -284,0 L 0,260 z"
         id="path32" /></clipPath><clipPath
       id="clipPath36"><path
         d="M 0,0 284,0 284,260 0,260 0,0 z"
         id="path38" /></clipPath></defs><g
     transform="matrix(1.25,0,0,-1.25,0,325)"
     id="g12"><g
       id="g14" /><g
       id="g16"><g
         clip-path="url(#clipPath20)"
         id="g18"><path
           d="M 0,260 284,260 284,0 0,0 0,260 z"
           id="path24"
           style="fill:#ffffff;fill-opacity:0;fill-rule:evenodd;stroke:none" /></g></g><g
       id="g26"><g
         clip-path="url(#clipPath30)"
         id="g28"><g
           clip-path="url(#clipPath36)"
           id="g34"><path
             d="m 97,140 63,0 0,-23 -63,0 0,23 z"
             id="path40"
             style="fill:#808080;fill-opacity:1;fill-rule:nonzero;stroke:none" /><path
             d="m 97,55 63,0 0,-23 -63,0 0,23 z"
             id="path42"
             style="fill:#808080;fill-opacity:1;fill-rule:nonzero;stroke:none" /><path
             d="m 0,230 97,0 0,-23 -97,0 0,23 z"
             id="path44"
             style="fill:#efefef;fill-opacity:1;fill-rule:nonzero;stroke:none" /><g
             transform="matrix(1,0,0,-1,0,260)"
             id="g46"><path
               d="m 0.5,30.5 282,0 0,22 -282,0 0,-22 z"
               id="path48"
               style="fill:none;stroke:#000000;stroke-width:1;stroke-linecap:butt;stroke-linejoin:miter;stroke-miterlimit:10;stroke-opacity:1;stroke-dasharray:none" /></g><path
             d="m 0,242 2,0 0,-1 -2,0 0,1 z"
             id="path50"
             style="fill:#dfdfdf;fill-opacity:1;fill-rule:nonzero;stroke:none" /><path
             d="m 0,242 11.87609,5.2876 c 1.49855,-3.3658 1.49855,-7.2094 0,-10.5752"
             id="path52"
             style="fill:#000000;fill-opacity:1;fill-rule:evenodd;stroke:none" /><path
             d="m 283,242 -11.8761,-5.2876 c -1.4985,3.3658 -1.4985,7.2094 0,10.5752"
             id="path54"
             style="fill:#000000;fill-opacity:1;fill-rule:evenodd;stroke:none" /><g
             transform="matrix(1,0,0,-1,0,260)"
             id="g56"><path
               d="m 6,18.5 272,0"
               id="path58"
               style="fill:none;stroke:#000000;stroke-width:1;stroke-linecap:butt;stroke-linejoin:miter;stroke-miterlimit:10;stroke-opacity:1;stroke-dasharray:none" /></g><path
             d="m 98,195 11.8761,5.2876 c 1.4985,-3.3658 1.4985,-7.2094 0,-10.5752"
             id="path60"
             style="fill:#000000;fill-opacity:1;fill-rule:evenodd;stroke:none" /><path
             d="m 281,195 -11.8761,-5.2876 c -1.4985,3.3658 -1.4985,7.2094 0,10.5752"
             id="path62"
             style="fill:#000000;fill-opacity:1;fill-rule:evenodd;stroke:none" /><g
             transform="matrix(1,0,0,-1,0,260)"
             id="g64"><path
               d="m 104,65.5 172,0"
               id="path66"
               style="fill:none;stroke:#000000;stroke-width:1;stroke-linecap:butt;stroke-linejoin:miter;stroke-miterlimit:10;stroke-opacity:1;stroke-dasharray:none" /></g><g
             transform="matrix(1,0,0,-1,0,260)"
             id="g68"><text
               transform="translate(37,12)"
               id="text70"><tspan
                 x="0 6.0009999 12.002 18.003 24.004"
                 y="0"
                 id="tspan72"
                 style="font-size:10px;font-variant:normal;font-weight:normal;writing-mode:lr-tb;fill:#000000;fill-opacity:1;fill-rule:nonzero;stroke:none;font-family:Courier New;-inkscape-font-specification:Courier">XPlus</tspan></text>
</g><g
             transform="matrix(1,0,0,-1,0,260)"
             id="g74"><text
               transform="translate(168,78)"
               id="text76"><tspan
                 x="0 6.0009999 12.002 18.003 24.004 30.004999"
                 y="0"
                 id="tspan78"
                 style="font-size:10px;font-variant:normal;font-weight:normal;writing-mode:lr-tb;fill:#000000;fill-opacity:1;fill-rule:nonzero;stroke:none;font-family:Courier New;-inkscape-font-specification:Courier">XMinus</tspan></text>
</g><path
             d="m 0,162 2,0 0,-1 -2,0 0,1 z"
             id="path80"
             style="fill:#dfdfdf;fill-opacity:1;fill-rule:nonzero;stroke:none" /><path
             d="m 97,152 11.8761,5.2876 c 1.4985,-3.3658 1.4985,-7.2094 0,-10.5752"
             id="path82"
             style="fill:#000000;fill-opacity:1;fill-rule:evenodd;stroke:none" /><path
             d="m 240,152 -11.8761,-5.2876 c -1.4985,3.3658 -1.4985,7.2094 0,10.5752"
             id="path84"
             style="fill:#000000;fill-opacity:1;fill-rule:evenodd;stroke:none" /><g
             transform="matrix(1,0,0,-1,0,260)"
             id="g86"><path
               d="m 103,108.5 132,0"
               id="path88"
               style="fill:none;stroke:#000000;stroke-width:1;stroke-linecap:butt;stroke-linejoin:miter;stroke-miterlimit:10;stroke-opacity:1;stroke-dasharray:none" /></g><path
             d="m 162,20 11.8761,5.28757 c 1.4985,-3.36578 1.4985,-7.20937 0,-10.57515"
             id="path90"
             style="fill:#000000;fill-opacity:1;fill-rule:evenodd;stroke:none" /><path
             d="m 243,20 -11.8761,-5.28758 c -1.4985,3.36578 -1.4985,7.20937 0,10.57515"
             id="path92"
             style="fill:#000000;fill-opacity:1;fill-rule:evenodd;stroke:none" /><g
             transform="matrix(1,0,0,-1,0,260)"
             id="g94"><path
               d="m 168,240.5 70,0"
               id="path96"
               style="fill:none;stroke:#000000;stroke-width:1;stroke-linecap:butt;stroke-linejoin:miter;stroke-miterlimit:10;stroke-opacity:1;stroke-dasharray:none" /></g><g
             transform="matrix(1,0,0,-1,0,260)"
             id="g98"><text
               transform="translate(169,102)"
               id="text100"><tspan
                 x="0 6.0009999 12.002 18.003 24.004"
                 y="0"
                 id="tspan102"
                 style="font-size:10px;font-variant:normal;font-weight:normal;writing-mode:lr-tb;fill:#000000;fill-opacity:1;fill-rule:nonzero;stroke:none;font-family:Courier New;-inkscape-font-specification:Courier">YPlus</tspan></text>
</g><g
             transform="matrix(1,0,0,-1,0,260)"
             id="g104"><text
               transform="translate(186,256)"
               id="text106"><tspan
                 x="0 6.0009999 12.002 18.003 24.004 30.004999"
                 y="0"
                 id="tspan108"
                 style="font-size:10px;font-variant:normal;font-weight:normal;writing-mode:lr-tb;fill:#000000;fill-opacity:1;fill-rule:nonzero;stroke:none;font-family:Courier New;-inkscape-font-specification:Courier">YMinus</tspan></text>
</g><path
             d="M 2,55 99,55 99,32 2,32 2,55 z"
             id="path110"
             style="fill:#efefef;fill-opacity:1;fill-rule:nonzero;stroke:none" /><path
             d="m 2,66.99999 2,0 0,-1 -2,0 0,1 z"
             id="path112"
             style="fill:#dfdfdf;fill-opacity:1;fill-rule:nonzero;stroke:none" /><path
             d="m 2,66.99999 11.87609,5.28758 c 1.49855,-3.36578 1.49855,-7.20938 0,-10.57516"
             id="path114"
             style="fill:#000000;fill-opacity:1;fill-rule:evenodd;stroke:none" /><path
             d="m 242,66.99999 -11.8761,-5.28758 c -1.4985,3.36578 -1.4985,7.20938 0,10.57516"
             id="path116"
             style="fill:#000000;fill-opacity:1;fill-rule:evenodd;stroke:none" /><g
             transform="matrix(1,0,0,-1,0,260)"
             id="g118"><path
               d="m 8,193.5 229,0"
               id="path120"
               style="fill:none;stroke:#000000;stroke-width:1;stroke-linecap:butt;stroke-linejoin:miter;stroke-miterlimit:10;stroke-opacity:1;stroke-dasharray:none" /></g><g
             transform="matrix(1,0,0,-1,0,260)"
             id="g122"><text
               transform="translate(39,187)"
               id="text124"><tspan
                 x="0 6.0009999 12.002 18.003 24.004"
                 y="0"
                 id="tspan126"
                 style="font-size:10px;font-variant:normal;font-weight:normal;writing-mode:lr-tb;fill:#000000;fill-opacity:1;fill-rule:nonzero;stroke:none;font-family:Courier New;-inkscape-font-specification:Courier">XPlus</tspan></text>
</g><path
             d="m 160,105 11.8761,5.2876 c 1.4985,-3.3658 1.4985,-7.2094 0,-10.57519"
             id="path128"
             style="fill:#000000;fill-opacity:1;fill-rule:evenodd;stroke:none" /><path
             d="m 241,105 -11.8761,-5.28759 c -1.4985,3.36579 -1.4985,7.20939 0,10.57519"
             id="path130"
             style="fill:#000000;fill-opacity:1;fill-rule:evenodd;stroke:none" /><g
             transform="matrix(1,0,0,-1,0,260)"
             id="g132"><path
               d="m 166,155.5 70,0"
               id="path134"
               style="fill:none;stroke:#000000;stroke-width:1;stroke-linecap:butt;stroke-linejoin:miter;stroke-miterlimit:10;stroke-opacity:1;stroke-dasharray:none" /></g><g
             transform="matrix(1,0,0,-1,0,260)"
             id="g136"><text
               transform="translate(184,171)"
               id="text138"><tspan
                 x="0 6.0009999 12.002 18.003 24.004 30.004999"
                 y="0"
                 id="tspan140"
                 style="font-size:10px;font-variant:normal;font-weight:normal;writing-mode:lr-tb;fill:#000000;fill-opacity:1;fill-rule:nonzero;stroke:none;font-family:Courier New;-inkscape-font-specification:Courier">YMinus</tspan></text>
</g><g
             transform="matrix(1,0,0,-1,0,260)"
             id="g142"><path
               d="m 2.5,205.5 239,0 0,22 -239,0 0,-22 z"
               id="path144"
               style="fill:none;stroke:#000000;stroke-width:1;stroke-linecap:butt;stroke-linejoin:miter;stroke-miterlimit:10;stroke-opacity:1;stroke-dasharray:none" /></g><g
             transform="matrix(1,0,0,-1,0,260)"
             id="g146"><path
               d="m 97.5,120.5 143,0 0,22 -143,0 0,-22 z"
               id="path148"
               style="fill:none;stroke:#000000;stroke-width:1;stroke-linecap:butt;stroke-linejoin:miter;stroke-miterlimit:10;stroke-opacity:1;stroke-dasharray:none" /></g></g></g></g></g></svg>