<?xml version="1.0" encoding="UTF-8" standalone="no"?>
<!-- Created with Inkscape (http://www.inkscape.org/) -->

<svg
   xmlns:svg="http://www.w3.org/2000/svg"
   xmlns="http://www.w3.org/2000/svg"
   version="1.1"
   width="247.5"
   height="365"
   id="svg2"
   xml:space="preserve"><defs
     id="defs6"><clipPath
       id="clipPath20"><path
         d="M 0,0 198,0 198,292 0,292 0,0 z"
         id="path22" /></clipPath><clipPath
       id="clipPath30"><path
         d="m 0,292 198,0 0,-292.000004308647 -198,0 L 0,292 z"
         id="path32" /></clipPath><clipPath
       id="clipPath36"><path
         d="M 0,0 198,0 198,292 0,292 0,0 z"
         id="path38" /></clipPath></defs><g
     transform="matrix(1.25,0,0,-1.25,0,365)"
     id="g12"><g
       id="g14" /><g
       id="g16"><g
         clip-path="url(#clipPath20)"
         id="g18"><path
           d="M 0,292 198,292 198,0 0,0 0,292 z"
           id="path24"
           style="fill:#ffffff;fill-opacity:0;fill-rule:evenodd;stroke:none" /></g></g><g
       id="g26"><g
         clip-path="url(#clipPath30)"
         id="g28"><g
           clip-path="url(#clipPath36)"
           id="g34"><path
             d="m 86,131 81,0 0,-130.0000043 -81,0 L 86,131 z"
             id="path40"
             style="fill:#efefef;fill-opacity:1;fill-rule:nonzero;stroke:none" /><g
             transform="matrix(1,0,0,-1,0,292)"
             id="g42"><path
               d="m 86.5,161.5 80,0 0,129 -80,0 0,-129 z"
               id="path44"
               style="fill:none;stroke:#ffffff;stroke-width:1;stroke-linecap:butt;stroke-linejoin:miter;stroke-miterlimit:10;stroke-opacity:1;stroke-dasharray:none" /></g><g
             transform="matrix(1,0,0,-1,0,292)"
             id="g46"><text
               transform="translate(147,116)"
               id="text48"><tspan
                 x="0 6.0009999 12.002 18.003 24.004 30.004999 36.006001 42.007"
                 y="0"
                 id="tspan50"
                 style="font-size:10px;font-variant:normal;font-weight:normal;writing-mode:lr-tb;fill:#000000;fill-opacity:1;fill-rule:nonzero;stroke:none;font-family:Courier New;-inkscape-font-specification:Courier">:-r(X,Y)</tspan></text>
</g><g
             transform="matrix(1,0,0,-1,0,292)"
             id="g52"><text
               transform="translate(103,78)"
               id="text54"><tspan
                 x="0 6.0009999 12.002 18.003 24.004 30.004999 36.006001 42.007"
                 y="0"
                 id="tspan56"
                 style="font-size:10px;font-variant:normal;font-weight:normal;writing-mode:lr-tb;fill:#000000;fill-opacity:1;fill-rule:nonzero;stroke:none;font-family:Courier New;-inkscape-font-specification:Courier">?-p(X,Y)</tspan></text>
</g><path
             d="m 98,210 0.25,0 0,-0.25 -20,-22 -0.25,0 0,0.25"
             id="path58"
             style="fill:#000000;fill-opacity:1;fill-rule:nonzero;stroke:none" /><path
             d="m 152,210 0.25,0 20,-22 0,-0.25 -0.25,0 -20,22"
             id="path60"
             style="fill:#000000;fill-opacity:1;fill-rule:nonzero;stroke:none" /><g
             transform="matrix(1,0,0,-1,0,292)"
             id="g62"><text
               transform="translate(53,115)"
               id="text64"><tspan
                 x="0 6.0009999 12.002 18.003 24.004 30.004999 36.006001 42.007"
                 y="0"
                 id="tspan66"
                 style="font-size:10px;font-variant:normal;font-weight:normal;writing-mode:lr-tb;fill:#000000;fill-opacity:1;fill-rule:nonzero;stroke:none;font-family:Courier New;-inkscape-font-specification:Courier">:-q(X,Y)</tspan></text>
</g><g
             transform="matrix(1,0,0,-1,0,292)"
             id="g68"><path
               d="m 77.125,121 0,23.25"
               id="path70"
               style="fill:none;stroke:#000000;stroke-width:0.25;stroke-linecap:butt;stroke-linejoin:miter;stroke-miterlimit:10;stroke-opacity:1;stroke-dasharray:none" /></g><g
             transform="matrix(1,0,0,-1,0,292)"
             id="g72"><text
               transform="translate(38,156)"
               id="text74"><tspan
                 x="0 6.0009999 12.002 18.003 24.004 30.004999 36.006001 42.007 48.007999 54.008999 60.009998 66.011002 72.012001"
                 y="0"
                 id="tspan76"
                 style="font-size:10px;font-variant:normal;font-weight:normal;writing-mode:lr-tb;fill:#000000;fill-opacity:1;fill-rule:nonzero;stroke:none;font-family:Courier New;-inkscape-font-specification:Courier">:-s(X),!,t(Y)</tspan></text>
</g><g
             transform="matrix(1,0,0,-1,0,292)"
             id="g78"><text
               transform="translate(171,157)"
               id="text80"><tspan
                 x="-3.5"
                 y="0.75"
                 id="tspan82"
                 style="font-size:20px;font-variant:normal;font-weight:normal;writing-mode:lr-tb;fill:#000000;fill-opacity:1;fill-rule:nonzero;stroke:none;font-family:Geneva;-inkscape-font-specification:Geneva">&#x25A1;</tspan></text>
</g><g
             transform="matrix(1,0,0,-1,0,292)"
             id="g84"><path
               d="m 173.125,121 0,23.25"
               id="path86"
               style="fill:none;stroke:#000000;stroke-width:0.25;stroke-linecap:butt;stroke-linejoin:miter;stroke-miterlimit:10;stroke-opacity:1;stroke-dasharray:none" /></g><path
             d="m 49,128 0.25,0 0,-0.25 -20,-22 -0.25,0 0,0.25"
             id="path88"
             style="fill:#000000;fill-opacity:1;fill-rule:nonzero;stroke:none" /><path
             d="m 103,128 0.25,0 20,-22 0,-0.25 -0.25,0 -20,22"
             id="path90"
             style="fill:#000000;fill-opacity:1;fill-rule:nonzero;stroke:none" /><g
             transform="matrix(1,0,0,-1,0,292)"
             id="g92"><text
               transform="translate(7,198)"
               id="text94"><tspan
                 x="0 6.0009999 12.002 18.003 24.004 30.004999 36.006001 42.007"
                 y="0"
                 id="tspan96"
                 style="font-size:10px;font-variant:normal;font-weight:normal;writing-mode:lr-tb;fill:#000000;fill-opacity:1;fill-rule:nonzero;stroke:none;font-family:Courier New;-inkscape-font-specification:Courier">:-!,t(Y)</tspan></text>
</g><g
             transform="matrix(1,0,0,-1,0,292)"
             id="g98"><text
               transform="translate(14,241)"
               id="text100"><tspan
                 x="0 6.0009999 12.002 18.003 24.004 30.004999"
                 y="0"
                 id="tspan102"
                 style="font-size:10px;font-variant:normal;font-weight:normal;writing-mode:lr-tb;fill:#000000;fill-opacity:1;fill-rule:nonzero;stroke:none;font-family:Courier New;-inkscape-font-specification:Courier">:-t(Y)</tspan></text>
</g><g
             transform="matrix(1,0,0,-1,0,292)"
             id="g104"><path
               d="m 31.125,205 0,23.25"
               id="path106"
               style="fill:none;stroke:#000000;stroke-width:0.25;stroke-linecap:butt;stroke-linejoin:miter;stroke-miterlimit:10;stroke-opacity:1;stroke-dasharray:none" /></g><path
             d="m 25,45 0.25,0 0,-0.25 -20,-22 -0.25,0 0,0.25"
             id="path108"
             style="fill:#000000;fill-opacity:1;fill-rule:nonzero;stroke:none" /><path
             d="m 39,45 0.25,0 20,-22 0,-0.25 -0.25,0 -20,22"
             id="path110"
             style="fill:#000000;fill-opacity:1;fill-rule:nonzero;stroke:none" /><g
             transform="matrix(1,0,0,-1,0,292)"
             id="g112"><text
               transform="translate(2,282)"
               id="text114"><tspan
                 x="-3.5"
                 y="0.75"
                 id="tspan116"
                 style="font-size:20px;font-variant:normal;font-weight:normal;writing-mode:lr-tb;fill:#000000;fill-opacity:1;fill-rule:nonzero;stroke:none;font-family:Geneva;-inkscape-font-specification:Geneva">&#x25A1;</tspan></text>
</g><g
             transform="matrix(1,0,0,-1,0,292)"
             id="g118"><text
               transform="translate(56,282)"
               id="text120"><tspan
                 x="-2.5"
                 y="0.75"
                 id="tspan122"
                 style="font-size:20px;font-variant:normal;font-weight:normal;writing-mode:lr-tb;fill:#000000;fill-opacity:1;fill-rule:nonzero;stroke:none;font-family:Geneva;-inkscape-font-specification:Geneva">&#x25A1;</tspan></text>
</g><g
             transform="matrix(1,0,0,-1,0,292)"
             id="g124"><text
               transform="translate(100,198)"
               id="text126"><tspan
                 x="0 6.0009999 12.002 18.003 24.004 30.004999 36.006001 42.007"
                 y="0"
                 id="tspan128"
                 style="font-size:10px;font-variant:normal;font-weight:normal;writing-mode:lr-tb;fill:#000000;fill-opacity:1;fill-rule:nonzero;stroke:none;font-family:Courier New;-inkscape-font-specification:Courier">:-!,t(Y)</tspan></text>
</g><g
             transform="matrix(1,0,0,-1,0,292)"
             id="g130"><text
               transform="translate(107,241)"
               id="text132"><tspan
                 x="0 6.0009999 12.002 18.003 24.004 30.004999"
                 y="0"
                 id="tspan134"
                 style="font-size:10px;font-variant:normal;font-weight:normal;writing-mode:lr-tb;fill:#000000;fill-opacity:1;fill-rule:nonzero;stroke:none;font-family:Courier New;-inkscape-font-specification:Courier">:-t(Y)</tspan></text>
</g><g
             transform="matrix(1,0,0,-1,0,292)"
             id="g136"><path
               d="m 124.125,205 0,23.25"
               id="path138"
               style="fill:none;stroke:#000000;stroke-width:0.25;stroke-linecap:butt;stroke-linejoin:miter;stroke-miterlimit:10;stroke-opacity:1;stroke-dasharray:none" /></g><path
             d="m 118,45 0.25,0 0,-0.25 -20,-22 -0.25,0 0,0.25"
             id="path140"
             style="fill:#000000;fill-opacity:1;fill-rule:nonzero;stroke:none" /><path
             d="m 132,45 0.25,0 20,-22 0,-0.25 -0.25,0 -20,22"
             id="path142"
             style="fill:#000000;fill-opacity:1;fill-rule:nonzero;stroke:none" /><g
             transform="matrix(1,0,0,-1,0,292)"
             id="g144"><text
               transform="translate(95,282)"
               id="text146"><tspan
                 x="-3.5"
                 y="0.75"
                 id="tspan148"
                 style="font-size:20px;font-variant:normal;font-weight:normal;writing-mode:lr-tb;fill:#000000;fill-opacity:1;fill-rule:nonzero;stroke:none;font-family:Geneva;-inkscape-font-specification:Geneva">&#x25A1;</tspan></text>
</g><g
             transform="matrix(1,0,0,-1,0,292)"
             id="g150"><text
               transform="translate(149,282)"
               id="text152"><tspan
                 x="-2.5"
                 y="0.75"
                 id="tspan154"
                 style="font-size:20px;font-variant:normal;font-weight:normal;writing-mode:lr-tb;fill:#000000;fill-opacity:1;fill-rule:nonzero;stroke:none;font-family:Geneva;-inkscape-font-specification:Geneva">&#x25A1;</tspan></text>
</g><g
             transform="matrix(1,0,0,-1,0,292)"
             id="g156"><text
               transform="translate(11,12)"
               id="text158"><tspan
                 x="0 6.0009999 12.002 18.003 24.004 30.004999 36.006001 42.007 48.007999 54.008999 60.009998 66.011002 72.012001 78.013 84.014"
                 y="0"
                 id="tspan160"
                 style="font-size:10px;font-variant:normal;font-weight:normal;writing-mode:lr-tb;fill:#000000;fill-opacity:1;fill-rule:nonzero;stroke:none;font-family:Courier New;-inkscape-font-specification:Courier">p(X,Y):-q(X,Y).</tspan></text>
</g><g
             transform="matrix(1,0,0,-1,0,292)"
             id="g162"><text
               transform="translate(11,24)"
               id="text164"><tspan
                 x="0 6.0009999 12.002 18.003 24.004 30.004999 36.006001 42.007 48.007999 54.008999 60.009998 66.011002 72.012001 78.013 84.014"
                 y="0"
                 id="tspan166"
                 style="font-size:10px;font-variant:normal;font-weight:normal;writing-mode:lr-tb;fill:#000000;fill-opacity:1;fill-rule:nonzero;stroke:none;font-family:Courier New;-inkscape-font-specification:Courier">p(X,Y):-r(X,Y).</tspan></text>
</g><g
             transform="matrix(1,0,0,-1,0,292)"
             id="g168"><text
               transform="translate(11,48)"
               id="text170"><tspan
                 x="0 6.0009999 12.002 18.003 24.004 30.004999 36.006001 42.007 48.007999 54.008999 60.009998 66.011002 72.012001 78.013 84.014 90.014999 96.015999 102.017 108.018 114.019"
                 y="0"
                 id="tspan172"
                 style="font-size:10px;font-variant:normal;font-weight:normal;writing-mode:lr-tb;fill:#000000;fill-opacity:1;fill-rule:nonzero;stroke:none;font-family:Courier New;-inkscape-font-specification:Courier">q(X,Y):-s(X),!,t(X).</tspan></text>
</g></g></g></g></g></svg>
