<?xml version="1.0" encoding="UTF-8" standalone="no"?>
<!-- Created with Inkscape (http://www.inkscape.org/) -->

<svg
   xmlns:svg="http://www.w3.org/2000/svg"
   xmlns="http://www.w3.org/2000/svg"
   version="1.1"
   width="335"
   height="175"
   id="svg2"
   xml:space="preserve"><defs
     id="defs6"><clipPath
       id="clipPath20"><path
         d="M 0,0 268,0 268,140 0,140 0,0 z"
         id="path22" /></clipPath><clipPath
       id="clipPath30"><path
         d="m 0,140 268,0 0,-140.00000206579 -268,0 L 0,140 z"
         id="path32" /></clipPath><clipPath
       id="clipPath36"><path
         d="M 0,0 268,0 268,140 0,140 0,0 z"
         id="path38" /></clipPath></defs><g
     transform="matrix(1.25,0,0,-1.25,0,175)"
     id="g12"><g
       id="g14" /><g
       id="g16"><g
         clip-path="url(#clipPath20)"
         id="g18"><path
           d="M 0,140 268,140 268,0 0,0 0,140 z"
           id="path24"
           style="fill:#ffffff;fill-opacity:0;fill-rule:evenodd;stroke:none" /></g></g><g
       id="g26"><g
         clip-path="url(#clipPath30)"
         id="g28"><g
           clip-path="url(#clipPath36)"
           id="g34"><g
             transform="matrix(1,0,0,-1,0,140)"
             id="g40"><text
               transform="translate(101,10)"
               id="text42"><tspan
                 x="0 6.0009999 12.002 18.003 24.004"
                 y="0"
                 id="tspan44"
                 style="font-size:10px;font-variant:normal;font-weight:normal;writing-mode:lr-tb;fill:#000000;fill-opacity:1;fill-rule:nonzero;stroke:none;font-family:Courier New;-inkscape-font-specification:Courier">route</tspan></text>
</g><g
             transform="matrix(1,0,0,-1,0,140)"
             id="g46"><text
               transform="translate(2,73)"
               id="text48"><tspan
                 x="0 6.0009999 12.002 18.003 24.004 30.004999 36.006001 42.007 48.007999 54.008999 60.009998 66.011002 72.012001 78.013 84.014 90.014999 96.015999 102.017 108.018 114.019"
                 y="0"
                 id="tspan50"
                 style="font-size:10px;font-variant:normal;font-weight:normal;writing-mode:lr-tb;fill:#000000;fill-opacity:1;fill-rule:nonzero;stroke:none;font-family:Courier New;-inkscape-font-specification:Courier">tottenham_court_road</tspan></text>
</g><g
             transform="matrix(1,0,0,-1,0,140)"
             id="g52"><text
               transform="translate(77,136)"
               id="text54"><tspan
                 x="0 6.0009999 12.002 18.003 24.004 30.004999 36.006001 42.007 48.007999 54.008999 60.009998 66.011002 72.012001 78.013 84.014 90.014999"
                 y="0"
                 id="tspan56"
                 style="font-size:10px;font-variant:normal;font-weight:normal;writing-mode:lr-tb;fill:#000000;fill-opacity:1;fill-rule:nonzero;stroke:none;font-family:Courier New;-inkscape-font-specification:Courier">leicester_square</tspan></text>
</g><g
             transform="matrix(1,0,0,-1,0,140)"
             id="g58"><text
               transform="translate(164,73)"
               id="text60"><tspan
                 x="0 6.0009999 12.002 18.003 24.004"
                 y="0"
                 id="tspan62"
                 style="font-size:10px;font-variant:normal;font-weight:normal;writing-mode:lr-tb;fill:#000000;fill-opacity:1;fill-rule:nonzero;stroke:none;font-family:Courier New;-inkscape-font-specification:Courier">route</tspan></text>
</g><g
             transform="matrix(1,0,0,-1,0,140)"
             id="g64"><text
               transform="translate(221,136)"
               id="text66"><tspan
                 x="0 6.0009999 12.002 18.003 24.004 30.004999 36.006001"
                 y="0"
                 id="tspan68"
                 style="font-size:10px;font-variant:normal;font-weight:normal;writing-mode:lr-tb;fill:#000000;fill-opacity:1;fill-rule:nonzero;stroke:none;font-family:Courier New;-inkscape-font-specification:Courier">noroute</tspan></text>
</g><path
             d="m 125,124 0.25,0 45,-45 0,-0.25 -0.25,0 -45,45"
             id="path70"
             style="fill:#000000;fill-opacity:1;fill-rule:nonzero;stroke:none" /><path
             d="m 116,124 0.25,0 0,-0.25 -45,-45 -0.25,0 0,0.25"
             id="path72"
             style="fill:#000000;fill-opacity:1;fill-rule:nonzero;stroke:none" /><path
             d="m 188,61 0.25,0 45,-45 0,-0.25 -0.25,0 -45,45"
             id="path74"
             style="fill:#000000;fill-opacity:1;fill-rule:nonzero;stroke:none" /><path
             d="m 179,61 0.25,0 0,-0.25 -45,-45 -0.25,0 0,0.25"
             id="path76"
             style="fill:#000000;fill-opacity:1;fill-rule:nonzero;stroke:none" /></g></g></g></g></svg>